<?xml version="1.0" encoding="utf-8"?>
<!-- Generator: Adobe Illustrator 16.0.3, SVG Export Plug-In . SVG Version: 6.00 Build 0)  -->
<!DOCTYPE svg PUBLIC "-//W3C//DTD SVG 1.1//EN" "http://www.w3.org/Graphics/SVG/1.1/DTD/svg11.dtd">
<svg version="1.1" id="Layer_1" xmlns="http://www.w3.org/2000/svg" xmlns:xlink="http://www.w3.org/1999/xlink" x="0px" y="0px"
	 width="115.703px" height="18px" viewBox="0 0 115.703 18" enable-background="new 0 0 115.703 18" xml:space="preserve">
<g>
	<path fill-rule="evenodd" clip-rule="evenodd" fill="#FFCD2E" d="M9,0c4.971,0,9,4.029,9,9c0,4.97-4.029,9-9,9S0,13.97,0,9
		C0,4.029,4.029,0,9,0 M106.703,0c4.971,0,9,4.029,9,9c0,4.97-4.029,9-9,9s-9-4.029-9-9C97.703,4.029,101.732,0,106.703,0z
		 M57.852,0c4.971,0,9,4.029,9,9c0,4.97-4.029,9-9,9s-9-4.029-9-9C48.852,4.029,52.881,0,57.852,0z"/>
</g>
</svg>
