<?xml version="1.0" encoding="utf-8"?>
<!-- Generator: Adobe Illustrator 16.0.3, SVG Export Plug-In . SVG Version: 6.00 Build 0)  -->
<!DOCTYPE svg PUBLIC "-//W3C//DTD SVG 1.1//EN" "http://www.w3.org/Graphics/SVG/1.1/DTD/svg11.dtd">
<svg version="1.1" id="Layer_3" xmlns="http://www.w3.org/2000/svg" xmlns:xlink="http://www.w3.org/1999/xlink" x="0px" y="0px"
	 width="230.129px" height="230.129px" viewBox="0 0 230.129 230.129" enable-background="new 0 0 230.129 230.129"
	 xml:space="preserve">
<circle fill="#FFFFFF" cx="61.045" cy="115.064" r="25.134"/>
<rect x="61.045" y="90.046" fill="#FFCD2E" width="34.638" height="50.036"/>
<polygon fill="#FFFFFF" points="95.683,90.046 95.683,90.583 95.683,139.546 95.683,140.083 122.817,153.496 126.453,155.293 
	129.352,156.727 144.232,164.083 144.232,139.546 144.232,94.815 144.232,90.583 144.232,81.815 144.232,66.046 "/>
<line fill="none" stroke="#000000" stroke-width="8" stroke-linecap="square" stroke-miterlimit="10" x1="162.898" y1="115.064" x2="192.898" y2="115.064"/>
<g>
	
		<line fill="none" stroke="#000000" stroke-width="8" stroke-linecap="square" stroke-miterlimit="10" x1="162.898" y1="96.437" x2="185.384" y2="73.952"/>
	
		<line fill="none" stroke="#000000" stroke-width="8" stroke-linecap="square" stroke-miterlimit="10" x1="162.898" y1="133.691" x2="185.384" y2="156.177"/>
</g>
<line fill="none" stroke="#000000" stroke-width="8" stroke-miterlimit="10" x1="61.045" y1="90.046" x2="61.045" y2="140.083"/>
<line fill="none" stroke="#000000" stroke-width="8" stroke-miterlimit="10" x1="95.683" y1="90.046" x2="95.683" y2="140.083"/>
<path fill="none" stroke="#000000" stroke-width="8" stroke-miterlimit="10" d="M144.232,84.065V66.046l-48.549,24H63.437
	c-0.788-0.074-1.584-0.116-2.392-0.116c-13.881,0-25.134,11.253-25.134,25.134s11.253,25.134,25.134,25.134
	c0.803,0,1.595-0.042,2.379-0.115h32.259l28.915,14.294"/>
<line fill="none" stroke="#000000" stroke-width="8" stroke-miterlimit="10" x1="144.232" y1="105.481" x2="144.232" y2="95.565"/>
<polyline fill="none" stroke="#000000" stroke-width="8" stroke-miterlimit="10" points="132.067,158.069 144.232,164.083 
	144.232,139.546 144.232,112.065 "/>
<path fill="#FFFFFF" stroke="#000000" stroke-width="8" stroke-miterlimit="10" d="M69.705,164.084v-32.88
	c0-4.779-3.88-8.659-8.66-8.659s-8.66,3.88-8.66,8.659v32.88"/>
</svg>
