<?xml version="1.0" encoding="utf-8"?>
<!-- Generator: Adobe Illustrator 16.0.3, SVG Export Plug-In . SVG Version: 6.00 Build 0)  -->
<!DOCTYPE svg PUBLIC "-//W3C//DTD SVG 1.1//EN" "http://www.w3.org/Graphics/SVG/1.1/DTD/svg11.dtd">
<svg version="1.1" id="Layer_1" xmlns="http://www.w3.org/2000/svg" xmlns:xlink="http://www.w3.org/1999/xlink" x="0px" y="0px"
	 width="150px" height="150px" viewBox="0 0 150 150" enable-background="new 0 0 150 150" xml:space="preserve">
<path fill-rule="evenodd" clip-rule="evenodd" fill="#FFFFFF" d="M110.875,60.279l16.203-14.76l2.994,3.287l-16.203,14.761
	L110.875,60.279z M116.479,72.526h21.918v4.446h-21.918V72.526z M110.875,89.721l16.203,14.76l2.994-3.287l-16.203-14.762
	L110.875,89.721z M56.439,54.909l-19.493-0.354c-0.22-0.007-0.44-0.012-0.662-0.012c-11.175,0-20.234,9.06-20.234,20.234
	c0,7.535,4.119,14.107,10.229,17.59V80.162c0-6.66,5.433-12.093,12.093-12.093s12.093,5.433,12.093,12.093v14.85h5.975V54.909z
	 M102.102,34.309L60.887,54.916v40.168l41.215,20.607V34.309z M30.726,108.203h15.292V80.162c0-4.207-3.44-7.646-7.646-7.646h0
	c-4.206,0-7.646,3.438-7.646,7.646V108.203z M59.694,99.459h-9.229v13.191H26.279V97.486l-2.203-1.256
	c-7.705-4.393-12.473-12.559-12.473-21.453c0-13.629,11.052-24.682,24.681-24.682c0.269,0,0.538,0.006,0.743,0.014l22.704,0.412
	l46.817-23.408v95.773L59.694,99.459z"/>
</svg>
