<?xml version="1.0" encoding="utf-8"?>
<!-- Generator: Adobe Illustrator 16.0.3, SVG Export Plug-In . SVG Version: 6.00 Build 0)  -->
<!DOCTYPE svg PUBLIC "-//W3C//DTD SVG 1.1//EN" "http://www.w3.org/Graphics/SVG/1.1/DTD/svg11.dtd">
<svg version="1.1" id="Layer_3" xmlns="http://www.w3.org/2000/svg" xmlns:xlink="http://www.w3.org/1999/xlink" x="0px" y="0px"
	 width="230.129px" height="230.129px" viewBox="0 0 230.129 230.129" enable-background="new 0 0 230.129 230.129"
	 xml:space="preserve">
<g>
	<circle fill="#FFFFFF" cx="61.705" cy="115.063" r="25.134"/>
	<rect x="61.705" y="90.045" fill="#FFCD2E" width="34.638" height="50.036"/>
	<polygon fill="#FFFFFF" points="96.343,90.045 96.343,90.582 96.343,139.545 96.343,140.082 123.477,153.495 127.113,155.292 
		130.012,156.726 144.892,164.082 144.892,139.545 144.892,94.815 144.892,90.582 144.892,81.815 144.892,66.045 	"/>
	
		<line fill="none" stroke="#000000" stroke-width="8" stroke-linecap="square" stroke-miterlimit="10" x1="163.558" y1="115.063" x2="193.558" y2="115.063"/>
	<g>
		
			<line fill="none" stroke="#000000" stroke-width="8" stroke-linecap="square" stroke-miterlimit="10" x1="163.558" y1="96.436" x2="186.044" y2="73.951"/>
		
			<line fill="none" stroke="#000000" stroke-width="8" stroke-linecap="square" stroke-miterlimit="10" x1="163.558" y1="133.69" x2="186.044" y2="156.176"/>
	</g>
	<line fill="none" stroke="#000000" stroke-width="8" stroke-miterlimit="10" x1="61.705" y1="90.045" x2="61.705" y2="140.082"/>
	<line fill="none" stroke="#000000" stroke-width="8" stroke-miterlimit="10" x1="96.343" y1="90.045" x2="96.343" y2="140.082"/>
	<polyline fill="none" stroke="#000000" stroke-width="8" stroke-miterlimit="10" points="78.732,140.082 96.343,140.082 
		125.258,154.375 	"/>
	<path fill="none" stroke="#000000" stroke-width="8" stroke-miterlimit="10" d="M144.892,84.064V66.045l-48.549,24H64.097
		c-0.788-0.074-1.584-0.116-2.392-0.116c-13.881,0-25.134,11.253-25.134,25.134s11.253,25.134,25.134,25.134
		c0.803,0,1.595-0.042,2.379-0.115h8.398"/>
	<line fill="none" stroke="#000000" stroke-width="8" stroke-miterlimit="10" x1="144.892" y1="112.064" x2="144.892" y2="98.815"/>
	<polyline fill="none" stroke="#000000" stroke-width="8" stroke-miterlimit="10" points="125.258,154.375 144.892,164.082 
		144.892,139.545 144.892,112.064 	"/>
	<path fill="#FFFFFF" stroke="#000000" stroke-width="8" stroke-miterlimit="10" d="M70.365,164.083v-32.88
		c0-4.779-3.88-8.659-8.66-8.659s-8.66,3.88-8.66,8.659v32.88"/>
</g>
</svg>
