<?xml version="1.0" encoding="utf-8"?>
<!-- Generator: Adobe Illustrator 16.0.3, SVG Export Plug-In . SVG Version: 6.00 Build 0)  -->
<!DOCTYPE svg PUBLIC "-//W3C//DTD SVG 1.1//EN" "http://www.w3.org/Graphics/SVG/1.1/DTD/svg11.dtd">
<svg version="1.1" id="Layer_1" xmlns="http://www.w3.org/2000/svg" xmlns:xlink="http://www.w3.org/1999/xlink" x="0px" y="0px"
	 width="136.063px" height="136.063px" viewBox="0 0 136.063 136.063" enable-background="new 0 0 136.063 136.063"
	 xml:space="preserve">
<path fill-rule="evenodd" clip-rule="evenodd" fill="#414141" d="M97.891,58.101l10.931-9.957l2.021,2.218l-10.931,9.957
	L97.891,58.101z M101.671,66.362h14.786v3h-14.786V66.362z M97.891,77.961l10.931,9.958l2.021-2.218l-10.931-9.958L97.891,77.961z
	 M63.364,84.532h-6.226v8.899H40.823V83.202l-1.486-0.848c-5.198-2.963-8.415-8.472-8.415-14.473c0-9.194,7.456-16.65,16.65-16.65
	c0.181,0,0.362,0.004,0.501,0.009l15.316,0.278l31.583-15.792v64.608L63.364,84.532z"/>
<path fill-rule="evenodd" clip-rule="evenodd" fill="#FFCD2E" d="M61.169,54.479l-13.15-0.239c-0.148-0.004-0.297-0.008-0.446-0.008
	c-7.539,0-13.65,6.111-13.65,13.65c0,5.083,2.779,9.517,6.9,11.866v-8.233c0-4.493,3.665-8.158,8.158-8.158
	c4.493,0,8.158,3.665,8.158,8.158v10.018h4.03V54.479z"/>
<path fill-rule="evenodd" clip-rule="evenodd" fill="#FFFFFF" d="M43.822,90.431h10.316V71.514c0-2.838-2.321-5.158-5.158-5.158l0,0
	c-2.837,0-5.158,2.32-5.158,5.158V90.431z"/>
<polygon fill-rule="evenodd" clip-rule="evenodd" fill="#FFFFFF" points="91.973,40.582 64.169,54.483 64.169,81.58 91.973,95.482 
	"/>
</svg>
