<?xml version="1.0" encoding="utf-8"?>
<!-- Generator: Adobe Illustrator 18.1.1, SVG Export Plug-In . SVG Version: 6.00 Build 0)  -->
<svg version="1.1" id="Layer_1" xmlns="http://www.w3.org/2000/svg" xmlns:xlink="http://www.w3.org/1999/xlink" x="0px" y="0px"
	 viewBox="0 0 62 62" enable-background="new 0 0 62 62" xml:space="preserve">
<path fill-rule="evenodd" clip-rule="evenodd" fill="#FFFFFF" d="M43.3,26.6l6-5.5l1.1,1.2l-6,5.5L43.3,26.6z M45.3,31.1h8.1v1.6
	h-8.1V31.1z M43.3,37.4l6,5.5l1.1-1.2l-6-5.5L43.3,37.4z M23.1,24.6l-7.2-0.1c-0.1,0-0.2,0-0.2,0c-4.1,0-7.5,3.3-7.5,7.5
	c0,2.8,1.5,5.2,3.8,6.5v-4.5c0-2.5,2-4.5,4.5-4.5c2.5,0,4.5,2,4.5,4.5v5.5h2.2V24.6z M40,17l-15.2,7.6v14.8L40,47V17z M13.6,44.3
	h5.7V33.9c0-1.6-1.3-2.8-2.8-2.8c-1.6,0-2.8,1.3-2.8,2.8V44.3z M24.3,41h-3.4v4.9H12v-5.6l-0.8-0.5c-2.8-1.6-4.6-4.6-4.6-7.9
	c0-5,4.1-9.1,9.1-9.1c0.1,0,0.2,0,0.3,0l8.4,0.2l17.3-8.7v35.4L24.3,41z"/>
</svg>
