<?xml version="1.0" encoding="utf-8"?>
<!-- Generator: Adobe Illustrator 16.0.3, SVG Export Plug-In . SVG Version: 6.00 Build 0)  -->
<!DOCTYPE svg PUBLIC "-//W3C//DTD SVG 1.1//EN" "http://www.w3.org/Graphics/SVG/1.1/DTD/svg11.dtd">
<svg version="1.1" id="Layer_3" xmlns="http://www.w3.org/2000/svg" xmlns:xlink="http://www.w3.org/1999/xlink" x="0px" y="0px"
	 width="230.129px" height="230.129px" viewBox="0 0 230.129 230.129" enable-background="new 0 0 230.129 230.129"
	 xml:space="preserve">
<polygon fill="#FFFFFF" points="98.296,121.655 98.296,166.473 141.781,187.969 141.781,100.159 "/>
<circle fill="#FFFFFF" cx="67.271" cy="144.064" r="22.512"/>
<rect x="67.271" y="121.655" fill="#FFCD2E" width="31.025" height="44.816"/>
<line fill="none" stroke="#313131" stroke-width="8" stroke-miterlimit="10" x1="158.5" y1="144.063" x2="185.371" y2="144.063"/>
<g>
	<line fill="none" stroke="#313131" stroke-width="8" stroke-miterlimit="10" x1="158.5" y1="127.379" x2="178.641" y2="107.24"/>
	<line fill="none" stroke="#313131" stroke-width="8" stroke-miterlimit="10" x1="158.5" y1="160.748" x2="178.641" y2="180.889"/>
</g>
<line fill="none" stroke="#313131" stroke-width="8" stroke-miterlimit="10" x1="67.271" y1="121.655" x2="67.271" y2="166.473"/>
<line fill="none" stroke="#313131" stroke-width="8" stroke-miterlimit="10" x1="98.296" y1="121.655" x2="98.296" y2="166.473"/>
<path fill="none" stroke="#313131" stroke-width="8" stroke-miterlimit="10" d="M141.781,116.298v-16.139l-43.485,21.496H69.413
	c-0.706-0.067-1.419-0.104-2.143-0.104c-12.433,0-22.513,10.079-22.513,22.512c0,12.434,10.08,22.514,22.513,22.514
	c0.719,0,1.429-0.037,2.131-0.104h7.522"/>
<path fill="#FFFFFF" stroke="#313131" stroke-width="8" stroke-miterlimit="10" d="M75.027,187.971V158.52
	c0-4.278-3.476-7.756-7.757-7.756s-7.757,3.478-7.757,7.756v29.451"/>
<line fill="none" stroke="#313131" stroke-width="8" stroke-miterlimit="10" x1="98.296" y1="166.473" x2="85.064" y2="166.473"/>
<polyline fill="none" stroke="#313131" stroke-width="8" stroke-miterlimit="10" points="141.781,116.298 141.781,100.159 
	98.296,121.655 "/>
<polyline fill="none" stroke="#313131" stroke-width="8" stroke-miterlimit="10" points="98.296,166.473 141.781,187.969 
	141.781,126.564 "/>
</svg>
