<?xml version="1.0" encoding="utf-8"?>
<!-- Generator: Adobe Illustrator 18.1.1, SVG Export Plug-In . SVG Version: 6.00 Build 0)  -->
<svg version="1.1" id="Layer_1" xmlns="http://www.w3.org/2000/svg" xmlns:xlink="http://www.w3.org/1999/xlink" x="0px" y="0px"
	 viewBox="-404 206 150 150" enable-background="new -404 206 150 150" xml:space="preserve">
<path fill="#808080" d="M-344.3,305.5h-9.2v13.2h-24.2v-15.2l-2.2-1.3c-7.7-4.4-12.5-12.6-12.5-21.5c0-13.6,11.1-24.7,24.7-24.7
	c0.3,0,0.5,0,0.7,0l22.7,0.4l46.8-23.4v95.8L-344.3,305.5z"/>
<rect x="-294.5" y="258.3" transform="matrix(-0.7393 0.6734 -0.6734 -0.7393 -317.6926 644.0764)" fill="#808080" width="21.9" height="4.4"/>
<rect x="-287.5" y="278.5" fill="#808080" width="21.9" height="4.4"/>
<rect x="-294.5" y="299.2" transform="matrix(-0.7393 -0.6734 0.6734 -0.7393 -696.1399 333.395)" fill="#808080" width="21.9" height="4.4"/>
<path fill="#FFCD2E" d="M-347.6,260.9l-19.5-0.4c-0.2,0-0.4,0-0.7,0c-11.2,0-20.2,9.1-20.2,20.2c0,7.5,4.1,14.1,10.2,17.6v-12.2
	c0-6.7,5.4-12.1,12.1-12.1s12.1,5.4,12.1,12.1V301h6L-347.6,260.9L-347.6,260.9z"/>
<polygon fill="#FFFFFF" points="-301.9,240.3 -343.1,260.9 -343.1,301.1 -301.9,321.7 "/>
<path fill="#FFFFFF" d="M-373.3,314.2h15.3v-28c0-4.2-3.4-7.6-7.6-7.6l0,0c-4.2,0-7.6,3.4-7.6,7.6
	C-373.3,286.2-373.3,314.2-373.3,314.2z"/>
</svg>
