<?xml version="1.0" encoding="utf-8"?>
<!-- Generator: Adobe Illustrator 16.0.3, SVG Export Plug-In . SVG Version: 6.00 Build 0)  -->
<!DOCTYPE svg PUBLIC "-//W3C//DTD SVG 1.1//EN" "http://www.w3.org/Graphics/SVG/1.1/DTD/svg11.dtd">
<svg version="1.1" xmlns="http://www.w3.org/2000/svg" xmlns:xlink="http://www.w3.org/1999/xlink" x="0px" y="0px"
	 width="230.129px" height="230.129px" viewBox="0 0 230.129 230.129" enable-background="new 0 0 230.129 230.129"
	 xml:space="preserve">
<g id="Layer_1">
	<circle fill="#1D2127" cx="115.064" cy="115.064" r="115.064"/>
</g>
<g id="Layer_3_1_">
	<g>
		
			<line fill="none" stroke="#FFCD2E" stroke-width="7.2336" stroke-miterlimit="10" x1="154.34" y1="115.063" x2="178.637" y2="115.063"/>
		<g>
			
				<line fill="none" stroke="#FFCD2E" stroke-width="7.2336" stroke-miterlimit="10" x1="154.34" y1="99.977" x2="172.551" y2="81.768"/>
			
				<line fill="none" stroke="#FFCD2E" stroke-width="7.2336" stroke-miterlimit="10" x1="154.34" y1="130.15" x2="172.551" y2="148.361"/>
		</g>
		
			<line fill="none" stroke="#FFCD2E" stroke-width="7.2336" stroke-miterlimit="10" x1="71.85" y1="94.802" x2="71.85" y2="121.121"/>
		
			<line fill="none" stroke="#FFCD2E" stroke-width="7.2336" stroke-miterlimit="10" x1="99.902" y1="94.802" x2="99.902" y2="135.326"/>
		<path fill="none" stroke="#FFCD2E" stroke-width="7.2336" stroke-miterlimit="10" d="M139.223,89.958V75.365l-39.32,19.437H73.787
			c-0.639-0.061-1.283-0.094-1.938-0.094c-11.241,0-20.356,9.113-20.356,20.355c0,8.23,4.883,15.318,11.909,18.527"/>
		<path fill="none" stroke="#FFCD2E" stroke-width="7.2336" stroke-miterlimit="10" d="M78.863,154.764v-26.629
			c0-3.867-3.144-7.014-7.015-7.014c-3.87,0-7.014,3.146-7.014,7.014v26.629"/>
		
			<line fill="none" stroke="#FFCD2E" stroke-width="7.2336" stroke-miterlimit="10" x1="99.902" y1="135.326" x2="87.938" y2="135.326"/>
		<polyline fill="none" stroke="#FFCD2E" stroke-width="7.2336" stroke-miterlimit="10" points="139.223,89.958 139.223,75.365 
			99.902,94.802 		"/>
		<polyline fill="none" stroke="#FFCD2E" stroke-width="7.2336" stroke-miterlimit="10" points="99.902,135.326 139.223,154.764 
			139.223,99.241 		"/>
	</g>
</g>
</svg>
