<?xml version="1.0" encoding="utf-8"?>
<!-- Generator: Adobe Illustrator 18.1.1, SVG Export Plug-In . SVG Version: 6.00 Build 0)  -->
<svg version="1.1" id="Layer_1" xmlns="http://www.w3.org/2000/svg" xmlns:xlink="http://www.w3.org/1999/xlink" x="0px" y="0px"
	 viewBox="0 0 128 128" enable-background="new 0 0 128 128" xml:space="preserve">
<g>
	<rect x="90.4" y="19.3" transform="matrix(-0.7372 0.6757 -0.6757 -0.7372 185.7681 -30.3511)" width="16.8" height="3.4"/>
	<rect x="95.6" y="34.7" width="16.7" height="3.3"/>
	<rect x="90.4" y="50.4" transform="matrix(-0.7372 -0.6757 0.6757 -0.7372 136.3835 157.309)" width="16.8" height="3.4"/>
	<path d="M52.4,18l-17.3-0.4c-0.2,0-0.4,0-0.6,0c-10.3,0-18.8,8.5-18.8,18.8c0,6.8,3.7,13,9.5,16.3l1.7,1v11.6h18.4V55.1h7l35.9,18
		V0L52.4,18z M41.9,61.9H30.3V40.5c0-3.1,2.5-5.8,5.8-5.8c3.1,0,5.8,2.5,5.8,5.8V61.9z M50,52h-4.5V40.7c0-5.2-4.1-9.3-9.3-9.3
		s-9.3,4.1-9.3,9.3V50c-4.7-2.7-7.8-7.6-7.8-13.4c0-8.7,7-15.5,15.5-15.5c0,0,0.2,0,0.4,0l14.9,0.2H50V52z M84.6,67.5L53.3,51.8
		V21.3L84.6,5.6V67.5z"/>
</g>
</svg>
