<?xml version="1.0" encoding="utf-8"?>
<!-- Generator: Adobe Illustrator 16.0.3, SVG Export Plug-In . SVG Version: 6.00 Build 0)  -->
<!DOCTYPE svg PUBLIC "-//W3C//DTD SVG 1.1//EN" "http://www.w3.org/Graphics/SVG/1.1/DTD/svg11.dtd">
<svg version="1.1" id="Layer_1" xmlns="http://www.w3.org/2000/svg" xmlns:xlink="http://www.w3.org/1999/xlink" x="0px" y="0px"
	 width="140.043px" height="140.043px" viewBox="0 0 140.043 140.043" enable-background="new 0 0 140.043 140.043"
	 xml:space="preserve">
<path fill-rule="evenodd" clip-rule="evenodd" fill="#1D2127" d="M140.043,70.021C140.043,31.35,108.693,0,70.021,0
	S0,31.35,0,70.021c0,38.672,31.349,70.021,70.021,70.021S140.043,108.693,140.043,70.021"/>
<path fill-rule="evenodd" clip-rule="evenodd" fill="#FFCD2E" d="M53.42,56.469l-13.15-0.239c-0.148-0.005-0.297-0.008-0.446-0.008
	c-7.539,0-13.65,6.111-13.65,13.65s6.112,13.65,13.65,13.65H53.42V56.469z M84.224,42.572L56.42,56.473V83.57l27.803,13.901V42.572z
	"/>
<path fill-rule="evenodd" clip-rule="evenodd" fill="#1D2127" d="M33.074,95.421V73.504c0-4.493,3.665-8.158,8.158-8.158
	c4.493,0,8.158,3.665,8.158,8.158v21.917H33.074z"/>
<path fill-rule="evenodd" clip-rule="evenodd" fill="#FFCD2E" d="M36.074,92.422H46.39V73.504c0-2.837-2.321-5.158-5.158-5.158h0
	c-2.837,0-5.158,2.321-5.158,5.158V92.422z"/>
<path fill-rule="evenodd" clip-rule="evenodd" fill="#FFCD2E" d="M90.143,79.952l10.93,9.957l2.021-2.218l-10.931-9.957
	L90.143,79.952z M90.143,60.091l10.93-9.957l2.021,2.218L92.162,62.31L90.143,60.091z M93.922,68.353h14.786v3H93.922V68.353z"/>
</svg>
