<?xml version="1.0" encoding="utf-8"?>
<!-- Generator: Adobe Illustrator 16.0.3, SVG Export Plug-In . SVG Version: 6.00 Build 0)  -->
<!DOCTYPE svg PUBLIC "-//W3C//DTD SVG 1.1//EN" "http://www.w3.org/Graphics/SVG/1.1/DTD/svg11.dtd">
<svg version="1.1" id="Layer_1" xmlns="http://www.w3.org/2000/svg" xmlns:xlink="http://www.w3.org/1999/xlink" x="0px" y="0px"
	 width="230.129px" height="230.129px" viewBox="0 0 230.129 230.129" enable-background="new 0 0 230.129 230.129"
	 xml:space="preserve">
<path fill="#FFCD2E" d="M114.065,12.63c-27.536,0-53.671,10.828-73.139,30.295C21.458,62.394,10.63,88.529,10.63,116.065
	s10.828,53.671,30.296,73.139c19.468,19.469,45.603,30.297,73.139,30.297s53.671-10.828,73.139-30.297
	c19.469-19.468,30.297-45.603,30.297-73.139s-10.828-53.672-30.297-73.14C167.736,23.458,141.601,12.63,114.065,12.63 M114.065,2
	c31.498,0,60.014,12.768,80.656,33.409c20.642,20.641,33.408,49.159,33.408,80.656s-12.768,60.014-33.408,80.654
	c-20.641,20.642-49.158,33.41-80.656,33.41s-60.014-12.769-80.656-33.41C12.767,176.079,0,147.563,0,116.065
	S12.768,56.05,33.409,35.409C54.05,14.768,82.567,2,114.065,2z"/>
<path fill="#333333" d="M166.357,128.573v3.014c0,5.326-2.511,7.988-7.53,7.988h-4.062c-5.021,0-7.531-2.662-7.531-7.988v-31.042
	c0-5.326,2.511-7.99,7.531-7.99h4.062c5.021,0,7.53,2.664,7.53,7.99v5.304h-6.287v-4.846c0-1.834-0.938-2.75-2.815-2.75h-1.244
	c-1.659,0-2.488,0.917-2.488,2.75v30.124c0,1.834,0.829,2.752,2.488,2.752h1.572c1.658,0,2.487-0.918,2.487-2.752v-2.553H166.357
	L166.357,128.573z M135.381,139.575v-47.02h6.287v47.021h-6.287V139.575z M123.855,105.194v-4.125c0-1.877-0.917-2.816-2.751-2.816
	h-0.98c-1.791,0-2.687,0.938-2.687,2.816v7.793c0,0.873,0.175,1.462,0.524,1.768c0.349,0.306,0.916,0.699,1.701,1.179l5.961,3.208
	c1.31,0.743,2.236,1.321,2.783,1.735c0.545,0.414,0.971,0.916,1.275,1.506c0.305,0.591,0.459,1.715,0.459,3.373v10.021
	c0,5.282-2.532,7.925-7.598,7.925h-3.863c-5.021,0-7.531-2.883-7.531-8.646v-2.356h6.287v2.553c0,1.834,0.938,2.752,2.816,2.752
	h1.113c1.658,0,2.487-0.918,2.487-2.752v-7.988c0-0.873-0.175-1.463-0.524-1.77c-0.349-0.306-0.916-0.697-1.701-1.179l-5.961-3.34
	c-1.31-0.698-2.258-1.288-2.848-1.768c-0.589-0.48-1.015-1.102-1.277-1.866c-0.262-0.764-0.393-1.757-0.393-2.979v-9.627
	c0-5.37,2.51-8.055,7.531-8.055h3.93c5.021,0,7.531,2.685,7.531,8.055v4.584L123.855,105.194L123.855,105.194z M99.953,116.654
	v-15.651c0-1.834-0.917-2.75-2.75-2.75H95.5c-1.833,0-2.75,0.917-2.75,2.75v15.651H99.953z M92.749,139.575h-6.287V100.61
	c0-5.37,2.51-8.055,7.531-8.055h4.715c5.021,0,7.531,2.685,7.531,8.055v38.965h-6.287v-17.224h-7.204L92.749,139.575L92.749,139.575
	z M68.06,112.397h2.947c2.401,0,3.602-1.135,3.602-3.405v-7.334c0-2.271-0.939-3.405-2.816-3.405H68.06V112.397z M68.06,133.877
	h4.715c1.659,0,2.489-0.676,2.489-2.029v-10.412c0-2.229-1.245-3.342-3.733-3.342H68.06V133.877z M76.376,115.41
	c3.449,0.959,5.174,2.75,5.174,5.37v11.788c0,4.671-2.379,7.007-7.138,7.007H61.773v-47.02h10.74c5.588,0,8.382,2.838,8.382,8.514
	v9.037c0,2.707-1.506,4.366-4.519,4.977V115.41z"/>
</svg>
