<?xml version="1.0" encoding="utf-8"?>
<!-- Generator: Adobe Illustrator 16.0.3, SVG Export Plug-In . SVG Version: 6.00 Build 0)  -->
<!DOCTYPE svg PUBLIC "-//W3C//DTD SVG 1.1//EN" "http://www.w3.org/Graphics/SVG/1.1/DTD/svg11.dtd">
<svg version="1.1" id="Layer_1" xmlns="http://www.w3.org/2000/svg" xmlns:xlink="http://www.w3.org/1999/xlink" x="0px" y="0px"
	 width="230.13px" height="230.13px" viewBox="0 0 230.13 230.13" enable-background="new 0 0 230.13 230.13" xml:space="preserve">
<path fill="#333333" d="M114.065,12.63c-27.536,0-53.671,10.828-73.139,30.295C21.458,62.394,10.63,88.529,10.63,116.065
	s10.828,53.671,30.296,73.139c19.468,19.468,45.603,30.296,73.139,30.296c27.536,0,53.671-10.828,73.139-30.296
	s30.296-45.603,30.296-73.139s-10.828-53.672-30.296-73.14C167.736,23.458,141.601,12.63,114.065,12.63 M114.065,2
	c31.498,0,60.014,12.768,80.656,33.409s33.409,49.159,33.409,80.656c0,31.497-12.768,60.014-33.409,80.655
	s-49.158,33.409-80.656,33.409s-60.014-12.768-80.656-33.409S0,147.563,0,116.065c0-31.498,12.768-60.015,33.409-80.656
	S82.567,2,114.065,2z"/>
<path fill="#333333" d="M166.357,128.573v3.013c0,5.326-2.511,7.989-7.531,7.989h-4.061c-5.021,0-7.531-2.663-7.531-7.989v-31.042
	c0-5.326,2.511-7.99,7.531-7.99h4.061c5.021,0,7.531,2.664,7.531,7.99v5.304h-6.287v-4.846c0-1.834-0.938-2.75-2.816-2.75h-1.244
	c-1.659,0-2.488,0.917-2.488,2.75v30.124c0,1.834,0.829,2.751,2.488,2.751h1.572c1.659,0,2.488-0.917,2.488-2.751v-2.554H166.357z
	 M135.381,139.575V92.555h6.287v47.021H135.381z M123.855,105.194v-4.125c0-1.877-0.917-2.816-2.751-2.816h-0.981
	c-1.79,0-2.686,0.938-2.686,2.816v7.793c0,0.873,0.175,1.462,0.524,1.768c0.349,0.306,0.916,0.699,1.702,1.179l5.96,3.208
	c1.31,0.743,2.237,1.321,2.783,1.736c0.545,0.414,0.971,0.916,1.276,1.506s0.459,1.714,0.459,3.373v10.02
	c0,5.282-2.532,7.924-7.597,7.924h-3.864c-5.021,0-7.531-2.882-7.531-8.645v-2.357h6.287v2.554c0,1.834,0.938,2.751,2.816,2.751
	h1.113c1.659,0,2.488-0.917,2.488-2.751v-7.989c0-0.873-0.175-1.463-0.524-1.769c-0.349-0.306-0.916-0.698-1.702-1.179l-5.96-3.34
	c-1.31-0.698-2.259-1.288-2.848-1.768c-0.589-0.48-1.015-1.102-1.277-1.866c-0.262-0.764-0.393-1.757-0.393-2.979v-9.627
	c0-5.37,2.51-8.055,7.531-8.055h3.93c5.021,0,7.531,2.685,7.531,8.055v4.584H123.855z M99.953,116.654v-15.651
	c0-1.834-0.917-2.75-2.75-2.75h-1.703c-1.833,0-2.75,0.917-2.75,2.75v15.651H99.953z M92.749,139.575h-6.287V100.61
	c0-5.37,2.51-8.055,7.531-8.055h4.715c5.021,0,7.531,2.685,7.531,8.055v38.965h-6.287v-17.224h-7.204V139.575z M68.06,112.397h2.947
	c2.401,0,3.602-1.135,3.602-3.405v-7.334c0-2.271-0.939-3.405-2.816-3.405H68.06V112.397z M68.06,133.878h4.715
	c1.659,0,2.489-0.677,2.489-2.03v-10.412c0-2.228-1.245-3.341-3.733-3.341H68.06V133.878z M76.376,115.41
	c3.449,0.96,5.174,2.75,5.174,5.37v11.788c0,4.671-2.379,7.007-7.138,7.007H61.773V92.555h10.74c5.588,0,8.382,2.838,8.382,8.514
	v9.037c0,2.707-1.506,4.366-4.519,4.977V115.41z"/>
</svg>
