<?xml version="1.0" encoding="utf-8"?>
<!-- Generator: Adobe Illustrator 16.0.3, SVG Export Plug-In . SVG Version: 6.00 Build 0)  -->
<!DOCTYPE svg PUBLIC "-//W3C//DTD SVG 1.1//EN" "http://www.w3.org/Graphics/SVG/1.1/DTD/svg11.dtd">
<svg version="1.1" id="Layer_1" xmlns="http://www.w3.org/2000/svg" xmlns:xlink="http://www.w3.org/1999/xlink" x="0px" y="0px"
	 width="153.998px" height="153.998px" viewBox="0 0 153.998 153.998" enable-background="new 0 0 153.998 153.998"
	 xml:space="preserve">
<path fill="#333333" d="M112.299,85.442v2.034c0,3.596-1.694,5.394-5.083,5.394h-2.741c-3.39,0-5.084-1.798-5.084-5.394V66.522
	c0-3.596,1.694-5.394,5.084-5.394h2.741c3.389,0,5.083,1.797,5.083,5.394v3.581h-4.243v-3.271c0-1.238-0.634-1.857-1.901-1.857
	h-0.84c-1.12,0-1.68,0.619-1.68,1.857v20.336c0,1.237,0.56,1.856,1.68,1.856h1.061c1.12,0,1.681-0.619,1.681-1.856v-1.725H112.299z
	 M91.389,92.87V61.128h4.244V92.87H91.389z M83.607,69.661v-2.786c0-1.267-0.618-1.901-1.856-1.901h-0.663
	c-1.208,0-1.813,0.634-1.813,1.901v5.261c0,0.589,0.118,0.987,0.354,1.193c0.236,0.207,0.619,0.472,1.149,0.796l4.023,2.166
	c0.884,0.501,1.511,0.892,1.879,1.172c0.368,0.28,0.655,0.619,0.861,1.016c0.207,0.398,0.31,1.157,0.31,2.277v6.764
	c0,3.566-1.709,5.35-5.128,5.35h-2.608c-3.389,0-5.084-1.945-5.084-5.836v-1.592h4.244v1.725c0,1.237,0.634,1.856,1.901,1.856h0.751
	c1.12,0,1.68-0.619,1.68-1.856v-5.394c0-0.59-0.117-0.987-0.354-1.193c-0.235-0.206-0.618-0.472-1.149-0.796l-4.022-2.254
	c-0.885-0.472-1.525-0.87-1.923-1.194c-0.398-0.324-0.686-0.744-0.862-1.26c-0.177-0.516-0.266-1.186-0.266-2.011v-6.499
	c0-3.625,1.695-5.438,5.084-5.438h2.652c3.39,0,5.084,1.813,5.084,5.438v3.095H83.607z M67.472,77.397V66.831
	c0-1.238-0.619-1.857-1.856-1.857h-1.15c-1.237,0-1.856,0.619-1.856,1.857v10.566H67.472z M62.609,92.87h-4.244V66.566
	c0-3.625,1.695-5.438,5.084-5.438h3.183c3.389,0,5.084,1.813,5.084,5.438V92.87h-4.244V81.243h-4.863V92.87z M45.942,74.523h1.989
	c1.621,0,2.432-0.766,2.432-2.299v-4.952c0-1.532-0.634-2.299-1.901-2.299h-2.52V74.523z M45.942,89.023h3.183
	c1.12,0,1.68-0.457,1.68-1.37v-7.029c0-1.503-0.84-2.255-2.52-2.255h-2.343V89.023z M51.557,76.557
	c2.328,0.648,3.493,1.857,3.493,3.625v7.958c0,3.153-1.606,4.73-4.819,4.73h-8.532V61.128h7.25c3.772,0,5.659,1.916,5.659,5.747
	v6.101c0,1.827-1.017,2.947-3.051,3.36V76.557z"/>
<path fill="#333333" d="M131.445,22.553C117.512,8.619,98.262,0,76.999,0S36.486,8.619,22.553,22.553S0,55.737,0,77
	c0,21.262,8.619,40.512,22.553,54.446c13.934,13.935,33.184,22.553,54.446,22.553s40.513-8.618,54.446-22.553
	c13.934-13.934,22.553-33.184,22.553-54.446C153.998,55.737,145.379,36.487,131.445,22.553z M128.423,128.424
	c-13.159,13.16-31.341,21.301-51.424,21.301s-38.265-8.141-51.425-21.301S4.273,97.082,4.273,77
	c0-20.083,8.141-38.265,21.301-51.425c13.16-13.16,31.342-21.3,51.425-21.3s38.265,8.14,51.424,21.3
	C141.584,38.735,149.725,56.917,149.725,77C149.725,97.082,141.584,115.264,128.423,128.424z"/>
</svg>
