<?xml version="1.0" encoding="utf-8"?>
<!-- Generator: Adobe Illustrator 16.0.3, SVG Export Plug-In . SVG Version: 6.00 Build 0)  -->
<!DOCTYPE svg PUBLIC "-//W3C//DTD SVG 1.1//EN" "http://www.w3.org/Graphics/SVG/1.1/DTD/svg11.dtd">
<svg version="1.1" id="Layer_1" xmlns="http://www.w3.org/2000/svg" xmlns:xlink="http://www.w3.org/1999/xlink" x="0px" y="0px"
	 width="316.668px" height="170.797px" viewBox="0 0 316.668 170.797" enable-background="new 0 0 316.668 170.797"
	 xml:space="preserve">
<rect x="-2.332" y="-0.788" fill-rule="evenodd" clip-rule="evenodd" fill="#4D4D4D" width="321.332" height="172.372"/>
<path fill-rule="evenodd" clip-rule="evenodd" fill="#FFFFFF" d="M162.054,49.044h1.86l-1.86,1.86v1.86v3.72v3.721v3.72h-1.86
	h-1.859h-1.86h-3.72v-3.72v-5.581h3.72h1.86l-1.86,1.86v3.721h1.86v-3.721v-1.86v-1.86v-3.72H162.054z M152.753,49.044h3.72v3.72
	h-3.72V49.044z"/>
<path fill="#FFFFFF" d="M178.365,68.845l0.971,3.941v-3.941h0.584v5.715h-0.599l-1.103-4.204v4.204h-0.584v-5.715H178.365z
	 M174.295,68.845v5.715h-0.671v-5.715H174.295z M168.729,73.173h0.891l-0.452-2.861L168.729,73.173z M169.495,68.845l0.993,5.715
	h-0.65l-0.131-0.824h-1.065l-0.124,0.824h-0.649l0.963-5.715H169.495z M163.79,68.742c0.346,0,0.616,0.103,0.811,0.307
	s0.292,0.475,0.292,0.811v0.204h-0.62V69.91c0-0.165-0.044-0.297-0.132-0.394c-0.088-0.098-0.209-0.146-0.365-0.146
	c-0.18,0-0.313,0.06-0.397,0.179s-0.128,0.264-0.128,0.435c0,0.141,0.025,0.273,0.077,0.397c0.051,0.124,0.125,0.255,0.223,0.391
	c0.063,0.093,0.142,0.199,0.237,0.321c0.095,0.122,0.192,0.249,0.292,0.383s0.195,0.266,0.288,0.395s0.173,0.247,0.241,0.354
	c0.111,0.18,0.193,0.35,0.244,0.511c0.051,0.16,0.077,0.346,0.077,0.555c0,0.423-0.093,0.758-0.278,1.004
	c-0.185,0.245-0.475,0.368-0.868,0.368c-0.189,0-0.359-0.029-0.508-0.087c-0.148-0.059-0.273-0.138-0.375-0.237
	c-0.103-0.101-0.182-0.219-0.237-0.354c-0.057-0.137-0.084-0.282-0.084-0.438v-0.307l0.62,0.16v0.139
	c0,0.137,0.048,0.256,0.143,0.357c0.095,0.103,0.228,0.153,0.397,0.153c0.186,0,0.322-0.059,0.412-0.175
	c0.091-0.117,0.136-0.282,0.136-0.496c0-0.132-0.021-0.266-0.063-0.402c-0.041-0.136-0.115-0.287-0.223-0.452
	c-0.054-0.083-0.12-0.175-0.2-0.277c-0.081-0.103-0.165-0.209-0.252-0.321c-0.088-0.111-0.174-0.225-0.26-0.34
	c-0.085-0.114-0.161-0.225-0.229-0.331c-0.165-0.264-0.278-0.496-0.34-0.697c-0.061-0.202-0.091-0.396-0.091-0.581
	c0-0.379,0.105-0.68,0.317-0.901C163.159,68.854,163.439,68.742,163.79,68.742z M159.517,68.845v0.649h-1.22v1.796h0.861v0.649
	h-0.861v1.971h1.22v0.649h-1.891v-5.715H159.517z M152.673,73.91h0.46c0.35,0,0.525-0.206,0.525-0.62v-3.175
	c0-0.414-0.175-0.621-0.525-0.621h-0.46V73.91z M153.184,68.845c0.351,0,0.628,0.107,0.833,0.321
	c0.204,0.214,0.306,0.545,0.306,0.992v3.088c0,0.448-0.102,0.778-0.306,0.993c-0.205,0.214-0.482,0.32-0.833,0.32h-1.182v-5.715
	H153.184z M147.012,73.509c0,0.166,0.048,0.291,0.142,0.376c0.095,0.085,0.218,0.128,0.369,0.128s0.273-0.043,0.368-0.128
	c0.095-0.085,0.143-0.21,0.143-0.376v-3.613c0-0.165-0.047-0.291-0.143-0.376c-0.095-0.085-0.217-0.128-0.368-0.128
	s-0.274,0.043-0.369,0.128c-0.094,0.085-0.142,0.211-0.142,0.376V73.509z M148.698,73.517c0,0.18-0.031,0.34-0.091,0.481
	c-0.061,0.141-0.145,0.262-0.252,0.361s-0.232,0.175-0.376,0.227c-0.144,0.051-0.296,0.076-0.456,0.076
	c-0.166,0-0.32-0.025-0.463-0.076c-0.144-0.052-0.268-0.127-0.373-0.227s-0.188-0.221-0.248-0.361
	c-0.061-0.142-0.091-0.302-0.091-0.481v-3.628c0-0.181,0.03-0.341,0.091-0.482c0.061-0.141,0.144-0.26,0.248-0.357
	c0.104-0.097,0.229-0.173,0.373-0.227c0.143-0.053,0.298-0.08,0.463-0.08c0.16,0,0.313,0.027,0.456,0.08
	c0.144,0.054,0.269,0.13,0.376,0.227c0.107,0.098,0.191,0.217,0.252,0.357c0.061,0.142,0.091,0.302,0.091,0.482V73.517z
	 M141.49,68.845l0.971,3.941v-3.941h0.584v5.715h-0.599l-1.102-4.204v4.204h-0.584v-5.715H141.49z M137.42,68.845v5.715h-0.671
	v-5.715H137.42z"/>
</svg>
