<?xml version="1.0" encoding="utf-8"?>
<!-- Generator: Adobe Illustrator 16.0.3, SVG Export Plug-In . SVG Version: 6.00 Build 0)  -->
<!DOCTYPE svg PUBLIC "-//W3C//DTD SVG 1.1//EN" "http://www.w3.org/Graphics/SVG/1.1/DTD/svg11.dtd">
<svg version="1.1" id="Layer_1" xmlns="http://www.w3.org/2000/svg" xmlns:xlink="http://www.w3.org/1999/xlink" x="0px" y="0px"
	 width="117.336px" height="63.871px" viewBox="0 0 117.336 63.871" enable-background="new 0 0 117.336 63.871"
	 xml:space="preserve">
<rect x="-3.163" y="-1.233" fill="#FFFFFF" width="123.664" height="66.336"/>
<path fill="#333333" d="M60.032,11.675h0.682l-0.682,0.682v0.682v1.363v1.364v1.364H59.35h-0.682h-0.681h-1.364v-1.364v-2.045h1.364
	h0.681l-0.681,0.682v1.364h0.681v-1.364v-0.682v-0.682v-1.364H60.032z M56.623,11.675h1.364v1.364h-1.364V11.675z"/>
<path fill="#333333" d="M66.011,18.933l0.354,1.445v-1.445h0.215v2.095H66.36l-0.402-1.542v1.542h-0.215v-2.095H66.011z
	 M64.519,18.933v2.095h-0.246v-2.095H64.519z M62.479,20.519h0.326l-0.166-1.049L62.479,20.519z M62.76,18.933l0.363,2.095h-0.238
	l-0.049-0.303h-0.391L62.4,21.028h-0.237l0.354-2.095H62.76z M60.668,18.895c0.127,0,0.227,0.038,0.297,0.112
	c0.072,0.075,0.106,0.174,0.106,0.297v0.075h-0.228v-0.056c0-0.061-0.016-0.109-0.049-0.146c-0.031-0.036-0.076-0.053-0.133-0.053
	c-0.066,0-0.115,0.022-0.146,0.065s-0.047,0.097-0.047,0.159c0,0.052,0.009,0.101,0.027,0.146c0.02,0.045,0.045,0.094,0.082,0.144
	c0.022,0.034,0.051,0.073,0.086,0.118c0.035,0.044,0.07,0.091,0.107,0.141c0.036,0.049,0.07,0.097,0.105,0.145
	c0.033,0.047,0.063,0.09,0.088,0.129c0.041,0.066,0.07,0.128,0.09,0.188c0.02,0.059,0.027,0.126,0.027,0.203
	c0,0.155-0.033,0.278-0.102,0.368c-0.068,0.09-0.174,0.135-0.318,0.135c-0.068,0-0.132-0.011-0.187-0.032
	c-0.056-0.021-0.101-0.051-0.138-0.087c-0.037-0.037-0.066-0.08-0.088-0.13c-0.021-0.05-0.029-0.104-0.029-0.161v-0.112l0.227,0.059
	v0.051c0,0.05,0.018,0.094,0.053,0.131s0.084,0.056,0.146,0.056c0.068,0,0.118-0.021,0.15-0.064
	c0.033-0.043,0.051-0.104,0.051-0.182c0-0.048-0.008-0.097-0.023-0.147c-0.015-0.05-0.041-0.105-0.08-0.166
	c-0.021-0.03-0.045-0.064-0.074-0.102c-0.029-0.038-0.061-0.077-0.092-0.118c-0.033-0.041-0.063-0.083-0.096-0.125
	c-0.031-0.042-0.061-0.082-0.084-0.122c-0.063-0.096-0.104-0.181-0.125-0.255c-0.021-0.074-0.033-0.145-0.033-0.213
	c0-0.139,0.039-0.249,0.116-0.33C60.437,18.936,60.54,18.895,60.668,18.895z M59.102,18.933v0.238h-0.447v0.658h0.316v0.238h-0.316
	v0.723h0.447v0.238h-0.693v-2.095H59.102z M56.593,20.79h0.168c0.128,0,0.193-0.076,0.193-0.228v-1.164
	c0-0.152-0.064-0.228-0.193-0.228h-0.168V20.79z M56.78,18.933c0.128,0,0.23,0.04,0.306,0.118c0.075,0.079,0.112,0.2,0.112,0.364
	v1.132c0,0.164-0.038,0.285-0.112,0.363c-0.075,0.079-0.177,0.118-0.306,0.118h-0.433v-2.095H56.78z M54.519,20.642
	c0,0.061,0.017,0.107,0.052,0.138c0.035,0.031,0.08,0.047,0.135,0.047c0.056,0,0.1-0.016,0.135-0.047
	c0.035-0.031,0.052-0.077,0.052-0.138v-1.324c0-0.061-0.018-0.106-0.052-0.138c-0.035-0.031-0.08-0.047-0.135-0.047
	s-0.1,0.016-0.135,0.047c-0.035,0.031-0.052,0.077-0.052,0.138V20.642z M55.136,20.645c0,0.066-0.011,0.125-0.033,0.177
	c-0.022,0.051-0.053,0.096-0.092,0.132c-0.04,0.037-0.085,0.064-0.138,0.083c-0.052,0.019-0.108,0.028-0.167,0.028
	c-0.061,0-0.117-0.009-0.17-0.028c-0.052-0.019-0.098-0.046-0.136-0.083s-0.069-0.081-0.091-0.132
	c-0.022-0.052-0.033-0.111-0.033-0.177v-1.33c0-0.066,0.011-0.125,0.033-0.177c0.022-0.052,0.053-0.096,0.091-0.131
	c0.038-0.035,0.084-0.063,0.136-0.083c0.053-0.02,0.109-0.03,0.17-0.03c0.059,0,0.115,0.01,0.167,0.03
	c0.053,0.02,0.099,0.047,0.138,0.083c0.039,0.036,0.07,0.08,0.092,0.131c0.022,0.051,0.033,0.11,0.033,0.177V20.645z M52.494,18.933
	l0.356,1.445v-1.445h0.214v2.095h-0.219l-0.404-1.542v1.542h-0.214v-2.095H52.494z M51.002,18.933v2.095h-0.246v-2.095H51.002z"/>
</svg>
