<?xml version="1.0" encoding="utf-8"?>
<!-- Generator: Adobe Illustrator 16.0.3, SVG Export Plug-In . SVG Version: 6.00 Build 0)  -->
<!DOCTYPE svg PUBLIC "-//W3C//DTD SVG 1.1//EN" "http://www.w3.org/Graphics/SVG/1.1/DTD/svg11.dtd">
<svg version="1.1" id="Layer_1" xmlns="http://www.w3.org/2000/svg" xmlns:xlink="http://www.w3.org/1999/xlink" x="0px" y="0px"
	 width="316.668px" height="170.796px" viewBox="0 0 316.668 170.796" enable-background="new 0 0 316.668 170.796"
	 xml:space="preserve">
<rect x="-5.5" y="-8.383" fill-rule="evenodd" clip-rule="evenodd" fill="#FFCD2E" width="330" height="181"/>
<path fill="#1A1A1A" d="M144.009,23.313c-1.929,0-3.427,0.813-4.392,2.335v-2.132h-5.126v13.808h5.126v-6.828
	c0-1.574,0.863-2.665,2.26-2.691c1.193,0,1.98,0.863,1.98,2.233v7.285h5.127v-8.756C148.984,25.37,146.954,23.313,144.009,23.313
	 M126.267,23.516v13.808h5.127V23.516H126.267z M128.856,17.45c-1.294,0-2.184,0.914-2.184,2.208c0,1.244,0.889,2.157,2.184,2.157
	s2.183-0.914,2.183-2.157C131.039,18.364,130.15,17.45,128.856,17.45z M116.189,34.203c-0.99,0-1.548-0.508-1.548-1.371
	s0.533-1.294,1.548-1.294h2.335v1.244C118.144,33.644,117.23,34.203,116.189,34.203z M117.357,23.313
	c-2.157,0-4.391,0.508-6.65,1.422l1.27,3.401c1.523-0.66,3.071-0.99,4.163-0.99c1.574,0,2.386,0.686,2.386,1.828v0.051h-3.376
	c-3.477,0.051-5.33,1.522-5.33,4.188c0,2.589,1.726,4.341,4.67,4.341c1.828,0,3.198-0.635,4.036-1.751v1.522h5.026v-8.96
	C123.551,25.167,121.24,23.313,117.357,23.313z M107.001,28.187l1.7-3.223c-1.878-1.091-3.985-1.676-6.066-1.676
	c-3.478,0-5.889,1.727-5.889,4.62c0,4.721,7.056,3.959,7.056,5.533c0,0.431-0.457,0.634-1.142,0.634c-1.523,0-3.274-0.583-5-1.7
	l-1.574,3.224c1.802,1.294,4.062,1.955,6.499,1.955c3.604,0,6.066-1.727,6.066-4.569c0-4.721-7.208-4.036-7.208-5.584
	c0-0.431,0.406-0.66,1.041-0.66C103.574,26.74,105.123,27.222,107.001,28.187z M90.172,29.151h-4.34
	c0.253-1.396,1.041-2.335,2.259-2.335C89.334,26.816,90.198,27.781,90.172,29.151z M88.04,23.339c-4.366,0-7.285,2.817-7.285,7.132
	c0,4.239,2.817,7.031,7.437,7.031c2.615,0,4.696-0.889,6.143-2.488L91.67,32.4c-0.914,0.837-1.955,1.32-3.046,1.32
	c-1.32,0-2.285-0.736-2.69-2.056h9.289C95.528,26.587,92.888,23.339,88.04,23.339z M70.983,33.568c-1.523,0-2.513-1.244-2.513-3.097
	c0-1.828,0.99-3.072,2.513-3.072c1.498,0,2.488,1.244,2.488,3.072C73.471,32.324,72.48,33.568,70.983,33.568z M73.471,18.49v6.625
	c-0.939-1.142-2.284-1.777-3.909-1.777c-3.782,0-6.27,2.766-6.27,7.005c0,4.34,2.539,7.158,6.396,7.158
	c1.574,0,2.869-0.635,3.782-1.752v1.574h5.127V18.49H73.471z"/>
<path fill="#1A1A1A" d="M136.331,50.388l1.701-3.224c-1.878-1.091-3.985-1.675-6.067-1.675c-3.478,0-5.889,1.727-5.889,4.62
	c0,4.721,7.056,3.959,7.056,5.533c0,0.432-0.457,0.635-1.142,0.635c-1.523,0-3.275-0.583-5.001-1.7l-1.574,3.224
	c1.802,1.294,4.062,1.954,6.498,1.954c3.604,0,6.067-1.726,6.067-4.569c0-4.721-7.209-4.036-7.209-5.584
	c0-0.431,0.406-0.66,1.041-0.66C132.905,48.941,134.453,49.424,136.331,50.388 M118.385,45.718v13.808h5.127V45.718H118.385z
	 M120.975,39.651c-1.294,0-2.183,0.914-2.183,2.208c0,1.244,0.889,2.158,2.183,2.158s2.183-0.914,2.183-2.158
	C123.158,40.565,122.269,39.651,120.975,39.651z M115.518,55.337c-0.609,0.229-1.168,0.406-1.574,0.406
	c-0.71,0-1.167-0.431-1.167-1.319v-4.722h3.402v-3.274h-3.402v-3.833h-5.102v3.833h-1.904v3.274h1.904v5.509
	c0,2.868,1.98,4.568,4.924,4.543c1.396,0,2.869-0.33,3.833-0.888L115.518,55.337z M96.912,56.404c-0.99,0-1.548-0.508-1.548-1.371
	c0-0.863,0.533-1.294,1.548-1.294h2.335v1.244C98.866,55.845,97.952,56.404,96.912,56.404z M98.079,45.515
	c-2.157,0-4.391,0.507-6.65,1.421l1.269,3.401c1.523-0.66,3.071-0.99,4.163-0.99c1.573,0,2.386,0.685,2.386,1.828v0.051h-3.376
	c-3.478,0.051-5.331,1.522-5.331,4.188c0,2.589,1.726,4.34,4.671,4.34c1.827,0,3.198-0.635,4.036-1.751v1.522h5.025v-8.96
	C104.272,47.368,101.963,45.515,98.079,45.515z M85.743,47.905v-2.183h-5.127v13.804h5.127v-6.599c0-2.001,1.701-3.118,4.34-2.788
	v-4.62C88.205,45.519,86.708,46.382,85.743,47.905z M70.158,55.059c-1.396,0-2.335-1.143-2.335-2.843
	c0-1.726,0.939-2.893,2.335-2.893c1.421,0,2.36,1.142,2.36,2.893C72.519,53.917,71.58,55.059,70.158,55.059z M72.519,45.718v1.498
	c-0.888-1.066-2.183-1.675-3.807-1.675c-3.325,0-5.686,2.589-5.686,6.523c0,4.036,2.437,6.676,5.787,6.676
	c1.574,0,2.817-0.584,3.706-1.65v1.396c0,1.346-1.091,2.209-2.944,2.209c-1.421,0-3.02-0.457-4.239-1.27l-1.7,3.452
	c1.498,0.99,3.808,1.802,6.372,1.802c4.518,0,7.589-2.462,7.589-6.346V45.718H72.519z"/>
<path fill-rule="evenodd" clip-rule="evenodd" fill="#1A1A1A" d="M118.292,63.421c-0.227,0.119-0.314,0.398-0.195,0.625
	c0.118,0.227,0.398,0.314,0.625,0.196c0.227-0.12,0.314-0.399,0.195-0.625C118.798,63.39,118.518,63.303,118.292,63.421
	 M115.594,59.953l1.181,2.251l0.163,0.31c0.121,0.03,0.263,0.065,0.354,0.091c0.186,0.05,0.293,0.293,0.293,0.293l0.323,0.617
	c0.063-0.118,0.159-0.218,0.285-0.284c0.331-0.173,0.741-0.046,0.915,0.285c0.173,0.332,0.046,0.741-0.285,0.915
	c-0.331,0.173-0.741,0.046-0.915-0.286c-0.203-0.348-0.457-0.781-0.654-1.106l-0.588-0.178c-0.325-0.524-0.395-0.632-0.773-1.313
	C115.403,60.826,115.594,59.953,115.594,59.953z"/>
<path fill-rule="evenodd" clip-rule="evenodd" fill="#1A1A1A" d="M115.862,63.421c0.227,0.119,0.314,0.398,0.196,0.625
	c-0.119,0.227-0.398,0.314-0.625,0.196c-0.227-0.12-0.314-0.399-0.195-0.625C115.356,63.39,115.636,63.303,115.862,63.421
	 M118.56,59.953l-1.181,2.251l-0.162,0.31c-0.122,0.03-0.263,0.065-0.354,0.091c-0.185,0.05-0.293,0.293-0.293,0.293l-0.323,0.617
	c-0.063-0.118-0.159-0.218-0.285-0.284c-0.331-0.173-0.741-0.046-0.915,0.285c-0.173,0.332-0.046,0.741,0.285,0.915
	c0.331,0.173,0.741,0.046,0.915-0.286c0.204-0.348,0.457-0.781,0.654-1.106l0.589-0.178c0.325-0.524,0.395-0.632,0.773-1.313
	C118.752,60.826,118.56,59.953,118.56,59.953z"/>
<path fill="#1A1A1A" d="M111.687,62.455v-0.419h1.367v0.419H111.687z M109.863,62.455v-0.419h1.367v0.419H109.863z M108.039,62.455
	v-0.419h1.367v0.419H108.039z M106.215,62.455v-0.419h1.368v0.419H106.215z M104.741,61.715h0.455v0.321h0.564v0.419h-1.019V61.715z
	 M104.741,60.038h0.455v1.258h-0.455V60.038z M104.741,58.36h0.455v1.258h-0.455V58.36z M104.741,56.682h0.455v1.259h-0.455V56.682z
	 M104.741,55.005h0.455v1.259h-0.455V55.005z M104.741,53.328h0.455v1.258h-0.455V53.328z M104.741,51.65h0.455v1.258h-0.455V51.65z
	 M104.741,49.972h0.455v1.258h-0.455V49.972z M104.741,48.294h0.455v1.259h-0.455V48.294z M104.741,46.617h0.455v1.258h-0.455
	V46.617z M104.741,44.939h0.455v1.258h-0.455V44.939z M104.741,43.261h0.455v1.258h-0.455V43.261z M104.741,41.583h0.455v1.258
	h-0.455V41.583z M105.446,40.136v0.419h-0.25v0.609h-0.455v-1.028H105.446z M107.27,40.136v0.419h-1.368v-0.419H107.27z
	 M109.093,40.136v0.419h-1.368v-0.419H109.093z M110.917,40.136v0.419h-1.367v-0.419H110.917z M112.74,40.136v0.419h-1.367v-0.419
	H112.74z M114.564,40.136v0.419h-1.368v-0.419H114.564z M116.387,40.136v0.419h-1.367v-0.419H116.387z M117.296,41.396h-0.456
	v-1.051h0.002v-0.21h0.453V41.396z M117.296,43.074h-0.456v-1.258h0.456V43.074z M117.296,44.751h-0.456v-1.258h0.456V44.751z
	 M117.296,46.429h-0.456v-1.258h0.456V46.429z M117.296,48.107h-0.456v-1.258h0.456V48.107z M117.296,49.785h-0.456v-1.258h0.456
	V49.785z M117.296,51.462h-0.456v-1.258h0.456V51.462z M117.296,53.141h-0.456v-1.258h0.456V53.141z M117.296,54.818h-0.456V53.56
	h0.456V54.818z M117.296,56.495h-0.456v-1.258h0.456V56.495z M117.296,58.173h-0.456v-1.258h0.456V58.173z M117.296,59.851h-0.456
	v-1.258h0.456V59.851z M117.296,61.143v-0.873h-0.456v0.873H117.296z M113.51,62.455v-0.419h1.368v0.419H113.51z"/>
<path fill="#1A1A1A" d="M148.983,77.931h-0.382v-0.378h0.382V77.931z M147.653,77.236l0.029,0.136h0.012l0.396-1.457h0.415
	l-0.722,2.328c-0.046,0.139-0.11,0.257-0.192,0.354c-0.082,0.098-0.199,0.147-0.354,0.147c-0.03,0-0.063-0.003-0.1-0.009
	c-0.035-0.008-0.071-0.015-0.106-0.024l0.043-0.28c0.013,0.003,0.03,0.006,0.055,0.008c0.025,0.003,0.044,0.004,0.058,0.004
	c0.074,0,0.134-0.032,0.177-0.094c0.044-0.063,0.077-0.137,0.103-0.223l0.069-0.209l-0.636-2.002h0.413L147.653,77.236z
	 M146.617,77.931h-0.38v-2.907h0.38V77.931z M145.75,77.931h-0.379v-2.907h0.379V77.931z M144.104,77.679
	c0.102,0,0.192-0.032,0.272-0.096c0.079-0.064,0.132-0.141,0.156-0.232v-0.358h-0.314c-0.116,0-0.208,0.037-0.274,0.112
	c-0.066,0.074-0.099,0.163-0.099,0.267c0,0.094,0.023,0.168,0.067,0.224C143.958,77.652,144.021,77.679,144.104,77.679z
	 M144.591,77.931c-0.016-0.061-0.028-0.115-0.037-0.163c-0.01-0.049-0.017-0.096-0.019-0.143c-0.053,0.1-0.123,0.181-0.211,0.247
	s-0.188,0.097-0.3,0.098c-0.18-0.001-0.317-0.054-0.415-0.161c-0.096-0.106-0.144-0.253-0.144-0.438c0-0.19,0.067-0.339,0.2-0.449
	c0.134-0.109,0.319-0.164,0.558-0.164h0.309v-0.208c0-0.122-0.026-0.218-0.081-0.288c-0.056-0.069-0.133-0.103-0.235-0.103
	c-0.092,0-0.165,0.03-0.219,0.089c-0.055,0.06-0.081,0.136-0.081,0.23l-0.362,0.001l-0.004-0.012
	c-0.007-0.156,0.054-0.293,0.183-0.413c0.129-0.12,0.299-0.18,0.507-0.18c0.199,0,0.362,0.059,0.486,0.176
	c0.123,0.118,0.187,0.285,0.187,0.502v0.936c0,0.077,0.006,0.152,0.016,0.225c0.009,0.072,0.024,0.144,0.046,0.215H144.591z
	 M142.518,77.683c0.093,0,0.171-0.036,0.234-0.108c0.063-0.072,0.093-0.168,0.093-0.292h0.342l0.003,0.011
	c0.005,0.19-0.06,0.351-0.192,0.481c-0.132,0.131-0.293,0.195-0.48,0.196c-0.248-0.001-0.44-0.095-0.576-0.285
	c-0.136-0.189-0.203-0.431-0.203-0.726v-0.071c0-0.293,0.067-0.535,0.203-0.726c0.135-0.19,0.328-0.286,0.576-0.286
	c0.201,0,0.365,0.068,0.49,0.204c0.127,0.136,0.188,0.313,0.184,0.531l-0.004,0.009h-0.343c0-0.135-0.03-0.244-0.09-0.327
	c-0.061-0.085-0.139-0.126-0.237-0.126c-0.142,0-0.245,0.068-0.308,0.205c-0.062,0.137-0.092,0.308-0.092,0.516v0.071
	c0,0.211,0.03,0.384,0.092,0.52C142.272,77.616,142.375,77.683,142.518,77.683z M141.354,75.386h-0.38v-0.362h0.38V75.386z
	 M141.354,77.931h-0.38v-2.016h0.38V77.931z M140.292,75.414v0.502h0.316v0.27h-0.316v1.2c0,0.104,0.016,0.178,0.047,0.223
	c0.032,0.043,0.074,0.066,0.127,0.066c0.021,0,0.04-0.002,0.059-0.005c0.019-0.004,0.041-0.01,0.064-0.017l0.039,0.261
	c-0.036,0.018-0.076,0.031-0.12,0.042c-0.044,0.01-0.09,0.015-0.137,0.016c-0.146-0.001-0.258-0.047-0.339-0.141
	s-0.121-0.241-0.121-0.444v-1.2h-0.267v-0.27h0.267v-0.502H140.292z M139.465,76.23l-0.164-0.009c-0.08,0-0.146,0.023-0.199,0.071
	c-0.053,0.048-0.093,0.115-0.123,0.202v1.437H138.6v-2.016h0.348l0.027,0.298c0.044-0.106,0.102-0.188,0.171-0.247
	c0.07-0.059,0.15-0.089,0.24-0.089c0.024,0,0.046,0.003,0.067,0.007c0.02,0.005,0.039,0.01,0.055,0.016L139.465,76.23z
	 M137.555,76.168c-0.109,0-0.197,0.05-0.262,0.152c-0.064,0.101-0.104,0.235-0.121,0.402h0.714v-0.043
	c0-0.151-0.027-0.274-0.081-0.369C137.751,76.215,137.668,76.168,137.555,76.168z M137.59,77.971
	c-0.25-0.001-0.447-0.092-0.59-0.276c-0.142-0.184-0.212-0.423-0.212-0.717v-0.088c0-0.295,0.07-0.538,0.212-0.727
	c0.141-0.19,0.327-0.285,0.555-0.285c0.23,0,0.405,0.082,0.524,0.244c0.12,0.163,0.18,0.382,0.18,0.656v0.213h-1.093
	c0,0.206,0.037,0.373,0.111,0.501c0.074,0.127,0.187,0.191,0.34,0.191c0.105,0,0.198-0.017,0.276-0.049
	c0.079-0.033,0.15-0.081,0.216-0.144l0.124,0.235c-0.067,0.069-0.155,0.127-0.265,0.175C137.856,77.946,137.73,77.97,137.59,77.971z
	 M135.795,77.326l0.032,0.158h0.011l0.034-0.158l0.352-1.41h0.392l-0.615,2.016h-0.338l-0.618-2.016h0.395L135.795,77.326z
	 M133.62,76.947c0-0.229-0.034-0.415-0.1-0.559c-0.066-0.145-0.166-0.217-0.299-0.217c-0.084,0-0.156,0.023-0.214,0.07
	c-0.059,0.047-0.105,0.11-0.14,0.189v1.015c0.035,0.076,0.082,0.134,0.14,0.176c0.059,0.04,0.13,0.061,0.216,0.061
	c0.133,0,0.231-0.063,0.298-0.19c0.065-0.126,0.099-0.295,0.099-0.507V76.947z M134,76.986c0,0.298-0.06,0.537-0.177,0.716
	c-0.12,0.178-0.285,0.268-0.497,0.269c-0.099-0.001-0.187-0.02-0.264-0.059c-0.077-0.039-0.141-0.097-0.195-0.172v0.967h-0.379
	v-2.791h0.322l0.035,0.242c0.055-0.091,0.122-0.16,0.202-0.208c0.079-0.048,0.171-0.072,0.277-0.072
	c0.213,0,0.379,0.098,0.499,0.293c0.117,0.194,0.177,0.454,0.177,0.777V76.986z M132.025,75.386h-0.38v-0.362h0.38V75.386z
	 M132.025,77.931h-0.38v-2.016h0.38V77.931z M131.157,77.931h-0.38v-2.907h0.38V77.931z M129.746,77.931v-1.746h-0.267v-0.27h0.267
	v-0.26c0-0.213,0.052-0.379,0.156-0.495c0.104-0.117,0.249-0.176,0.435-0.176c0.038,0,0.076,0.004,0.115,0.01
	c0.039,0.008,0.082,0.017,0.128,0.03l-0.036,0.277c-0.023-0.006-0.048-0.01-0.074-0.015c-0.027-0.003-0.055-0.005-0.086-0.005
	c-0.084,0-0.149,0.033-0.193,0.097c-0.044,0.064-0.066,0.157-0.066,0.277v0.26h0.333v0.27h-0.333v1.746H129.746z M127.047,75.831
	c0,0.063,0.014,0.127,0.042,0.196c0.028,0.068,0.069,0.142,0.126,0.222l0.191-0.149c0.064-0.05,0.107-0.102,0.13-0.156
	c0.022-0.055,0.035-0.115,0.035-0.18c0-0.082-0.023-0.15-0.069-0.208s-0.109-0.085-0.19-0.085c-0.083,0-0.147,0.034-0.194,0.104
	C127.069,75.644,127.047,75.729,127.047,75.831z M127.273,77.683c0.08,0,0.158-0.014,0.235-0.043
	c0.077-0.029,0.149-0.073,0.216-0.13l-0.601-0.801l-0.04,0.032c-0.089,0.09-0.15,0.173-0.181,0.25
	c-0.031,0.078-0.046,0.15-0.046,0.217c0,0.137,0.036,0.25,0.11,0.34C127.04,77.639,127.142,77.683,127.273,77.683z M126.472,77.217
	c0-0.152,0.039-0.286,0.118-0.4c0.078-0.115,0.196-0.232,0.35-0.355c-0.084-0.12-0.147-0.229-0.188-0.327
	c-0.042-0.099-0.062-0.199-0.062-0.3c0-0.21,0.056-0.372,0.168-0.485c0.112-0.114,0.265-0.171,0.458-0.171
	c0.175,0,0.316,0.055,0.425,0.167c0.107,0.112,0.162,0.247,0.162,0.407c0,0.123-0.026,0.227-0.077,0.315
	c-0.052,0.087-0.127,0.171-0.226,0.254l-0.207,0.167l0.551,0.728l0.011-0.002c0.04-0.072,0.071-0.154,0.093-0.247
	c0.022-0.091,0.034-0.19,0.034-0.294h0.32c0,0.165-0.02,0.315-0.062,0.453c-0.042,0.137-0.104,0.26-0.188,0.366l0.334,0.439h-0.445
	l-0.147-0.196c-0.093,0.077-0.192,0.135-0.297,0.175s-0.216,0.059-0.333,0.06c-0.241-0.001-0.434-0.07-0.577-0.208
	C126.544,77.624,126.472,77.442,126.472,77.217z M125.069,75.414v0.502h0.315v0.27h-0.315v1.2c0,0.104,0.016,0.178,0.048,0.223
	c0.032,0.043,0.074,0.066,0.126,0.066c0.021,0,0.041-0.002,0.06-0.005c0.018-0.004,0.04-0.01,0.065-0.017l0.039,0.261
	c-0.036,0.018-0.076,0.031-0.12,0.042c-0.044,0.01-0.09,0.015-0.137,0.016c-0.146-0.001-0.258-0.047-0.339-0.141
	c-0.081-0.094-0.121-0.241-0.121-0.444v-1.2h-0.266v-0.27h0.266v-0.502H125.069z M123.789,77.637
	c-0.055,0.106-0.124,0.188-0.208,0.247c-0.084,0.058-0.182,0.086-0.294,0.087c-0.185-0.001-0.33-0.072-0.434-0.214
	c-0.104-0.144-0.157-0.366-0.157-0.666v-1.176h0.38v1.18c0,0.215,0.025,0.366,0.074,0.453c0.05,0.086,0.125,0.129,0.227,0.129
	c0.094,0,0.173-0.022,0.238-0.065c0.065-0.043,0.117-0.105,0.154-0.186v-1.511h0.379v2.016h-0.322L123.789,77.637z M121.678,77.683
	c0.093,0,0.171-0.036,0.234-0.108c0.063-0.072,0.095-0.168,0.095-0.292h0.341l0.003,0.011c0.005,0.19-0.059,0.351-0.192,0.481
	c-0.133,0.131-0.293,0.195-0.48,0.196c-0.248-0.001-0.44-0.095-0.576-0.285c-0.135-0.189-0.203-0.431-0.203-0.726v-0.071
	c0-0.293,0.068-0.535,0.203-0.726c0.136-0.19,0.328-0.286,0.576-0.286c0.202,0,0.365,0.068,0.491,0.204
	c0.126,0.136,0.188,0.313,0.184,0.531l-0.004,0.009h-0.342c0-0.135-0.03-0.244-0.091-0.327c-0.06-0.085-0.139-0.126-0.238-0.126
	c-0.141,0-0.244,0.068-0.307,0.205c-0.062,0.137-0.094,0.308-0.094,0.516v0.071c0,0.211,0.031,0.384,0.093,0.52
	C121.433,77.616,121.536,77.683,121.678,77.683z"/>
</svg>
