<?xml version="1.0" encoding="utf-8"?>
<!-- Generator: Adobe Illustrator 16.0.3, SVG Export Plug-In . SVG Version: 6.00 Build 0)  -->
<!DOCTYPE svg PUBLIC "-//W3C//DTD SVG 1.1//EN" "http://www.w3.org/Graphics/SVG/1.1/DTD/svg11.dtd">
<svg version="1.1" id="Layer_1" xmlns="http://www.w3.org/2000/svg" xmlns:xlink="http://www.w3.org/1999/xlink" x="0px" y="0px"
	 width="18.667px" height="14.25px" viewBox="53.251 -3.731 18.667 14.25" enable-background="new 53.251 -3.731 18.667 14.25"
	 xml:space="preserve">
<g>
	<path fill="#333333" d="M63.949-1.301h0.682l-0.682,0.682v0.683v1.362V2.79v1.364h-0.684h-0.682h-0.68h-1.363V2.79V0.745h1.363
		h0.68l-0.68,0.682v1.364h0.68V1.427V0.745V0.063v-1.364H63.949z M60.541-1.301h1.363v1.364h-1.363V-1.301z"/>
	<path fill="#333333" d="M69.928,5.957l0.355,1.445V5.957h0.215v2.095h-0.223l-0.4-1.542v1.542H69.66V5.957H69.928z M68.436,5.957
		v2.095h-0.246V5.957H68.436z M66.395,7.543h0.326l-0.166-1.049L66.395,7.543z M66.676,5.957l0.363,2.095h-0.238l-0.049-0.303
		h-0.391l-0.045,0.303H66.08l0.354-2.095H66.676z M64.584,5.919c0.127,0,0.227,0.038,0.297,0.112
		c0.072,0.075,0.105,0.174,0.105,0.297v0.075h-0.229V6.348c0-0.062-0.016-0.109-0.049-0.146c-0.029-0.036-0.076-0.053-0.133-0.053
		c-0.064,0-0.115,0.021-0.146,0.064s-0.047,0.098-0.047,0.159c0,0.052,0.008,0.102,0.027,0.146s0.045,0.094,0.082,0.144
		c0.021,0.034,0.051,0.073,0.086,0.118c0.033,0.044,0.068,0.091,0.105,0.141c0.037,0.049,0.07,0.098,0.105,0.146
		c0.031,0.047,0.063,0.09,0.088,0.129c0.041,0.065,0.068,0.128,0.09,0.188c0.02,0.06,0.027,0.126,0.027,0.203
		c0,0.155-0.033,0.278-0.104,0.368c-0.066,0.09-0.174,0.135-0.316,0.135c-0.068,0-0.135-0.011-0.189-0.031
		c-0.055-0.021-0.1-0.052-0.137-0.088s-0.066-0.079-0.088-0.13c-0.021-0.05-0.029-0.104-0.029-0.16V7.567l0.227,0.059v0.051
		c0,0.051,0.02,0.095,0.055,0.132c0.033,0.036,0.084,0.056,0.145,0.056c0.068,0,0.117-0.021,0.15-0.064s0.051-0.104,0.051-0.182
		c0-0.048-0.008-0.097-0.023-0.146c-0.016-0.051-0.041-0.105-0.08-0.166c-0.02-0.03-0.045-0.064-0.072-0.103
		c-0.029-0.038-0.063-0.077-0.092-0.118c-0.033-0.041-0.064-0.083-0.098-0.125c-0.031-0.042-0.061-0.082-0.084-0.122
		c-0.063-0.096-0.104-0.181-0.125-0.255c-0.02-0.074-0.033-0.145-0.033-0.213c0-0.139,0.039-0.249,0.115-0.33
		C64.354,5.96,64.457,5.919,64.584,5.919z M63.018,5.957v0.238h-0.445v0.658h0.316v0.237h-0.316v0.724h0.445v0.237h-0.691V5.957
		H63.018z M60.51,7.814h0.168c0.129,0,0.193-0.076,0.193-0.229V6.422c0-0.151-0.064-0.228-0.193-0.228H60.51V7.814z M60.697,5.957
		c0.129,0,0.229,0.04,0.305,0.118c0.076,0.079,0.113,0.2,0.113,0.364v1.132c0,0.164-0.039,0.285-0.113,0.363
		c-0.074,0.079-0.176,0.117-0.305,0.117h-0.433V5.957H60.697z M58.435,7.666c0,0.062,0.018,0.107,0.052,0.139
		c0.035,0.03,0.08,0.047,0.136,0.047s0.1-0.017,0.135-0.047c0.035-0.031,0.052-0.077,0.052-0.139V6.342
		c0-0.061-0.018-0.105-0.052-0.138c-0.035-0.031-0.08-0.047-0.135-0.047c-0.056,0-0.101,0.016-0.136,0.047
		c-0.034,0.031-0.052,0.077-0.052,0.138V7.666z M59.051,7.669c0,0.066-0.01,0.125-0.033,0.178c-0.021,0.051-0.053,0.096-0.092,0.132
		c-0.039,0.037-0.084,0.063-0.137,0.083c-0.053,0.019-0.108,0.027-0.167,0.027c-0.062,0-0.117-0.009-0.17-0.027
		c-0.053-0.02-0.099-0.046-0.137-0.083s-0.068-0.081-0.091-0.132c-0.021-0.053-0.033-0.111-0.033-0.178v-1.33
		c0-0.065,0.012-0.125,0.033-0.177c0.022-0.052,0.053-0.096,0.091-0.131s0.084-0.063,0.137-0.083c0.053-0.021,0.108-0.03,0.17-0.03
		c0.059,0,0.114,0.01,0.167,0.03c0.053,0.02,0.099,0.047,0.137,0.083c0.039,0.036,0.07,0.08,0.092,0.131
		c0.023,0.051,0.033,0.11,0.033,0.177V7.669z M56.41,5.957l0.355,1.445V5.957h0.214v2.095h-0.219L56.356,6.51v1.542h-0.214V5.957
		H56.41z M54.918,5.957v2.095h-0.246V5.957H54.918z"/>
</g>
</svg>
