<?xml version="1.0" encoding="utf-8"?>
<!-- Generator: Adobe Illustrator 16.0.3, SVG Export Plug-In . SVG Version: 6.00 Build 0)  -->
<!DOCTYPE svg PUBLIC "-//W3C//DTD SVG 1.1//EN" "http://www.w3.org/Graphics/SVG/1.1/DTD/svg11.dtd">
<svg version="1.1" id="Layer_1" xmlns="http://www.w3.org/2000/svg" xmlns:xlink="http://www.w3.org/1999/xlink" x="0px" y="0px"
	 width="18.667px" height="14.25px" viewBox="0 0 18.667 14.25" enable-background="new 0 0 18.667 14.25" xml:space="preserve">
<polygon fill="#333333" points="10.698,2.43 11.379,2.43 10.698,3.111 10.698,3.794 10.698,5.156 10.698,6.521 10.698,7.885 
	10.014,7.885 9.333,7.885 8.652,7.885 7.29,7.885 7.29,6.521 7.29,4.476 8.652,4.476 9.333,4.476 8.652,5.157 8.652,6.521 
	9.333,6.521 9.333,5.157 9.333,4.476 9.333,3.793 9.333,2.43 "/>
<rect x="7.29" y="2.43" fill="#FFCD2E" width="1.363" height="1.364"/>
<path fill="#333333" d="M16.677,9.688l0.354,1.445V9.688h0.215v2.095h-0.223l-0.4-1.542v1.542h-0.215V9.688H16.677z M15.185,9.688
	v2.095h-0.246V9.688H15.185z M13.144,11.273h0.326l-0.166-1.049L13.144,11.273z M13.424,9.688l0.363,2.095h-0.238L13.5,11.479H13.11
	l-0.045,0.303h-0.236l0.354-2.095H13.424z M11.333,9.649c0.127,0,0.228,0.038,0.297,0.112c0.072,0.074,0.105,0.174,0.105,0.297
	v0.074h-0.229v-0.055c0-0.062-0.016-0.108-0.049-0.146c-0.029-0.036-0.076-0.054-0.133-0.054c-0.064,0-0.115,0.021-0.146,0.064
	s-0.047,0.098-0.047,0.159c0,0.052,0.008,0.103,0.027,0.146c0.019,0.045,0.045,0.094,0.082,0.145
	c0.021,0.033,0.051,0.072,0.086,0.118c0.032,0.044,0.067,0.091,0.104,0.141c0.037,0.049,0.069,0.099,0.104,0.146
	c0.031,0.048,0.063,0.091,0.088,0.129c0.041,0.065,0.068,0.129,0.09,0.188c0.021,0.06,0.027,0.126,0.027,0.203
	c0,0.155-0.033,0.278-0.104,0.368c-0.066,0.09-0.174,0.135-0.316,0.135c-0.068,0-0.135-0.011-0.189-0.031s-0.1-0.052-0.137-0.088
	c-0.037-0.035-0.065-0.078-0.088-0.13c-0.021-0.05-0.029-0.104-0.029-0.159v-0.115l0.228,0.06v0.051
	c0,0.052,0.021,0.095,0.056,0.132c0.032,0.036,0.084,0.057,0.145,0.057c0.068,0,0.117-0.021,0.15-0.064
	c0.032-0.043,0.051-0.104,0.051-0.182c0-0.049-0.008-0.098-0.023-0.146c-0.016-0.051-0.041-0.104-0.08-0.166
	c-0.02-0.029-0.045-0.063-0.072-0.103c-0.028-0.038-0.063-0.077-0.092-0.118c-0.033-0.041-0.064-0.083-0.098-0.125
	c-0.031-0.042-0.061-0.082-0.084-0.122c-0.063-0.096-0.104-0.181-0.125-0.255c-0.02-0.074-0.033-0.145-0.033-0.213
	c0-0.139,0.039-0.249,0.115-0.33C11.103,9.69,11.206,9.649,11.333,9.649z M9.767,9.688v0.238H9.323v0.658h0.315v0.236H9.323v0.725
	h0.444v0.236h-0.69V9.688H9.767z M7.258,11.545h0.169c0.129,0,0.192-0.076,0.192-0.229v-1.163c0-0.15-0.063-0.229-0.192-0.229H7.258
	V11.545z M7.446,9.688c0.129,0,0.229,0.04,0.305,0.118c0.076,0.079,0.113,0.2,0.113,0.364v1.131c0,0.164-0.039,0.285-0.113,0.363
	c-0.073,0.08-0.176,0.117-0.305,0.117H7.013V9.688H7.446z M5.184,11.396c0,0.063,0.018,0.107,0.052,0.139
	c0.035,0.03,0.08,0.047,0.136,0.047c0.057,0,0.101-0.017,0.135-0.047c0.035-0.031,0.053-0.076,0.053-0.139v-1.324
	c0-0.061-0.018-0.105-0.053-0.138C5.472,9.903,5.427,9.888,5.372,9.888S5.271,9.903,5.236,9.935
	c-0.034,0.03-0.052,0.077-0.052,0.138V11.396z M5.799,11.399c0,0.065-0.01,0.125-0.032,0.179c-0.021,0.051-0.054,0.096-0.093,0.131
	c-0.038,0.037-0.084,0.063-0.137,0.084c-0.053,0.019-0.107,0.026-0.166,0.026c-0.063,0-0.117-0.009-0.17-0.026
	c-0.054-0.021-0.1-0.047-0.138-0.084s-0.067-0.08-0.091-0.131c-0.021-0.054-0.033-0.111-0.033-0.179v-1.33
	c0-0.065,0.012-0.125,0.033-0.177C4.995,9.84,5.026,9.797,5.064,9.762s0.084-0.063,0.138-0.083c0.053-0.021,0.107-0.03,0.17-0.03
	c0.059,0,0.113,0.01,0.166,0.03c0.053,0.02,0.1,0.047,0.137,0.083c0.039,0.035,0.07,0.08,0.093,0.131s0.032,0.109,0.032,0.177
	V11.399z M3.159,9.688l0.355,1.445V9.688h0.214v2.095h-0.22L3.105,10.24v1.542H2.891V9.688H3.159z M1.667,9.688v2.095H1.42V9.688
	H1.667z"/>
</svg>
