<?xml version="1.0" encoding="utf-8"?>
<!-- Generator: Adobe Illustrator 16.0.3, SVG Export Plug-In . SVG Version: 6.00 Build 0)  -->
<!DOCTYPE svg PUBLIC "-//W3C//DTD SVG 1.1//EN" "http://www.w3.org/Graphics/SVG/1.1/DTD/svg11.dtd">
<svg version="1.1" id="Layer_1" xmlns="http://www.w3.org/2000/svg" xmlns:xlink="http://www.w3.org/1999/xlink" x="0px" y="0px"
	 width="200px" height="125.829px" viewBox="0 0 200 125.829" enable-background="new 0 0 200 125.829" xml:space="preserve">
<path fill="#F9C128" d="M102.144,24.581L189.88,0.338C190.706,0.11,191.501,0,192.248,0c1.77,0,3.385,0.571,4.695,1.595
	c1.285,1.004,2.237,2.424,2.712,4.144C199.88,6.549,200,7.404,200,8.286v48.968c0,2.542-0.95,5.099-2.479,7.166
	c-1.537,2.08-3.701,3.705-6.12,4.374l-87.737,24.243c-0.827,0.228-1.621,0.337-2.367,0.337c-0.416,0-0.823-0.031-1.22-0.093
	c-0.791-0.014-1.628-0.072-2.484-0.173c-2.232-0.263-4.68-0.804-6.801-1.56l-27.096-9.667l-10.767,3.71
	c-1.38,0.468-2.329,1.017-2.867,1.589c-0.268,0.285-0.409,0.554-0.422,0.79c-0.013,0.227,0.088,0.484,0.297,0.76
	c0.404,0.529,1.135,1.053,2.179,1.526l52.545,21.344c1.181,0.487,2.095,1.223,2.637,2.058c0.435,0.67,0.647,1.408,0.598,2.155
	c-0.051,0.759-0.363,1.496-0.974,2.147c-0.707,0.756-1.844,1.397-3.466,1.786l-21.776,5.25c-2.98,0.654-5.03,0.992-7.334,0.755
	c-2.273-0.234-4.654-1.025-8.278-2.622l-30.662-13.018c-3.368,1.07-7.369,1.487-12.004,0.997c-5.459-0.577-11.29-3.571-15.698-7.352
	C3,99.725-0.221,94.625,0.012,90.259c0.24-4.532,2.888-9.386,7.756-12.814c3.92-2.76,9.295-4.625,15.998-4.625
	c3.744,0,7.212,1.339,10.271,3.461c3.86,2.677,7.063,6.629,9.286,10.627c2.269,4.081,3.57,8.318,3.57,11.424
	c0,1.711-0.383,3.213-1.189,4.377c-1.615,2.328-3.823,4.358-6.631,5.863l28.144,11.945c3.348,1.476,5.491,2.201,7.417,2.399
	c1.896,0.196,3.729-0.114,6.44-0.71l21.72-5.227c1.04-0.249,1.702-0.59,2.049-0.961c0.13-0.139,0.196-0.271,0.203-0.384
	c0.008-0.125-0.042-0.272-0.141-0.424c-0.237-0.365-0.693-0.712-1.322-0.973L51,92.878c-1.521-0.683-2.641-1.515-3.33-2.417
	c-0.637-0.834-0.933-1.737-0.877-2.658c0.054-0.91,0.449-1.785,1.192-2.576c0.845-0.901,2.183-1.709,4.018-2.334l7.387-2.547
	l-17.595-6.278c-1.629-0.581-2.735-1.389-3.417-2.288c-0.714-0.947-0.986-1.971-0.91-2.984c0.072-0.964,0.458-1.843,1.075-2.587
	c0.755-0.91,1.897-1.634,3.175-1.998L93.543,49.42v-13.3c0-2.542,0.95-5.098,2.479-7.167C97.56,26.874,99.724,25.249,102.144,24.581
	 M191.4,5.836l-87.737,24.243c-1.155,0.32-2.241,1.167-3.059,2.273c-0.826,1.117-1.339,2.465-1.339,3.769v48.968
	c0,0.398,0.042,0.745,0.121,1.029c0.143,0.516,0.396,0.917,0.723,1.171c0.299,0.233,0.706,0.364,1.187,0.364
	c0.281,0,0.566-0.037,0.848-0.114l87.736-24.243c1.155-0.319,2.241-1.167,3.059-2.272c0.826-1.117,1.339-2.465,1.339-3.769V8.286
	c0-0.399-0.042-0.743-0.121-1.027c-0.142-0.515-0.396-0.917-0.722-1.172c-0.3-0.234-0.707-0.365-1.187-0.365
	C191.966,5.722,191.681,5.759,191.4,5.836z M25.272,88.983c-1.43-0.653-2.06-2.343-1.406-3.772c0.653-1.431,2.343-2.061,3.772-1.407
	c1.627,0.741,3.338,2.192,4.705,3.929c1.272,1.617,2.316,3.561,2.783,5.489c0.37,1.528-0.569,3.068-2.099,3.438
	c-1.528,0.369-3.068-0.57-3.438-2.099c-0.262-1.084-0.916-2.263-1.733-3.302C27.015,90.191,26.071,89.347,25.272,88.983z
	 M76.878,73.759c-1.516,0.431-3.097-0.448-3.527-1.965c-0.431-1.517,0.448-3.097,1.964-3.527l3.646-1.04
	c1.517-0.431,3.097,0.449,3.528,1.965c0.431,1.517-0.448,3.098-1.964,3.528L76.878,73.759z M88.818,70.214
	c-1.517,0.431-3.097-0.448-3.528-1.965c-0.431-1.517,0.449-3.097,1.965-3.528l3.646-1.039c0.957-0.272,1.939-0.022,2.642,0.58
	v-8.904L45.105,69.183l47.606,16.984c0.304,0.108,0.615,0.212,0.933,0.309c-0.066-0.453-0.101-0.917-0.101-1.388V68.595
	c-0.304,0.262-0.668,0.463-1.079,0.579L88.818,70.214z M23.766,78.538c-5.429,0-9.686,1.441-12.716,3.575
	c-3.368,2.372-5.191,5.557-5.344,8.437c-0.134,2.521,2.251,5.915,5.704,8.877c3.626,3.111,8.311,5.563,12.572,6.012
	c4.156,0.44,7.612,0.02,10.394-0.996c2.969-1.084,5.173-2.858,6.639-4.972c0.109-0.157,0.162-0.556,0.162-1.139
	c0-2.21-1.033-5.418-2.833-8.655c-1.845-3.317-4.455-6.564-7.544-8.707C28.65,79.479,26.266,78.538,23.766,78.538z"/>
</svg>
