<?xml version="1.0" encoding="utf-8"?>
<!-- Generator: Adobe Illustrator 16.0.3, SVG Export Plug-In . SVG Version: 6.00 Build 0)  -->
<!DOCTYPE svg PUBLIC "-//W3C//DTD SVG 1.1//EN" "http://www.w3.org/Graphics/SVG/1.1/DTD/svg11.dtd">
<svg version="1.1" id="Layer_1" xmlns="http://www.w3.org/2000/svg" xmlns:xlink="http://www.w3.org/1999/xlink" x="0px" y="0px"
	 width="427.197px" height="427.197px" viewBox="0 0 427.197 427.197" enable-background="new 0 0 427.197 427.197"
	 xml:space="preserve">
<g>
	<path fill-rule="evenodd" clip-rule="evenodd" fill="#00FFFF" d="M212.599,53.945c27.943,0,50.596,22.652,50.596,50.596
		s-22.652,50.596-50.596,50.596s-50.596-22.652-50.596-50.596S184.655,53.945,212.599,53.945"/>
	<path fill-rule="evenodd" clip-rule="evenodd" d="M103.542,163.002c27.943,0,50.596,22.652,50.596,50.596
		s-22.652,50.596-50.596,50.596s-50.596-22.652-50.596-50.596S75.598,163.002,103.542,163.002"/>
	<path fill-rule="evenodd" clip-rule="evenodd" fill="#FF00FF" d="M321.655,163.002c27.943,0,50.597,22.652,50.597,50.596
		s-22.653,50.596-50.597,50.596c-27.942,0-50.596-22.652-50.596-50.596S293.713,163.002,321.655,163.002"/>
	<path fill-rule="evenodd" clip-rule="evenodd" fill="#FFFF00" d="M212.599,272.06c27.943,0,50.596,22.652,50.596,50.596
		s-22.652,50.596-50.596,50.596s-50.596-22.652-50.596-50.596S184.655,272.06,212.599,272.06"/>
</g>
</svg>
