<?xml version="1.0" encoding="utf-8"?>
<!-- Generator: Adobe Illustrator 16.0.3, SVG Export Plug-In . SVG Version: 6.00 Build 0)  -->
<!DOCTYPE svg PUBLIC "-//W3C//DTD SVG 1.1//EN" "http://www.w3.org/Graphics/SVG/1.1/DTD/svg11.dtd">
<svg version="1.1" id="Layer_1" xmlns="http://www.w3.org/2000/svg" xmlns:xlink="http://www.w3.org/1999/xlink" x="0px" y="0px"
	 width="122px" height="31.499px" viewBox="0 0 122 31.499" enable-background="new 0 0 122 31.499" xml:space="preserve">
<rect x="1" y="1" fill-rule="evenodd" clip-rule="evenodd" fill="none" width="120" height="29.499"/>
<path fill-rule="evenodd" clip-rule="evenodd" fill="#999999" d="M37.715,12.193c-0.77-0.493-1.66-0.753-2.579-0.753
	c-2.646,0-4.79,2.145-4.79,4.79c0,0.919,0.26,1.81,0.752,2.579L37.715,12.193z M34.834,21.323l0.586,4.118h-0.284
	c-1.714,0-3.387-0.467-4.842-1.376l-0.163-0.104l-0.214-0.143l-0.156-0.109l-0.155-0.114l-0.103-0.079l-0.151-0.119l-0.196-0.162
	l-0.239-0.213l-0.187-0.175l-0.181-0.181l-0.133-0.139l-0.171-0.188l-0.166-0.192c-1.403-1.658-2.153-3.747-2.153-5.917
	c0-5.086,4.124-9.209,9.209-9.209c2.173,0,4.246,0.765,5.916,2.151l0.161,0.139l0.131,0.117L41.58,9.65l0.13,0.13l0.18,0.188
	l0.126,0.139l0.126,0.145l0.087,0.104l0.116,0.142l0.195,0.254l0.093,0.128c0.056,0.079,0.111,0.158,0.16,0.231l0.11,0.168
	l0.08,0.127l0.088,0.147l0.077,0.132l0.083,0.148l0.09,0.17l0.059,0.116l0.085,0.174l0.125,0.271L34.834,21.323z"/>
<path fill-rule="evenodd" clip-rule="evenodd" fill="#999999" d="M54.104,11.439c-2.645,0-4.791,2.146-4.791,4.791
	c0,4.016,4.634,6.218,7.746,3.771l0.135-0.109l0.042-0.037l0.087-0.076l0.047-0.043c0.042-0.039,0.08-0.077,0.121-0.118
	c0.054-0.054,0.108-0.11,0.156-0.161l0.152-0.176l0.071-0.09l0.071-0.092l0.068-0.093l0.098-0.144l0.094-0.147l0.058-0.097
	l0.056-0.102l0.055-0.102l0.052-0.104l0.049-0.104l0.047-0.109l0.044-0.107l0.042-0.108l0.04-0.113
	c0.024-0.076,0.049-0.15,0.07-0.226c0.022-0.077,0.042-0.153,0.06-0.229c0.019-0.078,0.032-0.157,0.047-0.229l0.019-0.12
	l0.018-0.117l0.014-0.121l0.01-0.123l0.008-0.121l0.005-0.123l0.001-0.127c0-0.443-0.061-0.886-0.181-1.313
	c-0.021-0.075-0.045-0.149-0.07-0.225c-0.025-0.074-0.052-0.147-0.082-0.22c-0.028-0.071-0.058-0.144-0.089-0.215
	C57.696,12.544,55.99,11.439,54.104,11.439 M10.209,21.02h7.978v4.417h-7.978C5.124,25.437,1,21.317,1,16.23
	c0-5.086,4.124-9.209,9.209-9.209c2.941,0,5.671,1.396,7.398,3.724l-3.186,3.188l-0.13-0.21c-0.873-1.419-2.412-2.283-4.083-2.283
	c-2.645,0-4.79,2.146-4.79,4.791C5.42,18.875,7.564,21.02,10.209,21.02z M44.345,19.264v6.176h-6.176L44.345,19.264z M63.376,25.044
	v0.403h-4.482v-1.352c-2.685,1.636-6.045,1.756-8.882,0.378c-3.219-1.563-5.117-4.671-5.117-8.244c0-1.796,0.517-3.537,1.5-5.042
	l0.084-0.124l0.118-0.172l0.134-0.183l0.15-0.195l0.131-0.164l0.134-0.157l0.149-0.168l0.005-0.004l0.144-0.155l0.146-0.15
	l0.159-0.153l0.161-0.15l0.166-0.147l0.106-0.089l0.147-0.122l0.087-0.07l0.176-0.135l0.179-0.131l0.182-0.125l0.123-0.08l0.156-0.1
	l0.123-0.076l0.191-0.113l0.167-0.093l0.197-0.104l0.2-0.098l0.24-0.112l0.17-0.074l0.24-0.097l0.214-0.08l0.178-0.063l0.24-0.076
	l0.21-0.063l0.201-0.054l0.222-0.055l0.238-0.05l0.225-0.044l0.214-0.035l0.23-0.033l0.23-0.025l0.24-0.021l0.232-0.015l0.234-0.008
	l0.3-0.003l0.248,0.005l0.373,0.019l0.185,0.016l0.266,0.029l0.221,0.03l0.181,0.028l0.24,0.044l0.097,0.019l0.196,0.043
	l0.349,0.087l0.344,0.102L57.041,7.5l0.168,0.058l0.254,0.095l0.249,0.103l0.167,0.072l0.324,0.154l0.159,0.082l0.16,0.085
	l0.154,0.087l0.211,0.124l0.137,0.086l0.184,0.121l0.178,0.122c0.954-1.057,2.305-1.664,3.74-1.667l0.246-0.001l0.007,18.026
	L63.376,25.044z M76.738,1c1.389,0,2.514,1.125,2.514,2.514c0,1.388-1.125,2.513-2.514,2.513s-2.514-1.125-2.514-2.513
	C74.225,2.125,75.35,1,76.738,1z M76.728,23.797c-1.142,1.016-2.597,1.598-4.126,1.638l-0.173,0.005h-0.106
	c-1.586-0.021-3.093-0.615-4.27-1.665c-1.145,1.021-2.596,1.603-4.127,1.661v-4.431c0.485-0.057,0.934-0.271,1.284-0.62
	c0.406-0.407,0.635-0.956,0.635-1.531V4.989h0.247c1.603,0,3.097,0.754,4.05,2.031h3.715l-1.564,4.418h-2.03v7.416
	c0,0.575,0.228,1.124,0.635,1.531c0.396,0.396,0.923,0.623,1.479,0.634c0.56-0.011,1.086-0.237,1.483-0.634
	c0.406-0.407,0.634-0.956,0.634-1.531V7.021h4.418v11.833c0,0.575,0.229,1.124,0.635,1.531c0.35,0.349,0.798,0.563,1.281,0.62v4.431
	C79.31,25.377,77.869,24.803,76.728,23.797z M97.263,21.02h0.626h8.804h0.332c2.645,0,4.789-2.145,4.789-4.79
	c0-2.645-2.145-4.791-4.789-4.791c-2.646,0-4.791,2.146-4.791,4.786l0.004,0.185l0.003,0.086l0.006,0.099
	c0.007,0.07,0.013,0.139,0.021,0.208l0.015,0.119l0.016,0.093l0.029,0.163c0.016,0.073,0.031,0.146,0.048,0.215l0.039,0.144
	c0.032,0.117,0.07,0.232,0.111,0.344l0.06,0.153l0.065,0.155c0.439,0.979,1.198,1.786,2.147,2.285h-5.95
	c-0.083-0.158-0.159-0.317-0.232-0.48l-0.093-0.216c-0.065-0.154-0.124-0.31-0.182-0.471l-0.005-0.011
	c-0.205-0.586-0.357-1.189-0.437-1.807l-0.014-0.111c-0.016-0.113-0.026-0.229-0.037-0.343l-0.015-0.202l-0.011-0.194l-0.008-0.255
	l-0.001-0.153c0-5.086,4.123-9.209,9.21-9.209c5.086,0,9.209,4.124,9.209,9.209s-4.123,9.21-9.212,9.21l-0.231-0.003h-9.527V21.02z
	 M85.792,21.021l0.001,0.61c0.001,2.582-1.755,3.809-4.171,3.809h-0.246v0.001V25.44v-4.42v-3.857h0.001V7.268V7.021h0.245
	c1.284,0,2.508,0.484,3.443,1.353c1.25-0.792,2.676-1.188,4.161-1.188c2.103,0,4.021,0.729,5.452,2.289
	c1.339,1.463,1.97,3.383,2.036,5.352V25.44h-0.247c-2.416,0-4.171-1.227-4.17-3.809c0.001-2.154,0.002-4.309,0.002-6.462
	c0-0.945-0.21-2.006-0.868-2.723c-0.568-0.62-1.388-0.842-2.205-0.842c-0.908,0-1.758,0.322-2.396,0.977
	c-0.671,0.687-1.038,1.63-1.038,2.588v1.993h0.001v3.857L85.792,21.021z M22.424,8.373c1.251-0.792,2.676-1.188,4.162-1.188
	c1.184,0,2.345,0.23,3.408,0.752c-1.446,0.899-2.639,2.165-3.449,3.667c-0.894,0.008-1.726,0.333-2.355,0.977
	c-0.669,0.687-1.037,1.63-1.037,2.588v6.048c0,2.589-1.539,4.223-4.171,4.223h-0.247v-0.247c0-5.976,0-11.951,0-17.925V7.021h0.247
	C20.265,7.021,21.489,7.504,22.424,8.373z"/>
<path fill="#999999" d="M119.103,8.491c0.18-0.037,0.366-0.056,0.558-0.056c0.434,0,0.651,0.214,0.651,0.644
	c0,0.474-0.219,0.71-0.656,0.71c-0.108,0-0.213-0.022-0.314-0.065v0.555h-0.238V8.491z M119.341,9.513
	c0.094,0.046,0.198,0.07,0.313,0.07c0.281,0,0.422-0.169,0.422-0.506c0-0.295-0.14-0.442-0.419-0.442c-0.12,0-0.226,0.01-0.316,0.03
	V9.513z M118.717,9.708c-0.165,0.054-0.367,0.082-0.607,0.082c-0.403,0-0.605-0.234-0.605-0.704c0-0.434,0.214-0.65,0.643-0.65
	c0.117,0,0.228,0.021,0.331,0.064V7.945h0.239V9.708z M118.478,8.711c-0.096-0.047-0.206-0.069-0.33-0.069
	c-0.271,0-0.408,0.145-0.408,0.435c0,0.343,0.137,0.514,0.408,0.514c0.124,0,0.234-0.017,0.33-0.05V8.711z"/>
<path fill-rule="evenodd" clip-rule="evenodd" fill="#999999" d="M118.908,7.192c1.061,0,1.92,0.859,1.92,1.92
	s-0.859,1.92-1.92,1.92s-1.92-0.859-1.92-1.92S117.848,7.192,118.908,7.192 M118.908,7.021c1.155,0,2.092,0.937,2.092,2.092
	c0,1.156-0.937,2.092-2.092,2.092s-2.092-0.936-2.092-2.092C116.816,7.957,117.753,7.021,118.908,7.021z"/>
</svg>
