<?xml version="1.0" encoding="utf-8"?>
<!-- Generator: Adobe Illustrator 16.0.3, SVG Export Plug-In . SVG Version: 6.00 Build 0)  -->
<!DOCTYPE svg PUBLIC "-//W3C//DTD SVG 1.1//EN" "http://www.w3.org/Graphics/SVG/1.1/DTD/svg11.dtd">
<svg version="1.1" id="Layer_1" xmlns="http://www.w3.org/2000/svg" xmlns:xlink="http://www.w3.org/1999/xlink" x="0px" y="0px"
	 width="122px" height="37.275px" viewBox="0 0 122 37.275" enable-background="new 0 0 122 37.275" xml:space="preserve">
<rect y="2" display="none" fill-rule="evenodd" clip-rule="evenodd" fill="#FFFFFF" width="120" height="35.275"/>
<path fill-rule="evenodd" clip-rule="evenodd" fill="#999999" d="M37.715,12.193c-0.77-0.493-1.66-0.753-2.579-0.753
	c-2.646,0-4.79,2.145-4.79,4.791c0,0.919,0.26,1.809,0.752,2.579L37.715,12.193z M34.834,21.324l0.586,4.117h-0.284
	c-1.714,0-3.387-0.467-4.842-1.375l-0.163-0.104l-0.214-0.145l-0.156-0.109l-0.155-0.113l-0.103-0.078l-0.151-0.119l-0.196-0.164
	l-0.239-0.211l-0.187-0.176l-0.181-0.182l-0.133-0.137l-0.171-0.189l-0.166-0.191c-1.403-1.659-2.153-3.748-2.153-5.918
	c0-5.086,4.124-9.21,9.209-9.21c2.173,0,4.246,0.766,5.916,2.152l0.161,0.138l0.131,0.117L41.58,9.65l0.13,0.13l0.18,0.188
	l0.126,0.139l0.126,0.145l0.087,0.104l0.116,0.143l0.195,0.254l0.093,0.128c0.056,0.079,0.111,0.158,0.16,0.231l0.11,0.168
	l0.08,0.127l0.088,0.146l0.077,0.132l0.083,0.148l0.09,0.17l0.059,0.115l0.085,0.174l0.125,0.271L34.834,21.324z"/>
<path fill-rule="evenodd" clip-rule="evenodd" fill="#999999" d="M54.104,11.439c-2.645,0-4.791,2.146-4.791,4.791
	c0,4.015,4.634,6.217,7.746,3.77l0.135-0.109l0.042-0.036l0.087-0.077l0.047-0.043c0.042-0.038,0.08-0.076,0.121-0.117
	c0.054-0.054,0.108-0.111,0.156-0.162l0.152-0.176l0.071-0.09l0.071-0.092l0.068-0.092l0.098-0.145l0.094-0.146l0.058-0.098
	l0.056-0.101l0.055-0.103l0.052-0.104l0.049-0.104l0.047-0.109l0.044-0.108l0.042-0.108l0.04-0.113
	c0.024-0.076,0.049-0.15,0.07-0.226c0.022-0.077,0.042-0.153,0.06-0.229c0.019-0.078,0.032-0.157,0.047-0.229l0.019-0.12
	l0.018-0.117l0.014-0.121l0.01-0.123l0.008-0.122l0.005-0.123l0.001-0.127c0-0.444-0.061-0.886-0.181-1.313
	c-0.021-0.075-0.045-0.149-0.07-0.225c-0.025-0.074-0.052-0.147-0.082-0.22c-0.028-0.071-0.058-0.143-0.089-0.214
	C57.696,12.544,55.99,11.439,54.104,11.439 M10.209,21.02h7.978v4.418h-7.978C5.124,25.438,1,21.318,1,16.23
	c0-5.086,4.124-9.209,9.209-9.209c2.941,0,5.671,1.395,7.398,3.724l-3.186,3.188l-0.13-0.21c-0.873-1.418-2.412-2.283-4.083-2.283
	c-2.645,0-4.79,2.146-4.79,4.791S7.564,21.02,10.209,21.02z M44.345,19.264v6.176h-6.176L44.345,19.264z M63.376,25.045v0.402
	h-4.482v-1.352c-2.685,1.637-6.045,1.758-8.882,0.379c-3.219-1.564-5.117-4.672-5.117-8.245c0-1.796,0.517-3.537,1.5-5.042
	l0.084-0.125l0.118-0.172l0.134-0.183l0.15-0.195l0.131-0.164l0.134-0.156l0.149-0.168l0.005-0.004l0.144-0.155l0.146-0.15
	l0.159-0.153l0.161-0.15l0.166-0.147l0.106-0.089l0.147-0.122l0.087-0.07l0.176-0.135l0.179-0.131l0.182-0.126l0.123-0.08l0.156-0.1
	l0.123-0.076l0.191-0.113l0.167-0.093l0.197-0.104l0.2-0.098l0.24-0.112l0.17-0.074l0.24-0.097l0.214-0.08l0.178-0.063l0.24-0.076
	l0.21-0.063l0.201-0.054l0.222-0.055l0.238-0.05l0.225-0.044l0.214-0.035l0.23-0.033l0.23-0.025l0.24-0.021l0.232-0.015l0.234-0.008
	l0.3-0.003l0.248,0.005l0.373,0.019l0.185,0.016l0.266,0.029l0.221,0.029l0.181,0.029l0.24,0.044l0.097,0.019l0.196,0.043
	l0.349,0.087l0.344,0.102l0.172,0.055l0.168,0.058l0.254,0.095l0.249,0.103l0.167,0.072l0.324,0.154l0.159,0.082l0.16,0.085
	l0.154,0.087l0.211,0.124l0.138,0.086l0.184,0.121l0.178,0.122c0.954-1.057,2.306-1.663,3.74-1.666l0.246-0.002l0.007,18.026H63.376
	z M76.738,1c1.389,0,2.514,1.125,2.514,2.514c0,1.388-1.125,2.513-2.514,2.513s-2.514-1.125-2.514-2.513
	C74.225,2.125,75.35,1,76.738,1z M76.728,23.797c-1.142,1.016-2.597,1.598-4.126,1.639l-0.173,0.004h-0.106
	c-1.586-0.021-3.093-0.615-4.27-1.664c-1.145,1.02-2.596,1.602-4.127,1.662v-4.432c0.485-0.057,0.934-0.271,1.284-0.621
	c0.406-0.407,0.635-0.955,0.635-1.531V4.989h0.247c1.603,0,3.097,0.754,4.05,2.032h3.715l-1.564,4.418h-2.03v7.415
	c0,0.576,0.228,1.124,0.635,1.531c0.396,0.398,0.923,0.623,1.479,0.635c0.56-0.012,1.086-0.236,1.483-0.635
	c0.406-0.407,0.634-0.955,0.634-1.531V7.021h4.418v11.833c0,0.576,0.229,1.124,0.635,1.531c0.35,0.35,0.798,0.564,1.281,0.621v4.432
	C79.31,25.377,77.869,24.803,76.728,23.797z M85.065,8.373c1.25-0.792,2.676-1.188,4.161-1.188c2.103,0,4.021,0.729,5.452,2.289
	c1.339,1.463,1.97,3.382,2.036,5.352v10.614h-0.247c-2.416,0-4.171-1.227-4.17-3.809c0.001-2.153,0.002-4.308,0.002-6.461
	c0-0.945-0.21-2.007-0.868-2.723c-0.568-0.62-1.388-0.842-2.205-0.842c-0.908,0-1.758,0.322-2.396,0.977
	c-0.671,0.687-1.038,1.63-1.038,2.588v1.993h0.001v8.279h-4.418v-8.279h0.001V7.267V7.021h0.245
	C82.906,7.021,84.13,7.504,85.065,8.373z M97.263,21.02h0.626h8.804h0.332c2.645,0,4.789-2.145,4.789-4.79s-2.145-4.791-4.789-4.791
	c-2.646,0-4.791,2.146-4.791,4.785l0.004,0.185l0.003,0.086l0.006,0.099c0.007,0.07,0.013,0.139,0.021,0.208l0.015,0.12l0.016,0.092
	l0.029,0.163c0.016,0.074,0.031,0.146,0.048,0.216l0.039,0.143c0.032,0.117,0.07,0.232,0.111,0.344l0.06,0.153l0.065,0.155
	c0.439,0.979,1.198,1.787,2.147,2.285h-5.95c-0.083-0.158-0.159-0.317-0.232-0.48l-0.093-0.215
	c-0.065-0.155-0.124-0.311-0.182-0.472l-0.005-0.01c-0.205-0.587-0.357-1.19-0.437-1.807l-0.014-0.111
	c-0.016-0.114-0.026-0.229-0.037-0.344l-0.015-0.202l-0.011-0.194l-0.008-0.255l-0.001-0.153c0-5.086,4.123-9.209,9.21-9.209
	c5.086,0,9.209,4.124,9.209,9.209c0,5.086-4.123,9.209-9.212,9.209l-0.231-0.002h-9.527V21.02z M22.424,8.373
	c1.251-0.792,2.676-1.188,4.162-1.188c1.184,0,2.345,0.23,3.408,0.752c-1.446,0.899-2.639,2.165-3.449,3.667
	c-0.894,0.008-1.726,0.333-2.355,0.977c-0.669,0.687-1.037,1.63-1.037,2.588v6.047c0,2.59-1.539,4.223-4.171,4.223h-0.247v-0.246
	c0-5.976,0-11.952,0-17.926V7.021h0.247C20.265,7.021,21.489,7.504,22.424,8.373z"/>
<path fill-rule="evenodd" clip-rule="evenodd" fill="#999999" d="M108.098,34.766c0,1.006-0.641,1.51-1.92,1.51
	c-0.514,0-0.971-0.066-1.367-0.199V35.48c0.405,0.133,0.864,0.199,1.375,0.199c0.784,0,1.177-0.305,1.177-0.914v-0.199
	c-0.313,0.133-0.648,0.199-1.009,0.199c-1.32,0-1.979-0.705-1.979-2.111c0-1.375,0.695-2.063,2.086-2.063
	c0.564,0,1.11,0.057,1.638,0.17V34.766z M107.362,31.299c-0.251-0.064-0.563-0.096-0.934-0.096c-0.889,0-1.332,0.48-1.332,1.443
	c0,0.988,0.42,1.482,1.26,1.482c0.382,0,0.717-0.072,1.006-0.215V31.299z M99.782,34.766v-4.174h0.497l0.131,0.531
	c0.428-0.354,0.896-0.531,1.408-0.531c1.04,0,1.562,0.518,1.562,1.553v2.621h-0.735v-2.633c0-0.619-0.31-0.93-0.927-0.93
	c-0.421,0-0.82,0.178-1.201,0.529v3.033H99.782z M98.51,29.08v0.697h-0.734V29.08H98.51z M98.51,30.592v4.174h-0.734v-4.174H98.51z
	 M95.012,29.916h0.461l0.159,0.676h1.13v0.596h-1.016v2.396c0,0.391,0.17,0.584,0.506,0.584h0.51v0.598h-0.7
	c-0.7,0-1.05-0.375-1.05-1.125V29.916z M90.223,34.766v-4.174h0.496l0.131,0.531c0.427-0.354,0.896-0.531,1.408-0.531
	c1.04,0,1.562,0.518,1.562,1.553v2.621h-0.735v-2.633c0-0.619-0.31-0.93-0.927-0.93c-0.421,0-0.82,0.178-1.201,0.529v3.033H90.223z
	 M88.949,29.08v0.697h-0.734V29.08H88.949z M88.949,30.592v4.174h-0.734v-4.174H88.949z M85.451,34.766v-4.174h0.497l0.13,0.531
	c0.367-0.354,0.807-0.531,1.32-0.531v0.611c-0.498,0-0.902,0.178-1.213,0.529v3.033H85.451z M80.732,30.762
	c0.554-0.113,1.126-0.17,1.716-0.17c1.338,0,2.009,0.66,2.009,1.984c0,1.459-0.674,2.189-2.021,2.189
	c-0.334,0-0.657-0.066-0.971-0.199v1.709h-0.733V30.762z M81.466,33.914c0.29,0.143,0.612,0.215,0.966,0.215
	c0.868,0,1.301-0.521,1.301-1.561c0-0.91-0.431-1.365-1.292-1.365c-0.371,0-0.694,0.031-0.975,0.096V33.914z M75.234,32.182
	c-0.682,0-1.021,0.332-1.021,0.998c0,0.658,0.398,0.988,1.197,0.988c0.905,0,1.359-0.451,1.359-1.357v-0.629H75.234z M73.478,30.611
	c0-1.021,0.676-1.531,2.027-1.531c0.489,0,0.968,0.066,1.431,0.199v0.596c-0.463-0.131-0.924-0.199-1.379-0.199
	c-0.896,0-1.344,0.307-1.344,0.916c0,0.662,0.338,0.994,1.014,0.994h1.543V31.02h0.249l0.406,0.566h0.723v0.596h-0.643v0.635
	c0,1.307-0.688,1.961-2.06,1.961c-1.313,0-1.968-0.525-1.968-1.578c0-0.654,0.255-1.096,0.767-1.324
	C73.732,31.65,73.478,31.229,73.478,30.611z M66.899,34.766v-4.174h0.497l0.13,0.531c0.428-0.354,0.896-0.531,1.408-0.531
	c1.041,0,1.562,0.518,1.562,1.553v2.621h-0.734v-2.633c0-0.619-0.311-0.93-0.927-0.93c-0.422,0-0.821,0.178-1.201,0.529v3.033
	H66.899z M65.627,29.08v0.697h-0.735V29.08H65.627z M65.627,30.592v4.174h-0.735v-4.174H65.627z M61.795,32.816
	c-0.64,0-0.958,0.225-0.958,0.676s0.253,0.676,0.756,0.676c0.509,0,0.938-0.135,1.292-0.404v-0.867
	C62.521,32.844,62.159,32.816,61.795,32.816z M60.102,33.504c0-0.855,0.564-1.283,1.693-1.283c0.364,0,0.727,0.027,1.09,0.08v-0.393
	c0-0.48-0.375-0.721-1.125-0.721c-0.431,0-0.87,0.066-1.32,0.199v-0.598c0.45-0.131,0.89-0.197,1.32-0.197
	c1.24,0,1.86,0.432,1.86,1.295v2.879h-0.413l-0.255-0.414c-0.416,0.275-0.869,0.414-1.359,0.414
	C60.598,34.766,60.102,34.346,60.102,33.504z M56.086,34.566V33.93c0.49,0.16,0.987,0.238,1.487,0.238
	c0.666,0,0.997-0.197,0.997-0.596c0-0.369-0.232-0.557-0.694-0.557h-0.597c-0.901,0-1.351-0.41-1.351-1.232
	c0-0.793,0.579-1.191,1.736-1.191c0.498,0,0.993,0.066,1.483,0.197v0.637c-0.49-0.158-0.985-0.238-1.483-0.238
	c-0.693,0-1.041,0.199-1.041,0.596c0,0.371,0.218,0.557,0.655,0.557h0.597c0.954,0,1.43,0.412,1.43,1.232
	c0,0.795-0.578,1.193-1.733,1.193C57.073,34.766,56.576,34.699,56.086,34.566z M52.17,32.277h2.258
	c-0.016-0.732-0.373-1.098-1.073-1.098C52.612,31.18,52.218,31.545,52.17,32.277z M53.355,30.592c1.188,0,1.782,0.586,1.782,1.762
	c0,0.166-0.012,0.346-0.037,0.535h-2.93c0,0.854,0.499,1.279,1.496,1.279c0.474,0,0.896-0.053,1.263-0.158v0.596
	c-0.367,0.107-0.815,0.16-1.344,0.16c-1.434,0-2.149-0.711-2.149-2.135C51.436,31.271,52.076,30.592,53.355,30.592z M50.441,34.514
	c-0.505,0.168-1.13,0.252-1.872,0.252c-1.243,0-1.864-0.725-1.864-2.172c0-1.334,0.659-2.002,1.979-2.002
	c0.361,0,0.701,0.066,1.022,0.197V29.08h0.734V34.514z M49.707,31.443c-0.297-0.145-0.637-0.215-1.019-0.215
	c-0.84,0-1.26,0.445-1.26,1.34c0,1.055,0.42,1.586,1.26,1.586c0.381,0,0.721-0.053,1.019-0.156V31.443z"/>
<path fill="#999999" d="M119.103,8.491c0.18-0.037,0.366-0.056,0.558-0.056c0.434,0,0.651,0.215,0.651,0.644
	c0,0.473-0.219,0.71-0.656,0.71c-0.108,0-0.213-0.021-0.314-0.064v0.555h-0.238V8.491z M119.341,9.513
	c0.094,0.046,0.198,0.07,0.313,0.07c0.281,0,0.422-0.169,0.422-0.507c0-0.295-0.14-0.442-0.419-0.442
	c-0.12,0-0.226,0.01-0.316,0.031V9.513z M118.717,9.708c-0.165,0.054-0.367,0.081-0.607,0.081c-0.403,0-0.605-0.234-0.605-0.704
	c0-0.434,0.214-0.65,0.643-0.65c0.117,0,0.228,0.022,0.331,0.065V7.945h0.239V9.708z M118.478,8.711
	c-0.096-0.047-0.206-0.069-0.33-0.069c-0.271,0-0.408,0.145-0.408,0.434c0,0.343,0.137,0.515,0.408,0.515
	c0.124,0,0.234-0.017,0.33-0.05V8.711z"/>
<path fill-rule="evenodd" clip-rule="evenodd" fill="#999999" d="M118.908,7.192c1.061,0,1.92,0.859,1.92,1.92
	s-0.859,1.92-1.92,1.92s-1.92-0.859-1.92-1.92S117.848,7.192,118.908,7.192 M118.908,7.021c1.155,0,2.092,0.937,2.092,2.092
	s-0.937,2.092-2.092,2.092s-2.092-0.937-2.092-2.092S117.753,7.021,118.908,7.021z"/>
</svg>
