<?xml version="1.0" encoding="utf-8"?>
<!-- Generator: Adobe Illustrator 16.0.3, SVG Export Plug-In . SVG Version: 6.00 Build 0)  -->
<!DOCTYPE svg PUBLIC "-//W3C//DTD SVG 1.1//EN" "http://www.w3.org/Graphics/SVG/1.1/DTD/svg11.dtd">
<svg version="1.1" id="Layer_1" xmlns="http://www.w3.org/2000/svg" xmlns:xlink="http://www.w3.org/1999/xlink" x="0px" y="0px"
	 width="152px" height="152px" viewBox="0 0 152 152" enable-background="new 0 0 152 152" xml:space="preserve">
<path fill="#FFCD2E" d="M114.776,27.464C104.854,17.541,91.144,11.403,76,11.403c-15.143,0-28.853,6.138-38.776,16.061
	c-9.923,9.923-16.062,23.633-16.062,38.776c0,10.517,2.959,20.341,8.09,28.682c5.311,8.636,12.939,15.686,22.013,20.278l1.634,0.827
	l-0.23,2.073l-6.581,20.904c3.171-1.183,6.533-2.396,9.964-3.635c33.817-12.202,74.786-26.987,74.786-69.13
	C130.838,51.097,124.699,37.387,114.776,27.464 M76,6.125c16.6,0,31.629,6.729,42.508,17.608
	c10.878,10.878,17.607,25.908,17.607,42.507c0,45.826-42.89,61.303-78.29,74.078c-5.099,1.84-10.037,3.621-14.926,5.543
	l-5.127,2.014l9.138-29.026c-9.087-5.034-16.73-12.348-22.152-21.164c-5.627-9.149-8.873-19.919-8.873-31.444
	c0-16.6,6.729-31.629,17.607-42.507C44.371,12.854,59.4,6.125,76,6.125z"/>
<path fill="#FFFFFF" d="M101.019,104.147V78.887h8.373v3.061h-4.995v7.67h4.433v3.061h-4.433v8.409h4.995v3.061H101.019z
	 M94.475,91.095V78.887h3.378v25.261h-3.378v-5.031l-3.624-11.504v16.535h-3.377V78.887h3.377L94.475,91.095z M80.93,104.147V78.887
	h3.377v25.261H80.93z M78.994,104.147h-8.021V78.887h3.378v22.2h4.644V104.147z M64.429,91.095V78.887h3.378v25.261h-3.378v-5.031
	l-3.624-11.504v16.535h-3.378V78.887h3.378L64.429,91.095z M47.999,101.087h1.724c0.891,0,1.336-0.492,1.336-1.478V83.425
	c0-0.985-0.504-1.478-1.513-1.478h-1.583c-0.985,0-1.478,0.492-1.478,1.478v16.185C46.486,100.595,46.99,101.087,47.999,101.087z
	 M47.189,104.147c-2.721,0-4.081-1.431-4.081-4.292V83.214c0-2.885,1.349-4.327,4.046-4.327h3.237c2.697,0,4.046,1.442,4.046,4.327
	v16.642c0,2.861-1.361,4.292-4.082,4.292H47.189z"/>
<path fill="#FFFFFF" d="M60.533,67.215v5.413H44.296V58.719c0-0.755,0.063-1.385,0.188-1.888c0.126-0.503,0.346-0.976,0.661-1.416
	s0.871-1.06,1.668-1.856l6.104-5.853c0.462-0.462,0.829-0.86,1.102-1.196c0.272-0.335,0.461-0.619,0.566-0.85
	c0.105-0.23,0.168-0.472,0.188-0.724c0.021-0.251,0.032-0.587,0.032-1.007v-8.371c0-1.762-0.86-2.643-2.581-2.643h-0.377
	c-1.72,0-2.581,0.881-2.581,2.643v4.657h-6.042v-5.035c0-5.161,2.413-7.741,7.237-7.741h3.147c4.825,0,7.237,2.581,7.237,7.741
	v10.825c0,0.839-0.115,1.574-0.346,2.203c-0.231,0.629-0.829,1.405-1.793,2.329l-6.671,6.419c-0.839,0.798-1.322,1.343-1.447,1.637
	c-0.126,0.293-0.2,0.587-0.221,0.881c-0.021,0.294-0.032,0.692-0.032,1.196v6.545H60.533z"/>
<path fill="#FFFFFF" d="M75.525,39.46h-0.314l-5.727,17.496h5.601L75.525,39.46z M84.273,62.054h-3.461v10.573h-5.916V62.054H64.323
	l-1.259-5.098l11.706-29.517h6.042v29.517h3.461V62.054z"/>
<path fill="#FFFFFF" d="M105.182,66.097l1.868-8.856h2.225v15.068h-2.015l0.21-9.863l-1.512,7.135h-1.553l-1.511-7.135l0.21,9.863
	h-2.015V57.241h2.225L105.182,66.097z M97.291,64.963v-5.016c0-0.588-0.294-0.881-0.882-0.881h-0.545
	c-0.588,0-0.882,0.293-0.882,0.881v5.016H97.291z M94.982,72.309h-2.015V59.822c0-1.721,0.805-2.581,2.413-2.581h1.512
	c1.608,0,2.413,0.86,2.413,2.581v12.487h-2.015V66.79h-2.309V72.309z M86.944,70.483h1.323c0.601,0,0.901-0.364,0.901-1.091V57.241
	h2.015V69.77c0,1.693-0.776,2.539-2.329,2.539h-1.91V70.483z"/>
</svg>
