<?xml version="1.0" encoding="utf-8"?>
<!-- Generator: Adobe Illustrator 16.0.3, SVG Export Plug-In . SVG Version: 6.00 Build 0)  -->
<!DOCTYPE svg PUBLIC "-//W3C//DTD SVG 1.1//EN" "http://www.w3.org/Graphics/SVG/1.1/DTD/svg11.dtd">
<svg version="1.1" id="Layer_1" xmlns="http://www.w3.org/2000/svg" xmlns:xlink="http://www.w3.org/1999/xlink" x="0px" y="0px"
	 width="152px" height="152px" viewBox="0 0 152 152" enable-background="new 0 0 152 152" xml:space="preserve">
<g>
	<path fill-rule="evenodd" clip-rule="evenodd" fill="#FFCD2E" d="M76,6.208c38.545,0,69.791,31.247,69.791,69.792
		c0,15.01-4.738,28.915-12.803,40.297l-4.309-3.051c7.453-10.52,11.834-23.371,11.834-37.247c0-35.629-28.883-64.513-64.514-64.513
		C40.371,11.486,11.487,40.37,11.487,76S40.371,140.514,76,140.514c8.824,0,17.23-1.773,24.891-4.98l1.895,4.93
		c-8.248,3.432-17.295,5.328-26.785,5.328c-38.544,0-69.791-31.246-69.791-69.792C6.209,37.455,37.456,6.208,76,6.208"/>
	<path fill="#FFFFFF" d="M118,145.791L99.268,94.84v-0.43l7.148-25.805h6.291l-7.221,25.52l19.303,51.666H118z M98.91,119.93h-6.861
		V68.605h6.861V119.93z M78.752,94.91V77.898c0-2.05-1.119-3.074-3.359-3.074h-0.786c-2.049,0-3.074,1.023-3.074,3.074v13.295
		c0,2.479,1.025,3.717,3.074,3.717H78.752z M71.961,107.92v2.074c0,2.477,1.025,3.717,3.074,3.717h1.002
		c1.811,0,2.715-1,2.715-3.002V98.27l-4.288,2.861h-1.573c-5.48,0-8.22-3.051-8.22-9.15V77.611c0-6.003,2.74-9.006,8.22-9.006h4.504
		c5.48,0,8.221,3.003,8.221,9.006v33.168c0,6.1-2.74,9.15-8.221,9.15H73.32c-5.48,0-8.221-3.051-8.221-9.15v-2.859H71.961z
		 M51.375,94.91V77.898c0-2.05-1.12-3.074-3.359-3.074h-0.786c-2.049,0-3.074,1.023-3.074,3.074v13.295
		c0,2.479,1.025,3.717,3.074,3.717H51.375z M44.583,107.92v2.074c0,2.477,1.025,3.717,3.074,3.717h1.001c1.81,0,2.716-1,2.716-3.002
		V98.27l-4.289,2.861h-1.573c-5.48,0-8.22-3.051-8.22-9.15V77.611c0-6.003,2.74-9.006,8.22-9.006h4.504
		c5.48,0,8.22,3.003,8.22,9.006v33.168c0,6.1-2.74,9.15-8.22,9.15h-4.075c-5.48,0-8.221-3.051-8.221-9.15v-2.859H44.583z"/>
	<path fill="#FFFFFF" d="M108.535,35.867v27.538h-4.189V35.867h-4.016V32.07h12.221v3.797H108.535z M89.551,47.17h2.75
		c1.25,0,1.875-0.757,1.875-2.27v-6.765c0-1.513-0.625-2.269-1.875-2.269h-2.75V47.17z M85.361,32.07h8.205
		c3.199,0,4.801,1.79,4.801,5.368v7.725c0,2.735-0.83,4.466-2.488,5.194l2.924,13.049h-3.971l-2.75-12.656h-2.531v12.656h-4.189
		V32.07z M77.461,48.13V37.7c0-1.222-0.611-1.833-1.832-1.833h-1.135c-1.222,0-1.833,0.611-1.833,1.833V48.13H77.461z
		 M72.661,63.405h-4.189V37.438c0-3.579,1.673-5.368,5.019-5.368h3.143c3.346,0,5.018,1.79,5.018,5.368v25.967h-4.189V51.927h-4.8
		V63.405z M62.274,35.867v27.538h-4.189V35.867h-4.015V32.07h12.22v3.797H62.274z M47.916,40.493v-2.749
		c0-1.251-0.611-1.876-1.833-1.876h-0.655c-1.193,0-1.789,0.625-1.789,1.876v5.193c0,0.582,0.116,0.975,0.349,1.178
		s0.611,0.465,1.135,0.786l3.971,2.139c0.873,0.495,1.491,0.88,1.855,1.156s0.647,0.611,0.851,1.004
		c0.204,0.393,0.305,1.142,0.305,2.248v6.677c0,3.521-1.688,5.281-5.062,5.281h-2.575c-3.346,0-5.019-1.92-5.019-5.761v-1.571h4.189
		v1.702c0,1.222,0.625,1.833,1.876,1.833h0.742c1.105,0,1.658-0.611,1.658-1.833v-5.324c0-0.582-0.116-0.975-0.349-1.178
		c-0.233-0.204-0.611-0.466-1.135-0.786l-3.971-2.226c-0.873-0.466-1.506-0.858-1.898-1.179c-0.393-0.32-0.677-0.734-0.852-1.244
		c-0.174-0.509-0.261-1.171-0.261-1.986v-6.416c0-3.579,1.672-5.368,5.019-5.368h2.619c3.346,0,5.019,1.79,5.019,5.368v3.055H47.916
		z"/>
</g>
</svg>
