<?xml version="1.0" encoding="utf-8"?>
<!-- Generator: Adobe Illustrator 16.0.3, SVG Export Plug-In . SVG Version: 6.00 Build 0)  -->
<!DOCTYPE svg PUBLIC "-//W3C//DTD SVG 1.1//EN" "http://www.w3.org/Graphics/SVG/1.1/DTD/svg11.dtd">
<svg version="1.1" id="Layer_1" xmlns="http://www.w3.org/2000/svg" xmlns:xlink="http://www.w3.org/1999/xlink" x="0px" y="0px"
	 width="16px" height="16px" viewBox="0 0 16 16" enable-background="new 0 0 16 16" xml:space="preserve">
<path fill="#808286" d="M8.132,6.578h0.771V5.367H7.748c0,0-0.727-0.018-1.189,0.583c0,0-0.314,0.297-0.32,1.167v0.908H5.098v1.286
	h1.141v3.321h1.316V9.313h1.132l0.157-1.287h-1.29V7.118l0,0C7.558,7.017,7.603,6.569,8.132,6.578 M7,2c3.866,0,7,3.134,7,7
	c0,3.865-3.134,7-7,7s-7-3.135-7-7C0,5.134,3.134,2,7,2z"/>
</svg>
