<?xml version="1.0" encoding="utf-8"?>
<!-- Generator: Adobe Illustrator 16.0.3, SVG Export Plug-In . SVG Version: 6.00 Build 0)  -->
<!DOCTYPE svg PUBLIC "-//W3C//DTD SVG 1.1//EN" "http://www.w3.org/Graphics/SVG/1.1/DTD/svg11.dtd">
<svg version="1.1" id="Layer_1" xmlns="http://www.w3.org/2000/svg" xmlns:xlink="http://www.w3.org/1999/xlink" x="0px" y="0px"
	 width="16px" height="16px" viewBox="0 0 16 16" enable-background="new 0 0 16 16" xml:space="preserve">
<path fill="#808286" d="M9.239,9.448h0.907v0.909h0.914V9.448h0.908V8.535h-0.908V7.626h-0.914v0.909H9.239V9.448z M8.219,8.559
	H5.173v1.088h1.824c-0.263,0.779-0.99,1.34-1.847,1.34c-1.079,0-1.954-0.89-1.954-1.985S4.071,7.015,5.15,7.015
	c0.472,0,0.905,0.171,1.243,0.455h0.051l0.804-0.816c-0.554-0.51-1.29-0.822-2.097-0.822C3.427,5.831,2.03,7.25,2.03,9
	c0,1.751,1.396,3.17,3.12,3.17c0.225,0,0.451-0.023,0.671-0.074c0.447-0.099,0.869-0.301,1.229-0.581
	c0.359-0.279,0.654-0.64,0.863-1.042c0.106-0.208,0.19-0.425,0.25-0.648c0.073-0.279,0.055-0.563,0.055-0.85
	C8.219,8.835,8.219,8.698,8.219,8.559z M7,2c3.866,0,7,3.134,7,7c0,3.865-3.134,7-7,7s-7-3.135-7-7C0,5.134,3.134,2,7,2z"/>
</svg>
