<?xml version="1.0" encoding="utf-8"?>
<!-- Generator: Adobe Illustrator 16.0.3, SVG Export Plug-In . SVG Version: 6.00 Build 0)  -->
<!DOCTYPE svg PUBLIC "-//W3C//DTD SVG 1.1//EN" "http://www.w3.org/Graphics/SVG/1.1/DTD/svg11.dtd">
<svg version="1.1" id="Layer_1" xmlns="http://www.w3.org/2000/svg" xmlns:xlink="http://www.w3.org/1999/xlink" x="0px" y="0px"
	 width="152px" height="152px" viewBox="0 0 152 152" enable-background="new 0 0 152 152" xml:space="preserve">
<path fill="#FFCD2E" d="M94.968,101.627h-6.509l-3.78-19.107h-0.14l-4.55,19.107h-6.229l6.369-25.406l-5.95-24.847h6.58
	l3.779,18.547h0.14l4.199-18.547h6.229l-6.02,24.847L94.968,101.627z M58.433,62.502l-1.54-4.62
	c1.727-0.653,3.196-1.563,4.409-2.729c1.213-1.167,2.17-2.427,2.87-3.78h0.7l4.409,2.38v47.874h-6.649V61.242L58.433,62.502z"/>
<path fill="#FFCD2E" d="M126.145,21.661h12.902V131.34h-12.902v-5.277h7.625V26.938h-7.625V21.661z M25.855,131.34H12.954V21.661
	h12.902v5.277H18.23v99.124h7.625V131.34z"/>
<path fill="#FFFFFF" d="M113.336,18.255v-2.75c0-1.251-0.61-1.876-1.833-1.876h-0.654c-1.193,0-1.789,0.625-1.789,1.876v5.193
	c0,0.582,0.116,0.975,0.349,1.178c0.233,0.204,0.611,0.465,1.135,0.786l3.972,2.139c0.873,0.495,1.491,0.88,1.854,1.157
	s0.647,0.611,0.852,1.003c0.203,0.393,0.305,1.142,0.305,2.248v6.678c0,3.52-1.688,5.28-5.062,5.28h-2.575
	c-3.347,0-5.02-1.92-5.02-5.761v-1.571h4.19v1.702c0,1.222,0.625,1.833,1.876,1.833h0.742c1.105,0,1.658-0.611,1.658-1.833v-5.324
	c0-0.582-0.116-0.975-0.349-1.178c-0.233-0.204-0.611-0.465-1.135-0.786l-3.972-2.226c-0.873-0.466-1.506-0.858-1.898-1.179
	c-0.393-0.32-0.677-0.734-0.852-1.244c-0.174-0.509-0.262-1.171-0.262-1.986V15.2c0-3.579,1.673-5.368,5.02-5.368h2.618
	c3.346,0,5.019,1.789,5.019,5.368v3.055H113.336z M97.188,41.167V9.833h4.189v31.335H97.188z M90.772,13.629v27.538h-4.189V13.629
	h-4.015V9.833h12.22v3.797H90.772z M76.196,25.893V15.462c0-1.222-0.61-1.833-1.833-1.833h-1.134c-1.222,0-1.833,0.611-1.833,1.833
	v10.431H76.196z M71.396,41.167h-4.19V15.2c0-3.579,1.673-5.368,5.019-5.368h3.142c3.346,0,5.019,1.789,5.019,5.368v25.967h-4.189
	V29.689h-4.8V41.167z M55.117,24.933h2.75c1.251,0,1.876-0.756,1.876-2.27v-6.764c0-1.513-0.625-2.27-1.876-2.27h-2.75V24.933z
	 M50.928,9.833h8.205c3.2,0,4.801,1.789,4.801,5.368v7.725c0,2.735-0.83,4.466-2.488,5.194l2.924,13.049h-3.972l-2.75-12.656h-2.531
	v12.656h-4.189V9.833z M41.151,29.689v-3.796h6.372v15.274h-8.205c-3.229,0-4.845-1.76-4.845-5.28V15.2
	c0-3.579,1.615-5.368,4.845-5.368h2.88c3.55,0,5.324,1.818,5.324,5.455v3.404h-4.189v-2.793c0-1.513-0.597-2.27-1.79-2.27h-1.047
	c-1.222,0-1.833,0.756-1.833,2.27v19.202c0,1.513,0.611,2.27,1.833,2.27h2.837v-7.681H41.151z"/>
<path fill="#FFFFFF" d="M108.753,144.168v-31.335h4.189v31.335H108.753z M101.072,121.256v-2.75c0-1.251-0.611-1.876-1.833-1.876
	h-0.655c-1.192,0-1.789,0.625-1.789,1.876v5.193c0,0.582,0.116,0.975,0.35,1.179c0.232,0.204,0.61,0.466,1.134,0.785l3.972,2.139
	c0.873,0.495,1.491,0.88,1.855,1.156c0.363,0.276,0.646,0.611,0.851,1.004c0.203,0.393,0.306,1.143,0.306,2.248v6.677
	c0,3.521-1.688,5.281-5.063,5.281h-2.575c-3.346,0-5.019-1.921-5.019-5.762v-1.57h4.189v1.702c0,1.222,0.626,1.833,1.877,1.833
	h0.741c1.105,0,1.659-0.611,1.659-1.833v-5.324c0-0.582-0.116-0.975-0.35-1.179c-0.232-0.204-0.61-0.466-1.135-0.786l-3.971-2.226
	c-0.873-0.465-1.506-0.858-1.898-1.178c-0.394-0.32-0.677-0.734-0.852-1.244c-0.175-0.509-0.262-1.171-0.262-1.985V118.2
	c0-3.578,1.673-5.367,5.019-5.367h2.618c3.347,0,5.02,1.789,5.02,5.367v3.056H101.072z M84.925,144.168v-31.335h4.189v31.335H84.925
	z M82.524,112.833l-5.063,31.335h-4.975l-5.063-31.335h4.146l3.404,23.915l3.404-23.915H82.524z M55.554,144.168v-31.335H65.94
	v3.797h-6.197v9.514h5.499v3.797h-5.499v10.431h6.197v3.797H55.554z M43.247,127.933h2.75c1.251,0,1.876-0.756,1.876-2.27v-6.764
	c0-1.514-0.625-2.27-1.876-2.27h-2.75V127.933z M39.057,112.833h8.205c3.201,0,4.801,1.789,4.801,5.367v7.725
	c0,2.735-0.829,4.467-2.487,5.193l2.924,13.05h-3.971l-2.75-12.656h-2.531v12.656h-4.19V112.833z"/>
</svg>
