<?xml version="1.0" encoding="utf-8"?>
<!-- Generator: Adobe Illustrator 18.1.1, SVG Export Plug-In . SVG Version: 6.00 Build 0)  -->
<svg version="1.1" id="Layer_1" xmlns="http://www.w3.org/2000/svg" xmlns:xlink="http://www.w3.org/1999/xlink" x="0px" y="0px"
	 viewBox="0 0 200 102.6" enable-background="new 0 0 200 102.6" xml:space="preserve">
<rect x="0" y="0" fill-rule="evenodd" clip-rule="evenodd" fill="#FFCD2E" width="200" height="102.6"/>
<path fill="#FAC42F" d="M101.4,25.9l58.1-16.1c0.5-0.2,1.1-0.2,1.6-0.2c1.2,0,2.2,0.4,3.1,1.1c0.9,0.7,1.5,1.6,1.8,2.7
	c0.1,0.5,0.2,1.1,0.2,1.7v32.4c0,1.7-0.6,3.4-1.6,4.7c-1,1.4-2.5,2.5-4.1,2.9l-58.1,16.1c-0.5,0.2-1.1,0.2-1.6,0.2
	c-0.3,0-0.5,0-0.8-0.1c-0.5,0-1.1,0-1.6-0.1c-1.5-0.2-3.1-0.5-4.5-1L76,63.8l-7.1,2.5c-0.9,0.3-1.5,0.7-1.9,1.1
	c-0.2,0.2-0.3,0.4-0.3,0.5c0,0.1,0.1,0.3,0.2,0.5c0.3,0.4,0.8,0.7,1.4,1l34.8,14.1c0.8,0.3,1.4,0.8,1.7,1.4c0.3,0.4,0.4,0.9,0.4,1.4
	c0,0.5-0.2,1-0.6,1.4c-0.5,0.5-1.2,0.9-2.3,1.2l-14.4,3.5c-2,0.4-3.3,0.7-4.9,0.5c-1.5-0.2-3.1-0.7-5.5-1.7l-20.3-8.6
	c-2.2,0.7-4.9,1-8,0.7c-3.6-0.4-7.5-2.4-10.4-4.9c-3.1-2.7-5.2-6-5.1-8.9c0.2-3,1.9-6.2,5.1-8.5c2.6-1.8,6.2-3.1,10.6-3.1
	c2.5,0,4.8,0.9,6.8,2.3c2.6,1.8,4.7,4.4,6.2,7c1.5,2.7,2.4,5.5,2.4,7.6c0,1.1-0.3,2.1-0.8,2.9c-1.1,1.5-2.5,2.9-4.4,3.9l18.6,7.9
	c2.2,1,3.6,1.5,4.9,1.6c1.3,0.1,2.5-0.1,4.3-0.5l14.4-3.5c0.7-0.2,1.1-0.4,1.4-0.6c0.1-0.1,0.1-0.2,0.1-0.3c0-0.1,0-0.2-0.1-0.3
	c-0.2-0.2-0.5-0.5-0.9-0.6L67.5,71.1c-1-0.5-1.7-1-2.2-1.6c-0.4-0.6-0.6-1.2-0.6-1.8c0-0.6,0.3-1.2,0.8-1.7c0.6-0.6,1.4-1.1,2.7-1.5
	l4.9-1.7l-11.7-4.2c-1.1-0.4-1.8-0.9-2.3-1.5c-0.5-0.6-0.7-1.3-0.6-2c0-0.6,0.3-1.2,0.7-1.7c0.5-0.6,1.3-1.1,2.1-1.3l34.3-9.8v-8.8
	c0-1.7,0.6-3.4,1.6-4.7C98.4,27.4,99.8,26.3,101.4,25.9 M160.5,13.5l-58.1,16.1c-0.8,0.2-1.5,0.8-2,1.5c-0.5,0.7-0.9,1.6-0.9,2.5V66
	c0,0.3,0,0.5,0.1,0.7c0.1,0.3,0.3,0.6,0.5,0.8c0.2,0.2,0.5,0.2,0.8,0.2c0.2,0,0.4,0,0.6-0.1l58.1-16.1c0.8-0.2,1.5-0.8,2-1.5
	c0.5-0.7,0.9-1.6,0.9-2.5V15.1c0-0.3,0-0.5-0.1-0.7c-0.1-0.3-0.3-0.6-0.5-0.8c-0.2-0.2-0.5-0.2-0.8-0.2
	C160.9,13.4,160.7,13.4,160.5,13.5z M50.5,68.6c-0.9-0.4-1.4-1.6-0.9-2.5c0.4-0.9,1.6-1.4,2.5-0.9c1.1,0.5,2.2,1.5,3.1,2.6
	c0.8,1.1,1.5,2.4,1.8,3.6c0.2,1-0.4,2-1.4,2.3c-1,0.2-2-0.4-2.3-1.4c-0.2-0.7-0.6-1.5-1.1-2.2C51.7,69.4,51,68.8,50.5,68.6z
	 M84.7,58.5c-1,0.3-2.1-0.3-2.3-1.3c-0.3-1,0.3-2.1,1.3-2.3l2.4-0.7c1-0.3,2.1,0.3,2.3,1.3c0.3,1-0.3,2.1-1.3,2.3L84.7,58.5z
	 M92.6,56.1c-1,0.3-2.1-0.3-2.3-1.3c-0.3-1,0.3-2.1,1.3-2.3l2.4-0.7c0.6-0.2,1.3,0,1.7,0.4v-5.9l-32.1,9.2l31.5,11.2
	c0.2,0.1,0.4,0.1,0.6,0.2c0-0.3-0.1-0.6-0.1-0.9V55c-0.2,0.2-0.4,0.3-0.7,0.4L92.6,56.1z M49.5,61.6c-3.6,0-6.4,1-8.4,2.4
	c-2.2,1.6-3.4,3.7-3.5,5.6c-0.1,1.7,1.5,3.9,3.8,5.9c2.4,2.1,5.5,3.7,8.3,4c2.8,0.3,5,0,6.9-0.7c2-0.7,3.4-1.9,4.4-3.3
	c0.1-0.1,0.1-0.4,0.1-0.8c0-1.5-0.7-3.6-1.9-5.7c-1.2-2.2-2.9-4.3-5-5.8C52.7,62.3,51.2,61.6,49.5,61.6z"/>
<path fill="#FFFFFF" d="M153.6,60.1v14.6h2.5V64.3l7.8,10.5h2.4V60.1h-2.4v10.5L156,60.1H153.6z M145.3,60.1v14.6h2.5V60.1H145.3z
	 M138.8,74.7h2.6L135,60.1h-2.5l-6.4,14.6h2.6l1.4-3.3l0.9-2.2l2.8-6.5l2.8,6.5l0.9,2.2L138.8,74.7z M122,63.7l1-2.2
	c-1.4-0.9-3.2-1.5-5.1-1.5c-3.2,0-5.3,1.6-5.3,4.1c0,5.2,7.9,3.4,7.9,6.6c0,1.1-1,1.8-2.7,1.8c-1.6,0-3.4-0.8-4.9-2.1l-1.1,2.1
	c1.5,1.4,3.7,2.3,6,2.3c3.2,0,5.5-1.6,5.5-4.2c0-5.3-7.9-3.5-7.9-6.7c0-1,0.9-1.5,2.4-1.5C118.9,62.4,120.4,62.8,122,63.7z
	 M97.5,60.1v14.6h10.7v-2.2H100v-3v-1v-2.2v-1v-2.9h8v-2.2H97.5z M67.1,62.3c2.9,0,5.2,2.3,5.2,5.1c0,2.9-2.3,5.2-5.2,5.2
	c-2.9,0-5.3-2.3-5.3-5.2C61.8,64.5,64.2,62.3,67.1,62.3z M67,60.1c-4.4,0-7.7,3.2-7.7,7.4c0,4.2,3.4,7.4,7.7,7.4
	c4.4,0,7.7-3.2,7.7-7.4C74.8,63.3,71.4,60.1,67,60.1z M42,60.1v14.6h2.5V64.3l7.8,10.5h2.4V60.1h-2.4v10.5l-7.8-10.5H42z
	 M104.3,66.3h-2.2v2.2h2.2V66.3z M33.8,60.1v14.6h2.5V60.1H33.8z"/>
<path fill="#FFFFFF" d="M165.8,82.3c-0.3,0.2-0.7,0.3-1.1,0.3c-0.9,0-1.7-0.7-1.7-1.6c0-0.9,0.7-1.6,1.7-1.6c0.5,0,0.9,0.2,1.2,0.5
	l0.3-0.3c-0.4-0.3-0.9-0.6-1.5-0.6c-1.2,0-2.1,0.9-2.1,2c0,1.1,0.9,2.1,2.1,2.1c0.5,0,1.1-0.2,1.5-0.5V81h-0.4V82.3z M157.8,78.9V83
	h0.5v-3.3l2.4,3.3h0.5v-4.1h-0.5v3.3l-2.4-3.3H157.8z M155.6,78.9V83h0.5v-4.1H155.6z M151.2,78.9v0.4h1.3V83h0.5v-3.6h1.3v-0.4
	H151.2z M147.4,78.9v0.4h1.3V83h0.5v-3.6h1.3v-0.4H147.4z M143.6,78.9V83h2.8v-0.4h-2.4v-1.4h2.1v-0.4h-2.1v-1.4h2.3v-0.4H143.6z
	 M141.8,79.7l0.2-0.4c-0.3-0.2-0.8-0.4-1.3-0.4c-0.8,0-1.4,0.4-1.4,1c0,1.5,2.3,0.9,2.3,2c0,0.4-0.4,0.6-1,0.6c-0.5,0-1-0.2-1.4-0.6
	l-0.2,0.4c0.4,0.4,1,0.6,1.6,0.6c0.9,0,1.5-0.4,1.5-1.1c0-1.5-2.3-0.9-2.3-2c0-0.3,0.3-0.6,0.9-0.6C141,79.4,141.5,79.5,141.8,79.7z
	 M134.4,82.7c-0.5,0-0.8-0.3-0.8-0.8c0-0.4,0.3-0.7,0.7-0.9c0.3,0.3,0.6,0.7,1.1,1.1C135.1,82.5,134.8,82.7,134.4,82.7z M134.1,79.8
	c0-0.3,0.2-0.6,0.6-0.6c0.3,0,0.6,0.2,0.6,0.5c0,0.4-0.4,0.6-0.8,0.9C134.2,80.3,134.1,80,134.1,79.8z M136.6,82.8l-0.7-0.7
	c0.2-0.2,0.3-0.5,0.5-0.8l-0.3-0.2c-0.1,0.3-0.3,0.6-0.4,0.8c-0.4-0.4-0.8-0.7-1-1c0.5-0.3,1-0.6,1-1.1c0-0.5-0.4-0.8-0.9-0.8
	c-0.6,0-1,0.4-1,0.9c0,0.3,0.1,0.6,0.4,1c-0.5,0.3-0.9,0.6-0.9,1.2c0,0.6,0.5,1.1,1.2,1.1c0.5,0,0.9-0.2,1.3-0.6l0.7,0.7L136.6,82.8
	z M129.9,79.7l0.2-0.4c-0.3-0.2-0.8-0.4-1.3-0.4c-0.8,0-1.4,0.4-1.4,1c0,1.5,2.3,0.9,2.3,2c0,0.4-0.4,0.6-1,0.6
	c-0.5,0-1-0.2-1.4-0.6l-0.2,0.4c0.4,0.4,1,0.6,1.6,0.6c0.9,0,1.5-0.4,1.5-1.1c0-1.5-2.3-0.9-2.3-2c0-0.3,0.3-0.6,0.9-0.6
	C129.1,79.4,129.5,79.5,129.9,79.7z M125.4,78.9V83h0.5v-4.1H125.4z M121.5,78.9V83h0.5v-1.8h1.9v-0.4H122v-1.5h2.1v-0.4H121.5z
	 M117.4,81.5l0.9-2.1l0.9,2.1H117.4z M119.8,83h0.5l-1.8-4.1h-0.5l-1.8,4.1h0.5l0.5-1h2.2L119.8,83z M112.5,81.3v-1.9h1.1
	c0.7,0,1.2,0.3,1.2,0.9c0,0.6-0.4,1-1.2,1H112.5z M115.3,83l-1-1.4c0.6-0.2,0.9-0.6,0.9-1.3c0-0.9-0.6-1.4-1.6-1.4h-1.5V83h0.5v-1.3
	h1.1c0.1,0,0.2,0,0.3,0l0.9,1.3H115.3z M110,82.3c-0.3,0.2-0.7,0.3-1.1,0.3c-0.9,0-1.7-0.7-1.7-1.6c0-0.9,0.7-1.6,1.7-1.6
	c0.5,0,0.9,0.2,1.2,0.5l0.3-0.3c-0.4-0.3-0.9-0.6-1.5-0.6c-1.2,0-2.1,0.9-2.1,2c0,1.1,0.9,2.1,2.1,2.1c0.5,0,1.1-0.2,1.5-0.5V81H110
	V82.3z M100.2,78.9V83h0.5v-3.3l2.4,3.3h0.5v-4.1h-0.5v3.3l-2.4-3.3H100.2z M98,78.9V83h0.5v-4.1H98z M93.8,81.5l0.9-2.1l0.9,2.1
	H93.8z M96.3,83h0.5L95,78.9h-0.5L92.7,83h0.5l0.5-1h2.2L96.3,83z M91.5,79.7l0.2-0.4c-0.3-0.2-0.8-0.4-1.3-0.4
	c-0.8,0-1.4,0.4-1.4,1c0,1.5,2.3,0.9,2.3,2c0,0.4-0.4,0.6-1,0.6c-0.5,0-1-0.2-1.4-0.6l-0.2,0.4c0.4,0.4,1,0.6,1.6,0.6
	c0.9,0,1.5-0.4,1.5-1.1c0-1.5-2.3-0.9-2.3-2c0-0.3,0.3-0.6,0.9-0.6C90.7,79.4,91.1,79.5,91.5,79.7z M84.9,78.9V83h2.8v-0.4h-2.4
	v-1.4h2.1v-0.4h-2.1v-1.4h2.3v-0.4H84.9z M81.4,82.6h-1.2v-3.2h1.2c0.9,0,1.6,0.7,1.6,1.6C83,81.9,82.3,82.6,81.4,82.6z M81.4,78.9
	h-1.6V83h1.6c1.2,0,2.1-0.9,2.1-2C83.5,79.8,82.6,78.9,81.4,78.9z"/>
<path fill-rule="evenodd" clip-rule="evenodd" fill="#FFFFFF" d="M83.9,74.8H86c4.1,0,7.3-3.3,7.3-7.3c0-4.1-3.3-7.3-7.3-7.3h-1.5
	h-0.6h-2.1h-2.1v2.1v0.6v1.5h2.1v-1.5v-0.6h2.1h0.6H86v0c2.9,0,5.2,2.3,5.2,5.2c0,2.9-2.3,5.2-5.2,5.2h-2.1v0h-2.1V71v-2.7v-1.8
	h-2.1v1.8V71h0v1.8h0v2.1h0H83.9z"/>
<path fill-rule="evenodd" clip-rule="evenodd" fill="#FFFFFF" d="M95.7,49.8h3.4c6.6,0,11.9-5.3,11.9-11.9c0-6.6-5.3-11.9-11.9-11.9
	h-2.5h-0.9h-3.4h-3.4v3.4v1v2.4h3.4v-2.4v-1h3.4h0.9h2.5v0c4.7,0,8.5,3.8,8.5,8.5c0,4.7-3.8,8.5-8.5,8.5h-3.4v0h-3.4v-2.9v-4.4v-2.9
	h-3.4v2.9v4.4h0v2.9h0v3.4h0H95.7z"/>
</svg>
