<?xml version="1.0" encoding="utf-8"?>
<!-- Generator: Adobe Illustrator 16.0.3, SVG Export Plug-In . SVG Version: 6.00 Build 0)  -->
<!DOCTYPE svg PUBLIC "-//W3C//DTD SVG 1.1//EN" "http://www.w3.org/Graphics/SVG/1.1/DTD/svg11.dtd">
<svg version="1.1" id="Layer_1" xmlns="http://www.w3.org/2000/svg" xmlns:xlink="http://www.w3.org/1999/xlink" x="0px" y="0px"
	 width="200px" height="110.529px" viewBox="0 0 200 110.529" enable-background="new 0 0 200 110.529" xml:space="preserve">
<rect x="0" y="0" fill-rule="evenodd" clip-rule="evenodd" fill="#FFCD2E" width="200" height="110.529"/>
<path fill="#FAC42F" d="M101.187,34.049l48.556-13.417c0.457-0.126,0.897-0.187,1.311-0.187c0.979,0,1.873,0.316,2.599,0.883
	c0.711,0.556,1.238,1.341,1.5,2.293c0.125,0.448,0.191,0.921,0.191,1.41v27.101c0,1.406-0.525,2.822-1.372,3.966
	c-0.851,1.151-2.048,2.051-3.387,2.421l-48.557,13.416c-0.458,0.127-0.897,0.188-1.311,0.188c-0.23,0-0.455-0.018-0.675-0.052
	c-0.438-0.008-0.901-0.04-1.375-0.096c-1.235-0.146-2.59-0.444-3.764-0.863l-14.996-5.35l-5.959,2.053
	c-0.764,0.259-1.289,0.563-1.586,0.88c-0.148,0.157-0.227,0.307-0.234,0.438c-0.007,0.125,0.048,0.268,0.165,0.42
	c0.224,0.293,0.628,0.583,1.206,0.845l29.08,11.813c0.653,0.27,1.159,0.677,1.459,1.139c0.241,0.371,0.358,0.779,0.331,1.192
	c-0.028,0.42-0.201,0.828-0.539,1.188c-0.392,0.419-1.021,0.773-1.918,0.989l-12.051,2.905c-1.649,0.362-2.784,0.549-4.059,0.418
	c-1.258-0.13-2.576-0.568-4.581-1.452l-16.97-7.203c-1.864,0.592-4.078,0.822-6.643,0.551c-3.021-0.318-6.248-1.976-8.688-4.068
	c-2.603-2.231-4.385-5.055-4.257-7.471c0.133-2.508,1.599-5.194,4.292-7.092c2.169-1.527,5.145-2.56,8.854-2.56
	c2.072,0,3.992,0.741,5.685,1.915c2.136,1.481,3.909,3.669,5.139,5.882c1.256,2.258,1.976,4.604,1.976,6.322
	c0,0.947-0.212,1.778-0.658,2.422c-0.894,1.289-2.115,2.412-3.67,3.245l15.576,6.611c1.853,0.816,3.039,1.218,4.105,1.327
	c1.049,0.108,2.064-0.063,3.564-0.393l12.021-2.893c0.575-0.138,0.941-0.326,1.134-0.531c0.071-0.077,0.108-0.15,0.112-0.213
	c0.004-0.069-0.023-0.15-0.078-0.234c-0.132-0.202-0.384-0.395-0.732-0.538L72.882,71.847c-0.842-0.377-1.461-0.838-1.843-1.337
	c-0.353-0.462-0.516-0.962-0.485-1.472c0.03-0.504,0.249-0.987,0.66-1.425c0.468-0.499,1.208-0.946,2.224-1.292l4.088-1.41
	l-9.737-3.474c-0.901-0.322-1.514-0.77-1.892-1.268c-0.395-0.523-0.545-1.09-0.503-1.651c0.04-0.533,0.254-1.02,0.595-1.432
	c0.418-0.503,1.05-0.904,1.757-1.105l28.681-8.186v-7.36c0-1.407,0.525-2.822,1.372-3.966
	C98.649,35.319,99.847,34.419,101.187,34.049 M150.584,23.676l-48.557,13.417c-0.64,0.177-1.24,0.646-1.692,1.258
	c-0.458,0.618-0.741,1.365-0.741,2.086v27.101c0,0.221,0.023,0.412,0.066,0.569c0.079,0.285,0.22,0.507,0.4,0.648
	c0.165,0.129,0.391,0.201,0.656,0.201c0.156,0,0.313-0.021,0.47-0.063l48.556-13.417c0.64-0.177,1.24-0.646,1.692-1.258
	c0.457-0.618,0.741-1.364,0.741-2.085V25.032c0-0.221-0.023-0.411-0.067-0.569c-0.078-0.285-0.219-0.507-0.399-0.648
	c-0.165-0.13-0.392-0.202-0.656-0.202C150.896,23.613,150.738,23.633,150.584,23.676z M58.644,69.692
	c-0.791-0.361-1.14-1.297-0.778-2.088c0.361-0.792,1.297-1.141,2.088-0.779c0.9,0.411,1.848,1.214,2.604,2.175
	c0.704,0.895,1.282,1.971,1.54,3.038c0.205,0.846-0.315,1.698-1.161,1.902c-0.846,0.205-1.698-0.315-1.903-1.161
	c-0.145-0.6-0.507-1.253-0.959-1.827C59.608,70.36,59.085,69.893,58.644,69.692z M87.204,61.267
	c-0.839,0.238-1.714-0.248-1.952-1.088c-0.239-0.839,0.248-1.714,1.087-1.952l2.018-0.575c0.839-0.238,1.714,0.248,1.953,1.087
	c0.238,0.84-0.249,1.714-1.087,1.953L87.204,61.267z M93.812,59.304c-0.839,0.239-1.714-0.248-1.952-1.087
	c-0.239-0.839,0.248-1.714,1.087-1.952l2.018-0.575c0.53-0.151,1.073-0.013,1.462,0.32v-4.927L69.62,58.734l26.347,9.4
	c0.168,0.06,0.34,0.116,0.516,0.17c-0.037-0.251-0.056-0.508-0.056-0.768v-9.128c-0.168,0.145-0.37,0.256-0.597,0.32L93.812,59.304z
	 M57.81,63.911c-3.005,0-5.36,0.798-7.037,1.979c-1.864,1.313-2.873,3.075-2.958,4.67c-0.074,1.395,1.246,3.273,3.157,4.912
	c2.007,1.722,4.6,3.078,6.958,3.327c2.3,0.244,4.213,0.011,5.752-0.552c1.643-0.6,2.863-1.581,3.674-2.751
	c0.061-0.087,0.089-0.308,0.089-0.63c0-1.223-0.571-2.999-1.567-4.79c-1.021-1.836-2.465-3.633-4.175-4.819
	C60.513,64.432,59.193,63.911,57.81,63.911z"/>
<path fill="#FFFFFF" d="M141.479,46.426v11.291h1.903v-8.097l6.016,8.097h1.871V46.426h-1.871v8.113l-6.048-8.113H141.479z
	 M135.077,46.426v11.291h1.903V46.426H135.077z M130.014,57.716h2.032l-4.936-11.291h-1.951l-4.984,11.291h1.984l1.08-2.549
	l0.71-1.693l2.129-5.016l2.129,5.016l0.726,1.693L130.014,57.716z M117.047,49.184l0.791-1.677
	c-1.049-0.693-2.484-1.161-3.952-1.161c-2.451,0-4.112,1.209-4.112,3.145c0,4.016,6.097,2.613,6.097,5.129
	c0,0.871-0.791,1.371-2.113,1.371c-1.21,0-2.661-0.58-3.822-1.645l-0.823,1.645c1.161,1.064,2.839,1.791,4.613,1.791
	c2.484,0,4.258-1.242,4.258-3.258c0.017-4.064-6.08-2.742-6.08-5.21c0-0.758,0.726-1.177,1.838-1.177
	C114.596,48.135,115.821,48.442,117.047,49.184z M98.064,46.426v11.291h8.258v-1.71h-6.354v-2.33v-0.783V51.2v-0.783v-2.281h6.161
	v-1.709H98.064z M74.502,48.087c2.21,0,4.016,1.742,4.016,3.984c0,2.242-1.806,4.016-4.016,4.016c-2.209,0-4.064-1.774-4.064-4.016
	C70.438,49.829,72.276,48.087,74.502,48.087z M74.486,46.377c-3.371,0-5.984,2.452-5.984,5.693c0,3.226,2.613,5.726,5.984,5.726
	s5.984-2.5,5.984-5.726C80.47,48.845,77.857,46.377,74.486,46.377z M55.132,46.426v11.291h1.903v-8.097l6.016,8.097h1.871V46.426
	h-1.871v8.113l-6.048-8.113H55.132z M103.354,51.2h-1.693v1.694h1.693V51.2z M48.73,46.426v11.291h1.903V46.426H48.73z"/>
<path fill="#FFFFFF" d="M150.94,63.549c-0.243,0.166-0.544,0.266-0.827,0.266c-0.721,0-1.301-0.559-1.301-1.26
	c0-0.698,0.575-1.256,1.296-1.256c0.351,0,0.697,0.135,0.954,0.364l0.207-0.261c-0.302-0.266-0.725-0.432-1.161-0.432
	c-0.927,0-1.66,0.697-1.66,1.584s0.729,1.588,1.642,1.588c0.424,0,0.86-0.162,1.171-0.409V62.59h-0.32V63.549z M144.741,60.98v3.15
	h0.36v-2.557l1.89,2.557h0.369v-3.15h-0.355v2.561l-1.89-2.561H144.741z M143.002,60.98v3.15h0.359v-3.15H143.002z M139.637,60.98
	v0.333h1.026v2.817h0.36v-2.817h1.03V60.98H139.637z M136.7,60.98v0.333h1.026v2.817h0.359v-2.817h1.031V60.98H136.7z
	 M133.772,60.98v3.15h2.196v-0.334h-1.836v-1.098h1.589v-0.328h-1.589v-1.058h1.777V60.98H133.772z M132.38,61.579l0.152-0.32
	c-0.261-0.176-0.634-0.292-0.998-0.292c-0.653,0-1.09,0.314-1.09,0.81c0,1.13,1.773,0.685,1.769,1.525
	c0,0.307-0.283,0.491-0.738,0.491c-0.354,0-0.756-0.162-1.048-0.441l-0.162,0.311c0.297,0.284,0.747,0.481,1.206,0.481
	c0.675,0,1.139-0.337,1.139-0.859c0.005-1.144-1.769-0.716-1.769-1.534c0-0.271,0.266-0.433,0.67-0.433
	C131.763,61.317,132.096,61.394,132.38,61.579z M126.635,63.869c-0.364,0-0.653-0.252-0.653-0.607c0-0.315,0.262-0.509,0.572-0.68
	c0.211,0.248,0.495,0.536,0.846,0.887C127.17,63.725,126.905,63.869,126.635,63.869z M126.364,61.641c0-0.247,0.189-0.44,0.481-0.44
	c0.271,0,0.441,0.161,0.441,0.396c0,0.319-0.302,0.49-0.647,0.671C126.459,62.024,126.364,61.826,126.364,61.641z M128.313,63.995
	l-0.545-0.535c0.131-0.181,0.252-0.396,0.355-0.635l-0.238-0.18c-0.095,0.233-0.202,0.44-0.319,0.611
	c-0.324-0.314-0.581-0.576-0.774-0.801c0.396-0.212,0.783-0.432,0.783-0.859c0-0.369-0.293-0.63-0.729-0.63
	c-0.459,0-0.77,0.283-0.77,0.675c0,0.229,0.108,0.468,0.324,0.751c-0.369,0.198-0.716,0.438-0.716,0.892
	c0,0.495,0.414,0.859,0.937,0.859c0.355,0,0.688-0.171,0.977-0.481l0.526,0.522L128.313,63.995z M123.157,61.579l0.153-0.32
	c-0.261-0.176-0.635-0.292-0.999-0.292c-0.652,0-1.089,0.314-1.089,0.81c0,1.13,1.772,0.685,1.769,1.525
	c0,0.307-0.283,0.491-0.738,0.491c-0.355,0-0.756-0.162-1.048-0.441l-0.162,0.311c0.297,0.284,0.747,0.481,1.206,0.481
	c0.675,0,1.139-0.337,1.139-0.859c0.004-1.144-1.77-0.716-1.77-1.534c0-0.271,0.266-0.433,0.671-0.433
	C122.541,61.317,122.874,61.394,123.157,61.579z M119.636,60.98v3.15h0.36v-3.15H119.636z M116.677,60.98v3.15h0.359v-1.359h1.472
	v-0.329h-1.472v-1.129h1.643V60.98H116.677z M113.442,62.991l0.707-1.62l0.715,1.62H113.442z M115.364,64.13h0.392l-1.408-3.15
	h-0.374l-1.413,3.15h0.383l0.351-0.806h1.715L115.364,64.13z M109.7,62.797v-1.484h0.837c0.571,0,0.896,0.252,0.896,0.733
	c0,0.495-0.324,0.751-0.896,0.751H109.7z M111.811,64.13l-0.742-1.076c0.454-0.144,0.711-0.499,0.711-1.017
	c0-0.671-0.454-1.058-1.242-1.058h-1.197v3.15h0.36v-1h0.837c0.072,0,0.14-0.004,0.202-0.009l0.662,1.009H111.811z M107.723,63.549
	c-0.244,0.166-0.545,0.266-0.829,0.266c-0.72,0-1.3-0.559-1.3-1.26c0-0.698,0.575-1.256,1.296-1.256
	c0.351,0,0.697,0.135,0.954,0.364l0.207-0.261c-0.302-0.266-0.725-0.432-1.161-0.432c-0.928,0-1.661,0.697-1.661,1.584
	s0.729,1.588,1.643,1.588c0.424,0,0.86-0.162,1.17-0.409V62.59h-0.318V63.549z M100.172,60.98v3.15h0.36v-2.557l1.89,2.557h0.369
	v-3.15h-0.355v2.561l-1.89-2.561H100.172z M98.433,60.98v3.15h0.36v-3.15H98.433z M95.199,62.991l0.707-1.62l0.715,1.62H95.199z
	 M97.12,64.13h0.392l-1.408-3.15h-0.374l-1.413,3.15h0.382l0.352-0.806h1.715L97.12,64.13z M93.418,61.579l0.153-0.32
	c-0.261-0.176-0.635-0.292-0.999-0.292c-0.652,0-1.089,0.314-1.089,0.81c0,1.13,1.773,0.685,1.769,1.525
	c0,0.307-0.284,0.491-0.738,0.491c-0.355,0-0.756-0.162-1.048-0.441l-0.162,0.311c0.297,0.284,0.748,0.481,1.206,0.481
	c0.675,0,1.139-0.337,1.139-0.859c0.004-1.144-1.769-0.716-1.769-1.534c0-0.271,0.266-0.433,0.67-0.433
	C92.802,61.317,93.135,61.394,93.418,61.579z M88.281,60.98v3.15h2.196v-0.334h-1.836v-1.098h1.589v-0.328h-1.589v-1.058h1.778
	V60.98H88.281z M85.583,63.796h-0.918v-2.483h0.904c0.707,0,1.265,0.535,1.265,1.246C86.834,63.266,86.285,63.796,85.583,63.796z
	 M85.579,60.98h-1.274v3.15h1.261c0.926,0,1.633-0.68,1.633-1.575S86.497,60.98,85.579,60.98z"/>
<path fill-rule="evenodd" clip-rule="evenodd" fill="#FFFFFF" d="M89.178,51.299h-1.624v1.624h1.624V51.299z M87.554,46.426h1.624
	c3.14,0,5.686,2.545,5.686,5.686c0,3.14-2.545,5.685-5.686,5.685v-1.624c2.243,0,4.061-1.818,4.061-4.061
	c0-2.243-1.818-4.061-4.061-4.061h-1.624V46.426z M85.93,56.172h1.625v1.624H85.93h-1.625v-1.624v-1.625v-1.625v-1.624h1.625v1.624
	v1.625V56.172z"/>
<rect x="99.38" y="51.2" fill-rule="evenodd" clip-rule="evenodd" fill="#FFFFFF" width="6.749" height="1.694"/>
</svg>
