<?xml version="1.0" encoding="utf-8"?>
<!-- Generator: Adobe Illustrator 16.0.3, SVG Export Plug-In . SVG Version: 6.00 Build 0)  -->
<!DOCTYPE svg PUBLIC "-//W3C//DTD SVG 1.1//EN" "http://www.w3.org/Graphics/SVG/1.1/DTD/svg11.dtd">
<svg version="1.1" id="Layer_1" xmlns="http://www.w3.org/2000/svg" xmlns:xlink="http://www.w3.org/1999/xlink" x="0px" y="0px"
	 width="252.057px" height="252.057px" viewBox="0 0 252.057 252.057" enable-background="new 0 0 252.057 252.057"
	 xml:space="preserve">
<path fill="#FFFFFF" d="M229.543,167.656v27.078h3.095v-21.972l16.247,21.972h3.172v-27.078h-3.056v22.011l-16.247-22.011H229.543z
	 M213.504,167.656v27.078h3.096v-27.078H213.504z M201.141,194.734h3.365l-12.107-27.078h-3.211l-12.146,27.078h3.288l3.018-6.924
	l1.276-2.863l6.073-13.926l6.15,13.926l1.238,2.863L201.141,194.734z M168.236,172.802l1.314-2.747
	c-2.243-1.509-5.454-2.514-8.587-2.514c-5.609,0-9.361,2.707-9.361,6.962c0,9.71,15.241,5.88,15.202,13.113
	c0,2.631-2.437,4.217-6.344,4.217c-3.056,0-6.499-1.393-9.014-3.791l-1.392,2.67c2.553,2.437,6.421,4.139,10.366,4.139
	c5.803,0,9.787-2.901,9.787-7.389c0.038-9.825-15.202-6.15-15.202-13.19c0-2.321,2.282-3.714,5.764-3.714
	C162.937,170.558,165.799,171.216,168.236,172.802z M122.992,167.656v27.078h18.877v-2.862h-15.782v-9.438h13.654v-2.824h-13.654
	v-9.091h15.279v-2.862H122.992z M98.675,167.656h-5.071v2.862h4.994c6.073,0,10.87,4.604,10.87,10.716
	c0,6.073-4.719,10.638-10.753,10.638h-7.892v-18.78h-3.095v21.643h10.832c7.968,0,14.042-5.841,14.042-13.539
	S106.566,167.656,98.675,167.656z M63.179,170.441c6.035,0,10.986,4.759,10.986,10.754c0,5.996-4.951,10.831-10.986,10.831
	s-11.063-4.835-11.063-10.831C52.116,175.2,57.144,170.441,63.179,170.441z M63.179,167.579c-7.93,0-14.197,5.996-14.197,13.616
	c0,7.621,6.267,13.655,14.197,13.655c7.891,0,14.158-6.034,14.158-13.655C77.336,173.575,71.07,167.579,63.179,167.579z
	 M16.039,167.656v27.078h3.095v-21.972l16.247,21.972h3.172v-27.078h-3.056v22.011L19.25,167.656H16.039z M0,167.656v27.078h3.095
	v-27.078H0z"/>
<path fill-rule="evenodd" clip-rule="evenodd" fill="#FFFFFF" d="M111.62,57.206H92.584v19.036h19.036V57.206z M121.138,57.206
	c21.171,0,38.334,17.163,38.334,38.334s-17.163,38.334-38.334,38.334H92.584v-0.13v-1.288v-17.749v-9.519v-9.518v-9.518h19.036
	v9.518v9.518v9.519h9.518c10.586,0,19.168-8.582,19.168-19.168s-8.582-19.168-19.168-19.168V57.206z"/>
</svg>
