<?xml version="1.0" encoding="utf-8"?>
<!-- Generator: Adobe Illustrator 16.0.3, SVG Export Plug-In . SVG Version: 6.00 Build 0)  -->
<!DOCTYPE svg PUBLIC "-//W3C//DTD SVG 1.1//EN" "http://www.w3.org/Graphics/SVG/1.1/DTD/svg11.dtd">
<svg version="1.1" id="Layer_1" xmlns="http://www.w3.org/2000/svg" xmlns:xlink="http://www.w3.org/1999/xlink" x="0px" y="0px"
	 width="200px" height="110.529px" viewBox="0 0 200 110.529" enable-background="new 0 0 200 110.529" xml:space="preserve">
<rect x="0" y="0" fill-rule="evenodd" clip-rule="evenodd" fill="#FFCD2E" width="200" height="110.529"/>
<path fill="#FAC42F" d="M101.526,26.496l65.623-18.132c0.618-0.171,1.212-0.253,1.771-0.253c1.324,0,2.532,0.427,3.513,1.193
	c0.961,0.751,1.673,1.813,2.028,3.099c0.167,0.606,0.258,1.246,0.258,1.906v36.625c0,1.901-0.711,3.814-1.854,5.36
	c-1.149,1.555-2.769,2.771-4.578,3.271l-65.622,18.133c-0.619,0.171-1.213,0.253-1.771,0.253c-0.311,0-0.615-0.023-0.912-0.07
	c-0.592-0.01-1.217-0.054-1.857-0.129c-1.669-0.196-3.5-0.602-5.087-1.167l-20.266-7.23l-8.053,2.775
	c-1.032,0.35-1.742,0.76-2.145,1.188c-0.2,0.214-0.305,0.414-0.315,0.591c-0.01,0.169,0.065,0.362,0.222,0.568
	c0.302,0.396,0.849,0.787,1.629,1.142l39.301,15.964c0.884,0.364,1.567,0.915,1.973,1.539c0.325,0.501,0.484,1.054,0.447,1.612
	c-0.038,0.567-0.272,1.118-0.729,1.605c-0.529,0.565-1.379,1.046-2.593,1.337l-16.287,3.926c-2.229,0.49-3.762,0.742-5.485,0.565
	c-1.7-0.176-3.481-0.767-6.191-1.962L51.61,90.469c-2.519,0.801-5.511,1.112-8.978,0.746c-4.083-0.432-8.444-2.671-11.741-5.499
	c-3.517-3.017-5.926-6.831-5.753-10.097c0.18-3.39,2.161-7.02,5.802-9.584c2.932-2.064,6.952-3.459,11.965-3.459
	c2.8,0,5.395,1.001,7.683,2.588c2.887,2.002,5.283,4.959,6.946,7.949c1.697,3.052,2.67,6.222,2.67,8.544
	c0,1.28-0.286,2.403-0.89,3.273c-1.208,1.742-2.859,3.261-4.959,4.386l21.05,8.935c2.504,1.104,4.107,1.646,5.548,1.795
	c1.417,0.146,2.789-0.086,4.817-0.531l16.246-3.909c0.777-0.187,1.272-0.441,1.532-0.719c0.097-0.104,0.146-0.202,0.151-0.287
	c0.006-0.094-0.031-0.203-0.104-0.317c-0.178-0.273-0.519-0.532-0.99-0.728l-39.33-15.977c-1.138-0.51-1.975-1.133-2.49-1.807
	c-0.477-0.624-0.698-1.3-0.656-1.988c0.04-0.682,0.336-1.336,0.892-1.927c0.633-0.675,1.633-1.279,3.005-1.746l5.525-1.905
	L56.39,63.51c-1.218-0.436-2.046-1.039-2.556-1.712c-0.534-0.709-0.738-1.474-0.68-2.232c0.054-0.721,0.343-1.378,0.804-1.935
	c0.564-0.681,1.419-1.222,2.375-1.494l38.762-11.063v-9.947c0-1.901,0.71-3.813,1.854-5.36
	C98.099,28.211,99.717,26.996,101.526,26.496 M168.286,12.476l-65.622,18.132c-0.864,0.239-1.677,0.873-2.288,1.7
	c-0.618,0.836-1.002,1.844-1.002,2.819v36.625c0,0.299,0.032,0.558,0.091,0.771c0.106,0.385,0.297,0.685,0.54,0.875
	c0.225,0.175,0.529,0.272,0.888,0.272c0.211,0,0.425-0.027,0.634-0.086l65.623-18.132c0.863-0.239,1.677-0.873,2.287-1.7
	c0.618-0.835,1.002-1.844,1.002-2.819V14.309c0-0.298-0.032-0.556-0.091-0.769c-0.105-0.385-0.296-0.686-0.54-0.876
	c-0.224-0.175-0.529-0.273-0.888-0.273C168.709,12.39,168.496,12.418,168.286,12.476z M44.032,74.666
	c-1.069-0.488-1.541-1.752-1.052-2.822c0.489-1.069,1.753-1.54,2.822-1.052c1.216,0.555,2.497,1.64,3.519,2.938
	c0.951,1.209,1.732,2.663,2.082,4.105c0.277,1.144-0.426,2.295-1.569,2.571c-1.144,0.277-2.295-0.426-2.572-1.569
	c-0.196-0.811-0.685-1.692-1.296-2.47C45.335,75.569,44.629,74.938,44.032,74.666z M82.63,63.279
	c-1.134,0.322-2.316-0.335-2.639-1.47c-0.322-1.134,0.335-2.315,1.47-2.638l2.727-0.778c1.134-0.322,2.316,0.336,2.639,1.47
	c0.322,1.135-0.335,2.316-1.47,2.639L82.63,63.279z M91.561,60.627c-1.135,0.322-2.316-0.335-2.639-1.47
	c-0.322-1.134,0.335-2.316,1.47-2.639l2.728-0.777c0.715-0.203,1.45-0.017,1.976,0.434v-6.659l-36.229,10.34L94.473,72.56
	c0.227,0.081,0.46,0.158,0.697,0.23c-0.05-0.339-0.075-0.686-0.075-1.038V59.417c-0.228,0.195-0.5,0.346-0.807,0.434L91.561,60.627z
	 M42.904,66.853c-4.061,0-7.244,1.078-9.511,2.674c-2.519,1.774-3.883,4.156-3.997,6.311c-0.1,1.886,1.684,4.424,4.267,6.64
	c2.712,2.326,6.216,4.159,9.403,4.496c3.108,0.329,5.693,0.015,7.774-0.745c2.22-0.812,3.869-2.138,4.966-3.719
	c0.082-0.117,0.12-0.416,0.12-0.852c0-1.652-0.772-4.053-2.118-6.474c-1.38-2.481-3.332-4.909-5.643-6.512
	C46.558,67.557,44.774,66.853,42.904,66.853z"/>
<path fill="#FFFFFF" d="M174.391,67.363c-0.355,0.243-0.796,0.388-1.209,0.388c-1.052,0-1.899-0.814-1.899-1.84
	c0-1.019,0.841-1.834,1.893-1.834c0.512,0,1.019,0.197,1.393,0.532l0.303-0.381c-0.44-0.388-1.058-0.631-1.695-0.631
	c-1.354,0-2.426,1.019-2.426,2.313s1.065,2.32,2.399,2.32c0.617,0,1.255-0.237,1.709-0.599v-1.669h-0.467V67.363z M165.337,63.61
	v4.601h0.525v-3.732l2.761,3.732h0.539V63.61h-0.52v3.74l-2.761-3.74H165.337z M162.796,63.61v4.601h0.526V63.61H162.796z
	 M157.883,63.61v0.486h1.499v4.114h0.525v-4.114h1.506V63.61H157.883z M153.595,63.61v0.486h1.498v4.114h0.525v-4.114h1.506V63.61
	H153.595z M149.319,63.61v4.601h3.207v-0.486h-2.682v-1.604h2.32v-0.479h-2.32v-1.545h2.597V63.61H149.319z M147.285,64.484
	l0.224-0.466c-0.382-0.257-0.928-0.428-1.459-0.428c-0.953,0-1.591,0.46-1.591,1.184c0,1.649,2.59,0.999,2.583,2.228
	c0,0.447-0.415,0.716-1.078,0.716c-0.52,0-1.104-0.236-1.531-0.644l-0.236,0.454c0.434,0.414,1.091,0.703,1.761,0.703
	c0.986,0,1.663-0.493,1.663-1.256c0.007-1.669-2.583-1.045-2.583-2.241c0-0.395,0.388-0.631,0.979-0.631
	C146.385,64.103,146.871,64.215,147.285,64.484z M138.896,67.83c-0.532,0-0.953-0.368-0.953-0.888c0-0.46,0.381-0.742,0.835-0.992
	c0.309,0.361,0.723,0.782,1.235,1.295C139.678,67.62,139.29,67.83,138.896,67.83z M138.501,64.577c0-0.361,0.276-0.645,0.703-0.645
	c0.395,0,0.645,0.236,0.645,0.578c0,0.467-0.44,0.717-0.946,0.979C138.639,65.135,138.501,64.846,138.501,64.577z M141.347,68.014
	l-0.795-0.782c0.19-0.264,0.367-0.579,0.519-0.927l-0.348-0.263c-0.138,0.341-0.296,0.644-0.467,0.894
	c-0.474-0.46-0.848-0.842-1.131-1.17c0.579-0.31,1.144-0.631,1.144-1.256c0-0.538-0.427-0.92-1.064-0.92
	c-0.67,0-1.124,0.414-1.124,0.986c0,0.335,0.158,0.684,0.474,1.097c-0.539,0.29-1.045,0.638-1.045,1.302
	c0,0.723,0.604,1.256,1.367,1.256c0.519,0,1.005-0.25,1.426-0.703l0.769,0.762L141.347,68.014z M133.818,64.484l0.223-0.466
	c-0.381-0.257-0.927-0.428-1.458-0.428c-0.954,0-1.591,0.46-1.591,1.184c0,1.649,2.589,0.999,2.582,2.228
	c0,0.447-0.414,0.716-1.077,0.716c-0.52,0-1.104-0.236-1.531-0.644l-0.237,0.454c0.435,0.414,1.092,0.703,1.762,0.703
	c0.986,0,1.663-0.493,1.663-1.256c0.007-1.669-2.583-1.045-2.583-2.241c0-0.395,0.388-0.631,0.979-0.631
	C132.917,64.103,133.403,64.215,133.818,64.484z M128.675,63.61v4.601h0.525V63.61H128.675z M124.354,63.61v4.601h0.525v-1.984
	h2.149v-0.48h-2.149v-1.649h2.398V63.61H124.354z M119.631,66.548l1.031-2.366l1.045,2.366H119.631z M122.437,68.21h0.572
	l-2.057-4.601h-0.546l-2.063,4.601h0.559l0.513-1.176h2.504L122.437,68.21z M114.165,66.265v-2.169h1.223
	c0.835,0,1.308,0.368,1.308,1.071c0,0.724-0.473,1.098-1.308,1.098H114.165z M117.248,68.21l-1.085-1.57
	c0.664-0.21,1.039-0.729,1.039-1.485c0-0.979-0.664-1.545-1.814-1.545h-1.748v4.601h0.525v-1.459h1.223
	c0.105,0,0.204-0.007,0.296-0.013l0.966,1.472H117.248z M111.277,67.363c-0.355,0.243-0.796,0.388-1.21,0.388
	c-1.052,0-1.899-0.814-1.899-1.84c0-1.019,0.841-1.834,1.893-1.834c0.513,0,1.019,0.197,1.394,0.532l0.303-0.381
	c-0.44-0.388-1.059-0.631-1.696-0.631c-1.354,0-2.425,1.019-2.425,2.313s1.064,2.32,2.398,2.32c0.618,0,1.256-0.237,1.709-0.599
	v-1.669h-0.466V67.363z M100.252,63.61v4.601h0.525v-3.732l2.76,3.732h0.539V63.61h-0.519v3.74l-2.761-3.74H100.252z M97.711,63.61
	v4.601h0.526V63.61H97.711z M92.989,66.548l1.031-2.366l1.045,2.366H92.989z M95.794,68.21h0.572L94.31,63.61h-0.545L91.7,68.21
	h0.559l0.513-1.176h2.504L95.794,68.21z M90.389,64.484l0.223-0.466c-0.381-0.257-0.927-0.428-1.458-0.428
	c-0.953,0-1.591,0.46-1.591,1.184c0,1.649,2.589,0.999,2.583,2.228c0,0.447-0.414,0.716-1.078,0.716
	c-0.519,0-1.104-0.236-1.531-0.644L87.3,67.528c0.434,0.414,1.091,0.703,1.762,0.703c0.985,0,1.663-0.493,1.663-1.256
	c0.007-1.669-2.583-1.045-2.583-2.241c0-0.395,0.388-0.631,0.979-0.631C89.488,64.103,89.975,64.215,90.389,64.484z M82.887,63.61
	v4.601h3.207v-0.486h-2.682v-1.604h2.32v-0.479h-2.32v-1.545h2.596V63.61H82.887z M78.947,67.724h-1.341v-3.628h1.321
	c1.032,0,1.847,0.782,1.847,1.82C80.774,66.949,79.972,67.724,78.947,67.724z M78.94,63.61h-1.86v4.601h1.84
	c1.354,0,2.386-0.992,2.386-2.3S80.281,63.61,78.94,63.61z"/>
<path fill-rule="evenodd" clip-rule="evenodd" fill="#FFFFFF" d="M84.197,49.474h-2.372v2.372h2.372V49.474z M81.825,42.357h2.372
	c4.585,0,8.303,3.717,8.303,8.303c0,4.585-3.717,8.303-8.303,8.303v-2.373c3.275,0,5.93-2.655,5.93-5.93
	c0-3.275-2.654-5.93-5.93-5.93h-2.372V42.357z M79.453,56.589h2.372v2.373h-2.372H77.08v-2.373v-2.372v-2.372v-2.372h2.373v2.372
	v2.372V56.589z"/>
<rect x="99.095" y="49.329" fill-rule="evenodd" clip-rule="evenodd" fill="#FFFFFF" width="9.855" height="2.473"/>
<path fill-rule="evenodd" clip-rule="evenodd" fill="#FFFFFF" d="M63.031,44.729c3.461,0,6.267,2.628,6.267,5.871
	s-2.806,5.872-6.267,5.872s-6.267-2.629-6.267-5.872S59.569,44.729,63.031,44.729 M63.031,42.357c4.772,0,8.64,3.691,8.64,8.244
	s-3.868,8.244-8.64,8.244c-4.771,0-8.64-3.691-8.64-8.244S58.259,42.357,63.031,42.357z"/>
<polygon fill-rule="evenodd" clip-rule="evenodd" fill="#FFFFFF" points="34.682,42.357 37.055,42.357 46.255,54.845 46.255,42.357 
	48.628,42.357 48.628,58.065 48.628,58.844 46.255,58.844 37.055,46.357 37.055,58.844 34.682,58.844 34.682,43.136 "/>
<rect x="25.129" y="42.357" fill-rule="evenodd" clip-rule="evenodd" fill="#FFFFFF" width="2.373" height="16.487"/>
<rect x="97.184" y="42.357" fill-rule="evenodd" clip-rule="evenodd" fill="#FFFFFF" width="2.373" height="16.487"/>
<rect x="97.174" y="42.357" fill-rule="evenodd" clip-rule="evenodd" fill="#FFFFFF" width="11.776" height="2.373"/>
<rect x="97.174" y="56.472" fill-rule="evenodd" clip-rule="evenodd" fill="#FFFFFF" width="11.776" height="2.372"/>
<rect x="97.174" y="49.415" fill-rule="evenodd" clip-rule="evenodd" fill="#FFFFFF" width="11.776" height="2.373"/>
<polygon fill-rule="evenodd" clip-rule="evenodd" fill="#FFFFFF" points="139.438,42.357 139.374,42.502 146.474,58.844 
	143.887,58.844 138.081,45.479 132.273,58.844 129.688,58.844 136.787,42.502 136.724,42.357 "/>
<rect x="151.48" y="42.357" fill-rule="evenodd" clip-rule="evenodd" fill="#FFFFFF" width="2.372" height="16.487"/>
<polygon fill-rule="evenodd" clip-rule="evenodd" fill="#FFFFFF" points="160.772,42.357 163.146,42.357 172.346,54.845 
	172.346,42.357 174.719,42.357 174.719,58.065 174.719,58.844 172.346,58.844 163.146,46.357 163.146,58.844 160.772,58.844 
	160.772,43.136 "/>
<path fill="#FFFFFF" d="M124.681,45.733c-0.013-0.006-4.532-2.186-6.669-1.016c-0.53,0.291-0.861,0.678-1.016,1.092
	c-0.093,0.247-0.124,0.515-0.101,0.788c0.023,0.277,0.107,0.55,0.245,0.802v0.004c0.258,0.471,0.706,0.875,1.318,1.104l0.001-0.002
	l4.788,1.771l-0.407,1.112l0.412-1.107c1.178,0.439,2.054,1.24,2.573,2.187l0.002-0.001c0.3,0.546,0.48,1.139,0.533,1.738
	c0.052,0.604-0.027,1.223-0.249,1.816c-0.347,0.927-1.031,1.763-2.091,2.343c-3.218,1.763-8.813-0.942-8.829-0.95l-0.005-0.005
	l-0.624-0.303l1.018-2.137l0.63,0.305l0.001-0.002c0.013,0.006,4.532,2.186,6.669,1.015c0.53-0.29,0.861-0.677,1.017-1.091
	c0.092-0.246,0.124-0.515,0.101-0.788c-0.024-0.277-0.107-0.55-0.246-0.802v-0.004c-0.257-0.471-0.706-0.874-1.318-1.104
	l-0.001,0.002l-4.788-1.771l0.408-1.112l-0.413,1.107c-1.177-0.439-2.054-1.24-2.573-2.187l-0.002,0
	c-0.3-0.546-0.48-1.139-0.532-1.738c-0.053-0.604,0.027-1.223,0.249-1.816c0.346-0.927,1.03-1.762,2.091-2.343
	c3.217-1.762,8.813,0.943,8.828,0.951L124.681,45.733z"/>
</svg>
