<?xml version="1.0" encoding="utf-8"?>
<!-- Generator: Adobe Illustrator 18.1.1, SVG Export Plug-In . SVG Version: 6.00 Build 0)  -->
<svg version="1.1" id="Layer_1" xmlns="http://www.w3.org/2000/svg" xmlns:xlink="http://www.w3.org/1999/xlink" x="0px" y="0px"
	 viewBox="0 0 200 110.5" enable-background="new 0 0 200 110.5" xml:space="preserve">
<rect x="0" y="0" fill-rule="evenodd" clip-rule="evenodd" fill="#FFCD2E" width="200" height="110.5"/>
<path fill="#FAC42F" d="M101.2,33.1l50.6-14c0.5-0.1,0.9-0.2,1.4-0.2c1,0,2,0.3,2.7,0.9c0.7,0.6,1.3,1.4,1.6,2.4
	c0.1,0.5,0.2,1,0.2,1.5V52c0,1.5-0.5,2.9-1.4,4.1c-0.9,1.2-2.1,2.1-3.5,2.5l-50.6,14c-0.5,0.1-0.9,0.2-1.4,0.2c-0.2,0-0.5,0-0.7-0.1
	c-0.5,0-0.9,0-1.4-0.1c-1.3-0.2-2.7-0.5-3.9-0.9l-15.6-5.6l-6.2,2.1c-0.8,0.3-1.3,0.6-1.7,0.9c-0.2,0.2-0.2,0.3-0.2,0.5
	c0,0.1,0.1,0.3,0.2,0.4c0.2,0.3,0.7,0.6,1.3,0.9l30.3,12.3c0.7,0.3,1.2,0.7,1.5,1.2c0.3,0.4,0.4,0.8,0.3,1.2c0,0.4-0.2,0.9-0.6,1.2
	c-0.4,0.4-1.1,0.8-2,1l-12.6,3c-1.7,0.4-2.9,0.6-4.2,0.4c-1.3-0.1-2.7-0.6-4.8-1.5l-17.7-7.5c-1.9,0.6-4.3,0.9-6.9,0.6
	c-3.1-0.3-6.5-2.1-9.1-4.2c-2.7-2.3-4.6-5.3-4.4-7.8c0.1-2.6,1.7-5.4,4.5-7.4C49,62.1,52.1,61,56,61c2.2,0,4.2,0.8,5.9,2
	c2.2,1.5,4.1,3.8,5.4,6.1c1.3,2.4,2.1,4.8,2.1,6.6c0,1-0.2,1.9-0.7,2.5c-0.9,1.3-2.2,2.5-3.8,3.4l16.2,6.9c1.9,0.9,3.2,1.3,4.3,1.4
	c1.1,0.1,2.2-0.1,3.7-0.4l12.5-3c0.6-0.1,1-0.3,1.2-0.6c0.1-0.1,0.1-0.2,0.1-0.2c0-0.1,0-0.2-0.1-0.2c-0.1-0.2-0.4-0.4-0.8-0.6
	L71.7,72.6c-0.9-0.4-1.5-0.9-1.9-1.4c-0.4-0.5-0.5-1-0.5-1.5c0-0.5,0.3-1,0.7-1.5c0.5-0.5,1.3-1,2.3-1.3l4.3-1.5l-10.2-3.6
	c-0.9-0.3-1.6-0.8-2-1.3c-0.4-0.5-0.6-1.1-0.5-1.7c0-0.6,0.3-1.1,0.6-1.5c0.4-0.5,1.1-0.9,1.8-1.2l29.9-8.5v-7.7
	c0-1.5,0.5-2.9,1.4-4.1C98.6,34.5,99.8,33.5,101.2,33.1 M152.7,22.3l-50.6,14c-0.7,0.2-1.3,0.7-1.8,1.3c-0.5,0.6-0.8,1.4-0.8,2.2
	v28.3c0,0.2,0,0.4,0.1,0.6c0.1,0.3,0.2,0.5,0.4,0.7c0.2,0.1,0.4,0.2,0.7,0.2c0.2,0,0.3,0,0.5-0.1l50.6-14c0.7-0.2,1.3-0.7,1.8-1.3
	c0.5-0.6,0.8-1.4,0.8-2.2V23.7c0-0.2,0-0.4-0.1-0.6c-0.1-0.3-0.2-0.5-0.4-0.7c-0.2-0.1-0.4-0.2-0.7-0.2
	C153.1,22.3,152.9,22.3,152.7,22.3z M56.9,70.3c-0.8-0.4-1.2-1.4-0.8-2.2c0.4-0.8,1.4-1.2,2.2-0.8c0.9,0.4,1.9,1.3,2.7,2.3
	c0.7,0.9,1.3,2.1,1.6,3.2c0.2,0.9-0.3,1.8-1.2,2c-0.9,0.2-1.8-0.3-2-1.2c-0.2-0.6-0.5-1.3-1-1.9C57.9,71,57.3,70.5,56.9,70.3z
	 M86.7,61.5c-0.9,0.2-1.8-0.3-2-1.1c-0.2-0.9,0.3-1.8,1.1-2l2.1-0.6c0.9-0.2,1.8,0.3,2,1.1c0.2,0.9-0.3,1.8-1.1,2L86.7,61.5z
	 M93.5,59.5c-0.9,0.2-1.8-0.3-2-1.1c-0.2-0.9,0.3-1.8,1.1-2l2.1-0.6c0.6-0.2,1.1,0,1.5,0.3v-5.1l-27.9,8l27.5,9.8
	c0.2,0.1,0.4,0.1,0.5,0.2c0-0.3-0.1-0.5-0.1-0.8v-9.5c-0.2,0.2-0.4,0.3-0.6,0.3L93.5,59.5z M56,64.3c-3.1,0-5.6,0.8-7.3,2.1
	c-1.9,1.4-3,3.2-3.1,4.9c-0.1,1.5,1.3,3.4,3.3,5.1c2.1,1.8,4.8,3.2,7.3,3.5c2.4,0.3,4.4,0,6-0.6c1.7-0.6,3-1.6,3.8-2.9
	c0.1-0.1,0.1-0.3,0.1-0.7c0-1.3-0.6-3.1-1.6-5c-1.1-1.9-2.6-3.8-4.4-5C58.8,64.8,57.5,64.3,56,64.3z"/>
<path fill-rule="evenodd" clip-rule="evenodd" fill="#FFFFFF" d="M83.9,61.7h1.8h1.8c2.5,0,4.5,2,4.5,4.5c0,2.5-2,4.5-4.5,4.5v0
	h-1.8v0h-1.8c0-1.8,0-3.6,0-5.5v-0.1h-1.8v0.1c0,2.4,0,4.8,0,7.3h3.6h0h1.8c3.5,0,6.4-2.8,6.4-6.4c0-3.5-2.8-6.4-6.4-6.4h-1.8h-3.6
	v1.8v1.7h1.8V61.7z"/>
<path fill="#FFFFFF" d="M157.4,79.2c-0.3,0.2-0.6,0.3-0.9,0.3c-0.8,0-1.5-0.6-1.5-1.4c0-0.8,0.6-1.4,1.5-1.4c0.4,0,0.8,0.2,1.1,0.4
	l0.2-0.3c-0.3-0.3-0.8-0.5-1.3-0.5c-1,0-1.9,0.8-1.9,1.8c0,1,0.8,1.8,1.9,1.8c0.5,0,1-0.2,1.3-0.5v-1.3h-0.4V79.2z M150.4,76.3v3.5
	h0.4V77l2.1,2.9h0.4v-3.5h-0.4v2.9l-2.1-2.9H150.4z M148.4,76.3v3.5h0.4v-3.5H148.4z M144.6,76.3v0.4h1.2v3.2h0.4v-3.2h1.2v-0.4
	H144.6z M141.3,76.3v0.4h1.2v3.2h0.4v-3.2h1.2v-0.4H141.3z M138,76.3v3.5h2.5v-0.4h-2.1v-1.2h1.8v-0.4h-1.8v-1.2h2v-0.4H138z
	 M136.5,77l0.2-0.4c-0.3-0.2-0.7-0.3-1.1-0.3c-0.7,0-1.2,0.4-1.2,0.9c0,1.3,2,0.8,2,1.7c0,0.3-0.3,0.6-0.8,0.6
	c-0.4,0-0.9-0.2-1.2-0.5l-0.2,0.4c0.3,0.3,0.8,0.5,1.4,0.5c0.8,0,1.3-0.4,1.3-1c0-1.3-2-0.8-2-1.7c0-0.3,0.3-0.5,0.8-0.5
	C135.8,76.7,136.2,76.8,136.5,77z M130,79.5c-0.4,0-0.7-0.3-0.7-0.7c0-0.4,0.3-0.6,0.6-0.8c0.2,0.3,0.6,0.6,1,1
	C130.6,79.4,130.3,79.5,130,79.5z M129.7,77c0-0.3,0.2-0.5,0.5-0.5c0.3,0,0.5,0.2,0.5,0.4c0,0.4-0.3,0.6-0.7,0.8
	C129.8,77.5,129.7,77.2,129.7,77z M131.9,79.7l-0.6-0.6c0.1-0.2,0.3-0.4,0.4-0.7l-0.3-0.2c-0.1,0.3-0.2,0.5-0.4,0.7
	c-0.4-0.4-0.7-0.6-0.9-0.9c0.4-0.2,0.9-0.5,0.9-1c0-0.4-0.3-0.7-0.8-0.7c-0.5,0-0.9,0.3-0.9,0.8c0,0.3,0.1,0.5,0.4,0.8
	c-0.4,0.2-0.8,0.5-0.8,1c0,0.6,0.5,1,1.1,1c0.4,0,0.8-0.2,1.1-0.5l0.6,0.6L131.9,79.7z M126.1,77l0.2-0.4c-0.3-0.2-0.7-0.3-1.1-0.3
	c-0.7,0-1.2,0.4-1.2,0.9c0,1.3,2,0.8,2,1.7c0,0.3-0.3,0.6-0.8,0.6c-0.4,0-0.9-0.2-1.2-0.5l-0.2,0.4c0.3,0.3,0.8,0.5,1.4,0.5
	c0.8,0,1.3-0.4,1.3-1c0-1.3-2-0.8-2-1.7c0-0.3,0.3-0.5,0.8-0.5C125.4,76.7,125.8,76.8,126.1,77z M122.1,76.3v3.5h0.4v-3.5H122.1z
	 M118.8,76.3v3.5h0.4v-1.5h1.7v-0.4h-1.7v-1.3h1.9v-0.4H118.8z M115.1,78.6l0.8-1.8l0.8,1.8H115.1z M117.3,79.8h0.4l-1.6-3.5h-0.4
	l-1.6,3.5h0.4l0.4-0.9h1.9L117.3,79.8z M110.9,78.3v-1.7h0.9c0.6,0,1,0.3,1,0.8c0,0.6-0.4,0.8-1,0.8H110.9z M113.3,79.8l-0.8-1.2
	c0.5-0.2,0.8-0.6,0.8-1.1c0-0.8-0.5-1.2-1.4-1.2h-1.3v3.5h0.4v-1.1h0.9c0.1,0,0.2,0,0.2,0l0.7,1.1H113.3z M108.7,79.2
	c-0.3,0.2-0.6,0.3-0.9,0.3c-0.8,0-1.5-0.6-1.5-1.4c0-0.8,0.6-1.4,1.5-1.4c0.4,0,0.8,0.2,1.1,0.4l0.2-0.3c-0.3-0.3-0.8-0.5-1.3-0.5
	c-1,0-1.9,0.8-1.9,1.8c0,1,0.8,1.8,1.9,1.8c0.5,0,1-0.2,1.3-0.5v-1.3h-0.4V79.2z M100.2,76.3v3.5h0.4V77l2.1,2.9h0.4v-3.5h-0.4v2.9
	l-2.1-2.9H100.2z M98.2,76.3v3.5h0.4v-3.5H98.2z M94.6,78.6l0.8-1.8l0.8,1.8H94.6z M96.8,79.8h0.4l-1.6-3.5h-0.4l-1.6,3.5H94
	l0.4-0.9h1.9L96.8,79.8z M92.6,77l0.2-0.4c-0.3-0.2-0.7-0.3-1.1-0.3c-0.7,0-1.2,0.4-1.2,0.9c0,1.3,2,0.8,2,1.7
	c0,0.3-0.3,0.6-0.8,0.6c-0.4,0-0.9-0.2-1.2-0.5l-0.2,0.4c0.3,0.3,0.8,0.5,1.4,0.5c0.8,0,1.3-0.4,1.3-1c0-1.3-2-0.8-2-1.7
	c0-0.3,0.3-0.5,0.8-0.5C91.9,76.7,92.3,76.8,92.6,77z M86.8,76.3v3.5h2.5v-0.4h-2.1v-1.2H89v-0.4h-1.8v-1.2h2v-0.4H86.8z M83.8,79.5
	h-1v-2.8h1c0.8,0,1.4,0.6,1.4,1.4C85.2,78.9,84.6,79.5,83.8,79.5z M83.8,76.3h-1.4v3.5h1.4c1,0,1.8-0.8,1.8-1.8
	C85.6,77.1,84.8,76.3,83.8,76.3z"/>
<path fill-rule="evenodd" clip-rule="evenodd" fill="#FFFFFF" d="M71.5,61.7c2.7,0,4.8,2,4.8,4.5c0,2.5-2.2,4.5-4.8,4.5
	c-2.7,0-4.8-2-4.8-4.5C66.6,63.8,68.8,61.7,71.5,61.7 M71.5,59.9c3.7,0,6.7,2.8,6.7,6.4c0,3.5-3,6.4-6.7,6.4c-3.7,0-6.7-2.8-6.7-6.4
	C64.8,62.7,67.8,59.9,71.5,59.9z"/>
<polygon fill-rule="evenodd" clip-rule="evenodd" fill="#FFFFFF" points="49.6,59.9 51.4,59.9 58.5,69.5 58.5,59.9 60.4,59.9 
	60.4,72 60.4,72.6 58.5,72.6 51.4,63 51.4,72.6 49.6,72.6 49.6,60.5 "/>
<rect x="42.2" y="59.9" fill-rule="evenodd" clip-rule="evenodd" fill="#FFFFFF" width="1.8" height="12.7"/>
<rect x="97.8" y="59.9" fill-rule="evenodd" clip-rule="evenodd" fill="#FFFFFF" width="1.8" height="12.7"/>
<rect x="97.8" y="59.9" fill-rule="evenodd" clip-rule="evenodd" fill="#FFFFFF" width="9.1" height="1.8"/>
<rect x="97.8" y="70.8" fill-rule="evenodd" clip-rule="evenodd" fill="#FFFFFF" width="9.1" height="1.8"/>
<polygon fill-rule="evenodd" clip-rule="evenodd" fill="#FFFFFF" points="130.4,59.9 130.4,60 135.8,72.6 133.9,72.6 129.4,62.3 
	124.9,72.6 122.9,72.6 128.4,60 128.3,59.9 "/>
<rect x="139.7" y="59.9" fill-rule="evenodd" clip-rule="evenodd" fill="#FFFFFF" width="1.8" height="12.7"/>
<polygon fill-rule="evenodd" clip-rule="evenodd" fill="#FFFFFF" points="146.9,59.9 148.7,59.9 148.7,59.9 155.8,69.5 155.8,59.9 
	157.6,59.9 157.6,72 157.6,72.6 155.8,72.6 148.7,63 148.7,72.6 146.9,72.6 146.9,60.5 "/>
<path fill="#FFFFFF" d="M119.1,63.4c-0.9-0.9-2-1.4-3-1.6c-1-0.2-1.9,0-2.4,0.5c-0.2,0.2-0.4,0.5-0.5,0.7c-0.1,0.2-0.1,0.5,0,0.7
	c0,0.2,0.2,0.4,0.3,0.6c1.1,1.2,4.4,1.1,5.9,2.8c0.4,0.4,0.7,1,0.8,1.5c0.1,0.5,0.1,1.1-0.1,1.6c-0.2,0.6-0.5,1.1-1,1.5
	c-0.9,0.9-2.4,1.2-4,0.9c-1.3-0.2-2.8-0.9-4-2.1l1.3-1.3c0.9,0.9,2,1.4,3,1.6c1,0.2,1.9,0,2.4-0.5c0.2-0.2,0.4-0.5,0.5-0.7
	c0.1-0.2,0.1-0.5,0-0.7c0-0.2-0.2-0.4-0.3-0.6c-1.1-1.2-4.4-1.1-5.9-2.8c-0.4-0.4-0.7-1-0.8-1.5c-0.1-0.5-0.1-1.1,0.1-1.6
	c0.2-0.6,0.5-1.1,1-1.5c0.9-0.9,2.4-1.2,4-0.9c1.3,0.2,2.8,0.9,4,2.1L119.1,63.4z"/>
<rect x="101.5" y="65.3" fill-rule="evenodd" clip-rule="evenodd" fill="#FFFFFF" width="1.8" height="1.8"/>
<path fill-rule="evenodd" clip-rule="evenodd" fill="#FFFFFF" d="M93.5,33.5h2.9h2.9c4,0,7.3,3.2,7.3,7.3c0,4-3.2,7.3-7.3,7.3v0
	h-2.9v0h-2.9c0-2.9,0-5.8,0-8.7v-0.1h-2.9v0.1c0,3.9,0,7.7,0,11.6h5.8h0h2.9c5.6,0,10.2-4.5,10.2-10.2c0-5.6-4.5-10.2-10.2-10.2
	h-2.9h-5.8v2.9v2.8h2.9V33.5z"/>
</svg>
