<?xml version="1.0" encoding="utf-8"?>
<!-- Generator: Adobe Illustrator 18.1.1, SVG Export Plug-In . SVG Version: 6.00 Build 0)  -->
<svg version="1.1" id="Layer_1" xmlns="http://www.w3.org/2000/svg" xmlns:xlink="http://www.w3.org/1999/xlink" x="0px" y="0px"
	 viewBox="0 0 202 147.8" enable-background="new 0 0 202 147.8" xml:space="preserve">
<path fill="#FFFFFF" d="M199.9,9.8c-0.3,0-0.5-0.2-0.5-0.5c0-0.3,0.2-0.5,0.5-0.5c0.3,0,0.5,0.2,0.5,0.5
	C200.4,9.6,200.2,9.8,199.9,9.8 M200.4,8.7V9c-0.1-0.2-0.3-0.3-0.5-0.3c-0.4,0-0.6,0.3-0.6,0.7c0,0.4,0.3,0.7,0.6,0.7
	c0.2,0,0.4-0.1,0.5-0.3v0.2c0,0.3-0.2,0.5-0.5,0.5c-0.2,0-0.3-0.1-0.5-0.2l-0.1,0.1c0.2,0.1,0.3,0.2,0.6,0.2c0.4,0,0.7-0.3,0.7-0.7
	V8.7H200.4z M198.4,8.7c-0.2,0-0.4,0.1-0.5,0.3V8.7h-0.2v1.4h0.2V9.3c0-0.3,0.2-0.4,0.5-0.4c0.2,0,0.4,0.1,0.4,0.4v0.8h0.2V9.2
	C198.9,8.9,198.8,8.7,198.4,8.7z M197,8.7v1.4h0.2V8.7H197z M197.1,8.2c-0.1,0-0.1,0.1-0.1,0.1c0,0.1,0.1,0.1,0.1,0.1
	c0.1,0,0.1-0.1,0.1-0.1C197.2,8.2,197.2,8.2,197.1,8.2z M196.6,9.8c-0.1,0-0.1,0.1-0.2,0.1c-0.1,0-0.2-0.1-0.2-0.2V8.9h0.4V8.7h-0.4
	V8.4H196v0.4h-0.2v0.2h0.2v0.8c0,0.3,0.1,0.4,0.3,0.4c0.1,0,0.2,0,0.3-0.1L196.6,9.8z M195.6,9.8c-0.1,0-0.1,0.1-0.2,0.1
	c-0.1,0-0.2-0.1-0.2-0.2V8.9h0.4V8.7h-0.4V8.4H195v0.4h-0.2v0.2h0.2v0.8c0,0.3,0.1,0.4,0.3,0.4c0.1,0,0.2,0,0.3-0.1L195.6,9.8z
	 M193.5,9.3c0-0.3,0.2-0.4,0.5-0.4c0.3,0,0.4,0.2,0.5,0.4H193.5z M194,8.7c-0.4,0-0.7,0.3-0.7,0.7c0,0.4,0.3,0.7,0.7,0.7
	c0.2,0,0.4-0.1,0.6-0.2l-0.1-0.1c-0.1,0.1-0.3,0.2-0.4,0.2c-0.3,0-0.5-0.2-0.5-0.4h1.1C194.6,9,194.4,8.7,194,8.7z M193,9l0.1-0.2
	c-0.1-0.1-0.3-0.1-0.4-0.1c-0.2,0-0.5,0.1-0.5,0.4c0,0.5,0.8,0.3,0.8,0.6c0,0.1-0.1,0.2-0.3,0.2c-0.2,0-0.3-0.1-0.5-0.2l-0.1,0.1
	c0.1,0.1,0.3,0.2,0.5,0.2c0.3,0,0.5-0.1,0.5-0.4c0-0.5-0.8-0.3-0.8-0.6c0-0.1,0.1-0.2,0.3-0.2C192.7,8.9,192.9,8.9,193,9z
	 M190.2,9.9c-0.2,0-0.4-0.1-0.4-0.4c0-0.2,0.2-0.3,0.3-0.4c0.1,0.1,0.3,0.3,0.5,0.5C190.6,9.8,190.4,9.9,190.2,9.9z M190.1,8.6
	c0-0.1,0.1-0.3,0.3-0.3c0.2,0,0.3,0.1,0.3,0.2c0,0.2-0.2,0.3-0.4,0.4C190.1,8.8,190.1,8.7,190.1,8.6z M191.2,10l-0.3-0.3
	c0.1-0.1,0.1-0.2,0.2-0.4L191,9.2c-0.1,0.1-0.1,0.3-0.2,0.4c-0.2-0.2-0.3-0.3-0.4-0.5c0.2-0.1,0.5-0.2,0.5-0.5
	c0-0.2-0.2-0.4-0.4-0.4c-0.3,0-0.4,0.2-0.4,0.4c0,0.1,0.1,0.3,0.2,0.4c-0.2,0.1-0.4,0.3-0.4,0.5c0,0.3,0.2,0.5,0.5,0.5
	c0.2,0,0.4-0.1,0.6-0.3l0.3,0.3L191.2,10z M188.6,9l0.1-0.2c-0.1-0.1-0.3-0.1-0.4-0.1c-0.2,0-0.5,0.1-0.5,0.4c0,0.5,0.8,0.3,0.8,0.6
	c0,0.1-0.1,0.2-0.3,0.2c-0.2,0-0.3-0.1-0.5-0.2l-0.1,0.1c0.1,0.1,0.3,0.2,0.5,0.2c0.3,0,0.5-0.1,0.5-0.4c0-0.5-0.8-0.3-0.8-0.6
	c0-0.1,0.1-0.2,0.3-0.2C188.3,8.9,188.5,8.9,188.6,9z M187.1,10.1h0.2V8.7h-0.2V10.1z M187.2,8.4c0.1,0,0.1-0.1,0.1-0.1
	c0-0.1-0.1-0.1-0.1-0.1c-0.1,0-0.1,0.1-0.1,0.1C187.1,8.4,187.2,8.4,187.2,8.4z M186.3,8.6v0.2h-0.2v0.2h0.2v1.2h0.2V8.9h0.4V8.7
	h-0.4V8.5c0-0.2,0.1-0.2,0.2-0.2c0.1,0,0.2,0,0.2,0.1l0-0.2c-0.1,0-0.2-0.1-0.2-0.1C186.6,8.1,186.3,8.3,186.3,8.6z M185.2,9.9
	c-0.2,0-0.3-0.1-0.3-0.3c0-0.2,0.1-0.2,0.3-0.2h0.4v0.2C185.6,9.8,185.4,9.9,185.2,9.9z M185.8,10.1l0-0.9c0-0.3-0.2-0.5-0.5-0.5
	c-0.2,0-0.4,0.1-0.6,0.2l0.1,0.1c0.1-0.1,0.3-0.2,0.4-0.2c0.2,0,0.4,0.1,0.4,0.3v0.1h-0.5c-0.3,0-0.5,0.2-0.5,0.4
	c0,0.2,0.2,0.4,0.5,0.4c0.2,0,0.4-0.1,0.5-0.2v0.2H185.8z M184.1,9V8.7h-0.2v1.4h0.2V9.3c0-0.3,0.2-0.5,0.5-0.4V8.7
	C184.4,8.7,184.2,8.8,184.1,9z M182.8,9.8c-0.3,0-0.5-0.2-0.5-0.5c0-0.3,0.2-0.5,0.5-0.5c0.3,0,0.5,0.2,0.5,0.5
	C183.2,9.6,183,9.8,182.8,9.8z M183.2,8.7V9c-0.1-0.2-0.3-0.3-0.5-0.3c-0.4,0-0.6,0.3-0.6,0.7c0,0.4,0.3,0.7,0.6,0.7
	c0.2,0,0.4-0.1,0.5-0.3v0.2c0,0.3-0.2,0.5-0.5,0.5c-0.2,0-0.3-0.1-0.5-0.2l-0.1,0.1c0.2,0.1,0.3,0.2,0.6,0.2c0.4,0,0.7-0.3,0.7-0.7
	V8.7H183.2z M180.5,8.7c-0.2,0-0.4,0.1-0.5,0.3V8.7h-0.2v1.4h0.2V9.3c0-0.3,0.2-0.4,0.5-0.4c0.2,0,0.4,0.1,0.4,0.4v0.8h0.2V9.2
	C181,8.9,180.8,8.7,180.5,8.7z M179.1,8.7v1.4h0.2V8.7H179.1z M179.2,8.2c-0.1,0-0.1,0.1-0.1,0.1c0,0.1,0.1,0.1,0.1,0.1
	c0.1,0,0.1-0.1,0.1-0.1C179.3,8.2,179.2,8.2,179.2,8.2z M177.9,9.9c-0.2,0-0.3-0.1-0.3-0.3c0-0.2,0.1-0.2,0.3-0.2h0.4v0.2
	C178.4,9.8,178.2,9.9,177.9,9.9z M178.6,10.1l0-0.9c0-0.3-0.2-0.5-0.5-0.5c-0.2,0-0.4,0.1-0.6,0.2l0.1,0.1c0.1-0.1,0.3-0.2,0.4-0.2
	c0.2,0,0.4,0.1,0.4,0.3v0.1H178c-0.3,0-0.5,0.2-0.5,0.4c0,0.2,0.2,0.4,0.5,0.4c0.2,0,0.4-0.1,0.5-0.2v0.2H178.6z M177.1,9l0.1-0.2
	c-0.1-0.1-0.3-0.1-0.4-0.1c-0.2,0-0.5,0.1-0.5,0.4c0,0.5,0.8,0.3,0.8,0.6c0,0.1-0.1,0.2-0.3,0.2c-0.2,0-0.3-0.1-0.5-0.2l-0.1,0.1
	c0.1,0.1,0.3,0.2,0.5,0.2c0.3,0,0.5-0.1,0.5-0.4c0-0.5-0.8-0.3-0.8-0.6c0-0.1,0.1-0.2,0.3-0.2C176.9,8.9,177,8.9,177.1,9z
	 M174.9,9.3c0-0.3,0.2-0.4,0.5-0.4c0.3,0,0.4,0.2,0.5,0.4H174.9z M175.4,8.7c-0.4,0-0.7,0.3-0.7,0.7c0,0.4,0.3,0.7,0.7,0.7
	c0.2,0,0.4-0.1,0.6-0.2l-0.1-0.1c-0.1,0.1-0.3,0.2-0.4,0.2c-0.3,0-0.5-0.2-0.5-0.4h1.1C176.1,9,175.8,8.7,175.4,8.7z M173.6,9.9
	c-0.3,0-0.5-0.2-0.5-0.5c0-0.3,0.2-0.5,0.5-0.5c0.3,0,0.5,0.2,0.5,0.5C174.1,9.7,173.9,9.9,173.6,9.9z M174.1,8.1V9
	c-0.1-0.2-0.3-0.3-0.5-0.3c-0.4,0-0.7,0.3-0.7,0.7c0,0.4,0.3,0.7,0.7,0.7c0.2,0,0.4-0.1,0.5-0.3v0.3h0.2V8.1H174.1z"/>
<path fill="#FFFFFF" d="M169.4,2.3c1.1,0,2.1,0.9,2.1,2c0,1.1-0.9,2.1-2.1,2.1c-1.1,0-2.1-0.9-2.1-2.1
	C167.3,3.2,168.3,2.3,169.4,2.3 M169.4,1.8c-1.5,0-2.7,1.1-2.7,2.6c0,1.4,1.2,2.6,2.7,2.6c1.5,0,2.7-1.1,2.7-2.6
	C172.1,2.9,170.9,1.8,169.4,1.8z M161.4,1.8v5.1h0.6V2.7l3.1,4.2h0.6V1.8h-0.6v4.2L162,1.8H161.4z M159.2,1.8v5.1h0.6V1.8H159.2z"/>
<path fill="#FFFFFF" d="M196,1.8v5.1h1.1V3.6l2.5,3.3h1.1V1.8h-1.1v3.3L197,1.8H196z M193.7,1.8v5.1h1.2V1.8H193.7z M189.5,5l0.8-2
	l0.8,2H189.5z M191.9,6.9h1.2l-2.2-5.1h-1.2l-2.2,5.1h1.2l0.4-1h2.4L191.9,6.9z M186.8,3.2l0.4-1c-0.5-0.3-1.2-0.6-1.9-0.6
	c-1.2,0-2,0.6-2,1.5c0,1.8,2.7,1.3,2.7,2.2c0,0.3-0.3,0.5-0.8,0.5c-0.5,0-1.3-0.3-1.8-0.8l-0.5,0.9c0.6,0.5,1.4,0.8,2.3,0.8
	c1.1,0,2-0.5,2-1.5c0-1.8-2.7-1.3-2.7-2.3c0-0.3,0.3-0.4,0.7-0.4C185.7,2.7,186.3,2.9,186.8,3.2z M178.6,1.8v5.1h4v-1h-2.8V4.8h2.5
	v-1h-2.5V2.7h2.7v-1H178.6z M175.2,5.9h-1V2.7h1c0.9,0,1.5,0.7,1.5,1.6C176.6,5.3,176,5.9,175.2,5.9z M175.1,1.8h-2.2v5.1h2.1
	c1.6,0,2.7-1.1,2.7-2.6C177.8,2.8,176.7,1.8,175.1,1.8z"/>
<path fill-rule="evenodd" clip-rule="evenodd" fill="#FFCD2E" d="M146.9,2.5h2.9c2,0,3.7,1.6,3.7,3.7c0,2-1.6,3.7-3.7,3.7h-2.9
	c0-1.5,0-3,0-4.5h-1.5c0,2,0,4,0,5.9h4.4c2.8,0,5.1-2.3,5.1-5.1c0-2.8-2.3-5.1-5.1-5.1h-4.4v2.9h1.5V2.5z"/>
<g>
	<path fill="#FFFFFF" d="M20.9,100.1c0,6.3-4.6,10.5-11.4,10.5H0.6V89.6h9.1C16.3,89.6,20.9,93.8,20.9,100.1z M15.2,100.1
		c0-3.6-2.4-6.1-5.7-6.1H6.1v12.1h3.7C13,106.2,15.2,103.7,15.2,100.1z"/>
	<path fill="#FFFFFF" d="M38.9,103.9H27.7c0.5,1.8,1.9,2.9,3.7,2.9c1.4,0,2.7-0.6,3.8-1.7l2.8,2.8c-1.7,1.9-4.1,2.9-7.1,2.9
		c-5.3,0-8.6-3.3-8.6-8.2c0-5,3.4-8.4,8.5-8.4C36.4,94.2,39.3,98,38.9,103.9z M33.8,101.1c0-1.9-1.2-3.1-3-3.1
		c-1.7,0-2.9,1.3-3.2,3.1H33.8z"/>
	<path fill="#FFFFFF" d="M47.4,97.8c-0.9,0-1.5,0.3-1.5,1c0,2.1,8.5,1.1,8.5,6.8c0,3.3-2.9,5.2-6.9,5.2c-2.7,0-5.3-0.8-7.3-2.3
		l1.7-3.5c1.9,1.3,4,2,5.8,2c1,0,1.7-0.3,1.7-1c0-2.2-8.4-1.1-8.4-6.7c0-3.4,2.9-5.3,6.7-5.3c2.3,0,4.7,0.7,6.8,1.9l-1.8,3.5
		C50.5,98.4,48.7,97.8,47.4,97.8z"/>
	<path fill="#FFFFFF" d="M71.7,100v10.6h-5.3v-1.8c-1.1,1.4-2.7,2.1-4.9,2.1c-3.5,0-5.6-2.1-5.6-5.1c0-3.1,2.2-4.9,6.2-4.9h4.2v-0.2
		c0-1.5-1.1-2.4-3.1-2.4c-1.4,0-3.1,0.5-4.9,1.3L57,95.9c2.6-1.1,4.9-1.8,7.6-1.8C69,94.1,71.7,96.3,71.7,100z M66.4,105.1v-1.4
		h-3.2c-1.5,0-2.3,0.5-2.3,1.7c0,1.1,0.8,1.8,2.2,1.8C64.8,107.2,66.1,106.3,66.4,105.1z"/>
	<path fill="#FFFFFF" d="M80.6,94.4v16.2h-5.3V94.4H80.6z M80.4,89.8c0,1.4-1,2.4-2.4,2.4c-1.4,0-2.4-1-2.4-2.4c0-1.4,1-2.5,2.4-2.5
		C79.4,87.3,80.4,88.4,80.4,89.8z"/>
	<path fill="#FFFFFF" d="M101.3,100.4v10.2H96v-8.7c0-1.8-1.1-3-2.8-3c-1.8,0-3,1.3-3.2,3.1v8.6h-5.3V94.4H90V97
		c1.1-1.9,3-2.9,5.4-2.9C99,94.1,101.3,96.6,101.3,100.4z"/>
	<path fill="#FFFFFF" d="M127.9,99.9h4.7v8.3c-2.3,1.6-5.8,2.7-8.8,2.7c-6.4,0-11.3-4.6-11.3-10.8c0-6.1,5-10.7,11.6-10.7
		c3.2,0,6.5,1.2,8.6,3.1l-3.1,3.8c-1.5-1.4-3.6-2.3-5.6-2.3c-3.4,0-5.9,2.6-5.9,6c0,3.5,2.6,6.1,6,6.1c1.1,0,2.4-0.4,3.6-1V99.9z"/>
	<path fill="#FFFFFF" d="M146.8,94.1V99c-3-0.3-5,1-5.2,3.3v8.3h-5.3V94.4h5.3v2.7C142.7,95.2,144.5,94.1,146.8,94.1z"/>
</g>
<g>
	<path fill="#FFFFFF" d="M163.2,100v10.6h-5.3v-1.8c-1.1,1.4-2.7,2.1-4.9,2.1c-3.5,0-5.6-2.1-5.6-5.1c0-3.1,2.2-4.9,6.2-4.9h4.2
		v-0.2c0-1.5-1.1-2.4-3.1-2.4c-1.4,0-3.1,0.5-4.9,1.3l-1.5-3.6c2.6-1.1,4.9-1.8,7.6-1.8C160.5,94.1,163.1,96.3,163.2,100z
		 M157.9,105.1v-1.4h-3.2c-1.5,0-2.3,0.5-2.3,1.7c0,1.1,0.8,1.8,2.2,1.8C156.3,107.2,157.6,106.3,157.9,105.1z"/>
	<path fill="#FFFFFF" d="M174,88.1c1.1,0,2.3,0.2,3.2,0.6L177,93c-0.7-0.4-1.5-0.6-2.1-0.6c-1.1,0-1.8,0.5-1.8,1.7v1.1h3.6v3.5h-3.6
		v11.9h-5.3V98.7h-2.2v-3.5h2.2v-1.5C167.7,90,170.5,88.1,174,88.1z M183.8,94.4v16.2h-5.3V94.4H183.8z M178.7,89.8
		c0-1.4,1-2.5,2.4-2.5c1.4,0,2.4,1,2.4,2.5c0,1.4-1,2.4-2.4,2.4C179.7,92.2,178.7,91.2,178.7,89.8z"/>
	<path fill="#FFFFFF" d="M193.6,97.8c-0.9,0-1.5,0.3-1.5,1c0,2.1,8.5,1.1,8.5,6.8c0,3.3-2.9,5.2-6.9,5.2c-2.7,0-5.3-0.8-7.3-2.3
		l1.7-3.5c1.9,1.3,4,2,5.8,2c1,0,1.7-0.3,1.7-1c0-2.2-8.4-1.1-8.4-6.7c0-3.4,2.9-5.3,6.7-5.3c2.3,0,4.7,0.7,6.8,1.9l-1.8,3.5
		C196.7,98.4,194.9,97.8,193.6,97.8z"/>
</g>
<g>
	<path fill="#FFCD2E" d="M77.7,141.7c-1.1-1-2-2-2.9-2.9c-1.7,1.4-3.8,2.2-5.9,2.2c-4.1,0-7.2-2.6-7.2-6.1c0-2.8,1.9-4.4,4.1-5.6
		c-1.3-1.8-1.7-3.2-1.7-4.7c0-3.1,2.3-5.1,6-5.1c3.6,0,6.1,2,6.1,4.7c0,2.9-2.4,4.5-4.9,5.8c0.8,1,1.9,2,3.2,3.3
		c0.6-1,1-2.1,1.4-3.3l3.4,2.5c-0.5,1.4-1.1,2.6-1.9,3.7c1,0.9,2,1.9,3.1,2.9L77.7,141.7z M72,136.1c-1.7-1.7-3.1-3.1-4.2-4.3
		c-1.1,0.7-1.9,1.5-1.9,2.6c0,1.7,1.3,2.8,3.1,2.8C70,137.2,71,136.8,72,136.1z M69.2,127.5c1.6-0.8,2.7-1.7,2.7-3.2
		c0-1.1-0.7-1.8-1.8-1.8c-1.2,0-2,0.9-2,2C68.1,125.4,68.4,126.3,69.2,127.5z"/>
	<path fill="#FFCD2E" d="M99.3,123.9c-1.3,0-2.2,0.5-2.2,1.4c0,3.5,11.1,1.5,11.1,9.1c0,4.3-3.8,6.5-8.5,6.5c-3.5,0-7.2-1.3-9.7-3.4
		l2.1-4.3c2.2,1.9,5.4,3.2,7.6,3.2c1.6,0,2.6-0.6,2.6-1.7c0-3.6-11.1-1.4-11.1-8.9c0-3.9,3.3-6.4,8.4-6.4c3.1,0,6.2,1,8.4,2.4
		l-2.1,4.4C103.9,124.9,101.1,123.9,99.3,123.9z"/>
	<path fill="#FFCD2E" d="M126.4,134.1h-11.3c0.5,1.8,1.9,2.9,3.7,2.9c1.4,0,2.7-0.6,3.8-1.7l2.8,2.8c-1.7,1.9-4.1,2.9-7.1,2.9
		c-5.3,0-8.6-3.3-8.6-8.2c0-5,3.4-8.4,8.5-8.4C123.9,124.3,126.7,128.1,126.4,134.1z M121.2,131.2c0-1.9-1.2-3.1-3-3.1
		c-1.7,0-2.9,1.3-3.2,3.1H121.2z"/>
	<path fill="#FFCD2E" d="M139.7,139.9c-1.2,0.7-2.8,1.1-4.4,1.1c-3.2,0-5.4-1.8-5.4-5.2v-7h-2.3v-3.5h2.3v-4.5h5.3v4.5h4.2v3.5h-4.2
		v6.1c0,1.2,0.5,1.7,1.5,1.7c0.5,0,1.2-0.2,2-0.5L139.7,139.9z"/>
	<path fill="#FFCD2E" d="M152.8,139.9c-1.2,0.7-2.8,1.1-4.4,1.1c-3.2,0-5.4-1.8-5.4-5.2v-7h-2.3v-3.5h2.3v-4.5h5.3v4.5h4.2v3.5h-4.2
		v6.1c0,1.2,0.5,1.7,1.5,1.7c0.5,0,1.2-0.2,2-0.5L152.8,139.9z"/>
	<path fill="#FFCD2E" d="M160.7,124.5v16.2h-5.3v-16.2H160.7z M160.5,119.9c0,1.4-1,2.4-2.4,2.4s-2.4-1-2.4-2.4c0-1.4,1-2.5,2.4-2.5
		S160.5,118.5,160.5,119.9z"/>
	<path fill="#FFCD2E" d="M181.4,130.5v10.2h-5.3V132c0-1.8-1.1-3-2.8-3c-1.8,0-3,1.3-3.2,3.1v8.6h-5.3v-16.2h5.3v2.6
		c1.1-1.9,3-2.9,5.4-2.9C179.1,124.3,181.4,126.7,181.4,130.5z"/>
	<path fill="#FFCD2E" d="M200.6,124.5v14.8c0,4.6-3.6,7.5-8.8,7.5c-2.9,0-5.4-0.9-7.3-2.1l1.9-3.7c1.5,1,3.3,1.6,5,1.6
		c2.4,0,3.9-1.2,3.9-3.1v-1.7c-1.1,1.4-2.6,2.1-4.6,2.1c-4.1,0-6.9-3.1-6.9-7.8c0-4.6,2.8-7.7,6.8-7.7c2,0,3.7,0.8,4.7,2.2v-2H200.6
		z M195.3,132.2c0-2.3-1.3-3.8-3.3-3.8c-2,0-3.3,1.6-3.3,3.8c0,2.2,1.3,3.8,3.3,3.8C194,136,195.3,134.4,195.3,132.2z"/>
</g>
</svg>
