<?xml version="1.0" encoding="utf-8"?>
<!-- Generator: Adobe Illustrator 18.1.1, SVG Export Plug-In . SVG Version: 6.00 Build 0)  -->
<svg version="1.1" id="Layer_1" xmlns="http://www.w3.org/2000/svg" xmlns:xlink="http://www.w3.org/1999/xlink" x="0px" y="0px"
	 viewBox="0 0 200 110.5" enable-background="new 0 0 200 110.5" xml:space="preserve">
<rect x="0" y="0" fill-rule="evenodd" clip-rule="evenodd" fill="#FFCD2E" width="200" height="110.5"/>
<path fill="#FAC42F" d="M101.2,33.1l50.6-14c0.5-0.1,0.9-0.2,1.4-0.2c1,0,2,0.3,2.7,0.9c0.7,0.6,1.3,1.4,1.6,2.4
	c0.1,0.5,0.2,1,0.2,1.5V52c0,1.5-0.5,2.9-1.4,4.1c-0.9,1.2-2.1,2.1-3.5,2.5l-50.6,14c-0.5,0.1-0.9,0.2-1.4,0.2c-0.2,0-0.5,0-0.7-0.1
	c-0.5,0-0.9,0-1.4-0.1c-1.3-0.2-2.7-0.5-3.9-0.9l-15.6-5.6l-6.2,2.1c-0.8,0.3-1.3,0.6-1.7,0.9c-0.2,0.2-0.2,0.3-0.2,0.5
	c0,0.1,0.1,0.3,0.2,0.4c0.2,0.3,0.7,0.6,1.3,0.9l30.3,12.3c0.7,0.3,1.2,0.7,1.5,1.2c0.3,0.4,0.4,0.8,0.3,1.2c0,0.4-0.2,0.9-0.6,1.2
	c-0.4,0.4-1.1,0.8-2,1l-12.6,3c-1.7,0.4-2.9,0.6-4.2,0.4c-1.3-0.1-2.7-0.6-4.8-1.5l-17.7-7.5c-1.9,0.6-4.3,0.9-6.9,0.6
	c-3.1-0.3-6.5-2.1-9.1-4.2c-2.7-2.3-4.6-5.3-4.4-7.8c0.1-2.6,1.7-5.4,4.5-7.4C49,62.1,52.1,61,56,61c2.2,0,4.2,0.8,5.9,2
	c2.2,1.5,4.1,3.8,5.4,6.1c1.3,2.4,2.1,4.8,2.1,6.6c0,1-0.2,1.9-0.7,2.5c-0.9,1.3-2.2,2.5-3.8,3.4l16.2,6.9c1.9,0.9,3.2,1.3,4.3,1.4
	c1.1,0.1,2.2-0.1,3.7-0.4l12.5-3c0.6-0.1,1-0.3,1.2-0.6c0.1-0.1,0.1-0.2,0.1-0.2c0-0.1,0-0.2-0.1-0.2c-0.1-0.2-0.4-0.4-0.8-0.6
	L71.7,72.6c-0.9-0.4-1.5-0.9-1.9-1.4c-0.4-0.5-0.5-1-0.5-1.5c0-0.5,0.3-1,0.7-1.5c0.5-0.5,1.3-1,2.3-1.3l4.3-1.5l-10.2-3.6
	c-0.9-0.3-1.6-0.8-2-1.3c-0.4-0.5-0.6-1.1-0.5-1.7c0-0.6,0.3-1.1,0.6-1.5c0.4-0.5,1.1-0.9,1.8-1.2l29.9-8.5v-7.7
	c0-1.5,0.5-2.9,1.4-4.1C98.6,34.5,99.8,33.5,101.2,33.1 M152.7,22.3l-50.6,14c-0.7,0.2-1.3,0.7-1.8,1.3c-0.5,0.6-0.8,1.4-0.8,2.2
	v28.3c0,0.2,0,0.4,0.1,0.6c0.1,0.3,0.2,0.5,0.4,0.7c0.2,0.1,0.4,0.2,0.7,0.2c0.2,0,0.3,0,0.5-0.1l50.6-14c0.7-0.2,1.3-0.7,1.8-1.3
	c0.5-0.6,0.8-1.4,0.8-2.2V23.7c0-0.2,0-0.4-0.1-0.6c-0.1-0.3-0.2-0.5-0.4-0.7c-0.2-0.1-0.4-0.2-0.7-0.2
	C153.1,22.3,152.9,22.3,152.7,22.3z M56.9,70.3c-0.8-0.4-1.2-1.4-0.8-2.2c0.4-0.8,1.4-1.2,2.2-0.8c0.9,0.4,1.9,1.3,2.7,2.3
	c0.7,0.9,1.3,2.1,1.6,3.2c0.2,0.9-0.3,1.8-1.2,2c-0.9,0.2-1.8-0.3-2-1.2c-0.2-0.6-0.5-1.3-1-1.9C57.9,71,57.3,70.5,56.9,70.3z
	 M86.7,61.5c-0.9,0.2-1.8-0.3-2-1.1c-0.2-0.9,0.3-1.8,1.1-2l2.1-0.6c0.9-0.2,1.8,0.3,2,1.1c0.2,0.9-0.3,1.8-1.1,2L86.7,61.5z
	 M93.5,59.5c-0.9,0.2-1.8-0.3-2-1.1c-0.2-0.9,0.3-1.8,1.1-2l2.1-0.6c0.6-0.2,1.1,0,1.5,0.3v-5.1l-27.9,8l27.5,9.8
	c0.2,0.1,0.4,0.1,0.5,0.2c0-0.3-0.1-0.5-0.1-0.8v-9.5c-0.2,0.2-0.4,0.3-0.6,0.3L93.5,59.5z M56,64.3c-3.1,0-5.6,0.8-7.3,2.1
	c-1.9,1.4-3,3.2-3.1,4.9c-0.1,1.5,1.3,3.4,3.3,5.1c2.1,1.8,4.8,3.2,7.3,3.5c2.4,0.3,4.4,0,6-0.6c1.7-0.6,3-1.6,3.8-2.9
	c0.1-0.1,0.1-0.3,0.1-0.7c0-1.3-0.6-3.1-1.6-5c-1.1-1.9-2.6-3.8-4.4-5C58.8,64.8,57.5,64.3,56,64.3z"/>
<path fill-rule="evenodd" clip-rule="evenodd" fill="#FFFFFF" d="M157.3,64.5c-0.3,0.2-0.6,0.3-0.9,0.3c-0.8,0-1.5-0.6-1.5-1.4
	c0-0.8,0.6-1.4,1.5-1.4c0.4,0,0.8,0.2,1.1,0.4l0.2-0.3c-0.3-0.3-0.8-0.5-1.3-0.5c-1,0-1.9,0.8-1.9,1.8c0,1,0.8,1.8,1.9,1.8
	c0.5,0,1-0.2,1.3-0.5v-1.3h-0.4V64.5z"/>
<polygon fill-rule="evenodd" clip-rule="evenodd" fill="#FFFFFF" points="150.3,61.6 150.3,65.2 150.7,65.2 150.7,62.3 152.9,65.2 
	153.3,65.2 153.3,61.6 152.9,61.6 152.9,64.5 150.8,61.6 "/>
<rect x="148.4" y="61.6" fill-rule="evenodd" clip-rule="evenodd" fill="#FFFFFF" width="0.4" height="3.6"/>
<polygon fill-rule="evenodd" clip-rule="evenodd" fill="#FFFFFF" points="144.6,61.6 144.6,62 145.7,62 145.7,65.2 146.1,65.2 
	146.1,62 147.3,62 147.3,61.6 "/>
<polygon fill-rule="evenodd" clip-rule="evenodd" fill="#FFFFFF" points="141.3,61.6 141.3,62 142.4,62 142.4,65.2 142.8,65.2 
	142.8,62 144,62 144,61.6 "/>
<polygon fill-rule="evenodd" clip-rule="evenodd" fill="#FFFFFF" points="138,61.6 138,65.2 140.4,65.2 140.4,64.8 138.4,64.8 
	138.4,63.6 140.2,63.6 140.2,63.2 138.4,63.2 138.4,62 140.4,62 140.4,61.6 "/>
<path fill-rule="evenodd" clip-rule="evenodd" fill="#FFFFFF" d="M136.4,62.3l0.2-0.4c-0.3-0.2-0.7-0.3-1.1-0.3
	c-0.7,0-1.2,0.4-1.2,0.9c0,1.3,2,0.8,2,1.7c0,0.3-0.3,0.6-0.8,0.6c-0.4,0-0.9-0.2-1.2-0.5l-0.2,0.4c0.3,0.3,0.8,0.5,1.4,0.5
	c0.8,0,1.3-0.4,1.3-1c0-1.3-2-0.8-2-1.7c0-0.3,0.3-0.5,0.8-0.5C135.7,62,136.1,62.1,136.4,62.3"/>
<path fill-rule="evenodd" clip-rule="evenodd" fill="#FFFFFF" d="M129.6,62.4c0-0.3,0.2-0.5,0.5-0.5c0.3,0,0.5,0.2,0.5,0.4
	c0,0.4-0.3,0.6-0.7,0.8C129.7,62.8,129.6,62.6,129.6,62.4 M129.9,64.9c-0.4,0-0.7-0.3-0.7-0.7c0-0.4,0.3-0.6,0.6-0.8
	c0.2,0.3,0.6,0.6,1,1C130.5,64.7,130.2,64.9,129.9,64.9z M131.8,65l-0.6-0.6c0.1-0.2,0.3-0.4,0.4-0.7l-0.3-0.2
	c-0.1,0.3-0.2,0.5-0.4,0.7c-0.4-0.4-0.7-0.7-0.9-0.9c0.4-0.2,0.9-0.5,0.9-1c0-0.4-0.3-0.7-0.8-0.7c-0.5,0-0.9,0.3-0.9,0.8
	c0,0.3,0.1,0.5,0.4,0.8c-0.4,0.2-0.8,0.5-0.8,1c0,0.6,0.5,1,1.1,1c0.4,0,0.8-0.2,1.1-0.5l0.6,0.6L131.8,65z"/>
<path fill-rule="evenodd" clip-rule="evenodd" fill="#FFFFFF" d="M126,62.3l0.2-0.4c-0.3-0.2-0.7-0.3-1.1-0.3
	c-0.7,0-1.2,0.4-1.2,0.9c0,1.3,2,0.8,2,1.7c0,0.3-0.3,0.6-0.8,0.6c-0.4,0-0.9-0.2-1.2-0.5l-0.2,0.4c0.3,0.3,0.8,0.5,1.4,0.5
	c0.8,0,1.3-0.4,1.3-1c0-1.3-2-0.8-2-1.7c0-0.3,0.3-0.5,0.8-0.5C125.3,62,125.7,62.1,126,62.3"/>
<rect x="122" y="61.6" fill-rule="evenodd" clip-rule="evenodd" fill="#FFFFFF" width="0.4" height="3.6"/>
<polygon fill-rule="evenodd" clip-rule="evenodd" fill="#FFFFFF" points="118.7,61.6 118.7,65.2 119.1,65.2 119.1,63.7 120.7,63.7 
	120.7,63.3 119.1,63.3 119.1,62 120.9,62 120.9,61.6 "/>
<path fill-rule="evenodd" clip-rule="evenodd" fill="#FFFFFF" d="M115,63.9l0.8-1.8l0.8,1.8H115z M117.2,65.2h0.4l-1.6-3.6h-0.4
	l-1.6,3.6h0.4l0.4-0.9h1.9L117.2,65.2z"/>
<path fill-rule="evenodd" clip-rule="evenodd" fill="#FFFFFF" d="M110.8,63.7V62h0.9c0.6,0,1,0.3,1,0.8c0,0.6-0.4,0.8-1,0.8H110.8z
	 M113.2,65.2l-0.8-1.2c0.5-0.2,0.8-0.6,0.8-1.1c0-0.8-0.5-1.2-1.4-1.2h-1.4v3.6h0.4v-1.1h0.9c0.1,0,0.2,0,0.2,0l0.7,1.1H113.2z"/>
<path fill-rule="evenodd" clip-rule="evenodd" fill="#FFFFFF" d="M108.6,64.5c-0.3,0.2-0.6,0.3-0.9,0.3c-0.8,0-1.5-0.6-1.5-1.4
	c0-0.8,0.6-1.4,1.5-1.4c0.4,0,0.8,0.2,1.1,0.4l0.2-0.3c-0.3-0.3-0.8-0.5-1.3-0.5c-1,0-1.9,0.8-1.9,1.8c0,1,0.8,1.8,1.9,1.8
	c0.5,0,1-0.2,1.3-0.5v-1.3h-0.4V64.5z"/>
<polygon fill-rule="evenodd" clip-rule="evenodd" fill="#FFFFFF" points="100,61.6 100,65.2 100.4,65.2 100.4,62.3 102.6,65.2 
	103,65.2 103,61.6 102.6,61.6 102.6,64.5 100.5,61.6 "/>
<rect x="98.1" y="61.6" fill-rule="evenodd" clip-rule="evenodd" fill="#FFFFFF" width="0.4" height="3.6"/>
<path fill-rule="evenodd" clip-rule="evenodd" fill="#FFFFFF" d="M94.4,63.9l0.8-1.8l0.8,1.8H94.4z M96.6,65.2H97l-1.6-3.6H95
	l-1.6,3.6h0.4l0.4-0.9h1.9L96.6,65.2z"/>
<path fill-rule="evenodd" clip-rule="evenodd" fill="#FFFFFF" d="M92.4,62.3l0.2-0.4c-0.3-0.2-0.7-0.3-1.1-0.3
	c-0.7,0-1.2,0.4-1.2,0.9c0,1.3,2,0.8,2,1.7c0,0.3-0.3,0.6-0.8,0.6c-0.4,0-0.9-0.2-1.2-0.5L90,64.7c0.3,0.3,0.8,0.5,1.4,0.5
	c0.8,0,1.3-0.4,1.3-1c0-1.3-2-0.8-2-1.7c0-0.3,0.3-0.5,0.8-0.5C91.7,62,92.1,62.1,92.4,62.3"/>
<polygon fill-rule="evenodd" clip-rule="evenodd" fill="#FFFFFF" points="86.6,61.6 86.6,65.2 89.1,65.2 89.1,64.8 87,64.8 87,63.6 
	88.8,63.6 88.8,63.2 87,63.2 87,62 89,62 89,61.6 "/>
<path fill-rule="evenodd" clip-rule="evenodd" fill="#FFFFFF" d="M83.6,64.8h-1V62h1c0.8,0,1.4,0.6,1.4,1.4
	C85,64.2,84.4,64.8,83.6,64.8 M83.6,61.6h-1.4v3.6h1.4c1,0,1.8-0.8,1.8-1.8C85.4,62.4,84.6,61.6,83.6,61.6z"/>
<path fill-rule="evenodd" clip-rule="evenodd" fill="#FFFFFF" d="M71.5,47.1c2.7,0,4.8,2,4.8,4.5c0,2.5-2.2,4.5-4.8,4.5
	c-2.7,0-4.8-2-4.8-4.5C66.7,49.1,68.8,47.1,71.5,47.1 M71.5,45.3c3.7,0,6.7,2.8,6.7,6.4c0,3.5-3,6.4-6.7,6.4c-3.7,0-6.7-2.8-6.7-6.4
	C64.9,48.1,67.8,45.3,71.5,45.3z"/>
<polygon fill-rule="evenodd" clip-rule="evenodd" fill="#FFFFFF" points="49.7,45.3 51.5,45.3 58.6,54.9 58.6,45.3 60.4,45.3 
	60.4,57.4 60.4,58 58.6,58 51.5,48.4 51.5,58 49.7,58 49.7,45.9 "/>
<rect x="42.3" y="45.3" fill-rule="evenodd" clip-rule="evenodd" fill="#FFFFFF" width="1.8" height="12.7"/>
<polygon fill-rule="evenodd" clip-rule="evenodd" fill="#FFFFFF" points="97.8,58 97.8,56.1 97.8,56.1 97.8,47.1 97.8,47.1 
	97.8,45.3 97.8,45.3 99.7,45.3 106.9,45.3 106.9,47.1 99.7,47.1 99.7,56.1 106.9,56.1 106.9,58 99.7,58 97.8,58 "/>
<polygon fill-rule="evenodd" clip-rule="evenodd" fill="#FFFFFF" points="130.4,45.3 130.3,45.4 135.8,58 133.8,58 129.3,47.7 
	124.9,58 122.9,58 128.3,45.4 128.3,45.3 "/>
<rect x="139.7" y="45.3" fill-rule="evenodd" clip-rule="evenodd" fill="#FFFFFF" width="1.8" height="12.7"/>
<polygon fill-rule="evenodd" clip-rule="evenodd" fill="#FFFFFF" points="146.8,45.3 148.7,45.3 148.7,45.3 155.7,54.9 155.7,45.3 
	157.6,45.3 157.6,57.4 157.6,58 155.7,58 148.7,48.4 148.7,58 146.8,58 146.8,45.9 "/>
<rect x="101.5" y="50.7" fill-rule="evenodd" clip-rule="evenodd" fill="#FFFFFF" width="1.8" height="1.8"/>
<path fill-rule="evenodd" clip-rule="evenodd" fill="#FFFFFF" d="M84,47.1h3.6c2.5,0,4.5,2,4.5,4.5c0,2.5-2,4.5-4.5,4.5H84
	c0-1.8,0-3.7,0-5.5h-1.8c0,2.4,0,4.9,0,7.3h5.4c3.5,0,6.4-2.8,6.4-6.4c0-3.5-2.8-6.4-6.4-6.4h-5.4v3.6H84V47.1z"/>
<path fill="#FFFFFF" d="M119.7,48.2c0,0-2-1.2-3.9-1.1c-0.6,0-1.2,0.2-1.6,0.5c-0.3,0.2-0.5,0.5-0.5,0.9c0,0.4,0.1,0.7,0.4,1
	c1.3,1.4,3.9,1.2,5.5,2.9c0.6,0.7,0.9,1.5,0.8,2.4c-0.1,0.9-0.6,1.7-1.5,2.3c-0.7,0.5-1.7,0.8-2.8,0.8c-1.3,0-2.3-0.3-3.1-0.7
	c-0.9-0.4-1.5-0.9-2.2-1.4l1.1-1.4c0.6,0.4,1.1,0.9,1.8,1.2c0.7,0.3,1.5,0.5,2.4,0.6c0.7,0,1.3-0.2,1.7-0.4c0.4-0.3,0.6-0.6,0.7-0.9
	c0-0.4-0.1-0.7-0.4-1c-1.2-1.3-3.9-1.2-5.5-2.9c-0.7-0.7-0.9-1.5-0.9-2.4c0.1-0.9,0.6-1.7,1.3-2.2c0.7-0.5,1.7-0.8,2.6-0.9
	c2.5-0.1,4.9,1.3,4.9,1.3L119.7,48.2z"/>
</svg>
