<?xml version="1.0" encoding="utf-8"?>
<!-- Generator: Adobe Illustrator 18.1.1, SVG Export Plug-In . SVG Version: 6.00 Build 0)  -->
<svg version="1.1" id="Layer_1" xmlns="http://www.w3.org/2000/svg" xmlns:xlink="http://www.w3.org/1999/xlink" x="0px" y="0px"
	 viewBox="0 0 202 138.1" enable-background="new 0 0 202 138.1" xml:space="preserve">
<rect y="0.3" fill-rule="evenodd" clip-rule="evenodd" fill="#FFCD2E" width="202" height="137.5"/>
<path fill="#FFFFFF" d="M155.8,102.9c-0.8,0-1.3-0.6-1.3-1.3c0-0.8,0.5-1.3,1.3-1.3c0.7,0,1.3,0.6,1.3,1.3
	C157.1,102.3,156.6,102.9,155.8,102.9 M157.1,99.7v0.8c-0.3-0.5-0.8-0.8-1.4-0.8c-1,0-1.7,0.7-1.7,1.8c0,1.1,0.7,1.8,1.7,1.8
	c0.6,0,1.1-0.3,1.4-0.8v0.6c0,0.8-0.5,1.3-1.4,1.3c-0.5,0-0.9-0.2-1.3-0.5l-0.3,0.4c0.5,0.3,0.9,0.5,1.5,0.5c1.1,0,1.9-0.7,1.9-1.8
	v-3.4H157.1z M151.7,99.7c-0.7,0-1.2,0.3-1.5,0.8v-0.8h-0.6v3.8h0.6v-2c0.1-0.7,0.5-1.2,1.3-1.2c0.7,0,1.1,0.4,1.1,1.1v2.2h0.6v-2.3
	C153.1,100.3,152.6,99.7,151.7,99.7z M147.8,99.7v3.8h0.5v-3.8H147.8z M148.1,98.3c-0.2,0-0.4,0.2-0.4,0.4c0,0.2,0.2,0.4,0.4,0.4
	c0.2,0,0.4-0.2,0.4-0.4C148.4,98.4,148.3,98.3,148.1,98.3z M146.8,102.8c-0.2,0.1-0.4,0.2-0.6,0.2c-0.3,0-0.5-0.2-0.5-0.6v-2.1h1.2
	v-0.4h-1.2v-1h-0.5v1h-0.5v0.4h0.5v2.2c0,0.7,0.4,1.1,1,1.1c0.3,0,0.6-0.1,0.8-0.3L146.8,102.8z M144,102.8
	c-0.2,0.1-0.4,0.2-0.6,0.2c-0.3,0-0.5-0.2-0.5-0.6v-2.1h1.2v-0.4h-1.2v-1h-0.5v1h-0.5v0.4h0.5v2.2c0,0.7,0.4,1.1,1,1.1
	c0.3,0,0.6-0.1,0.8-0.3L144,102.8z M138.2,101.4c0.1-0.7,0.6-1.2,1.3-1.2c0.7,0,1.2,0.5,1.3,1.2H138.2z M139.5,99.7
	c-1.1,0-1.9,0.8-1.9,1.9c0,1.1,0.8,1.9,1.9,1.9c0.6,0,1.2-0.2,1.5-0.6l-0.3-0.3c-0.3,0.3-0.7,0.5-1.2,0.5c-0.7,0-1.3-0.5-1.4-1.2
	h3.1C141.3,100.6,140.8,99.7,139.5,99.7z M136.8,100.5l0.2-0.4c-0.3-0.2-0.7-0.3-1.2-0.3c-0.7,0-1.3,0.3-1.3,1
	c0,1.3,2.1,0.9,2.1,1.8c0,0.4-0.4,0.5-0.8,0.5c-0.4,0-0.9-0.2-1.2-0.5l-0.2,0.4c0.4,0.3,0.9,0.5,1.4,0.5c0.7,0,1.4-0.3,1.4-1.1
	c0-1.3-2.1-0.9-2.1-1.8c0-0.4,0.3-0.5,0.7-0.5C136.1,100.2,136.5,100.3,136.8,100.5z M129.3,103.1c-0.6,0-1-0.4-1-1
	c0-0.5,0.4-0.8,0.9-1.1c0.3,0.4,0.8,0.8,1.3,1.4C130.1,102.9,129.7,103.1,129.3,103.1z M128.9,99.6c0-0.4,0.3-0.7,0.8-0.7
	c0.4,0,0.7,0.3,0.7,0.6c0,0.5-0.5,0.8-1,1.1C129,100.2,128.9,99.8,128.9,99.6z M132,103.3l-0.9-0.8c0.2-0.3,0.4-0.6,0.6-1l-0.4-0.3
	c-0.1,0.4-0.3,0.7-0.5,1c-0.5-0.5-0.9-0.9-1.2-1.3c0.6-0.3,1.2-0.7,1.2-1.4c0-0.6-0.5-1-1.2-1c-0.7,0-1.2,0.4-1.2,1.1
	c0,0.4,0.2,0.7,0.5,1.2c-0.6,0.3-1.1,0.7-1.1,1.4c0,0.8,0.7,1.4,1.5,1.4c0.6,0,1.1-0.3,1.5-0.8l0.8,0.8L132,103.3z M124.7,100.5
	l0.2-0.4c-0.3-0.2-0.7-0.3-1.2-0.3c-0.7,0-1.3,0.3-1.3,1c0,1.3,2.1,0.9,2.1,1.8c0,0.4-0.4,0.5-0.8,0.5c-0.4,0-0.9-0.2-1.2-0.5
	l-0.2,0.4c0.4,0.3,0.9,0.5,1.4,0.5c0.7,0,1.4-0.3,1.4-1.1c0-1.3-2.1-0.9-2.1-1.8c0-0.4,0.3-0.5,0.7-0.5
	C124,100.2,124.4,100.3,124.7,100.5z M120.8,103.5h0.5v-3.8h-0.5V103.5z M121.1,99c0.2,0,0.4-0.2,0.4-0.4c0-0.2-0.2-0.4-0.4-0.4
	c-0.2,0-0.4,0.2-0.4,0.4C120.7,98.9,120.9,99,121.1,99z M118.6,99.4v0.4h-0.5v0.4h0.5v3.2h0.5v-3.2h1.1v-0.4h-1.1v-0.5
	c0-0.4,0.3-0.7,0.7-0.7c0.2,0,0.4,0.1,0.7,0.2l0-0.5c-0.2-0.1-0.4-0.2-0.7-0.2C119.2,98.2,118.6,98.6,118.6,99.4z M115.4,103.1
	c-0.5,0-0.9-0.3-0.9-0.7c0-0.4,0.3-0.6,1-0.6h1.2v0.5C116.5,102.7,116.1,103.1,115.4,103.1z M117.2,103.5l0-2.5
	c0-0.8-0.5-1.3-1.4-1.3c-0.6,0-1,0.2-1.5,0.5l0.2,0.4c0.4-0.3,0.8-0.4,1.2-0.4c0.7,0,1,0.3,1,0.9v0.2h-1.2c-0.9,0-1.4,0.4-1.4,1.1
	c0,0.6,0.5,1.1,1.3,1.1c0.6,0,1.1-0.2,1.4-0.6v0.6H117.2z M112.4,100.6v-0.8h-0.6v3.8h0.6v-2c0.1-0.8,0.6-1.2,1.3-1.2v-0.5
	C113.2,99.7,112.7,100,112.4,100.6z M108.8,102.9c-0.8,0-1.3-0.6-1.3-1.3c0-0.8,0.5-1.3,1.3-1.3c0.7,0,1.3,0.6,1.3,1.3
	C110.1,102.3,109.5,102.9,108.8,102.9z M110.1,99.7v0.8c-0.3-0.5-0.8-0.8-1.4-0.8c-1,0-1.7,0.7-1.7,1.8c0,1.1,0.7,1.8,1.7,1.8
	c0.6,0,1.1-0.3,1.4-0.8v0.6c0,0.8-0.5,1.3-1.4,1.3c-0.5,0-0.9-0.2-1.3-0.5l-0.3,0.4c0.5,0.3,0.9,0.5,1.5,0.5c1.1,0,1.9-0.7,1.9-1.8
	v-3.4H110.1z M102.6,99.7c-0.7,0-1.2,0.3-1.5,0.8v-0.8h-0.6v3.8h0.6v-2c0.1-0.7,0.5-1.2,1.3-1.2c0.7,0,1.1,0.4,1.1,1.1v2.2h0.6v-2.3
	C104,100.3,103.5,99.7,102.6,99.7z M98.6,99.7v3.8h0.5v-3.8H98.6z M98.9,98.3c-0.2,0-0.4,0.2-0.4,0.4c0,0.2,0.2,0.4,0.4,0.4
	c0.2,0,0.4-0.2,0.4-0.4C99.3,98.4,99.1,98.3,98.9,98.3z M95.6,103.1c-0.5,0-0.9-0.3-0.9-0.7c0-0.4,0.3-0.6,1-0.6h1.2v0.5
	C96.7,102.7,96.2,103.1,95.6,103.1z M97.4,103.5l0-2.5c0-0.8-0.5-1.3-1.4-1.3c-0.6,0-1,0.2-1.5,0.5l0.2,0.4c0.4-0.3,0.8-0.4,1.2-0.4
	c0.7,0,1,0.3,1,0.9v0.2h-1.2c-0.9,0-1.4,0.4-1.4,1.1c0,0.6,0.5,1.1,1.3,1.1c0.6,0,1.1-0.2,1.4-0.6v0.6H97.4z M93.3,100.5l0.2-0.4
	c-0.3-0.2-0.7-0.3-1.2-0.3c-0.7,0-1.3,0.3-1.3,1c0,1.3,2.1,0.9,2.1,1.8c0,0.4-0.4,0.5-0.8,0.5c-0.4,0-0.9-0.2-1.2-0.5l-0.2,0.4
	c0.4,0.3,0.9,0.5,1.4,0.5c0.7,0,1.4-0.3,1.4-1.1c0-1.3-2.1-0.9-2.1-1.8c0-0.4,0.3-0.5,0.7-0.5C92.6,100.2,93,100.3,93.3,100.5z
	 M87.3,101.4c0.1-0.7,0.6-1.2,1.3-1.2c0.7,0,1.2,0.5,1.3,1.2H87.3z M88.6,99.7c-1.1,0-1.9,0.8-1.9,1.9c0,1.1,0.8,1.9,1.9,1.9
	c0.6,0,1.2-0.2,1.5-0.6l-0.3-0.3c-0.3,0.3-0.7,0.5-1.2,0.5c-0.7,0-1.3-0.5-1.4-1.2h3.1C90.4,100.6,89.8,99.7,88.6,99.7z M83.8,103
	c-0.8,0-1.4-0.6-1.4-1.4c0-0.8,0.6-1.4,1.4-1.4c0.8,0,1.4,0.6,1.4,1.4C85.2,102.5,84.6,103,83.8,103z M85.2,98.2v2.4
	c-0.3-0.5-0.8-0.8-1.5-0.8c-1.1,0-1.8,0.8-1.8,1.9c0,1.1,0.7,1.9,1.8,1.9c0.7,0,1.2-0.3,1.5-0.8v0.8h0.6v-5.3H85.2z"/>
<path fill="#FFFFFF" d="M144.9,80.8v14h3v-9l6.8,9h2.9v-14h-3v9l-6.8-9H144.9z M138.7,80.8v14h3.2v-14H138.7z M127.2,89.6l2.2-5.5
	l2.2,5.5H127.2z M133.8,94.8h3.4l-6-14h-3.3l-6.1,14h3.3l1.1-2.7h6.5L133.8,94.8z M120,84.8l1.2-2.6c-1.4-0.9-3.4-1.5-5.3-1.5
	c-3.3,0-5.4,1.6-5.4,4.2c0,5,7.5,3.4,7.5,6.1c0,0.9-0.8,1.3-2.1,1.3c-1.5,0-3.5-0.8-5-2.1l-1.3,2.6c1.6,1.3,3.9,2.2,6.2,2.2
	c3.1,0,5.5-1.5,5.5-4.2c0-5.1-7.5-3.6-7.5-6.2c0-0.8,0.7-1.1,1.8-1.1C116.7,83.3,118.5,83.9,120,84.8z M97.3,80.8v14h10.9v-2.6h-7.7
	v-3.1h6.8v-2.6h-6.8v-3.1h7.5v-2.6H97.3z M87.9,92.2h-2.9v-8.7h2.7c2.4,0,4.2,1.8,4.2,4.4C92,90.4,90.3,92.2,87.9,92.2z M87.8,80.8
	h-6v14h5.8c4.4,0,7.5-2.9,7.5-7C95.2,83.7,92.2,80.8,87.8,80.8z M72.2,82.2c3.1,0,5.7,2.5,5.7,5.6c0,3.1-2.6,5.6-5.7,5.6
	s-5.7-2.5-5.7-5.6C66.5,84.7,69.1,82.2,72.2,82.2z M72.2,80.7c-4.1,0-7.4,3.1-7.4,7.1c0,4,3.3,7.1,7.4,7.1c4.1,0,7.3-3.1,7.3-7.1
	C79.5,83.9,76.3,80.7,72.2,80.7z M50.2,80.8v14h1.6V83.4l8.4,11.4h1.6v-14h-1.6v11.4l-8.4-11.4H50.2z M44.3,80.8v14h1.6v-14H44.3z"
	/>
<path fill-rule="evenodd" clip-rule="evenodd" fill="#FFFFFF" d="M90,38.1h9.8c6.7,0,12.2,5.5,12.2,12.2c0,6.7-5.5,12.2-12.2,12.2
	H90c0-5,0-9.9,0-14.9h-4.9c0,6.6,0,13.2,0,19.7h14.7c9.4,0,17.1-7.7,17.1-17.1c0-9.4-7.7-17.1-17.1-17.1H85.1v9.6H90V38.1z"/>
</svg>
