<?xml version="1.0" encoding="utf-8"?>
<!-- Generator: Adobe Illustrator 16.0.3, SVG Export Plug-In . SVG Version: 6.00 Build 0)  -->
<!DOCTYPE svg PUBLIC "-//W3C//DTD SVG 1.1//EN" "http://www.w3.org/Graphics/SVG/1.1/DTD/svg11.dtd">
<svg version="1.1" id="Layer_1" xmlns="http://www.w3.org/2000/svg" xmlns:xlink="http://www.w3.org/1999/xlink" x="0px" y="0px"
	 width="439.719px" height="161.792px" viewBox="0 0 439.719 161.792" enable-background="new 0 0 439.719 161.792"
	 xml:space="preserve">
<g>
	<path fill-rule="evenodd" clip-rule="evenodd" fill="#424242" d="M219.859,63.488c21.629,0,39.163,17.534,39.163,39.163
		s-17.534,39.163-39.163,39.163s-39.163-17.534-39.163-39.163S198.23,63.488,219.859,63.488 M0,0h439.719
		C410.59,93.73,323.173,161.792,219.859,161.792S29.129,93.73,0,0z"/>
	<path fill-rule="evenodd" clip-rule="evenodd" fill="#FFCD2E" d="M223.776,92.526h-7.834h-7.834v7.835v15.67h7.834l7.834-7.835
		h-7.834v-7.835h7.834v7.835v7.835h7.836v-31.34L223.776,92.526z M219.859,73.241c16.243,0,29.41,13.168,29.41,29.41
		c0,16.243-13.167,29.41-29.41,29.41c-16.243,0-29.41-13.167-29.41-29.41C190.449,86.409,203.617,73.241,219.859,73.241z"/>
</g>
</svg>
