<?xml version="1.0" encoding="utf-8"?>
<!-- Generator: Adobe Illustrator 18.1.1, SVG Export Plug-In . SVG Version: 6.00 Build 0)  -->
<svg version="1.1" id="Layer_1" xmlns="http://www.w3.org/2000/svg" xmlns:xlink="http://www.w3.org/1999/xlink" x="0px" y="0px"
	 viewBox="0 0 198.9 128.4" enable-background="new 0 0 198.9 128.4" xml:space="preserve">
<rect x="0" fill-rule="evenodd" clip-rule="evenodd" fill="#808080" width="198.9" height="128.4"/>
<g>
	<path fill="#FFCD2E" d="M59.3,74.7c0,4.2-3.1,7.1-7.7,7.1h-6V67.6h6.1C56.2,67.6,59.3,70.5,59.3,74.7z M55.5,74.7
		c0-2.5-1.6-4.1-3.8-4.1h-2.3v8.2h2.5C54,78.8,55.5,77.2,55.5,74.7z"/>
	<path fill="#FFCD2E" d="M71.5,77.3h-7.6c0.3,1.2,1.3,1.9,2.5,1.9c0.9,0,1.8-0.4,2.6-1.1l1.9,1.9c-1.1,1.3-2.8,1.9-4.8,1.9
		c-3.6,0-5.8-2.2-5.8-5.5c0-3.4,2.3-5.6,5.7-5.6C69.8,70.7,71.7,73.3,71.5,77.3z M68,75.4c0-1.3-0.8-2.1-2-2.1
		c-1.2,0-1.9,0.9-2.2,2.1H68z"/>
	<path fill="#FFCD2E" d="M77.2,73.2c-0.6,0-1,0.2-1,0.7c0,1.4,5.8,0.7,5.7,4.6c0,2.2-2,3.5-4.6,3.5c-1.8,0-3.6-0.5-4.9-1.6l1.1-2.3
		c1.3,0.9,2.7,1.4,3.9,1.4c0.7,0,1.2-0.2,1.2-0.7c0-1.5-5.6-0.7-5.6-4.5c0-2.3,1.9-3.5,4.5-3.5c1.6,0,3.2,0.4,4.6,1.3l-1.2,2.3
		C79.3,73.6,78,73.2,77.2,73.2z"/>
	<path fill="#FFCD2E" d="M93.5,74.7v7.1H90v-1.2c-0.7,0.9-1.8,1.4-3.3,1.4c-2.3,0-3.7-1.4-3.7-3.4c0-2.1,1.5-3.3,4.2-3.3H90v-0.1
		c0-1-0.7-1.6-2.1-1.6c-0.9,0-2.1,0.3-3.3,0.9l-1-2.4c1.7-0.8,3.3-1.2,5.1-1.2C91.8,70.7,93.5,72.2,93.5,74.7z M90,78.1v-1h-2.1
		c-1,0-1.5,0.4-1.5,1.1c0,0.7,0.5,1.2,1.5,1.2C88.9,79.5,89.8,78.9,90,78.1z"/>
	<path fill="#FFCD2E" d="M99.5,70.9v11H96v-11H99.5z M99.4,67.8c0,1-0.7,1.6-1.6,1.6s-1.6-0.7-1.6-1.6c0-1,0.7-1.7,1.6-1.7
		S99.4,66.8,99.4,67.8z"/>
	<path fill="#FFCD2E" d="M113.5,74.9v6.9h-3.6v-5.9c0-1.2-0.7-2-1.9-2c-1.2,0-2,0.9-2.1,2.1v5.8h-3.6v-11h3.6v1.8
		c0.8-1.3,2-1.9,3.6-1.9C111.9,70.7,113.5,72.3,113.5,74.9z"/>
	<path fill="#FFCD2E" d="M131.4,74.6h3.2v5.6c-1.5,1.1-3.9,1.8-5.9,1.8c-4.3,0-7.6-3.1-7.6-7.2s3.3-7.2,7.8-7.2
		c2.1,0,4.4,0.8,5.8,2.1l-2.1,2.6c-1-1-2.5-1.6-3.7-1.6c-2.3,0-4,1.8-4,4.1c0,2.3,1.7,4.1,4,4.1c0.7,0,1.6-0.2,2.5-0.7V74.6z"/>
	<path fill="#FFCD2E" d="M144.2,70.7V74c-2-0.2-3.3,0.7-3.5,2.2v5.6h-3.6v-11h3.6v1.8C141.4,71.4,142.6,70.7,144.2,70.7z"/>
</g>
<g>
	<path fill="#FFCD2E" d="M155.2,74.7v7.1h-3.5v-1.2c-0.7,0.9-1.8,1.4-3.3,1.4c-2.3,0-3.7-1.4-3.7-3.4c0-2.1,1.5-3.3,4.2-3.3h2.9
		v-0.1c0-1-0.7-1.6-2.1-1.6c-0.9,0-2.1,0.3-3.3,0.9l-1-2.4c1.7-0.8,3.3-1.2,5.1-1.2C153.4,70.7,155.2,72.2,155.2,74.7z M151.7,78.1
		v-1h-2.1c-1,0-1.5,0.4-1.5,1.1c0,0.7,0.5,1.2,1.5,1.2C150.5,79.5,151.4,78.9,151.7,78.1z"/>
	<path fill="#FFCD2E" d="M162.5,66.6c0.8,0,1.6,0.1,2.1,0.4l-0.1,2.9c-0.5-0.2-1-0.4-1.4-0.4c-0.7,0-1.2,0.4-1.2,1.2v0.7h2.4v2.4
		h-2.4v8h-3.6v-8h-1.5v-2.4h1.5v-1C158.3,67.9,160.1,66.6,162.5,66.6z M169.1,70.9v11h-3.6v-11H169.1z M165.7,67.8
		c0-1,0.7-1.7,1.6-1.7c1,0,1.6,0.7,1.6,1.7c0,1-0.7,1.6-1.6,1.6C166.4,69.4,165.7,68.7,165.7,67.8z"/>
	<path fill="#FFCD2E" d="M175.7,73.2c-0.6,0-1,0.2-1,0.7c0,1.4,5.8,0.7,5.7,4.6c0,2.2-2,3.5-4.6,3.5c-1.8,0-3.6-0.5-4.9-1.6l1.1-2.3
		c1.3,0.9,2.7,1.4,3.9,1.4c0.7,0,1.2-0.2,1.2-0.7c0-1.5-5.6-0.7-5.6-4.5c0-2.3,1.9-3.5,4.5-3.5c1.6,0,3.2,0.4,4.6,1.3l-1.2,2.3
		C177.8,73.6,176.6,73.2,175.7,73.2z"/>
</g>
<g>
	<path fill="#FFFFFF" d="M96.9,102.8c-0.7-0.7-1.4-1.3-2-1.9c-1.2,0.9-2.6,1.5-4,1.5c-2.8,0-4.9-1.7-4.9-4.1c0-1.9,1.3-3,2.8-3.8
		c-0.9-1.2-1.2-2.1-1.2-3.1c0-2.1,1.6-3.4,4.1-3.4c2.4,0,4.1,1.3,4.1,3.2c0,2-1.6,3-3.3,3.9c0.6,0.6,1.3,1.4,2.1,2.2
		c0.4-0.7,0.7-1.4,0.9-2.2l2.3,1.7c-0.3,0.9-0.8,1.7-1.3,2.5c0.6,0.6,1.3,1.3,2.1,2L96.9,102.8z M93,99c-1.2-1.1-2.1-2.1-2.8-2.9
		c-0.7,0.5-1.3,1-1.3,1.8c0,1.1,0.9,1.9,2.1,1.9C91.7,99.7,92.4,99.5,93,99z M91.1,93.2C92.2,92.6,93,92,93,91
		c0-0.7-0.5-1.2-1.2-1.2c-0.8,0-1.3,0.6-1.3,1.4C90.4,91.8,90.6,92.4,91.1,93.2z"/>
	<path fill="#FFFFFF" d="M111.5,90.8c-0.9,0-1.5,0.3-1.5,1c0,2.3,7.5,1,7.5,6.1c0,2.9-2.6,4.4-5.7,4.4c-2.4,0-4.8-0.9-6.5-2.3
		l1.4-2.9c1.5,1.3,3.7,2.1,5.1,2.1c1.1,0,1.8-0.4,1.8-1.2c0-2.4-7.5-1-7.5-6c0-2.7,2.2-4.3,5.7-4.3c2.1,0,4.2,0.6,5.7,1.6l-1.4,2.9
		C114.5,91.5,112.6,90.8,111.5,90.8z"/>
	<path fill="#FFFFFF" d="M129.7,97.6h-7.6c0.3,1.2,1.3,1.9,2.5,1.9c0.9,0,1.8-0.4,2.6-1.1l1.9,1.9c-1.1,1.3-2.8,1.9-4.8,1.9
		c-3.6,0-5.8-2.2-5.8-5.5c0-3.4,2.3-5.6,5.7-5.6C128,91.1,129.9,93.6,129.7,97.6z M126.2,95.7c0-1.3-0.8-2.1-2-2.1
		c-1.2,0-1.9,0.9-2.2,2.1H126.2z"/>
	<path fill="#FFFFFF" d="M138.7,101.6c-0.8,0.5-1.9,0.7-3,0.7c-2.1,0-3.7-1.2-3.7-3.5v-4.7h-1.5v-2.4h1.5v-3h3.6v3h2.8v2.4h-2.8v4.1
		c0,0.8,0.4,1.2,1,1.2c0.4,0,0.8-0.1,1.4-0.4L138.7,101.6z"/>
	<path fill="#FFFFFF" d="M147.5,101.6c-0.8,0.5-1.9,0.7-3,0.7c-2.1,0-3.7-1.2-3.7-3.5v-4.7h-1.5v-2.4h1.5v-3h3.6v3h2.8v2.4h-2.8v4.1
		c0,0.8,0.4,1.2,1,1.2c0.4,0,0.8-0.1,1.4-0.4L147.5,101.6z"/>
	<path fill="#FFFFFF" d="M152.8,91.2v11h-3.6v-11H152.8z M152.7,88.1c0,1-0.7,1.6-1.6,1.6c-1,0-1.6-0.7-1.6-1.6c0-1,0.7-1.7,1.6-1.7
		C152,86.4,152.7,87.1,152.7,88.1z"/>
	<path fill="#FFFFFF" d="M166.8,95.2v6.9h-3.6v-5.9c0-1.2-0.7-2-1.9-2c-1.2,0-2,0.9-2.1,2.1v5.8h-3.6v-11h3.6V93
		c0.8-1.3,2-1.9,3.6-1.9C165.2,91,166.8,92.7,166.8,95.2z"/>
	<path fill="#FFFFFF" d="M179.7,91.2v10c0,3.1-2.4,5-6,5c-1.9,0-3.7-0.6-4.9-1.4l1.3-2.5c1,0.7,2.2,1.1,3.4,1.1
		c1.6,0,2.6-0.8,2.6-2.1v-1.2c-0.7,0.9-1.8,1.4-3.1,1.4c-2.7,0-4.7-2.1-4.7-5.3c0-3.1,1.9-5.2,4.6-5.2c1.4,0,2.5,0.5,3.2,1.5v-1.3
		H179.7z M176.1,96.3c0-1.5-0.9-2.6-2.2-2.6c-1.3,0-2.2,1.1-2.2,2.6c0,1.5,0.9,2.6,2.2,2.6C175.2,98.9,176.1,97.8,176.1,96.3z"/>
</g>
</svg>
