<?xml version="1.0" encoding="utf-8"?>
<!-- Generator: Adobe Illustrator 18.1.1, SVG Export Plug-In . SVG Version: 6.00 Build 0)  -->
<svg version="1.1" id="Layer_1" xmlns="http://www.w3.org/2000/svg" xmlns:xlink="http://www.w3.org/1999/xlink" x="0px" y="0px"
	 viewBox="0 0 200 100" enable-background="new 0 0 200 100" xml:space="preserve">
<g>
	<rect x="0" y="0" fill-rule="evenodd" clip-rule="evenodd" fill="#FFCD2E" width="200" height="100"/>
	<path fill="#F8C32F" d="M101.2,27.9l50.6-14c0.5-0.1,0.9-0.2,1.4-0.2c1,0,2,0.3,2.7,0.9c0.7,0.6,1.3,1.4,1.6,2.4
		c0.1,0.5,0.2,1,0.2,1.5v28.3c0,1.5-0.5,2.9-1.4,4.1c-0.9,1.2-2.1,2.1-3.5,2.5l-50.6,14c-0.5,0.1-0.9,0.2-1.4,0.2
		c-0.2,0-0.5,0-0.7-0.1c-0.5,0-0.9,0-1.4-0.1c-1.3-0.2-2.7-0.5-3.9-0.9l-15.6-5.6l-6.2,2.1c-0.8,0.3-1.3,0.6-1.7,0.9
		c-0.2,0.2-0.2,0.3-0.2,0.5c0,0.1,0.1,0.3,0.2,0.4c0.2,0.3,0.7,0.6,1.3,0.9l30.3,12.3c0.7,0.3,1.2,0.7,1.5,1.2
		c0.3,0.4,0.4,0.8,0.3,1.2c0,0.4-0.2,0.9-0.6,1.2c-0.4,0.4-1.1,0.8-2,1l-12.6,3c-1.7,0.4-2.9,0.6-4.2,0.4c-1.3-0.1-2.7-0.6-4.8-1.5
		l-17.7-7.5c-1.9,0.6-4.3,0.9-6.9,0.6c-3.1-0.3-6.5-2.1-9.1-4.2c-2.7-2.3-4.6-5.3-4.4-7.8c0.1-2.6,1.7-5.4,4.5-7.4
		c2.3-1.6,5.4-2.7,9.2-2.7c2.2,0,4.2,0.8,5.9,2c2.2,1.5,4.1,3.8,5.4,6.1c1.3,2.4,2.1,4.8,2.1,6.6c0,1-0.2,1.9-0.7,2.5
		c-0.9,1.3-2.2,2.5-3.8,3.4l16.2,6.9c1.9,0.9,3.2,1.3,4.3,1.4c1.1,0.1,2.2-0.1,3.7-0.4l12.5-3c0.6-0.1,1-0.3,1.2-0.6
		c0.1-0.1,0.1-0.2,0.1-0.2c0-0.1,0-0.2-0.1-0.2c-0.1-0.2-0.4-0.4-0.8-0.6L71.7,67.3c-0.9-0.4-1.5-0.9-1.9-1.4
		c-0.4-0.5-0.5-1-0.5-1.5c0-0.5,0.3-1,0.7-1.5c0.5-0.5,1.3-1,2.3-1.3l4.3-1.5l-10.2-3.6c-0.9-0.3-1.6-0.8-2-1.3
		c-0.4-0.5-0.6-1.1-0.5-1.7c0-0.6,0.3-1.1,0.6-1.5c0.4-0.5,1.1-0.9,1.8-1.2l29.9-8.5v-7.7c0-1.5,0.5-2.9,1.4-4.1
		C98.6,29.2,99.8,28.3,101.2,27.9 M152.7,17.1l-50.6,14c-0.7,0.2-1.3,0.7-1.8,1.3c-0.5,0.6-0.8,1.4-0.8,2.2v28.3
		c0,0.2,0,0.4,0.1,0.6c0.1,0.3,0.2,0.5,0.4,0.7c0.2,0.1,0.4,0.2,0.7,0.2c0.2,0,0.3,0,0.5-0.1l50.6-14c0.7-0.2,1.3-0.7,1.8-1.3
		c0.5-0.6,0.8-1.4,0.8-2.2V18.5c0-0.2,0-0.4-0.1-0.6c-0.1-0.3-0.2-0.5-0.4-0.7c-0.2-0.1-0.4-0.2-0.7-0.2
		C153.1,17,152.9,17,152.7,17.1z M56.9,65c-0.8-0.4-1.2-1.4-0.8-2.2c0.4-0.8,1.4-1.2,2.2-0.8c0.9,0.4,1.9,1.3,2.7,2.3
		c0.7,0.9,1.3,2.1,1.6,3.2c0.2,0.9-0.3,1.8-1.2,2c-0.9,0.2-1.8-0.3-2-1.2c-0.2-0.6-0.5-1.3-1-1.9C57.9,65.7,57.3,65.3,56.9,65z
		 M86.7,56.3c-0.9,0.2-1.8-0.3-2-1.1c-0.2-0.9,0.3-1.8,1.1-2l2.1-0.6c0.9-0.2,1.8,0.3,2,1.1c0.2,0.9-0.3,1.8-1.1,2L86.7,56.3z
		 M93.5,54.2c-0.9,0.2-1.8-0.3-2-1.1c-0.2-0.9,0.3-1.8,1.1-2l2.1-0.6c0.6-0.2,1.1,0,1.5,0.3v-5.1l-27.9,8l27.5,9.8
		c0.2,0.1,0.4,0.1,0.5,0.2c0-0.3-0.1-0.5-0.1-0.8v-9.5c-0.2,0.2-0.4,0.3-0.6,0.3L93.5,54.2z M56,59c-3.1,0-5.6,0.8-7.3,2.1
		c-1.9,1.4-3,3.2-3.1,4.9c-0.1,1.5,1.3,3.4,3.3,5.1c2.1,1.8,4.8,3.2,7.3,3.5c2.4,0.3,4.4,0,6-0.6c1.7-0.6,3-1.6,3.8-2.9
		c0.1-0.1,0.1-0.3,0.1-0.7c0-1.3-0.6-3.1-1.6-5c-1.1-1.9-2.6-3.8-4.4-5C58.8,59.6,57.5,59,56,59z"/>
	<path fill-rule="evenodd" clip-rule="evenodd" fill="#FFFFFF" d="M145.1,55.7v3.2h0.4v-2.6l1.9,2.6h0.4v-3.2h-0.4v2.6l-1.9-2.6
		H145.1z M143.3,55.7v3.2h0.4v-3.2H143.3z M139.9,55.7v0.3h1v2.8h0.4v-2.8h1v-0.3H139.9z M137,55.7v0.3h1v2.8h0.4v-2.8h1v-0.3H137z
		 M134,55.7v3.2h2.2v-0.3h-1.9v-1.1h1.6v-0.3h-1.6v-1.1h1.8v-0.3H134z M132.6,56.3l0.2-0.3c-0.3-0.2-0.6-0.3-1-0.3
		c-0.7,0-1.1,0.3-1.1,0.8c0,1.1,1.8,0.7,1.8,1.5c0,0.3-0.3,0.5-0.7,0.5c-0.4,0-0.8-0.2-1.1-0.4l-0.2,0.3c0.3,0.3,0.8,0.5,1.2,0.5
		c0.7,0,1.2-0.3,1.2-0.9c0-1.2-1.8-0.7-1.8-1.6c0-0.3,0.3-0.4,0.7-0.4C132,56.1,132.3,56.1,132.6,56.3z M126.5,56.4
		c0-0.3,0.2-0.4,0.5-0.4c0.3,0,0.4,0.2,0.4,0.4c0,0.3-0.3,0.5-0.7,0.7C126.6,56.8,126.5,56.6,126.5,56.4z M126.8,58.6
		c-0.4,0-0.7-0.3-0.7-0.6c0-0.3,0.3-0.5,0.6-0.7c0.2,0.3,0.5,0.5,0.9,0.9C127.3,58.5,127.1,58.6,126.8,58.6z M128.5,58.8l-0.6-0.5
		c0.1-0.2,0.3-0.4,0.4-0.6l-0.2-0.2c-0.1,0.2-0.2,0.4-0.3,0.6c-0.3-0.3-0.6-0.6-0.8-0.8c0.4-0.2,0.8-0.4,0.8-0.9
		c0-0.4-0.3-0.6-0.7-0.6c-0.5,0-0.8,0.3-0.8,0.7c0,0.2,0.1,0.5,0.3,0.8c-0.4,0.2-0.7,0.4-0.7,0.9c0,0.5,0.4,0.9,0.9,0.9
		c0.4,0,0.7-0.2,1-0.5l0.5,0.5L128.5,58.8z M123.3,56.3l0.2-0.3c-0.3-0.2-0.6-0.3-1-0.3c-0.7,0-1.1,0.3-1.1,0.8
		c0,1.1,1.8,0.7,1.8,1.5c0,0.3-0.3,0.5-0.7,0.5c-0.4,0-0.8-0.2-1.1-0.4l-0.2,0.3c0.3,0.3,0.8,0.5,1.2,0.5c0.7,0,1.2-0.3,1.2-0.9
		c0-1.2-1.8-0.7-1.8-1.6c0-0.3,0.3-0.4,0.7-0.4C122.7,56.1,123,56.1,123.3,56.3z M119.7,55.7v3.2h0.4v-3.2H119.7z M116.7,55.7v3.2
		h0.4v-1.4h1.5v-0.3h-1.5v-1.1h1.7v-0.3H116.7z M113.5,57.7l0.7-1.6l0.7,1.6H113.5z M115.4,58.9h0.4l-1.4-3.2H114l-1.4,3.2h0.4
		l0.4-0.8h1.7L115.4,58.9z M109.7,57.6v-1.5h0.8c0.6,0,0.9,0.3,0.9,0.7c0,0.5-0.3,0.8-0.9,0.8H109.7z M111.8,58.9l-0.8-1.1
		c0.5-0.1,0.7-0.5,0.7-1c0-0.7-0.5-1.1-1.3-1.1h-1.2v3.2h0.4v-1h0.8c0.1,0,0.1,0,0.2,0l0.7,1H111.8z M107.7,58.3
		c-0.2,0.2-0.6,0.3-0.8,0.3c-0.7,0-1.3-0.6-1.3-1.3c0-0.7,0.6-1.3,1.3-1.3c0.4,0,0.7,0.1,1,0.4l0.2-0.3c-0.3-0.3-0.7-0.4-1.2-0.4
		c-0.9,0-1.7,0.7-1.7,1.6c0,0.9,0.7,1.6,1.7,1.6c0.4,0,0.9-0.2,1.2-0.4v-1.2h-0.3V58.3z M100,55.7v3.2h0.4v-2.6l1.9,2.6h0.4v-3.2
		h-0.4v2.6l-1.9-2.6H100z M98.3,55.7v3.2h0.4v-3.2H98.3z M95,57.7l0.7-1.6l0.7,1.6H95z M97,58.9h0.4l-1.4-3.2h-0.4l-1.4,3.2h0.4
		l0.4-0.8h1.7L97,58.9z M93.2,56.3l0.2-0.3c-0.3-0.2-0.6-0.3-1-0.3c-0.7,0-1.1,0.3-1.1,0.8c0,1.1,1.8,0.7,1.8,1.5
		c0,0.3-0.3,0.5-0.7,0.5c-0.4,0-0.8-0.2-1.1-0.4l-0.2,0.3c0.3,0.3,0.8,0.5,1.2,0.5c0.7,0,1.2-0.3,1.2-0.9c0-1.2-1.8-0.7-1.8-1.6
		c0-0.3,0.3-0.4,0.7-0.4C92.6,56.1,92.9,56.1,93.2,56.3z M88,55.7v3.2h2.2v-0.3h-1.9v-1.1H90v-0.3h-1.6v-1.1h1.8v-0.3H88z
		 M85.3,58.6h-0.9v-2.5h0.9c0.7,0,1.3,0.5,1.3,1.3C86.5,58,86,58.6,85.3,58.6z M85.3,55.7H84v3.2h1.3c0.9,0,1.7-0.7,1.7-1.6
		C86.9,56.4,86.2,55.7,85.3,55.7z M74.5,42.7c2.4,0,4.3,1.8,4.3,4.1c0,2.2-1.9,4.1-4.3,4.1c-2.4,0-4.3-1.8-4.3-4.1
		C70.1,44.5,72.1,42.7,74.5,42.7z M74.5,41c3.3,0,6,2.5,6,5.7c0,3.1-2.7,5.7-6,5.7s-6-2.5-6-5.7C68.5,43.6,71.2,41,74.5,41z
		 M54.9,41h1.6l6.4,8.6V41h1.6v10.8v0.5h-1.6l-6.4-8.6v8.6h-1.6V41.6V41z M48.3,41h1.6v11.4h-1.6V41z M98,52.4v-1.6h0v-8.1h0V41h0
		h1.6h6.5v1.6h-6.5v8.1h6.5v1.6h-6.5H98L98,52.4z M127.2,41l0,0.1l4.9,11.3h-1.8l-4-9.2l-4,9.2h-1.8l4.9-11.3l0-0.1H127.2z
		 M135.6,41h1.6v11.4h-1.6V41z M142,41h1.6l6.4,8.6V41h1.6v10.8v0.5H150l-6.4-8.6v8.6H142V41.6V41z M103,45.9h-1.6v1.6h1.6V45.9z
		 M85.6,42.7h3.3c2.2,0,4.1,1.8,4.1,4.1c0,2.2-1.8,4.1-4.1,4.1h-3.3c0-1.6,0-3.3,0-4.9H84c0,2.2,0,4.4,0,6.6h4.9
		c3.1,0,5.7-2.5,5.7-5.7c0-3.1-2.5-5.7-5.7-5.7H84v3.2h1.6V42.7z M117.6,43.7c0,0-1.8-1-3.5-1c-0.6,0-1.1,0.2-1.5,0.5
		c-0.3,0.2-0.5,0.5-0.5,0.8c0,0.3,0.1,0.6,0.4,0.9c1.2,1.2,3.5,1.1,4.9,2.6c0.5,0.6,0.8,1.3,0.7,2.1c-0.1,0.8-0.5,1.5-1.3,2.1
		c-0.6,0.4-1.5,0.7-2.5,0.7c-1.1,0-2-0.3-2.8-0.6c-0.8-0.4-1.4-0.8-2-1.2l1-1.3c0.5,0.4,1,0.8,1.6,1c0.6,0.3,1.3,0.5,2.2,0.5
		c0.6,0,1.1-0.1,1.5-0.4c0.3-0.2,0.6-0.5,0.6-0.8c0-0.3-0.1-0.6-0.3-0.9c-1.1-1.2-3.5-1.1-4.9-2.6c-0.6-0.6-0.8-1.4-0.8-2.1
		c0.1-0.8,0.5-1.5,1.2-2c0.6-0.5,1.5-0.7,2.4-0.8c2.2-0.1,4.4,1.2,4.4,1.2L117.6,43.7z M151.4,58.3c-0.2,0.2-0.6,0.3-0.8,0.3
		c-0.7,0-1.3-0.6-1.3-1.3c0-0.7,0.6-1.3,1.3-1.3c0.4,0,0.7,0.1,1,0.4l0.2-0.3c-0.3-0.3-0.7-0.4-1.2-0.4c-0.9,0-1.7,0.7-1.7,1.6
		c0,0.9,0.7,1.6,1.7,1.6c0.4,0,0.9-0.2,1.2-0.4v-1.2h-0.3V58.3z"/>
</g>
</svg>
