<?xml version="1.0" encoding="utf-8"?>
<!-- Generator: Adobe Illustrator 18.1.1, SVG Export Plug-In . SVG Version: 6.00 Build 0)  -->
<svg version="1.1" id="Layer_1" xmlns="http://www.w3.org/2000/svg" xmlns:xlink="http://www.w3.org/1999/xlink" x="0px" y="0px"
	 viewBox="-404 206 150 150" enable-background="new -404 206 150 150" xml:space="preserve">
<path fill="#808080" d="M-293.4,253.3c9.4,2,16.4,10.4,16.4,20.3c0,7.1-3.6,13.6-9.4,17.4c0.2,1.2,0.4,2.4,0.6,3.5
	c0.5,2.5,1.3,4.9,2.6,7.2l1.3,2.2h25.1v22.7h-81.9V309h-62.3v-73.6h107.7V253.3z"/>
<path fill="#FFFFFF" d="M-396.7,239.9h46.3h52.5v12.9c-5.2,0-9.9,1.9-13.5,5h-40.5v4.4h36.6c-2.1,3.3-3.4,7.2-3.4,11.4
	c0,7.1,3.6,13.6,9.4,17.4c-0.2,1.2-0.4,2.4-0.6,3.5c-0.7,3.8-2.2,7.1-4.5,10h-16.9h-19.1h-46.3V239.9z"/>
<path fill="#FFCD2E" d="M-297.8,257.2c9,0,16.4,7.3,16.4,16.4c0,6.7-4.1,12.5-9.9,15c0.3,1.9,0.6,4.1,1.1,6.8
	c0.6,3.3,1.7,6.1,3.1,8.6h-21.4c1.4-2.4,2.5-5.2,3.1-8.6c0.5-2.6,0.8-4.9,1.1-6.8c-5.8-2.5-9.9-8.3-9.9-15
	C-314.2,264.6-306.9,257.2-297.8,257.2z"/>
<rect x="-334.4" y="308.4" fill="#FFFFFF" width="73" height="13.8"/>
<rect x="-386" y="257.8" fill="#808080" width="24.7" height="26"/>
<rect x="-381.6" y="262.2" fill="#FFCD2E" width="15.8" height="17.1"/>
<rect x="-351.9" y="269.7" fill="#808080" width="27.7" height="4.4"/>
</svg>
