<?xml version="1.0" encoding="utf-8"?>
<!-- Generator: Adobe Illustrator 16.0.3, SVG Export Plug-In . SVG Version: 6.00 Build 0)  -->
<!DOCTYPE svg PUBLIC "-//W3C//DTD SVG 1.1//EN" "http://www.w3.org/Graphics/SVG/1.1/DTD/svg11.dtd">
<svg version="1.1" id="Layer_1" xmlns="http://www.w3.org/2000/svg" xmlns:xlink="http://www.w3.org/1999/xlink" x="0px" y="0px"
	 width="150px" height="150px" viewBox="0 0 150 150" enable-background="new 0 0 150 150" xml:space="preserve">
<path fill="#666666" d="M110.602,47.277c9.354,2.037,16.356,10.366,16.356,20.327c0,7.115-3.622,13.632-9.437,17.425
	c0.191,1.182,0.399,2.359,0.617,3.535c0.467,2.521,1.326,4.926,2.598,7.156l1.252,2.199h25.132v22.666H65.189V103.04H2.88V29.412
	h107.722V47.277z"/>
<path fill="#FFFFFF" d="M7.327,33.859h46.299h52.528v12.942c-5.161,0-9.885,1.881-13.521,4.995h-40.54v4.447h36.634
	c-2.135,3.266-3.375,7.169-3.375,11.361c0,7.115,3.621,13.632,9.437,17.425c-0.19,1.182-0.399,2.359-0.617,3.533
	c-0.69,3.75-2.229,7.125-4.521,10.029H72.719H53.626H7.327V33.859z"/>
<path fill="#FFCD2E" d="M106.154,51.248c9.033,0,16.354,7.323,16.354,16.356c0,6.723-4.056,12.496-9.853,15.011
	c0.265,1.9,0.623,4.133,1.107,6.756c0.609,3.309,1.734,6.145,3.104,8.551H95.438c1.369-2.406,2.494-5.242,3.104-8.551
	c0.483-2.623,0.845-4.855,1.108-6.756c-5.797-2.516-9.854-8.289-9.854-15.011C89.798,58.571,97.121,51.248,106.154,51.248z"/>
<rect x="69.636" y="102.367" fill="#FFFFFF" width="73.037" height="13.773"/>
<rect x="17.972" y="51.795" fill="#666666" width="24.708" height="26.014"/>
<rect x="22.418" y="56.243" fill="#FFCD2E" width="15.814" height="17.119"/>
<rect x="52.093" y="63.661" fill="#666666" width="27.72" height="4.447"/>
</svg>
