<?xml version="1.0" encoding="utf-8"?>
<!-- Generator: Adobe Illustrator 16.0.3, SVG Export Plug-In . SVG Version: 6.00 Build 0)  -->
<!DOCTYPE svg PUBLIC "-//W3C//DTD SVG 1.1//EN" "http://www.w3.org/Graphics/SVG/1.1/DTD/svg11.dtd">
<svg version="1.1" id="Layer_1" xmlns="http://www.w3.org/2000/svg" xmlns:xlink="http://www.w3.org/1999/xlink" x="0px" y="0px"
	 width="230.13px" height="230.13px" viewBox="0 0 230.13 230.13" enable-background="new 0 0 230.13 230.13" xml:space="preserve">
<path fill-rule="evenodd" clip-rule="evenodd" fill="#FFCD2E" d="M109.737,155.28v-9.068c0-20.298-16.607-36.905-36.906-36.905l0,0
	c-20.298,0-36.905,16.607-36.905,36.905v9.068H109.737z"/>
<path fill="none" stroke="#333333" stroke-width="7.9999" stroke-miterlimit="22.9256" d="M107.307,133.08
	c-5.322-13.864-18.797-23.773-34.476-23.773l0,0c-20.298,0-36.905,16.607-36.905,36.905v9.068 M109.737,155.28v-9.068
	c0-1.089-0.051-2.166-0.145-3.231"/>
<path fill-rule="evenodd" clip-rule="evenodd" fill="#FFFFFF" d="M45.539,80.619c3.587-15.073,18.714-24.384,33.787-20.797
	s24.385,18.714,20.797,33.787c-3.587,15.073-18.714,24.384-33.787,20.797C51.263,110.819,41.952,95.692,45.539,80.619"/>
<circle fill="none" stroke="#333333" stroke-width="7.9999" stroke-miterlimit="22.9256" cx="72.831" cy="87.114" r="28.054"/>
<path fill-rule="evenodd" clip-rule="evenodd" fill="#FFFFFF" d="M111.104,109.876h74.7c4.62,0,8.399,3.78,8.399,8.4v44.4
	c0,4.62-3.78,8.399-8.399,8.399h-74.7c-4.62,0-8.4-3.779-8.4-8.399v-44.4C102.704,113.656,106.484,109.876,111.104,109.876z"/>
<line fill="none" stroke="#333333" stroke-width="7.1407" stroke-miterlimit="22.9256" x1="113.116" y1="138.625" x2="150.403" y2="138.625"/>
<line fill="none" stroke="#333333" stroke-width="7.9999" stroke-miterlimit="22.9256" x1="113.115" y1="125.625" x2="159.915" y2="125.625"/>
<line fill="none" stroke="#333333" stroke-width="4.8902" stroke-miterlimit="22.9256" x1="113.114" y1="155.776" x2="130.602" y2="155.776"/>
<path fill="#333333" d="M190.204,155.776v6.9c0,2.426-1.974,4.399-4.399,4.399h-74.7c-2.426,0-4.4-1.974-4.4-4.399v-44.4
	c0-2.426,1.974-4.4,4.4-4.4h74.7c2.426,0,4.399,1.974,4.399,4.4v26.604h8v-26.604c0-6.837-5.563-12.4-12.399-12.4h-74.7
	c-6.837,0-12.4,5.563-12.4,12.4v44.4c0,6.837,5.563,12.399,12.4,12.399h74.7c6.837,0,12.399-5.563,12.399-12.399v-6.9H190.204z"/>
</svg>
