<?xml version="1.0" encoding="utf-8"?>
<!-- Generator: Adobe Illustrator 16.0.3, SVG Export Plug-In . SVG Version: 6.00 Build 0)  -->
<!DOCTYPE svg PUBLIC "-//W3C//DTD SVG 1.1//EN" "http://www.w3.org/Graphics/SVG/1.1/DTD/svg11.dtd">
<svg version="1.1" id="Layer_1" xmlns="http://www.w3.org/2000/svg" xmlns:xlink="http://www.w3.org/1999/xlink" x="0px" y="0px"
	 width="230.129px" height="230.129px" viewBox="0 0 230.129 230.129" enable-background="new 0 0 230.129 230.129"
	 xml:space="preserve">
<g>
	<path fill="#FFCD2E" d="M105.736,152.281v-9.068c0-20.297-16.607-36.904-36.906-36.904l0,0c-20.298,0-36.905,16.607-36.905,36.904
		v9.068H105.736z"/>
	<path fill="none" stroke="#333333" stroke-width="7.9999" stroke-miterlimit="22.9256" d="M45.59,114.598
		c-8.325,6.781-13.665,17.105-13.665,28.615v9.068 M103.307,130.082c-5.322-13.865-18.797-23.775-34.476-23.775l0,0
		c-6.417,0-12.464,1.66-17.735,4.571 M105.736,152.281v-9.068c0-1.088-0.051-2.166-0.145-3.23"/>
	<path fill="#FFFFFF" d="M41.539,79.62c3.587-15.073,18.714-24.384,33.787-20.797C90.398,62.41,99.71,77.537,96.123,92.609
		c-3.587,15.073-18.714,24.385-33.787,20.798C47.263,109.82,37.952,94.692,41.539,79.62"/>
	<circle fill="none" stroke="#333333" stroke-width="7.9999" stroke-miterlimit="22.9256" cx="68.831" cy="86.115" r="28.054"/>
	<path fill="#FFFFFF" d="M111.104,106.876h74.699c4.621,0,8.4,3.78,8.4,8.399v44.4c0,4.619-3.781,8.398-8.4,8.398h-74.699
		c-4.62,0-8.4-3.779-8.4-8.398v-44.4C102.704,110.657,106.483,106.876,111.104,106.876z"/>
	
		<line fill="none" stroke="#333333" stroke-width="7.9999" stroke-miterlimit="22.9256" x1="114.116" y1="122.625" x2="160.914" y2="122.625"/>
	
		<line fill="none" stroke="#333333" stroke-width="7.9999" stroke-miterlimit="22.9256" x1="114.116" y1="136.879" x2="152" y2="136.879"/>
	
		<line fill="none" stroke="#333333" stroke-width="7.9999" stroke-miterlimit="22.9256" x1="167.164" y1="153.281" x2="182.549" y2="153.281"/>
	<path fill="#333333" d="M190.203,152.775v6.9c0,2.426-1.973,4.398-4.396,4.398h-74.701c-2.426,0-4.4-1.975-4.4-4.398v-44.4
		c0-2.426,1.974-4.399,4.4-4.399h74.701c2.426,0,4.396,1.974,4.396,4.399v26.605h8v-26.605c0-6.836-5.563-12.399-12.396-12.399
		h-74.701c-6.837,0-12.4,5.563-12.4,12.399v44.4c0,6.836,5.563,12.398,12.4,12.398h74.701c6.836,0,12.396-5.563,12.396-12.398v-6.9
		H190.203z"/>
</g>
</svg>
