<?xml version="1.0" encoding="utf-8"?>
<!-- Generator: Adobe Illustrator 16.0.3, SVG Export Plug-In . SVG Version: 6.00 Build 0)  -->
<!DOCTYPE svg PUBLIC "-//W3C//DTD SVG 1.1//EN" "http://www.w3.org/Graphics/SVG/1.1/DTD/svg11.dtd">
<svg version="1.1" id="Layer_1" xmlns="http://www.w3.org/2000/svg" xmlns:xlink="http://www.w3.org/1999/xlink" x="0px" y="0px"
	 width="150px" height="150px" viewBox="0 0 150 150" enable-background="new 0 0 150 150" xml:space="preserve">
<path fill-rule="evenodd" clip-rule="evenodd" fill="#FFFFFF" d="M7.327,33.859h46.299h52.528v12.942
	c-5.161,0-9.884,1.881-13.521,4.995H52.093v4.447h36.634c-2.135,3.266-3.376,7.169-3.376,11.361c0,7.115,3.622,13.632,9.436,17.425
	c-0.192,1.182-0.4,2.359-0.617,3.533c-0.691,3.75-2.229,7.125-4.519,10.031H72.719H53.626H7.327V33.859z M106.154,51.248
	c9.033,0,16.356,7.323,16.356,16.356c0,6.723-4.056,12.496-9.853,15.011c0.265,1.9,0.624,4.133,1.108,6.756
	c0.61,3.309,1.735,6.145,3.104,8.551H95.438c1.369-2.406,2.494-5.242,3.104-8.551c0.484-2.623,0.844-4.855,1.108-6.756
	c-5.797-2.516-9.853-8.289-9.853-15.011C89.798,58.571,97.121,51.248,106.154,51.248z M69.636,102.367h73.037v13.773H69.636V102.367
	z M42.68,51.795H17.972v26.013H42.68V51.795z M38.232,56.243H22.418v17.119h15.814V56.243z M52.093,63.661h27.72v4.447h-27.72
	V63.661z M110.602,47.277c9.352,2.037,16.356,10.366,16.356,20.327c0,7.115-3.622,13.632-9.436,17.425
	c0.192,1.182,0.4,2.359,0.617,3.535c0.466,2.523,1.327,4.926,2.597,7.156l1.252,2.201h25.132v22.666H65.189v-17.547H2.88V29.412
	h107.722V47.277z"/>
</svg>
