<?xml version="1.0" encoding="utf-8"?>
<!-- Generator: Adobe Illustrator 16.0.3, SVG Export Plug-In . SVG Version: 6.00 Build 0)  -->
<!DOCTYPE svg PUBLIC "-//W3C//DTD SVG 1.1//EN" "http://www.w3.org/Graphics/SVG/1.1/DTD/svg11.dtd">
<svg version="1.1" id="Layer_2" xmlns="http://www.w3.org/2000/svg" xmlns:xlink="http://www.w3.org/1999/xlink" x="0px" y="0px"
	 width="230.129px" height="230.129px" viewBox="0 0 230.129 230.129" enable-background="new 0 0 230.129 230.129"
	 xml:space="preserve">
<polyline fill="#FFCD2E" stroke="#000000" stroke-width="8" stroke-miterlimit="10" points="191.02,141.731 191.02,155.781 
	98.98,155.781 98.98,97.131 191.02,97.131 191.02,131.398 "/>
<rect x="39.11" y="52.231" fill="#FFFFFF" width="83" height="113.01"/>
<line fill="none" stroke="#000000" stroke-width="8" stroke-miterlimit="10" x1="53.776" y1="108.736" x2="105.249" y2="108.736"/>
<line fill="none" stroke="#000000" stroke-width="8" stroke-miterlimit="10" x1="53.776" y1="122.206" x2="80.61" y2="122.206"/>
<line fill="none" stroke="#000000" stroke-width="8" stroke-miterlimit="10" x1="53.776" y1="80.231" x2="80.61" y2="80.231"/>
<path fill="none" stroke="#000000" stroke-width="8" stroke-miterlimit="10" d="M108.19,151.398"/>
<path fill="none" stroke="#000000" stroke-width="8" stroke-miterlimit="10" d="M81.357,151.398"/>
<path fill="none" stroke="#000000" stroke-width="8" stroke-miterlimit="10" d="M191.02,155.781h-14.45
	c-5.57-7.77-8.96-18.05-8.96-29.319c0-11.271,3.39-21.561,8.96-29.33"/>
<circle fill="#FFFFFF" stroke="#000000" stroke-width="8" stroke-miterlimit="10" cx="168.756" cy="126.459" r="8.646"/>
<rect x="39.11" y="52.231" fill="#FFCD2E" width="84.494" height="18.834"/>
<rect x="39.11" y="155.781" fill="#FFCD2E" width="84.494" height="9.116"/>
<polyline fill="none" stroke="#000000" stroke-width="8" stroke-miterlimit="10" points="80.61,165.241 39.11,165.241 39.11,52.231 
	122.11,52.231 122.11,75.399 "/>
<polyline fill="none" stroke="#000000" stroke-width="8" stroke-miterlimit="10" points="122.11,83.731 122.11,165.241 
	88.235,165.241 "/>
<polyline fill="#FFFFFF" points="129.86,177.898 99.43,177.898 99.43,147.388 147.777,147.388 147.777,177.898 138.11,177.898 "/>
<rect x="99.43" y="168.564" fill="#FFCD2E" width="48.347" height="9.334"/>
<polyline fill="none" stroke="#000000" stroke-width="8" stroke-miterlimit="10" points="129.86,177.898 99.43,177.898 
	99.43,147.388 147.777,147.388 147.777,177.898 138.11,177.898 "/>
</svg>
