<?xml version="1.0" encoding="utf-8"?>
<!-- Generator: Adobe Illustrator 16.0.3, SVG Export Plug-In . SVG Version: 6.00 Build 0)  -->
<!DOCTYPE svg PUBLIC "-//W3C//DTD SVG 1.1//EN" "http://www.w3.org/Graphics/SVG/1.1/DTD/svg11.dtd">
<svg version="1.1" id="Layer_1" xmlns="http://www.w3.org/2000/svg" xmlns:xlink="http://www.w3.org/1999/xlink" x="0px" y="0px"
	 width="15.58px" height="15.58px" viewBox="0 0 15.58 15.58" enable-background="new 0 0 15.58 15.58" xml:space="preserve">
<path fill="#808286" d="M10.446,1.352h-5.42c-1.041,0-1.987,0.425-2.67,1.109L2.354,2.463c-0.685,0.684-1.109,1.629-1.109,2.67v5.42
	c0,1.04,0.425,1.985,1.111,2.671c0.684,0.688,1.629,1.111,2.67,1.111h5.42c1.039,0,1.984-0.426,2.671-1.111
	c0.686-0.686,1.11-1.631,1.11-2.671v-5.42c0-1.042-0.426-1.987-1.108-2.67C12.431,1.778,11.485,1.352,10.446,1.352 M9.442,6.136
	C9.007,5.7,8.401,5.429,7.736,5.429c-0.669,0-1.273,0.271-1.708,0.705L6.026,6.136C5.591,6.571,5.321,7.175,5.321,7.844
	c0,0.667,0.271,1.271,0.707,1.708v0.002c0.435,0.437,1.039,0.704,1.708,0.704c0.666,0,1.271-0.27,1.707-0.706
	c0.438-0.438,0.707-1.041,0.707-1.708c0-0.669-0.269-1.272-0.703-1.708H9.442z M7.736,4.055c1.046,0,1.994,0.424,2.68,1.11
	c0.685,0.688,1.108,1.635,1.108,2.679c0,1.046-0.424,1.993-1.108,2.681c-0.687,0.685-1.634,1.108-2.68,1.108
	c-1.043,0-1.991-0.425-2.678-1.11C4.372,9.837,3.947,8.89,3.947,7.844c0-1.042,0.424-1.989,1.11-2.676L5.06,5.165
	C5.746,4.479,6.693,4.055,7.736,4.055z M11.604,3.088c0.49,0,0.89,0.397,0.89,0.888s-0.397,0.889-0.89,0.889
	c-0.49,0-0.889-0.398-0.889-0.889S11.112,3.088,11.604,3.088z M5.026,0.107h5.42c1.383,0,2.64,0.566,3.55,1.476
	c0.91,0.913,1.478,2.169,1.478,3.55v5.42c0,1.384-0.565,2.642-1.478,3.552c-0.91,0.909-2.167,1.476-3.55,1.476h-5.42
	c-1.38,0-2.637-0.565-3.549-1.478C0.565,13.194,0,11.937,0,10.554v-5.42c0-1.38,0.565-2.636,1.476-3.548l0.002-0.002
	C2.39,0.673,3.646,0.107,5.026,0.107z"/>
</svg>
