<?xml version="1.0" encoding="utf-8"?>
<!-- Generator: Adobe Illustrator 16.0.3, SVG Export Plug-In . SVG Version: 6.00 Build 0)  -->
<!DOCTYPE svg PUBLIC "-//W3C//DTD SVG 1.1//EN" "http://www.w3.org/Graphics/SVG/1.1/DTD/svg11.dtd">
<svg version="1.1" id="Layer_1" xmlns="http://www.w3.org/2000/svg" xmlns:xlink="http://www.w3.org/1999/xlink" x="0px" y="0px"
	 width="26.922px" height="15.417px" viewBox="0 0 26.922 15.417" enable-background="new 0 0 26.922 15.417" xml:space="preserve">
<linearGradient id="SVGID_1_" gradientUnits="userSpaceOnUse" x1="17.332" y1="6.2441" x2="21.7381" y2="10.1417">
	<stop  offset="0" style="stop-color:#636363"/>
	<stop  offset="1" style="stop-color:#FEFEFE"/>
</linearGradient>
<path fill-rule="evenodd" clip-rule="evenodd" fill="url(#SVGID_1_)" d="M20.949,4.47c-2.747,0-4.974,2.227-4.974,4.974
	c0,2.746,2.227,4.973,4.974,4.973c2.746,0,4.973-2.227,4.973-4.973C25.922,6.697,23.695,4.47,20.949,4.47z M20.949,11.376
	c-1.067,0-1.933-0.865-1.933-1.933s0.865-1.933,1.933-1.933s1.933,0.865,1.933,1.933S22.017,11.376,20.949,11.376z"/>
<path fill="#FFFFFF" d="M12,10.363l2.707-2.617c0.914-0.891,1.746-1.66,2.693-2.243c1.057-0.651,2.18-1.034,3.548-1.034
	s2.61,0.558,3.514,1.46l0.004-0.003c0.899,0.899,1.456,2.144,1.456,3.517s-0.557,2.616-1.456,3.517
	c-0.9,0.9-2.144,1.457-3.517,1.457l-0.096-0.001v-3.042c0.032,0.001,0.063,0.002,0.096,0.002c0.533,0,1.017-0.217,1.366-0.566
	s0.565-0.832,0.565-1.366s-0.216-1.017-0.565-1.366l0.003-0.004L22.315,8.07c-0.346-0.346-0.829-0.56-1.366-0.56
	c-0.755,0-1.374,0.211-1.957,0.571c-0.686,0.422-1.386,1.073-2.172,1.84c-1.139,1.101-2.275,2.203-3.412,3.304
	c-0.589,0.572-1.228,0.925-1.838,1.085c-0.596,0.156-1.177,0.137-1.692-0.037c-0.578-0.194-1.082-0.606-1.393-1.135
	C8.239,12.72,8.1,12.229,8.1,11.684V8.967c0.006-0.537-0.565-0.73-0.911-0.394l-3.615,3.505c-0.6,0.584-1.561,0.57-2.145-0.03
	c-0.583-0.6-0.57-1.561,0.03-2.144l4.375-4.241c0.589-0.572,1.228-0.924,1.838-1.084c0.596-0.157,1.178-0.137,1.693,0.037
	c1.134,0.382,1.777,1.425,1.777,2.59v2.717C11.136,10.434,11.651,10.633,12,10.363"/>
<path fill-rule="evenodd" clip-rule="evenodd" fill="#FFCD2E" d="M11.378,1c0.874,0,1.582,0.708,1.582,1.582
	c0,0.874-0.708,1.582-1.582,1.582c-0.874,0-1.582-0.708-1.582-1.582C9.796,1.708,10.504,1,11.378,1"/>
</svg>
