<?xml version="1.0" encoding="utf-8"?>
<!-- Generator: Adobe Illustrator 16.0.3, SVG Export Plug-In . SVG Version: 6.00 Build 0)  -->
<!DOCTYPE svg PUBLIC "-//W3C//DTD SVG 1.1//EN" "http://www.w3.org/Graphics/SVG/1.1/DTD/svg11.dtd">
<svg version="1.1" id="Layer_1" xmlns="http://www.w3.org/2000/svg" xmlns:xlink="http://www.w3.org/1999/xlink" x="0px" y="0px"
	 width="38.5px" height="38.5px" viewBox="0 0 38.5 38.5" enable-background="new 0 0 38.5 38.5" xml:space="preserve">
<rect x="10.25" y="6.875" fill="none" width="18" height="24.75"/>
<g>
	<path fill-rule="evenodd" clip-rule="evenodd" fill="#999999" d="M15.825,12.481h3.979l-1.188,4.05h-8.194l0.236-0.811
		C11.177,13.939,13.502,12.481,15.825,12.481"/>
	<path fill-rule="evenodd" clip-rule="evenodd" fill="#999999" d="M18.024,18.537l-0.445,1.529l-0.019,0.063h0l-1.132,3.887h2.028
		l1.596-5.478v-0.015l1.743-6.041l0.001,0l0.247-0.838h-0.003c0.535-1.767,2.851-3.211,5.158-3.211h3.979l0.004,0.002l-1.25,4.293
		l-0.871,2.992l-0.002,0.003l-3.235,11.108c-0.52,1.781-2.847,3.24-5.167,3.24h-9.955c-2.321,0-3.799-1.457-3.279-3.24l2.416-8.292
		H18.024z"/>
</g>
</svg>
