<?xml version="1.0" encoding="utf-8"?>
<!-- Generator: Adobe Illustrator 16.0.3, SVG Export Plug-In . SVG Version: 6.00 Build 0)  -->
<!DOCTYPE svg PUBLIC "-//W3C//DTD SVG 1.1//EN" "http://www.w3.org/Graphics/SVG/1.1/DTD/svg11.dtd">
<svg version="1.1" id="Layer_1" xmlns="http://www.w3.org/2000/svg" xmlns:xlink="http://www.w3.org/1999/xlink" x="0px" y="0px"
	 width="82px" height="59.525px" viewBox="0 0 82 59.525" enable-background="new 0 0 82 59.525" xml:space="preserve">
<g>
	<path fill="#999999" d="M36.31,39.427l8.688-8.398c2.937-2.862,5.605-5.33,8.645-7.2c3.395-2.09,7.001-3.318,11.392-3.318
		c4.39,0,8.379,1.792,11.278,4.687l0.01-0.01c2.89,2.89,4.677,6.881,4.677,11.287c0,4.408-1.787,8.4-4.677,11.291
		c-2.887,2.887-6.879,4.676-11.288,4.676l-0.305-0.004c-6.485-0.123-12.028-4.117-14.41-9.766l2.872-2.783
		c2.119-2.063,4.035-3.863,5.898-5.191c-0.168,0.563-0.259,1.158-0.259,1.777c0,3.324,2.614,6.037,5.898,6.197
		c0.101,0.004,0.203,0.006,0.305,0.006c1.712,0,3.266-0.695,4.388-1.816c1.121-1.121,1.816-2.672,1.816-4.387
		c0-1.711-0.695-3.266-1.816-4.387l0.01-0.01l-0.01-0.008c-1.109-1.111-2.661-1.796-4.388-1.796c-2.418,0-4.408,0.675-6.281,1.831
		c-2.201,1.355-4.445,3.445-6.971,5.906c-3.655,3.533-7.304,7.072-10.949,10.607c-1.892,1.832-3.945,2.965-5.903,3.479
		c-1.912,0.502-3.779,0.441-5.433-0.117c-1.855-0.623-3.472-1.945-4.47-3.643c-0.79-1.344-1.236-2.922-1.236-4.672v-8.721
		c0.022-1.724-1.812-2.346-2.923-1.266L9.26,44.931c-1.926,1.875-5.006,1.83-6.881-0.096s-1.831-5.008,0.095-6.881l14.041-13.611
		c1.892-1.836,3.943-2.968,5.9-3.482c1.915-0.502,3.78-0.438,5.433,0.117c3.641,1.227,5.706,4.577,5.706,8.317v8.72
		C33.538,39.652,35.19,40.294,36.31,39.427"/>
	<path fill-rule="evenodd" clip-rule="evenodd" fill="#999999" d="M28.631,7.083c2.805,0,5.078,2.273,5.078,5.078
		s-2.273,5.078-5.078,5.078s-5.078-2.273-5.078-5.078S25.827,7.083,28.631,7.083"/>
</g>
</svg>
