<?xml version="1.0" encoding="utf-8"?>
<!-- Generator: Adobe Illustrator 16.0.3, SVG Export Plug-In . SVG Version: 6.00 Build 0)  -->
<!DOCTYPE svg PUBLIC "-//W3C//DTD SVG 1.1//EN" "http://www.w3.org/Graphics/SVG/1.1/DTD/svg11.dtd">
<svg version="1.1" id="Layer_1" xmlns="http://www.w3.org/2000/svg" xmlns:xlink="http://www.w3.org/1999/xlink" x="0px" y="0px"
	 width="82.001px" height="59.525px" viewBox="0 0 82.001 59.525" enable-background="new 0 0 82.001 59.525" xml:space="preserve">
<linearGradient id="SVGID_1_" gradientUnits="userSpaceOnUse" x1="57.5684" y1="26.0425" x2="65.0684" y2="38.209">
	<stop  offset="0" style="stop-color:#636363"/>
	<stop  offset="0.9066" style="stop-color:#FEFEFE"/>
</linearGradient>
<path fill-rule="evenodd" clip-rule="evenodd" fill="url(#SVGID_1_)" d="M64.731,36.588l2.68,5.313l-2.68,4.452
	c-8.674-0.163-15.66-7.247-15.66-15.962c0-0.425,0.017-0.844,0.049-1.258l8.244-8.245l7.745-0.485l3.548,0.968l-0.766,3.511
	c-0.856-0.443-1.826-0.694-2.855-0.694c-3.426,0-6.204,2.777-6.204,6.204C58.832,33.715,61.446,36.429,64.731,36.588"/>
<path fill="#FFFFFF" d="M76.846,58.525v-4.657h0.556l0.145,0.592c0.478-0.395,1.002-0.592,1.572-0.592
	c1.161,0,1.744,0.577,1.744,1.733v2.924H80.04v-2.938c0-0.692-0.346-1.036-1.034-1.036c-0.47,0-0.917,0.197-1.341,0.59v3.385H76.846
	z M70.364,52.18v0.777h-0.821V52.18H70.364z M70.364,53.868v4.657h-0.821v-4.657H70.364z M61.024,56.349
	c-0.714,0-1.067,0.252-1.067,0.757c0,0.502,0.28,0.753,0.841,0.753c0.568,0,1.049-0.151,1.444-0.451V56.44
	C61.834,56.381,61.43,56.349,61.024,56.349z M59.135,57.118c0-0.956,0.63-1.432,1.89-1.432c0.405,0,0.81,0.029,1.218,0.088v-0.438
	c0-0.537-0.42-0.805-1.257-0.805c-0.479,0-0.97,0.075-1.473,0.224v-0.668c0.503-0.146,0.993-0.219,1.473-0.219
	c1.383,0,2.075,0.479,2.075,1.445v3.212H62.6l-0.282-0.461c-0.466,0.308-0.971,0.461-1.52,0.461
	C59.688,58.525,59.135,58.054,59.135,57.118z M49.593,58.303v-0.71c0.547,0.178,1.1,0.266,1.658,0.266
	c0.744,0,1.115-0.222,1.115-0.665c0-0.412-0.262-0.62-0.776-0.62h-0.668c-1.004,0-1.507-0.461-1.507-1.375
	c0-0.888,0.646-1.331,1.938-1.331c0.557,0,1.107,0.072,1.656,0.219v0.712c-0.549-0.178-1.1-0.268-1.656-0.268
	c-0.772,0-1.16,0.224-1.16,0.668c0,0.412,0.243,0.619,0.729,0.619h0.668c1.063,0,1.595,0.459,1.595,1.376
	c0,0.887-0.644,1.331-1.934,1.331C50.692,58.525,50.14,58.452,49.593,58.303z M40.161,55.748h2.519
	c-0.02-0.817-0.417-1.225-1.197-1.225C40.654,54.523,40.212,54.93,40.161,55.748z M41.482,53.868c1.324,0,1.987,0.653,1.987,1.965
	c0,0.186-0.015,0.386-0.041,0.598h-3.268c0,0.953,0.553,1.429,1.667,1.429c0.53,0,1-0.059,1.41-0.178v0.666
	c-0.41,0.119-0.909,0.178-1.5,0.178c-1.599,0-2.399-0.793-2.399-2.383C39.339,54.625,40.054,53.868,41.482,53.868z M33.167,58.245
	c-0.563,0.186-1.261,0.28-2.09,0.28c-1.388,0-2.08-0.808-2.08-2.424c0-1.49,0.736-2.233,2.209-2.233
	c0.402,0,0.782,0.072,1.141,0.219V52.18h0.819V58.245z M32.348,54.816c-0.332-0.161-0.712-0.239-1.136-0.239
	c-0.939,0-1.407,0.498-1.407,1.495c0,1.18,0.468,1.771,1.407,1.771c0.424,0,0.805-0.059,1.136-0.174V54.816z M18.612,56.196
	c0-1.553,0.739-2.328,2.219-2.328c1.478,0,2.216,0.775,2.216,2.328c0,1.549-0.739,2.324-2.216,2.324
	C19.355,58.52,18.617,57.745,18.612,56.196z M19.434,56.176c0,1.122,0.466,1.683,1.397,1.683c0.931,0,1.397-0.561,1.397-1.683
	c0-1.095-0.466-1.646-1.397-1.646C19.899,54.531,19.434,55.082,19.434,56.176z M8.426,58.525v-4.657h0.556l0.144,0.592
	c0.478-0.395,1.002-0.592,1.573-0.592c1.161,0,1.743,0.577,1.743,1.733v2.924h-0.821v-2.938c0-0.692-0.347-1.036-1.034-1.036
	c-0.471,0-0.917,0.197-1.341,0.59v3.385H8.426z M1.945,52.18v0.777H1.123V52.18H1.945z M1.945,53.868v4.657H1.123v-4.657H1.945z"/>
<path fill="#FFFFFF" d="M36.31,33.345l8.689-8.399c2.936-2.862,5.607-5.329,8.646-7.201c3.394-2.09,7-3.319,11.391-3.319
	c4.392,0,8.38,1.792,11.279,4.687l0.01-0.01c2.889,2.889,4.677,6.88,4.677,11.288c0,4.408-1.788,8.4-4.677,11.29
	c-2.889,2.888-6.88,4.676-11.288,4.676l-0.305-0.003v-9.766c0.101,0.004,0.202,0.007,0.305,0.007c1.713,0,3.265-0.695,4.387-1.817
	c1.121-1.121,1.816-2.673,1.816-4.387c0-1.712-0.695-3.264-1.816-4.386l0.01-0.01l-0.01-0.009c-1.11-1.111-2.661-1.797-4.387-1.797
	c-2.42,0-4.409,0.677-6.282,1.831c-2.2,1.356-4.445,3.445-6.972,5.907c-3.654,3.533-7.304,7.073-10.949,10.606
	c-1.893,1.835-3.943,2.967-5.901,3.481c-1.913,0.502-3.78,0.439-5.434-0.117c-1.856-0.625-3.474-1.947-4.471-3.644
	c-0.789-1.344-1.235-2.921-1.235-4.673v-8.72c0.02-1.724-1.813-2.345-2.924-1.265L9.261,38.849
	c-1.926,1.875-5.008,1.831-6.883-0.095c-1.874-1.927-1.832-5.009,0.095-6.883L16.515,18.26c1.892-1.835,3.943-2.967,5.901-3.481
	c1.913-0.502,3.779-0.439,5.433,0.118c3.64,1.226,5.706,4.575,5.706,8.316v8.72C33.537,33.57,35.191,34.212,36.31,33.345"/>
<path fill-rule="evenodd" clip-rule="evenodd" fill="#FFCD2E" d="M28.632,1c2.805,0,5.078,2.274,5.078,5.078
	c0,2.805-2.273,5.079-5.078,5.079c-2.805,0-5.079-2.273-5.079-5.079C23.553,3.274,25.827,1,28.632,1"/>
</svg>
