<?xml version="1.0" encoding="utf-8"?>
<!-- Generator: Adobe Illustrator 16.0.3, SVG Export Plug-In . SVG Version: 6.00 Build 0)  -->
<!DOCTYPE svg PUBLIC "-//W3C//DTD SVG 1.1//EN" "http://www.w3.org/Graphics/SVG/1.1/DTD/svg11.dtd">
<svg version="1.1" id="Layer_1" xmlns="http://www.w3.org/2000/svg" xmlns:xlink="http://www.w3.org/1999/xlink" x="0px" y="0px"
	 width="30.114px" height="34px" viewBox="0 0 30.114 34" enable-background="new 0 0 30.114 34" xml:space="preserve">
<path fill-rule="evenodd" clip-rule="evenodd" fill="#333333" d="M15.057,14.257c2.588,0,4.687,2.098,4.687,4.686
	c0,2.587-2.099,4.686-4.687,4.686c-2.587,0-4.685-2.099-4.685-4.686C10.372,16.354,12.47,14.257,15.057,14.257 M29.114,5.686v13.257
	C29.114,26.706,22.82,33,15.057,33C7.294,33,1,26.706,1,18.943c0-6.121,3.912-11.327,9.372-13.256c0,2.587,2.098,4.685,4.685,4.685
	c2.588,0,4.687-2.098,4.687-4.686l0,0C19.743,3.097,21.841,1,24.429,1S29.114,3.097,29.114,5.686z"/>
</svg>
