<?xml version="1.0" encoding="utf-8"?>
<!-- Generator: Adobe Illustrator 16.0.3, SVG Export Plug-In . SVG Version: 6.00 Build 0)  -->
<!DOCTYPE svg PUBLIC "-//W3C//DTD SVG 1.1//EN" "http://www.w3.org/Graphics/SVG/1.1/DTD/svg11.dtd">
<svg version="1.1" id="Layer_1" xmlns="http://www.w3.org/2000/svg" xmlns:xlink="http://www.w3.org/1999/xlink" x="0px" y="0px"
	 width="26.922px" height="15.417px" viewBox="0 0 26.922 15.417" enable-background="new 0 0 26.922 15.417" xml:space="preserve">
<path fill-rule="evenodd" clip-rule="evenodd" fill="#999999" d="M22.772,14.071c-0.075,0.03-0.151,0.058-0.228,0.084 M11.378,1
	c0.874,0,1.582,0.708,1.582,1.582s-0.708,1.582-1.582,1.582c-0.874,0-1.582-0.708-1.582-1.582S10.504,1,11.378,1z M21.077,4.472
	L21.077,4.472l0.127,0.005h0.002l0.125,0.008h0.002l0.124,0.011l0.002,0.001l0.06,0.006L21.58,4.51h0.002l0.06,0.009h0.004
	l0.119,0.019h0c1.046,0.173,1.982,0.672,2.701,1.39l0.083,0.085L24.63,6.1l0.04,0.044l0.04,0.045h0l0.039,0.046l0.038,0.046h0
	l0.037,0.046l0.037,0.047h0l0.016,0.021l0.041,0.053l0.016,0.021h0l0.035,0.048l0.035,0.049h0l0.034,0.049l0.034,0.049h0l0.033,0.05
	l0.033,0.051h0l0.032,0.051l0.031,0.051h0l0.03,0.052l0.03,0.052h0l0.029,0.052l0.029,0.053l0.028,0.054l0.028,0.053l0,0
	l0.027,0.054l0.026,0.055h0l0.01,0.022l0.041,0.087l0.049,0.11l0.046,0.112l0.043,0.114l0.041,0.114l0.038,0.116l0.035,0.118
	l0.024,0.091L25.766,8.2h0l0.015,0.06l0.015,0.061l0.017,0.077l0.016,0.076l0.006,0.028l0.011,0.061l0,0l0.011,0.062l0.01,0.062
	l0.017,0.124l0.014,0.125l0.012,0.126l0.008,0.127l0.005,0.127l0.001,0.129l-0.001,0.128l-0.005,0.128l-0.008,0.127l-0.012,0.125
	l-0.014,0.125L25.865,10.2l-0.021,0.123l-0.011,0.062l-0.012,0.061h0l-0.013,0.061l-0.013,0.061l0,0l-0.015,0.06l-0.015,0.06h0
	l-0.007,0.026l-0.025,0.093l-0.035,0.117l0,0l-0.038,0.116l0,0l-0.041,0.115l-0.043,0.113l0,0l-0.046,0.112l0,0l-0.049,0.11v0.001
	l-0.042,0.089L25.432,11.6h0l-0.026,0.054l-0.027,0.054l0,0l-0.028,0.054l-0.028,0.053l0,0l-0.029,0.053l-0.029,0.053h0l-0.03,0.052
	l-0.03,0.052h0l-0.031,0.051l-0.032,0.051h0l-0.033,0.05l-0.033,0.05h0l-0.013,0.02l-0.042,0.06l-0.013,0.02h0l-0.035,0.049
	l-0.035,0.048h0l-0.016,0.021l-0.051,0.067l-0.005,0.007h0l-0.004,0.005l-0.067,0.083l-0.003,0.005h0l-0.003,0.004l-0.071,0.084
	l-0.003,0.004h0l-0.04,0.045l-0.04,0.044l0,0l-0.081,0.087v0.001l-0.083,0.085l0,0l-0.085,0.083l0,0l-0.087,0.081v0.001
	l-0.089,0.079l-0.091,0.077l-0.093,0.074l-0.095,0.073l0,0l-0.097,0.07l0,0l-0.085,0.059l-0.013,0.01h0l-0.016,0.011l-0.083,0.055h0
	l-0.101,0.063h0l-0.051,0.031l-0.052,0.03l0,0l-0.013,0.007l-0.092,0.052l0,0l-0.09,0.048l-0.016,0.008h0l-0.015,0.008l-0.092,0.046
	l0,0.001l-0.109,0.051h0l-0.11,0.048h0l-0.112,0.046h0c-0.075,0.03-0.151,0.058-0.228,0.084l0,0
	c-0.116,0.039-0.233,0.074-0.353,0.104l0,0l-0.12,0.029l0,0l-0.121,0.026h0c-0.323,0.066-0.659,0.102-1.002,0.102l-0.095-0.001l0,0
	c-2.031-0.039-3.765-1.295-4.5-3.069l0.831-0.805c0.691-0.673,1.314-1.257,1.92-1.675c-0.057,0.182-0.087,0.375-0.087,0.576
	c0,1.035,0.814,1.881,1.837,1.931h0.003h0.003h0.003h0.003h0.003h0.002h0.003l0.003,0.001h0.003h0.003h0.003h0.003h0.003h0.003
	h0.003h0.012h0.003h0.002h0.003h0.003l0.006,0.001h0.003h0.003h0.003h0.003h0.003h0.003h0.003c0.208,0,0.409-0.033,0.597-0.095
	l0.022-0.007l0,0l0.022-0.008c0.074-0.026,0.146-0.058,0.217-0.092l0.021-0.011l0,0l0.021-0.011l0.021-0.011l0,0l0.02-0.012
	c0.041-0.022,0.081-0.047,0.12-0.072l0.02-0.013l0,0l0.019-0.014l0.019-0.013l0,0l0.019-0.014c0.081-0.06,0.158-0.125,0.229-0.196
	l0.064-0.066h0c0.046-0.052,0.09-0.106,0.131-0.162l0.014-0.019l0-0.001l0.013-0.019c0.022-0.031,0.043-0.064,0.063-0.098h0
	l0.012-0.02l0.023-0.041l0.012-0.021l0,0l0.011-0.021l0.011-0.021h0l0.01-0.021l0.04-0.085l0.009-0.021h0l0.009-0.021l0.009-0.021
	v-0.001l0.008-0.021l0.008-0.022l0,0l0.008-0.021l0.008-0.022h0l0.007-0.022l0.014-0.046l0.007-0.022l0,0l0.006-0.023l0.006-0.022
	l0-0.001l0.006-0.022l0.005-0.023l0,0l0.005-0.023l0.018-0.095l0.003-0.024h0l0.003-0.023l0.003-0.024h0l0.002-0.024l0.003-0.024
	l0,0l0.002-0.024l0.002-0.024l0,0l0.001-0.024l0.001-0.024h0l0-0.025l0.001-0.024h0V9.468V9.443V9.401l0-0.008l-0.002-0.05V9.34
	l-0.001-0.021h0l-0.001-0.024l-0.001-0.017l0-0.009l-0.001-0.012l-0.001-0.013l-0.005-0.048h0l-0.01-0.072l-0.001-0.008
	l-0.007-0.039l0-0.001l-0.003-0.02l-0.001-0.004l-0.012-0.055l-0.004-0.016l-0.006-0.022l0-0.001l-0.006-0.022l-0.004-0.016
	l-0.002-0.008l-0.003-0.011l-0.004-0.013L22.8,8.885l-0.012-0.038V8.846l-0.023-0.067l-0.002-0.006l-0.006-0.016l-0.001-0.003
	l-0.007-0.019l0-0.001l-0.007-0.018l-0.002-0.004l-0.006-0.014l-0.003-0.008l-0.004-0.011L22.72,8.669l-0.002-0.006l-0.016-0.036
	l-0.001-0.001l-0.008-0.017l-0.002-0.004l-0.006-0.014l-0.004-0.008l-0.005-0.009L22.67,8.563l-0.003-0.006l-0.008-0.015
	L22.658,8.54l-0.009-0.018h0l-0.009-0.017l-0.002-0.004l-0.012-0.021L22.62,8.473l-0.006-0.012L22.61,8.455l-0.009-0.014L22.6,8.438
	l-0.01-0.017l-0.001-0.001l-0.025-0.039l-0.006-0.009l-0.007-0.011l-0.003-0.005l-0.01-0.014l-0.001-0.003l-0.011-0.016
	l-0.001-0.001L22.514,8.31l-0.003-0.004l-0.008-0.012l-0.005-0.007l-0.006-0.009l-0.008-0.01L22.48,8.264
	c-0.051-0.066-0.106-0.129-0.165-0.187l0.003-0.004L22.315,8.07c-0.346-0.346-0.829-0.56-1.366-0.56
	c-0.754,0-1.374,0.211-1.957,0.57c-0.686,0.423-1.385,1.074-2.172,1.841c-1.139,1.101-2.275,2.203-3.411,3.304
	c-0.589,0.572-1.229,0.925-1.838,1.085c-0.596,0.156-1.178,0.137-1.693-0.037c-0.578-0.194-1.082-0.606-1.393-1.135
	c-0.246-0.419-0.384-0.91-0.384-1.455V8.967c0.006-0.537-0.565-0.73-0.911-0.395l-3.616,3.506c-0.6,0.583-1.56,0.57-2.145-0.03
	c-0.583-0.6-0.57-1.561,0.03-2.144l4.375-4.24c0.589-0.572,1.229-0.925,1.838-1.085C8.268,4.423,8.85,4.442,9.364,4.615
	c1.134,0.383,1.778,1.426,1.778,2.591v2.717c-0.006,0.511,0.51,0.71,0.858,0.44l2.707-2.617c0.915-0.891,1.747-1.659,2.693-2.242
	c1.058-0.651,2.181-1.034,3.549-1.034L21.077,4.472z"/>
</svg>
