<?xml version="1.0" encoding="utf-8"?>
<!-- Generator: Adobe Illustrator 16.0.3, SVG Export Plug-In . SVG Version: 6.00 Build 0)  -->
<!DOCTYPE svg PUBLIC "-//W3C//DTD SVG 1.1//EN" "http://www.w3.org/Graphics/SVG/1.1/DTD/svg11.dtd">
<svg version="1.1" id="Layer_1" xmlns="http://www.w3.org/2000/svg" xmlns:xlink="http://www.w3.org/1999/xlink" x="0px" y="0px"
	 width="262.713px" height="295.049px" viewBox="0 0 262.713 295.049" enable-background="new 0 0 262.713 295.049"
	 xml:space="preserve">
<g>
	<path fill-rule="evenodd" clip-rule="evenodd" fill="#FFCC00" d="M138.451,33.369h-13.557h-13.556v13.556v27.112h13.556
		l13.557-13.556h-13.557V46.925h13.557v13.556v13.556h13.556V19.813L138.451,33.369z M131.672,0
		c28.104,0,50.888,22.783,50.888,50.888c0,28.104-22.783,50.887-50.888,50.887S80.785,78.992,80.785,50.888
		C80.785,22.783,103.568,0,131.672,0z"/>
	<g>
		<path fill="#FFFFFF" d="M22.145,168.694c0-6.854-5.373-12.054-12.398-12.054H0v24.107h9.643
			C16.738,180.748,22.145,175.548,22.145,168.694z M9.781,178.199H2.755v-19.01h6.922c5.407,0,9.677,4.098,9.677,9.539
			C19.355,174.136,15.153,178.199,9.781,178.199z"/>
		<polygon fill="#FFFFFF" points="43.984,178.199 29.933,178.199 29.933,169.797 42.089,169.797 42.089,167.282 29.933,167.282 
			29.933,159.189 43.536,159.189 43.536,156.641 27.177,156.641 27.177,180.748 43.984,180.748 		"/>
		<path fill="#FFFFFF" d="M64.996,174.273c0.034-8.747-13.535-5.476-13.535-11.744c0-2.065,2.032-3.306,5.131-3.306
			c1.929,0,4.477,0.586,6.647,1.997l1.171-2.444c-1.998-1.344-4.856-2.239-7.646-2.239c-4.994,0-8.334,2.411-8.334,6.199
			c0,8.645,13.569,5.234,13.535,11.675c0,2.342-2.169,3.754-5.648,3.754c-2.721,0-5.786-1.239-8.024-3.375l-1.24,2.376
			c2.273,2.17,5.717,3.686,9.229,3.686C61.448,180.852,64.996,178.269,64.996,174.273z"/>
		<path fill="#FFFFFF" d="M72.475,174.583h13.121l2.721,6.165h2.996l-10.779-24.107h-2.858l-10.814,24.107h2.927L72.475,174.583z
			 M79.018,159.637l5.476,12.398H73.611L79.018,159.637z"/>
		<rect x="95.105" y="156.641" fill="#FFFFFF" width="2.755" height="24.107"/>
		<polygon fill="#FFFFFF" points="107.918,161.187 122.383,180.748 125.207,180.748 125.207,156.641 122.486,156.641 
			122.486,176.236 108.021,156.641 105.163,156.641 105.163,180.748 107.918,180.748 		"/>
		<path fill="#FFFFFF" d="M153.179,180.852c3.237,0,6.577-1.24,8.954-3.134v-8.748h-2.445v7.336
			c-1.86,1.274-4.167,2.031-6.337,2.031c-5.511,0-9.953-4.271-9.953-9.643c0-5.338,4.408-9.608,9.919-9.608
			c2.686,0,5.338,1.033,7.301,2.789l1.584-1.997c-2.308-2.032-5.545-3.306-8.885-3.306c-7.095,0-12.708,5.338-12.708,12.122
			S146.188,180.852,153.179,180.852z"/>
		<path fill="#FFFFFF" d="M171.574,173.103h6.406c0.551,0,1.067-0.034,1.55-0.068l5.063,7.714h3.134l-5.683-8.23
			c3.479-1.103,5.441-3.823,5.441-7.784c0-5.131-3.479-8.093-9.505-8.093h-9.161v24.107h2.755V173.103z M171.574,159.189h6.406
			c4.374,0,6.854,1.929,6.854,5.613c0,3.788-2.479,5.751-6.854,5.751h-6.406V159.189z"/>
		<path fill="#FFFFFF" d="M195.824,174.583h13.122l2.721,6.165h2.996l-10.779-24.107h-2.859l-10.813,24.107h2.928L195.824,174.583z
			 M202.368,159.637l5.476,12.398H196.96L202.368,159.637z"/>
		<polygon fill="#FFFFFF" points="232.471,167.833 221.209,167.833 221.209,159.189 233.78,159.189 233.78,156.641 218.455,156.641 
			218.455,180.748 221.209,180.748 221.209,170.348 232.471,170.348 		"/>
		<rect x="237.847" y="156.641" fill="#FFFFFF" width="2.755" height="24.107"/>
		<path fill="#FFFFFF" d="M249.765,162.529c0-2.065,2.031-3.306,5.131-3.306c1.929,0,4.478,0.586,6.646,1.997l1.171-2.444
			c-1.997-1.344-4.855-2.239-7.646-2.239c-4.993,0-8.334,2.411-8.334,6.199c0,8.645,13.569,5.234,13.535,11.675
			c0,2.342-2.17,3.754-5.648,3.754c-2.721,0-5.786-1.239-8.024-3.375l-1.239,2.376c2.272,2.17,5.717,3.686,9.229,3.686
			c5.166,0,8.713-2.583,8.713-6.578C263.333,165.526,249.765,168.798,249.765,162.529z"/>
		<path fill="#FFFFFF" d="M77.226,216.182c0.034-8.747-13.535-5.476-13.535-11.744c0-2.065,2.032-3.306,5.131-3.306
			c1.929,0,4.477,0.586,6.647,1.997l1.171-2.444c-1.998-1.344-4.856-2.239-7.646-2.239c-4.994,0-8.334,2.411-8.334,6.199
			c0,8.645,13.569,5.234,13.535,11.675c0,2.342-2.169,3.754-5.648,3.754c-2.721,0-5.786-1.239-8.024-3.375l-1.24,2.376
			c2.273,2.17,5.717,3.686,9.229,3.686C73.678,222.76,77.226,220.177,77.226,216.182z"/>
		<polygon fill="#FFFFFF" points="99.684,220.107 85.633,220.107 85.633,211.705 97.79,211.705 97.79,209.19 85.633,209.19 
			85.633,201.098 99.236,201.098 99.236,198.549 82.877,198.549 82.877,222.656 99.684,222.656 		"/>
		<polygon fill="#FFFFFF" points="112.637,222.656 112.637,201.098 120.523,201.098 120.523,198.549 102.03,198.549 102.03,201.098 
			109.882,201.098 109.882,222.656 		"/>
		<polygon fill="#FFFFFF" points="131.858,222.656 131.858,201.098 139.745,201.098 139.745,198.549 121.25,198.549 121.25,201.098 
			129.103,201.098 129.103,222.656 		"/>
		<rect x="143.743" y="198.549" fill="#FFFFFF" width="2.755" height="24.107"/>
		<polygon fill="#FFFFFF" points="171.124,218.145 156.659,198.549 153.8,198.549 153.8,222.656 156.555,222.656 156.555,203.095 
			171.02,222.656 173.844,222.656 173.844,198.549 171.124,198.549 		"/>
		<path fill="#FFFFFF" d="M191.621,200.994c2.686,0,5.338,1.033,7.301,2.789l1.584-1.997c-2.308-2.032-5.545-3.306-8.885-3.306
			c-7.095,0-12.708,5.338-12.708,12.122s5.579,12.157,12.57,12.157c3.237,0,6.577-1.24,8.954-3.134v-8.748h-2.445v7.336
			c-1.86,1.274-4.167,2.031-6.337,2.031c-5.511,0-9.953-4.271-9.953-9.643C181.702,205.265,186.11,200.994,191.621,200.994z"/>
		<path fill="#FFFFFF" d="M26.144,240.457h-9.058v24.107h2.755v-7.646h6.302c5.958,0,9.402-3.065,9.402-8.369
			C35.545,243.419,32.102,240.457,26.144,240.457z M26.04,254.37h-6.199v-11.364h6.199c4.339,0,6.854,1.929,6.854,5.613
			C32.894,252.407,30.379,254.37,26.04,254.37z"/>
		<polygon fill="#FFFFFF" points="42.885,253.613 55.042,253.613 55.042,251.099 42.885,251.099 42.885,243.006 56.489,243.006 
			56.489,240.457 40.13,240.457 40.13,264.564 56.937,264.564 56.937,262.016 42.885,262.016 		"/>
		<path fill="#FFFFFF" d="M81.22,248.55c0-5.131-3.478-8.093-9.505-8.093h-9.161v24.107h2.755v-7.646h6.406
			c0.551,0,1.067-0.034,1.55-0.068l5.063,7.714h3.134l-5.683-8.23C79.257,255.231,81.22,252.511,81.22,248.55z M71.715,254.37
			h-6.406v-11.364h6.406c4.374,0,6.853,1.929,6.853,5.613C78.568,252.407,76.088,254.37,71.715,254.37z"/>
		<path fill="#FFFFFF" d="M97.79,262.085c-5.441,0-9.815-4.305-9.815-9.608c0-5.338,4.374-9.574,9.815-9.574
			c2.652,0,5.269,1.137,7.129,2.996l1.653-1.997c-2.307-2.17-5.51-3.513-8.816-3.513c-6.991,0-12.57,5.338-12.57,12.088
			c0,6.818,5.51,12.191,12.467,12.191c3.34,0,6.578-1.412,8.954-3.65l-1.688-1.825C103.024,260.982,100.442,262.085,97.79,262.085z"
			/>
		<polygon fill="#FFFFFF" points="114.326,253.613 126.482,253.613 126.482,251.099 114.326,251.099 114.326,243.006 
			127.929,243.006 127.929,240.457 111.57,240.457 111.57,264.564 128.377,264.564 128.377,262.016 114.326,262.016 		"/>
		<polygon fill="#FFFFFF" points="149.216,240.457 130.723,240.457 130.723,243.006 138.575,243.006 138.575,264.564 
			141.33,264.564 141.33,243.006 149.216,243.006 		"/>
		<path fill="#FFFFFF" d="M158.245,240.457l-10.813,24.107h2.928l2.686-6.165h13.122l2.721,6.165h2.996l-10.779-24.107H158.245z
			 M154.181,255.852l5.407-12.398l5.476,12.398H154.181z"/>
		<polygon fill="#FFFFFF" points="194.652,240.457 191.379,240.457 178.43,254.474 178.43,240.457 175.675,240.457 175.675,264.564 
			178.43,264.564 178.43,258.262 183.115,253.097 192,264.564 195.375,264.564 185.078,250.961 		"/>
		<path fill="#FFFFFF" d="M207.054,240.457l-10.813,24.107h2.928l2.686-6.165h13.122l2.721,6.165h2.996l-10.779-24.107H207.054z
			 M202.991,255.852l5.407-12.398l5.476,12.398H202.991z"/>
		<polygon fill="#FFFFFF" points="241.808,260.053 227.343,240.457 224.485,240.457 224.485,264.564 227.24,264.564 227.24,245.003 
			241.705,264.564 244.529,264.564 244.529,240.457 241.808,240.457 		"/>
	</g>
	<path fill-rule="evenodd" clip-rule="evenodd" fill="#FFCD2E" d="M107.247,286.049c2.485,0,4.5,2.015,4.5,4.5s-2.015,4.5-4.5,4.5
		s-4.5-2.015-4.5-4.5S104.761,286.049,107.247,286.049z M156.098,286.049c2.485,0,4.5,2.015,4.5,4.5s-2.015,4.5-4.5,4.5
		s-4.5-2.015-4.5-4.5S153.613,286.049,156.098,286.049z M131.672,286.049c2.485,0,4.5,2.015,4.5,4.5s-2.015,4.5-4.5,4.5
		s-4.5-2.015-4.5-4.5S129.187,286.049,131.672,286.049z"/>
</g>
</svg>
