<?xml version="1.0" encoding="utf-8"?>
<!-- Generator: Adobe Illustrator 16.0.3, SVG Export Plug-In . SVG Version: 6.00 Build 0)  -->
<!DOCTYPE svg PUBLIC "-//W3C//DTD SVG 1.1//EN" "http://www.w3.org/Graphics/SVG/1.1/DTD/svg11.dtd">
<svg version="1.1" xmlns="http://www.w3.org/2000/svg" xmlns:xlink="http://www.w3.org/1999/xlink" x="0px" y="0px"
	 width="230.129px" height="230.129px" viewBox="0 0 230.129 230.129" enable-background="new 0 0 230.129 230.129"
	 xml:space="preserve">
<g id="Layer_1">
	<circle fill="#1D2127" cx="115.064" cy="115.064" r="115.064"/>
</g>
<g id="Layer_4">
	<g>
		<path fill="none" stroke="#FFCD2E" stroke-width="7.2335" stroke-miterlimit="22.9256" d="M116.436,76.743l4.831-22.98
			c0,0,0.385-3.11,3.519-4.318c3.137-1.209,5.377,0.422,6.674,1.274l19.424,12.764"/>
		<path fill="none" stroke="#FFCD2E" stroke-width="7.2336" stroke-miterlimit="22.9256" d="M104.586,77.717
			c0,13.699-10.661,24.911-24.143,25.779V76.587h24.115C104.576,76.958,104.586,77.337,104.586,77.717z"/>
		<polygon fill="#FFCD2E" points="76.823,72.972 76.823,181.115 104.581,181.115 104.581,173.881 84.057,173.881 84.057,80.206 
			125.106,80.206 125.106,99.499 132.34,99.499 132.34,72.972 		"/>
		<path fill="none" stroke="#FFCD2E" stroke-width="7.2335" stroke-miterlimit="22.9256" d="M150.873,172.401
			c-0.782,2.392-1.764,4.694-2.964,6.854l-1.036,1.859h-30.795l-1.035-1.859c-3.789-6.809-5.399-15.101-5.399-22.838
			c0-6.616,1.162-13.492,3.798-19.584c1.581-3.649,3.823-7.275,6.793-10.04c-0.997-1.424-1.724-3.022-2.153-4.714h-5.797v-12.808
			h38.382v12.808h-5.796c-0.433,1.691-1.158,3.29-2.153,4.714c2.969,2.767,5.213,6.391,6.791,10.04
			c2.637,6.092,3.798,12.968,3.798,19.584c0,2.579-0.177,5.218-0.555,7.846"/>
	</g>
</g>
</svg>
