<?xml version="1.0" encoding="utf-8"?>
<!-- Generator: Adobe Illustrator 16.0.3, SVG Export Plug-In . SVG Version: 6.00 Build 0)  -->
<!DOCTYPE svg PUBLIC "-//W3C//DTD SVG 1.1//EN" "http://www.w3.org/Graphics/SVG/1.1/DTD/svg11.dtd">
<svg version="1.1" id="Layer_1" xmlns="http://www.w3.org/2000/svg" xmlns:xlink="http://www.w3.org/1999/xlink" x="0px" y="0px"
	 width="136.063px" height="136.063px" viewBox="0 0 136.063 136.063" enable-background="new 0 0 136.063 136.063"
	 xml:space="preserve">
<path fill-rule="evenodd" clip-rule="evenodd" fill="#414141" d="M41.164,95.113V37.275h26.69l1.891-8.995
	c0.078-0.448,0.595-2.765,3.066-3.717c2.549-0.982,4.277,0.161,5.321,0.852l-0.002,0.002l11.922,7.834l-1.641,2.497l-11.926-7.837
	H76.48c-0.561-0.371-1.487-0.984-2.591-0.559c-1.074,0.414-1.203,1.459-1.204,1.461l-0.012,0.077l-1.763,8.385h9.511v22.089h11.679
	v13.794h-2.33c3.552,4.97,5.129,11.672,5.129,17.422c0,7.279-2.37,15.495-7.906,20.521l-0.858,0.779H68.708l-0.857-0.779
	c-0.689-0.625-1.33-1.301-1.922-2.018H41.164V95.113z"/>
<path fill-rule="evenodd" clip-rule="evenodd" fill="#FFCD2E" d="M60.247,95.113c0.509,3.813,1.674,7.652,3.602,10.972H44.164
	V95.113H60.247z"/>
<path fill-rule="evenodd" clip-rule="evenodd" fill="#FFFFFF" d="M65.743,62.364h23.357v7.794h-7.241
	c5.825,2.776,10.04,10.869,10.04,20.422c0,7.745-2.771,14.53-6.923,18.301H69.867c-4.153-3.771-6.923-10.556-6.923-18.301
	c0-9.553,4.215-17.646,10.041-20.422h-7.241V62.364z"/>
<polygon fill-rule="evenodd" clip-rule="evenodd" fill="#FFCD2E" points="65.743,62.364 89.101,62.364 89.101,70.159 81.859,70.159 
	72.984,70.159 65.743,70.159 "/>
<path fill-rule="evenodd" clip-rule="evenodd" fill="#FFFFFF" d="M44.164,40.275h33.258v19.089H62.744v13.794h2.33
	c-3.552,4.97-5.129,11.672-5.129,17.422c0,0.507,0.012,1.018,0.035,1.532H44.164V40.275z"/>
<rect x="66.293" y="70.159" fill-rule="evenodd" clip-rule="evenodd" fill="#414141" width="23.477" height="3"/>
</svg>
