<?xml version="1.0" encoding="utf-8"?>
<!-- Generator: Adobe Illustrator 16.0.3, SVG Export Plug-In . SVG Version: 6.00 Build 0)  -->
<!DOCTYPE svg PUBLIC "-//W3C//DTD SVG 1.1//EN" "http://www.w3.org/Graphics/SVG/1.1/DTD/svg11.dtd">
<svg version="1.1" xmlns="http://www.w3.org/2000/svg" xmlns:xlink="http://www.w3.org/1999/xlink" x="0px" y="0px" width="250px"
	 height="250px" viewBox="0 0 250 250" enable-background="new 0 0 250 250" xml:space="preserve">
<g id="Layer_2">
	<rect fill="#2B2B2B" width="250" height="250"/>
	
		<line fill="none" stroke="#FFFFFF" stroke-width="6.5923" stroke-linejoin="round" stroke-miterlimit="10" x1="140.602" y1="130.464" x2="172.807" y2="69.914"/>
</g>
<g id="Layer_1">
</g>
<g id="Layer_3">
	<polyline fill="none" stroke="#FFFFFF" stroke-width="7" stroke-miterlimit="10" points="141,130.5 121.5,130.5 121.5,17.5 
		238.5,17.5 238.5,130.5 168,130.5 	"/>
	<path fill="none" stroke="#FFFFFF" stroke-width="6.592" stroke-miterlimit="10" d="M102.994,93.536
		c0,10.705-4.043,20.437-10.643,27.665c-7.157,7.839-17.319,12.734-28.591,12.734c-21.668,0-39.234-18.087-39.234-40.399
		c0-22.312,17.566-40.399,39.234-40.399S102.994,71.225,102.994,93.536z"/>
	<path fill="none" stroke="#FFFFFF" stroke-width="7" stroke-miterlimit="10" d="M7.5,210v-61.803
		c0-18.129,12.86-22.697,21.827-22.697H40"/>
	<path fill="none" stroke="#FFFFFF" stroke-width="7" stroke-miterlimit="10" d="M94.5,150v60"/>
	<path fill="none" stroke="#FFFFFF" stroke-width="6.5923" stroke-miterlimit="10" d="M94.523,156.85l28.266,26.926
		c2.317,2.216,5.384,3.426,8.542,3.426c0.666,0,1.336-0.054,2.004-0.163c3.833-0.63,7.147-3.025,8.947-6.467l24.721-47.244
		c3.165-6.049,0.828-13.517-5.221-16.682c-6.047-3.166-13.517-0.828-16.682,5.221l-17.104,32.687l-24.995-23.896
		c0,0-2.092-1.996-4.839-3.232c-4.667-2.1-11.766-0.891-11.766-0.891"/>
	<line fill="none" stroke="#FFFFFF" stroke-width="7" stroke-miterlimit="10" x1="32.5" y1="150" x2="32.5" y2="210"/>
	<line fill="none" stroke="#FFFFFF" stroke-width="7" stroke-miterlimit="10" x1="144" y1="37.5" x2="219" y2="37.5"/>
	<line fill="none" stroke="#FFFFFF" stroke-width="7" stroke-miterlimit="10" x1="144" y1="56.5" x2="219" y2="56.5"/>
	<line fill="none" stroke="#FFFFFF" stroke-width="6" stroke-miterlimit="10" x1="187" y1="76" x2="219" y2="76"/>
	<line fill="none" stroke="#FFFFFF" stroke-width="8" stroke-miterlimit="10" x1="175" y1="95" x2="219" y2="95"/>
</g>
</svg>
