<?xml version="1.0" encoding="utf-8"?>
<!-- Generator: Adobe Illustrator 16.0.3, SVG Export Plug-In . SVG Version: 6.00 Build 0)  -->
<!DOCTYPE svg PUBLIC "-//W3C//DTD SVG 1.1//EN" "http://www.w3.org/Graphics/SVG/1.1/DTD/svg11.dtd">
<svg version="1.1" id="Layer_1" xmlns="http://www.w3.org/2000/svg" xmlns:xlink="http://www.w3.org/1999/xlink" x="0px" y="0px"
	 width="25.863px" height="23.639px" viewBox="0 0 25.863 23.639" enable-background="new 0 0 25.863 23.639" xml:space="preserve">
<path fill-rule="evenodd" clip-rule="evenodd" fill="#333333" d="M9.507,5.05h3.979l-1.188,4.05H4.104L4.34,8.29
	C4.859,6.508,7.184,5.05,9.507,5.05"/>
<path fill-rule="evenodd" clip-rule="evenodd" fill="#333333" d="M11.706,11.106l-0.445,1.529l-0.019,0.062h0l-1.132,3.887h2.028
	l1.596-5.478v-0.015l1.743-6.041l0.001,0l0.247-0.838h-0.003C16.258,2.444,18.573,1,20.881,1h3.979l0.004,0.002l-1.25,4.293
	l-0.871,2.992L22.74,8.29l-3.235,11.109c-0.52,1.78-2.847,3.24-5.167,3.24H4.383c-2.321,0-3.799-1.458-3.279-3.24l2.416-8.293
	H11.706z"/>
</svg>
