<?xml version="1.0" encoding="utf-8"?>
<!-- Generator: Adobe Illustrator 16.0.3, SVG Export Plug-In . SVG Version: 6.00 Build 0)  -->
<!DOCTYPE svg PUBLIC "-//W3C//DTD SVG 1.1//EN" "http://www.w3.org/Graphics/SVG/1.1/DTD/svg11.dtd">
<svg version="1.1" id="Layer_1" xmlns="http://www.w3.org/2000/svg" xmlns:xlink="http://www.w3.org/1999/xlink" x="0px" y="0px"
	 width="34px" height="34px" viewBox="0 0 34 34" enable-background="new 0 0 34 34" xml:space="preserve">
<g>
	<path fill-rule="evenodd" clip-rule="evenodd" fill="#333333" d="M17,1c8.837,0,16,7.164,16,16s-7.163,16-16,16
		C8.164,33,1,25.837,1,17S8.164,1,17,1"/>
	<rect x="7.85" y="12.46" fill-rule="evenodd" clip-rule="evenodd" fill="#FFCC00" width="2.2" height="2.133"/>
	<path fill-rule="evenodd" clip-rule="evenodd" fill="#FFFFFF" d="M10.05,17.696l5.102,3.845c3.666,0,7.333,0,10.998,0v-6.599h-2.69
		H12.952v1.752l2.2,1.657v-1.21c2.2,0,6.599,0,8.798,0v2.2c-2.688,0-5.375,0-8.063,0l-5.838-4.4h-2.2v6.599h2.2V17.696z"/>
</g>
</svg>
