<?xml version="1.0" encoding="utf-8"?>
<!-- Generator: Adobe Illustrator 16.0.3, SVG Export Plug-In . SVG Version: 6.00 Build 0)  -->
<!DOCTYPE svg PUBLIC "-//W3C//DTD SVG 1.1//EN" "http://www.w3.org/Graphics/SVG/1.1/DTD/svg11.dtd">
<svg version="1.1" id="Layer_1" xmlns="http://www.w3.org/2000/svg" xmlns:xlink="http://www.w3.org/1999/xlink" x="0px" y="0px"
	 width="136.063px" height="136.063px" viewBox="0 0 136.063 136.063" enable-background="new 0 0 136.063 136.063"
	 xml:space="preserve">
<path fill-rule="evenodd" clip-rule="evenodd" fill="#414141" d="M92.048,49.33c6.309,1.374,11.034,6.992,11.034,13.712
	c0,4.8-2.443,9.196-6.365,11.755c0.13,0.797,0.27,1.591,0.416,2.384c0.314,1.702,0.896,3.324,1.752,4.829l0.845,1.483h16.953v15.292
	h-55.27V86.948H19.38v-49.67h72.668V49.33z"/>
<path fill-rule="evenodd" clip-rule="evenodd" fill="#FFFFFF" d="M22.38,40.278h31.232h35.436v8.73c-3.481,0-6.667,1.27-9.12,3.369
	H52.579v3h24.713c-1.44,2.204-2.277,4.836-2.277,7.665c0,4.8,2.442,9.196,6.364,11.755c-0.13,0.797-0.27,1.591-0.416,2.384
	c-0.467,2.529-1.504,4.806-3.048,6.768H66.493h-12.88H22.38V40.278z"/>
<path fill-rule="evenodd" clip-rule="evenodd" fill="#FFCD2E" d="M89.048,52.008c6.094,0,11.034,4.94,11.034,11.034
	c0,4.535-2.735,8.429-6.646,10.126c0.179,1.282,0.421,2.788,0.747,4.558c0.412,2.232,1.172,4.145,2.096,5.768h-14.46
	c0.924-1.623,1.683-3.535,2.095-5.768c0.326-1.77,0.569-3.275,0.748-4.558c-3.911-1.697-6.646-5.592-6.646-10.126
	C78.015,56.948,82.954,52.008,89.048,52.008"/>
<rect x="64.413" y="86.494" fill-rule="evenodd" clip-rule="evenodd" fill="#FFFFFF" width="49.271" height="9.292"/>
<rect x="52.579" y="60.382" fill-rule="evenodd" clip-rule="evenodd" fill="#333333" width="18.7" height="3"/>
<rect x="29.561" y="52.377" fill-rule="evenodd" clip-rule="evenodd" fill="#414141" width="16.668" height="17.549"/>
<rect x="32.561" y="55.377" fill-rule="evenodd" clip-rule="evenodd" fill="#FFCD2E" width="10.668" height="11.549"/>
</svg>
