<?xml version="1.0" encoding="utf-8"?>
<!-- Generator: Adobe Illustrator 16.0.3, SVG Export Plug-In . SVG Version: 6.00 Build 0)  -->
<!DOCTYPE svg PUBLIC "-//W3C//DTD SVG 1.1//EN" "http://www.w3.org/Graphics/SVG/1.1/DTD/svg11.dtd">
<svg version="1.1" id="Layer_1" xmlns="http://www.w3.org/2000/svg" xmlns:xlink="http://www.w3.org/1999/xlink" x="0px" y="0px"
	 width="214.069px" height="53.349px" viewBox="0 0 214.069 53.349" enable-background="new 0 0 214.069 53.349"
	 xml:space="preserve">
<g>
	<rect x="23.069" y="24.133" fill="#999999" width="7" height="8"/>
	<path fill="#999999" d="M26.674,0C11.942,0,0,11.942,0,26.675c0,14.731,11.942,26.674,26.674,26.674s26.674-11.942,26.674-26.674
		C53.349,11.942,41.406,0,26.674,0z M37.069,39.133h-7v-7.43l-6.948,7.43h-7.052V24.598v-7.465h7.052h7.106l6.842-6.747V39.133z"/>
	<path fill="#999999" d="M65.995,14.588c-1.211,0-2.137,0.925-2.137,2.2c0,1.244,0.925,2.169,2.137,2.169
		c1.212,0,2.137-0.925,2.137-2.169C68.132,15.513,67.207,14.588,65.995,14.588z"/>
	<rect x="64.069" y="22.133" fill="#999999" width="4" height="16"/>
	<path fill="#999999" d="M83.037,21.508c-2.87,0-4.968,1.021-5.968,3.381v-2.756h-4v16h4v-8.557c0-2.646,2.061-4.592,4.867-4.624
		c2.551,0,4.133,1.563,4.133,4.114v9.066h3V28.046C89.069,23.995,86.991,21.508,83.037,21.508z"/>
	<path fill="#999999" d="M101.649,21.508c-5.262,0-8.866,3.477-8.866,8.579c0,5.134,3.604,8.643,8.866,8.643
		c5.23,0,8.833-3.509,8.833-8.643C110.483,24.984,106.879,21.508,101.649,21.508z M101.649,35.668c-3.062,0-5.198-2.232-5.198-5.518
		c0-3.253,2.137-5.517,5.198-5.517c3.03,0,5.166,2.264,5.166,5.517C106.815,33.436,104.679,35.668,101.649,35.668z"/>
	<path fill="#999999" d="M127.069,24.569c-2-1.977-3.414-3.093-6.156-3.093c-4.784,0-8.133,3.476-8.133,8.578
		c0,5.166,3.35,8.706,8.229,8.706c2.71,0,5.06-1.084,6.06-3.062v2.434h3v-23h-3V24.569z M121.613,35.699
		c-3.093,0-5.198-2.296-5.23-5.517c0.032-3.253,2.168-5.581,5.23-5.581s5.198,2.296,5.198,5.581
		C126.811,33.403,124.674,35.699,121.613,35.699z"/>
	<path fill="#999999" d="M143.043,21.313c-5.039,0.032-8.578,3.605-8.578,8.739c0,5.104,3.443,8.628,8.674,8.628
		c2.934,0,5.357-1.028,7.016-2.846l-1.945-2.061c-1.244,1.275-2.934,1.789-4.783,1.789c-2.679,0-4.688-1.431-5.262-4.431h12.82
		C151.43,25.133,149.006,21.313,143.043,21.313z M138.1,29.133c0.383-3,2.297-4.4,4.975-4.4c2.775,0,4.593,1.4,4.721,4.4H138.1z"/>
	<path fill="#999999" d="M157.108,26.101c0-1.212,1.052-1.69,2.486-1.69c1.5,0,3.381,0.574,4.88,1.499l1.34-2.711
		c-1.531-1.084-3.795-1.722-5.933-1.722c-3.252,0-6.25,1.467-6.25,4.911c-0.031,6.123,8.897,4.178,8.897,7.653
		c0,1.275-1.212,1.818-2.774,1.818c-1.85,0-4.209-0.798-5.677-2.105l-1.308,2.615c1.69,1.531,4.338,2.36,6.824,2.36
		c3.413,0,6.507-1.563,6.507-5.039C166.132,27.535,157.108,29.226,157.108,26.101z"/>
	<path fill="#999999" d="M176.688,21.508c-3.222,0-4.943,0.733-7.304,2.137l1.499,2.552c1.69-1.148,3.445-1.723,5.071-1.723
		c2.679,0,4.114,1.276,4.114,3.412v0.247h-5.263c-4.082,0-6.41,2.141-6.41,5.234c0,2.998,2.345,5.328,6.013,5.328
		c2.455,0,4.66-0.668,5.66-2.167v1.604h3.507l-0.031-10.896C183.512,23.506,181.056,21.508,176.688,21.508z M180.069,32.638
		c0,1.85-2.265,3.222-4.88,3.222c-2.041,0-3.316-0.961-3.316-2.49c0-1.627,1.084-2.236,3.476-2.236h4.721V32.638z"/>
	<path fill="#999999" d="M190.305,14.588c-1.212,0-2.137,0.925-2.137,2.2c0,1.244,0.925,2.169,2.137,2.169s2.137-0.925,2.137-2.169
		C192.442,15.513,191.517,14.588,190.305,14.588z"/>
	<rect x="188.069" y="22.133" fill="#999999" width="4" height="16"/>
	<path fill="#999999" d="M207.538,21.508c-2.871,0-5.469,1.021-6.469,3.381v-2.756h-4v16h4v-8.557c0-2.646,2.061-4.592,4.867-4.624
		c2.551,0,4.133,1.563,4.133,4.114v9.066h4V28.046C214.069,23.995,211.491,21.508,207.538,21.508z"/>
</g>
</svg>
