<?xml version="1.0" encoding="utf-8"?>
<!-- Generator: Adobe Illustrator 18.1.1, SVG Export Plug-In . SVG Version: 6.00 Build 0)  -->
<svg version="1.1" id="Layer_1" xmlns="http://www.w3.org/2000/svg" xmlns:xlink="http://www.w3.org/1999/xlink" x="0px" y="0px"
	 viewBox="0 0 62 62" enable-background="new 0 0 62 62" xml:space="preserve">
<path fill-rule="evenodd" clip-rule="evenodd" fill="#FFFFFF" d="M5,16.8h17.1h19.4v4.8c-1.9,0-3.7,0.7-5,1.8h-15v1.6h13.5
	c-0.8,1.2-1.2,2.6-1.2,4.2c0,2.6,1.3,5,3.5,6.4c-0.1,0.4-0.1,0.9-0.2,1.3c-0.3,1.4-0.8,2.6-1.7,3.7h-6.3h-7.1H5V16.8z M41.5,23.2
	c3.3,0,6,2.7,6,6c0,2.5-1.5,4.6-3.6,5.5c0.1,0.7,0.2,1.5,0.4,2.5c0.2,1.2,0.6,2.3,1.1,3.2h-7.9c0.5-0.9,0.9-1.9,1.1-3.2
	c0.2-1,0.3-1.8,0.4-2.5c-2.1-0.9-3.6-3.1-3.6-5.5C35.5,25.9,38.2,23.2,41.5,23.2z M28,42.1h27v5.1H28V42.1z M18.1,23.4H8.9V33h9.1
	V23.4z M16.4,25.1h-5.8v6.3h5.8V25.1z M21.5,27.8h10.2v1.6H21.5V27.8z M43.2,21.8c3.5,0.8,6,3.8,6,7.5c0,2.6-1.3,5-3.5,6.4
	c0.1,0.4,0.1,0.9,0.2,1.3c0.2,0.9,0.5,1.8,1,2.6l0.5,0.8h9.3v8.4H26.4v-6.5h-23V15.2h39.8V21.8z"/>
</svg>
