<?xml version="1.0" encoding="utf-8"?>
<!-- Generator: Adobe Illustrator 16.0.3, SVG Export Plug-In . SVG Version: 6.00 Build 0)  -->
<!DOCTYPE svg PUBLIC "-//W3C//DTD SVG 1.1//EN" "http://www.w3.org/Graphics/SVG/1.1/DTD/svg11.dtd">
<svg version="1.1" id="Layer_1" xmlns="http://www.w3.org/2000/svg" xmlns:xlink="http://www.w3.org/1999/xlink" x="0px" y="0px"
	 width="200px" height="26.135px" viewBox="0 0 200 26.135" enable-background="new 0 0 200 26.135" xml:space="preserve">
<g>
	<rect x="7.467" y="11.201" fill="#FFFFFF" width="3.733" height="3.734"/>
	<path fill="#FFFFFF" d="M13.066,0H0c0,8.711,0,17.423,0,26.135h7.467v-3.733H3.733c0-6.223,0-12.445,0-18.668l9.333,0
		c5.155,0,9.333,4.179,9.333,9.333c0,5.155-4.179,9.334-9.333,9.334H11.2v3.733h1.866c7.217,0,13.067-5.851,13.067-13.067
		S20.283,0,13.066,0z"/>
	<rect x="174.443" y="4.308" fill="#FFFFFF" width="2.528" height="17.417"/>
	<polygon fill="#FFFFFF" points="197.523,4.308 197.523,17.672 187.561,4.308 184.962,4.308 184.962,21.725 187.489,21.725 
		187.489,8.384 197.401,21.725 200,21.725 200,4.308 	"/>
	<path fill="#FFFFFF" d="M136.466,8.642c0-1.668,1.81-2.114,3.162-2.114c1.726,0,3.636,0.694,5.138,1.56l1.047-2.222
		c-1.736-1.093-3.916-1.686-5.954-1.686c-2.972,0-6.278,1.286-6.278,4.743c0,6.178,9.671,3.853,9.671,8.136
		c0,1.92-2.032,2.42-3.598,2.42c-2.148,0-4.366-1.063-5.986-2.458l-1.078,2.155c1.902,1.679,4.479,2.651,7.014,2.651
		c3.079,0,6.498-1.381,6.508-4.923C146.127,10.641,136.466,12.85,136.466,8.642z"/>
	<rect x="120.351" y="11.88" fill="#FFFFFF" width="2.194" height="2.195"/>
	<polygon fill="#FFFFFF" points="161.274,4.308 158.039,4.308 152.948,16.336 150.668,21.725 153.412,21.725 155.275,17.321 
		159.657,6.969 164.039,17.321 165.902,21.725 168.646,21.725 166.366,16.336 	"/>
	<path fill="#FFFFFF" d="M117.172,19.259c0-4.162,0-8.324,0-12.485V6.528h9.773v-2.22h-12.301v17.417h12.607v-2.22h-10.08V19.259z"
		/>
	<path fill="#FFFFFF" d="M99.122,4.308h-7.097v17.417h7.021c5.103,0,9.092-3.503,9.092-8.708
		C108.138,7.831,104.225,4.308,99.122,4.308z M99.199,19.505h-4.646V6.528h4.519c3.728,0,6.514,2.78,6.514,6.514
		C105.585,16.726,102.897,19.505,99.199,19.505z"/>
	<path fill="#FFFFFF" d="M76.445,4.062c-5.139,0-9.301,4.008-9.301,8.993c0,4.985,4.162,9.019,9.301,9.019s9.301-4.034,9.301-9.019
		C85.746,8.07,81.584,4.062,76.445,4.062z M76.445,21.02c-4.496,0-8.196-3.571-8.196-7.965c0-4.394,3.7-7.939,8.196-7.939
		s8.196,3.545,8.196,7.939C84.642,17.448,80.941,21.02,76.445,21.02z"/>
	<rect x="37.879" y="4.087" fill="#FFFFFF" width="1.079" height="17.959"/>
	<polygon fill="#FFFFFF" points="60.35,20.403 48.351,4.087 47.092,4.087 47.092,22.047 48.171,22.047 48.171,5.732 60.145,22.047 
		61.403,22.047 61.403,4.087 60.35,4.087 	"/>
</g>
</svg>
