<?xml version="1.0" encoding="utf-8"?>
<!-- Generator: Adobe Illustrator 16.0.3, SVG Export Plug-In . SVG Version: 6.00 Build 0)  -->
<!DOCTYPE svg PUBLIC "-//W3C//DTD SVG 1.1//EN" "http://www.w3.org/Graphics/SVG/1.1/DTD/svg11.dtd">
<svg version="1.1" id="Layer_1" xmlns="http://www.w3.org/2000/svg" xmlns:xlink="http://www.w3.org/1999/xlink" x="0px" y="0px"
	 width="152px" height="49.967px" viewBox="0 0 152 49.967" enable-background="new 0 0 152 49.967" xml:space="preserve">
<polygon fill-rule="evenodd" clip-rule="evenodd" fill="#99CC33" points="56.658,30.151 56.658,37.433 49.376,37.433 "/>
<path fill-rule="evenodd" clip-rule="evenodd" fill="#99CC33" d="M48.267,21.352L48.267,21.352l-8.368,8.367
	c-0.778-1.069-1.238-2.386-1.238-3.809c0-3.576,2.899-6.476,6.475-6.476c1.424,0,2.74,0.46,3.81,1.239L48.267,21.352z
	 M44.412,32.345l0.424-0.424l10.789-10.788l-0.068-0.147l-0.019-0.039l-0.016-0.034l-0.072-0.145l-0.002-0.005l-0.002-0.003
	l-0.069-0.137l-0.021-0.042l-0.016-0.029l-0.076-0.142l-0.005-0.009l-0.004-0.007l-0.095-0.17l0,0l-0.013-0.024l-0.041-0.07
	l-0.04-0.069l-0.008-0.013l-0.034-0.057l-0.069-0.114l-0.002-0.003l-0.012-0.019l-0.085-0.136l-0.011-0.017l-0.033-0.051
	l-0.069-0.105l-0.009-0.015l-0.01-0.014c-0.067-0.101-0.136-0.2-0.207-0.299l-0.015-0.021l-0.007-0.01l-0.047-0.065l-0.047-0.064
	l-0.018-0.024l-0.03-0.041l-0.048-0.063l-0.044-0.058l-0.005-0.006l-0.001-0.001l-0.098-0.125l-0.022-0.027l-0.028-0.036
	l-0.094-0.116l-0.005-0.005l-0.002-0.002l-0.002-0.003l-0.101-0.119l-0.026-0.03l-0.026-0.03l-0.053-0.061l-0.053-0.06l-0.001-0.001
	l-0.104-0.115l-0.054-0.059l-0.001-0.002l-0.055-0.059l-0.055-0.058l-0.005-0.005l-0.009-0.009L53.36,17.84l-0.035-0.036
	l-0.002-0.002l-0.127-0.126l-0.006-0.005l-0.008-0.008l-0.049-0.047l-0.058-0.055l-0.039-0.038l-0.019-0.018l-0.058-0.054
	L52.9,17.396l-0.013-0.011l-0.046-0.042l-0.06-0.053l-0.044-0.04l-0.016-0.013l-0.114-0.098L52.6,17.132l-0.017-0.014l-0.044-0.038
	c-2.001-1.68-4.583-2.692-7.403-2.692c-6.363,0-11.523,5.159-11.523,11.522c0,2.818,1.013,5.399,2.694,7.402l0.051,0.061
	l0.104,0.121l0.053,0.061l0.053,0.06l0.108,0.118l0.054,0.059l0.11,0.116l0.056,0.058l0.056,0.057l0.114,0.112l0.057,0.057
	l0.005,0.006l0.11,0.104l0.058,0.055l0.059,0.054l0.06,0.054l0.06,0.054l0.06,0.053l0.009,0.009l0.111,0.096l0.062,0.052
	l0.061,0.052l0.062,0.051l0.062,0.051l0.063,0.05l0.126,0.1l0.063,0.048l0.064,0.049l0.064,0.048l0.065,0.047l0.064,0.048
	l0.131,0.093l0.066,0.046l0.013,0.009l0.12,0.081l0.067,0.044l0.067,0.044l0.136,0.087l0.068,0.043
	c1.76,1.09,3.834,1.719,6.057,1.719L44.412,32.345z"/>
<path fill-rule="evenodd" clip-rule="evenodd" fill="#999999" d="M29.414,32.32v-7.774c0-1.34,0.521-2.624,1.423-3.549
	c0.802-0.822,1.936-1.353,3.307-1.353c0.168,0,0.331,0.007,0.489,0.021c0.974-1.634,2.317-3.022,3.916-4.048
	c-1.262-0.655-2.736-1.018-4.405-1.018c-2.058,0-3.883,0.604-5.388,1.614c-1.12-1.126-2.672-1.826-4.387-1.826
	c0,7.682,0,15.363,0,23.045C27.817,37.433,29.414,35.22,29.414,32.32 M68.877,19.435c2.625,0,4.888,1.563,5.903,3.81v0.001
	c0.043,0.095,0.084,0.192,0.123,0.289v0.001c0.039,0.098,0.076,0.197,0.109,0.296v0.001c0.034,0.099,0.066,0.201,0.095,0.302v0.001
	c0.159,0.563,0.245,1.159,0.245,1.772l-0.002,0.167H75.35l-0.005,0.166h-0.001l-0.01,0.165h-0.001l-0.014,0.163v0.001l-0.018,0.163
	h-0.001l-0.022,0.16l0,0l-0.026,0.16h-0.001c-0.019,0.106-0.039,0.212-0.063,0.316h-0.001c-0.024,0.104-0.05,0.208-0.079,0.311
	s-0.061,0.204-0.095,0.304v0.001l-0.053,0.149h0l-0.056,0.147l-0.059,0.146v0.001l-0.063,0.145l-0.066,0.142l-0.07,0.141
	l-0.073,0.14l-0.038,0.067l-0.038,0.068h0l-0.039,0.068l-0.041,0.066l-0.041,0.066l-0.042,0.065V29.4l-0.042,0.064l-0.043,0.065
	l-0.044,0.064l-0.044,0.063h-0.001l-0.045,0.063l-0.046,0.062l-0.001,0.001l-0.047,0.063l-0.047,0.061h-0.001l-0.048,0.061
	l-0.048,0.061h-0.001l-0.05,0.06l-0.153,0.176h-0.001c-0.07,0.076-0.142,0.151-0.215,0.225c-0.053,0.054-0.108,0.107-0.164,0.159
	l-0.003,0.003l-0.056,0.052l-0.001,0.001l-0.058,0.052l-0.057,0.052h-0.001l-0.059,0.051l-0.059,0.049l-0.001,0.001l-0.06,0.049
	l-0.06,0.048l-0.001,0.001c-4.141,3.255-10.471,0.418-10.471-5.095C62.403,22.334,65.301,19.435,68.877,19.435z M109.298,32.32
	v-7.774c0-1.34,0.521-2.624,1.424-3.549c0.802-0.822,1.936-1.353,3.307-1.353c1.359,0,2.393,0.447,3.068,1.187
	c0.79,0.86,1.2,2.167,1.2,3.715c0,2.77-0.002,5.539-0.003,8.308c-0.002,3.711,2.863,4.579,5.043,4.579v-5.002v-1.239v-7.087
	c-0.087-2.612-0.958-4.945-2.534-6.665c-1.623-1.773-3.913-2.84-6.774-2.84c-2.058,0-3.883,0.604-5.388,1.614
	c-1.119-1.126-2.672-1.826-4.387-1.826c0,7.682,0,15.363,0,23.045C107.702,37.433,109.298,35.22,109.298,32.32z M124.239,32.385
	h3.136h9.532c3.576,0,6.475-2.898,6.475-6.475c0-3.576-2.898-6.475-6.475-6.475s-6.475,2.899-6.475,6.475l0.004,0.234v0.011
	l0.005,0.101l0.001,0.018l0.004,0.061l0.005,0.07c0.007,0.095,0.016,0.188,0.027,0.281l0.01,0.081l0.006,0.045l0.005,0.036
	l0.015,0.09l0.006,0.036l0.035,0.196l0.005,0.021c0.02,0.1,0.041,0.197,0.065,0.294l0.008,0.029l0.026,0.102l0.017,0.058
	c0.045,0.16,0.096,0.316,0.152,0.471l0.017,0.044l0.064,0.164l0.087,0.205h-0.001c0.608,1.354,1.668,2.462,2.987,3.132h-7.046
	c-0.2-0.346-0.384-0.702-0.548-1.069l-0.107-0.248l-0.011-0.023c-0.08-0.193-0.155-0.389-0.226-0.586l-0.006-0.018
	c-0.255-0.721-0.44-1.476-0.547-2.256l-0.019-0.143c-0.019-0.143-0.033-0.287-0.045-0.431l-0.004-0.035l-0.007-0.09l-0.003-0.043
	l-0.006-0.08l-0.013-0.243l-0.009-0.257l-0.001-0.056v-0.009l-0.002-0.193c0-6.363,5.159-11.522,11.522-11.522
	s11.522,5.159,11.522,11.522c0,6.364-5.159,11.523-11.522,11.523l-0.301-0.004h-12.367V32.385z M92.301,37.431v0.002h0.068h0.067
	v-0.002l0.208-0.006c2.054-0.053,3.922-0.889,5.315-2.218c1.46,1.381,3.428,2.226,5.597,2.226v-5.049
	c-0.861,0-1.636-0.345-2.195-0.909c-0.563-0.558-0.911-1.335-0.911-2.193v-9.655v-5.239h-5.044v5.239h-0.001v0.619v1.28v3.238v4.518
	c0,0.858-0.35,1.636-0.908,2.193c-0.549,0.55-1.299,0.891-2.128,0.908c-0.83-0.018-1.579-0.358-2.129-0.908
	c-0.558-0.558-0.908-1.335-0.908-2.193v-4.518v-3.238v-1.28v-0.812h3.077c0.487-1.76,1.079-3.442,1.77-5.046h-4.847
	c-1.119-1.582-2.961-2.613-5.045-2.613v2.613v4.277v0.769v0.812v1.286v2.606v0.625v4.518c0,0.858-0.348,1.636-0.91,2.193
	c-0.561,0.564-1.335,0.909-2.196,0.909v5.049c2.186,0,4.165-0.856,5.628-2.255C88.242,36.547,90.174,37.396,92.301,37.431z
	 M97.928,7.317c1.61,0,2.915,1.305,2.915,2.915s-1.305,2.914-2.915,2.914c-1.609,0-2.914-1.304-2.914-2.914
	S96.318,7.317,97.928,7.317z M80.484,20.533l-0.007-6.145c-1.912,0.003-3.625,0.876-4.758,2.251l-0.09-0.065l-0.09-0.065h-0.001
	l-0.092-0.064l-0.092-0.063l-0.092-0.063l-0.094-0.062l-0.094-0.06l-0.046-0.03l-0.048-0.03l-0.096-0.059l-0.03-0.019l-0.066-0.039
	l-0.096-0.057l-0.014-0.008l-0.083-0.049l-0.094-0.054L74.5,15.851l-0.098-0.055l-0.079-0.042l-0.02-0.011l-0.1-0.053l-0.063-0.032
	l-0.037-0.019l-0.1-0.051l-0.046-0.023l-0.055-0.026l-0.102-0.049l-0.029-0.014l-0.073-0.033l-0.102-0.047l-0.013-0.005l-0.067-0.03
	l-0.023-0.011l-0.045-0.019l-0.059-0.025l-0.009-0.003l-0.068-0.029l-0.027-0.011l-0.041-0.018l-0.064-0.025l-0.005-0.002
	l-0.069-0.027l-0.031-0.013l-0.038-0.014l-0.067-0.026h-0.001L72.9,15.109l-0.036-0.014l-0.034-0.012l-0.07-0.025l-0.003-0.001
	l-0.067-0.023l-0.04-0.014l-0.03-0.01l-0.07-0.024l-0.007-0.002l-0.064-0.021l-0.044-0.015l-0.027-0.009l-0.071-0.022l-0.011-0.004
	l-0.06-0.019l-0.049-0.015l-0.023-0.007l-0.072-0.021l-0.015-0.005L72.05,14.83l-0.053-0.016l-0.019-0.005l-0.073-0.02l-0.019-0.005
	l-0.053-0.014l-0.058-0.016l-0.015-0.003l-0.074-0.019l-0.023-0.006l-0.049-0.011L71.553,14.7l-0.011-0.003l-0.074-0.017
	l-0.027-0.006l-0.045-0.01l-0.067-0.015l-0.007-0.001l-0.074-0.015l-0.032-0.007l-0.042-0.008l-0.072-0.015h-0.002l-0.075-0.015
	l-0.037-0.006l-0.038-0.007l-0.075-0.013l-0.001-0.001L70.8,14.547l-0.041-0.006l-0.034-0.006l-0.076-0.011l-0.005-0.001
	l-0.07-0.011l-0.045-0.006l-0.03-0.004l-0.076-0.01l-0.01-0.001l-0.065-0.008l-0.05-0.007l-0.026-0.003l-0.076-0.009L70.18,14.46
	l-0.062-0.006l-0.054-0.006l-0.022-0.002l-0.077-0.008l-0.018-0.001l-0.058-0.005l-0.06-0.005l-0.018,0l-0.077-0.006l-0.023-0.002
	l-0.054-0.003l-0.064-0.004l-0.013-0.001l-0.077-0.004l-0.027-0.001l-0.05-0.003l-0.069-0.003h-0.009l-0.078-0.003l-0.032-0.001
	l-0.045-0.001l-0.074-0.001h-0.004l-0.078-0.001l-0.037,0l-0.042,0h-0.079l-0.297,0.003l-0.292,0.011h-0.004l0,0l-0.005,0.001
	l-0.282,0.017l-0.006,0h0l-0.145,0.013L67.7,14.447l-0.29,0.033l-0.144,0.02l-0.144,0.021h0l-0.015,0.002l-0.253,0.042l-0.016,0.003
	h-0.001l-0.016,0.003l-0.25,0.048l-0.016,0.003h0l-0.14,0.03l-0.14,0.031h-0.001l-0.138,0.033l-0.138,0.035h-0.001l-0.038,0.01
	l-0.213,0.058l-0.023,0.007h0l-0.019,0.005l-0.22,0.065l-0.033,0.01h-0.001l-0.047,0.016l-0.221,0.071l-0.001,0l-0.219,0.077
	l-0.046,0.017h-0.001l-0.041,0.015l-0.179,0.068l-0.042,0.016h-0.001l-0.055,0.022l-0.205,0.084l0,0l-0.21,0.091l-0.046,0.021
	h-0.001l-0.126,0.059l-0.126,0.06h-0.001l-0.125,0.062l-0.125,0.063h0l-0.123,0.064l-0.123,0.066h-0.001l-0.032,0.018l-0.177,0.099
	l-0.033,0.019h0l-0.033,0.02l-0.172,0.102l-0.033,0.02h-0.001l-0.118,0.074l-0.027,0.017l-0.168,0.108l-0.155,0.102l-0.228,0.158
	l-0.113,0.082l-0.111,0.082v0l-0.11,0.083l-0.109,0.085v0l-0.109,0.086l-0.014,0.011l-0.171,0.142l-0.028,0.023l-0.104,0.089
	l-0.001,0.001l-0.104,0.091l-0.103,0.092l0,0.001l-0.102,0.093l-0.101,0.094l0,0.001l-0.1,0.097l-0.097,0.095l-0.001,0.002
	l-0.026,0.026l-0.026,0.026l-0.026,0.027l-0.025,0.026l-0.026,0.026l-0.052,0.053l-0.01,0.011l-0.016,0.016l-0.173,0.187
	l-0.003,0.003l-0.173,0.194l-0.008,0.009l-0.16,0.188l-0.018,0.023l-0.005,0.006l-0.14,0.173l-0.023,0.029l-0.005,0.007
	l-0.153,0.199l-0.015,0.021l-0.007,0.009l-0.153,0.21l-0.003,0.004l-0.145,0.209l-0.013,0.019l-0.008,0.012l-0.083,0.124v0.002
	c-1.186,1.812-1.877,3.978-1.877,6.304c0,9.621,10.684,14.509,17.999,9.532v2.001h5.126v-0.629l0.005,0.002V20.533z M13.093,32.385
	h10.579v5.044H13.093v0.004c-6.364,0-11.522-5.159-11.522-11.523c0-6.363,5.159-11.522,11.522-11.522
	c4.152,0,7.79,2.195,9.818,5.489L18.61,22.52c-1.139-1.851-3.184-3.085-5.517-3.085c-3.576,0-6.475,2.899-6.475,6.475
	C6.618,29.486,9.517,32.385,13.093,32.385z"/>
</svg>
