<?xml version="1.0" encoding="utf-8"?>
<!-- Generator: Adobe Illustrator 16.0.3, SVG Export Plug-In . SVG Version: 6.00 Build 0)  -->
<!DOCTYPE svg PUBLIC "-//W3C//DTD SVG 1.1//EN" "http://www.w3.org/Graphics/SVG/1.1/DTD/svg11.dtd">
<svg version="1.1" id="Layer_1" xmlns="http://www.w3.org/2000/svg" xmlns:xlink="http://www.w3.org/1999/xlink" x="0px" y="0px"
	 width="152px" height="49.967px" viewBox="0 0 152 49.967" enable-background="new 0 0 152 49.967" xml:space="preserve">
<path fill-rule="evenodd" clip-rule="evenodd" fill="#12B1C1" d="M47.696,16.335L47.696,16.335l-8.546,8.546
	c-0.795-1.092-1.265-2.437-1.265-3.89c0-3.653,2.961-6.614,6.613-6.614c1.454,0,2.798,0.47,3.891,1.266L47.696,16.335z
	 M56.266,25.322v7.438h-7.437L56.266,25.322z M43.758,27.563l0.433-0.434l11.02-11.019l-0.07-0.15l-0.019-0.04l-0.017-0.035
	l-0.073-0.148l-0.002-0.005l-0.001-0.003l-0.071-0.14l-0.022-0.043l-0.016-0.03l-0.078-0.145l-0.005-0.01l-0.004-0.006l-0.097-0.174
	l-0.001-0.001l-0.014-0.024l-0.041-0.071l-0.042-0.071l-0.008-0.013l-0.035-0.058l-0.071-0.117l-0.002-0.003l-0.012-0.02
	l-0.087-0.139l-0.011-0.017l-0.034-0.052l-0.07-0.107l-0.01-0.015l-0.01-0.015c-0.068-0.103-0.139-0.204-0.21-0.305l-0.015-0.021
	l-0.008-0.01l-0.048-0.066l-0.048-0.066l-0.018-0.025l-0.031-0.041l-0.05-0.065l-0.044-0.059l-0.005-0.006l-0.001-0.001l-0.1-0.127
	l-0.022-0.028l-0.029-0.036l-0.097-0.119l-0.005-0.006l-0.002-0.002l-0.002-0.002l-0.104-0.122l-0.026-0.031l-0.027-0.031
	l-0.054-0.062l-0.054-0.061l-0.001-0.001l-0.106-0.118l-0.055-0.06l-0.002-0.002l-0.056-0.06l-0.056-0.06l-0.005-0.005l-0.009-0.009
	l-0.1-0.103l-0.035-0.036L52.86,12.71l-0.13-0.129l-0.006-0.005l-0.009-0.009l-0.05-0.049l-0.059-0.056l-0.041-0.038l-0.019-0.019
	l-0.06-0.055l-0.06-0.055l-0.013-0.012l-0.047-0.043l-0.061-0.054l-0.045-0.041l-0.016-0.014l-0.116-0.1l-0.007-0.006l-0.017-0.015
	l-0.045-0.038c-2.045-1.716-4.682-2.75-7.561-2.75c-6.5,0-11.769,5.269-11.769,11.769c0,2.878,1.034,5.515,2.751,7.56l0.052,0.063
	l0.107,0.124l0.054,0.062l0.054,0.061l0.11,0.121l0.055,0.06l0.113,0.118l0.057,0.059l0.058,0.059l0.116,0.115l0.058,0.057
	l0.006,0.006l0.112,0.107l0.06,0.056l0.06,0.056l0.061,0.055l0.061,0.055l0.061,0.054l0.009,0.009l0.114,0.099l0.062,0.053
	l0.063,0.053l0.063,0.052l0.063,0.052l0.064,0.051l0.128,0.102l0.065,0.049l0.065,0.05l0.065,0.049l0.066,0.049l0.066,0.048
	l0.134,0.095l0.067,0.047l0.014,0.01l0.122,0.082l0.068,0.046l0.069,0.044l0.138,0.089l0.07,0.044
	c1.797,1.113,3.916,1.756,6.186,1.756L43.758,27.563z"/>
<path fill-rule="evenodd" clip-rule="evenodd" fill="#794F9D" d="M28.438,27.538v-7.941c0-1.368,0.533-2.679,1.454-3.625
	c0.819-0.84,1.978-1.381,3.378-1.381c0.172,0,0.338,0.007,0.499,0.021c0.995-1.669,2.367-3.086,4-4.134
	c-1.288-0.668-2.794-1.04-4.499-1.04c-2.102,0-3.966,0.617-5.503,1.649c-1.144-1.15-2.729-1.865-4.481-1.865
	c0,7.846,0,15.692,0,23.538C26.808,32.76,28.438,30.499,28.438,27.538 M68.747,14.377c2.682,0,4.992,1.596,6.029,3.891v0.001
	c0.044,0.097,0.086,0.196,0.125,0.295v0.001c0.04,0.1,0.077,0.201,0.111,0.303v0.001c0.035,0.102,0.067,0.205,0.096,0.309v0.001
	c0.163,0.575,0.251,1.183,0.251,1.811l-0.002,0.17l0,0.001l-0.005,0.169l-0.001,0l-0.01,0.168l0,0l-0.014,0.167l-0.001,0
	l-0.018,0.166h0l-0.022,0.165h-0.001l-0.026,0.164h-0.001c-0.02,0.109-0.04,0.216-0.065,0.323h0
	c-0.025,0.106-0.052,0.212-0.082,0.317c-0.029,0.104-0.062,0.208-0.096,0.31v0l-0.054,0.153h0l-0.057,0.151l-0.061,0.148v0.001
	l-0.064,0.147l-0.068,0.146l-0.071,0.144l-0.075,0.142l-0.039,0.07l-0.039,0.069h0l-0.04,0.069l-0.041,0.068l-0.042,0.068
	l-0.042,0.067l0,0l-0.043,0.066l-0.044,0.066l-0.045,0.066l-0.046,0.065h0l-0.046,0.064l-0.047,0.064l0,0l-0.048,0.063l-0.048,0.063
	h0l-0.05,0.062l-0.049,0.062h-0.001l-0.051,0.061l-0.156,0.179h0c-0.072,0.079-0.145,0.155-0.22,0.23
	c-0.055,0.055-0.111,0.11-0.168,0.163l-0.003,0.003l-0.057,0.053l-0.001,0l-0.059,0.053l-0.059,0.052l-0.001,0.001l-0.06,0.052
	l-0.061,0.05l-0.001,0.001l-0.061,0.05l-0.061,0.049l-0.001,0.002c-4.229,3.324-10.696,0.426-10.696-5.205
	C62.133,17.338,65.094,14.377,68.747,14.377z M110.032,27.538v-7.941c0-1.368,0.532-2.679,1.453-3.625
	c0.819-0.84,1.978-1.381,3.378-1.381c1.389,0,2.444,0.457,3.134,1.211c0.808,0.878,1.226,2.214,1.226,3.794
	c0,2.829-0.001,5.657-0.003,8.486c-0.001,3.79,2.925,4.677,5.151,4.677V27.65v-1.266v-7.239c-0.089-2.667-0.979-5.05-2.589-6.807
	c-1.657-1.811-3.997-2.901-6.919-2.901c-2.102,0-3.966,0.617-5.503,1.649c-1.144-1.15-2.729-1.865-4.48-1.865
	c0,7.846,0,15.692,0,23.538C108.401,32.76,110.032,30.499,110.032,27.538z M125.293,27.604h3.203h9.735
	c3.652,0,6.613-2.96,6.613-6.613c0-3.653-2.961-6.614-6.613-6.614s-6.613,2.961-6.613,6.614l0.004,0.238l0.001,0.011l0.004,0.103
	l0.001,0.018l0.004,0.062l0.005,0.071c0.008,0.097,0.017,0.192,0.028,0.288l0.011,0.083l0.006,0.046l0.005,0.037l0.015,0.092
	l0.006,0.037l0.036,0.201l0.005,0.022c0.02,0.101,0.042,0.201,0.067,0.3l0.007,0.03l0.028,0.104l0.017,0.059
	c0.046,0.163,0.097,0.323,0.154,0.48l0.018,0.044l0.065,0.168l0.09,0.209h-0.001c0.62,1.384,1.703,2.516,3.051,3.199h-7.196
	c-0.205-0.353-0.393-0.718-0.561-1.092l-0.109-0.253l-0.011-0.024c-0.082-0.197-0.159-0.396-0.23-0.599l-0.006-0.017
	c-0.261-0.737-0.449-1.508-0.559-2.304l-0.019-0.146c-0.019-0.146-0.034-0.293-0.047-0.44l-0.003-0.035l-0.007-0.092l-0.004-0.044
	l-0.006-0.082l-0.013-0.248l-0.009-0.263l-0.001-0.056v-0.009l-0.002-0.197c0-6.5,5.269-11.769,11.769-11.769S150,14.491,150,20.991
	c0,6.5-5.269,11.769-11.769,11.769l-0.307-0.004h-12.632V27.604z M92.672,32.758v0.002l0.068-0.001l0.069,0.001v-0.002l0.213-0.006
	c2.098-0.054,4.006-0.907,5.429-2.266c1.491,1.41,3.501,2.273,5.717,2.273v-5.157c-0.88,0-1.671-0.352-2.243-0.928
	c-0.574-0.57-0.93-1.364-0.93-2.241v-9.861V9.222h-5.152v5.351l0,0v0.633v1.307v3.307v4.615c0,0.877-0.358,1.67-0.929,2.241
	c-0.561,0.561-1.326,0.909-2.174,0.928c-0.847-0.019-1.612-0.367-2.173-0.928c-0.571-0.57-0.929-1.364-0.929-2.241v-4.615v-3.307
	v-1.307v-0.83h3.143c0.499-1.798,1.104-3.516,1.809-5.154h-4.951c-1.144-1.615-3.023-2.668-5.152-2.668v2.668v4.369v0.785v0.83
	v1.313v2.663v0.639v4.615c0,0.877-0.355,1.67-0.93,2.241c-0.572,0.576-1.364,0.928-2.243,0.928v5.157
	c2.231,0,4.254-0.875,5.748-2.304C88.525,31.855,90.499,32.723,92.672,32.758z M98.419,2c1.645,0,2.977,1.333,2.977,2.977
	s-1.332,2.977-2.977,2.977s-2.977-1.333-2.977-2.977S96.774,2,98.419,2z M80.603,15.498l-0.008-6.276
	c-1.952,0.003-3.702,0.895-4.859,2.299l-0.093-0.067l-0.092-0.066h0l-0.094-0.065l-0.094-0.065l-0.094-0.064l-0.095-0.063
	l-0.096-0.062l-0.047-0.031l-0.05-0.031l-0.098-0.06l-0.03-0.019l-0.067-0.04l-0.099-0.059l-0.014-0.008l-0.085-0.049l-0.097-0.055
	l-0.003-0.001l-0.1-0.057l-0.081-0.043l-0.02-0.011l-0.102-0.054l-0.064-0.033l-0.038-0.02l-0.103-0.052l-0.048-0.023l-0.055-0.027
	l-0.104-0.05l-0.03-0.015l-0.074-0.034l-0.104-0.048l-0.013-0.006l-0.069-0.03l-0.024-0.011l-0.046-0.02l-0.06-0.026l-0.009-0.003
	l-0.069-0.029l-0.028-0.012l-0.042-0.018l-0.065-0.026l-0.005-0.002l-0.07-0.028l-0.032-0.013l-0.039-0.015l-0.069-0.027h-0.001
	l-0.071-0.027l-0.037-0.014l-0.035-0.012l-0.071-0.026l-0.003-0.002l-0.068-0.023L72.6,9.867l-0.031-0.01l-0.072-0.025L72.49,9.83
	l-0.065-0.021L72.38,9.793l-0.027-0.009L72.28,9.761l-0.012-0.004l-0.062-0.019l-0.05-0.016l-0.023-0.006l-0.074-0.022L72.045,9.69
	l-0.058-0.017l-0.054-0.016l-0.02-0.005L71.84,9.632l-0.02-0.006l-0.054-0.014l-0.059-0.016l-0.015-0.003l-0.075-0.019l-0.024-0.006
	l-0.05-0.012l-0.063-0.016l-0.011-0.002L71.393,9.52l-0.028-0.006l-0.047-0.01L71.25,9.488l-0.007-0.001l-0.076-0.016l-0.033-0.007
	l-0.042-0.009L71.019,9.44h-0.003l-0.076-0.015l-0.037-0.006l-0.039-0.008l-0.077-0.013l-0.001-0.001L70.71,9.385l-0.042-0.007
	l-0.035-0.006L70.557,9.36l-0.006-0.001L70.48,9.348l-0.046-0.007l-0.031-0.004l-0.078-0.011l-0.01-0.002l-0.067-0.008L70.196,9.31
	L70.17,9.307l-0.078-0.009l-0.015-0.002l-0.063-0.007l-0.056-0.006l-0.022-0.001l-0.079-0.008l-0.019-0.001L69.78,9.266
	l-0.061-0.005L69.701,9.26l-0.079-0.006l-0.023-0.002l-0.056-0.003l-0.065-0.004l-0.014-0.001l-0.079-0.004l-0.028-0.001
	l-0.051-0.003l-0.071-0.003h-0.009l-0.08-0.002l-0.033-0.001l-0.047-0.001l-0.075-0.002h-0.004l-0.08-0.001L68.87,9.222l-0.042,0
	h-0.081l-0.304,0.003l-0.298,0.012h-0.004h0l-0.005,0l-0.288,0.018l-0.006,0.001h-0.001l-0.148,0.013l-0.149,0.014l-0.295,0.034
	l-0.147,0.02l-0.146,0.021h0L66.939,9.36L66.68,9.402l-0.016,0.003h0l-0.016,0.003l-0.256,0.049l-0.016,0.003h-0.001l-0.143,0.03
	L66.09,9.522h-0.001l-0.141,0.034l-0.141,0.036h-0.001l-0.039,0.01l-0.218,0.059l-0.023,0.006h-0.001l-0.019,0.005l-0.224,0.067
	l-0.034,0.01h-0.001l-0.048,0.016l-0.226,0.073L64.972,9.84l-0.224,0.078l-0.047,0.018H64.7l-0.042,0.016l-0.183,0.07l-0.043,0.016
	h-0.001l-0.056,0.023l-0.209,0.085l0,0l-0.214,0.093l-0.047,0.021h-0.001l-0.128,0.06l-0.129,0.062h-0.001l-0.127,0.063
	l-0.127,0.064h-0.001l-0.125,0.065l-0.125,0.067h-0.001l-0.033,0.019l-0.181,0.101l-0.034,0.019h0l-0.034,0.021l-0.176,0.103
	l-0.034,0.021h0L62.524,11l-0.028,0.018l-0.171,0.11l-0.158,0.104l-0.233,0.161l-0.115,0.083l-0.113,0.084v0l-0.113,0.084
	l-0.112,0.087v0l-0.11,0.088l-0.015,0.012l-0.176,0.145L61.152,12l-0.106,0.091l-0.001,0.001l-0.106,0.093l-0.104,0.094l0,0.001
	l-0.104,0.096l-0.102,0.096l0,0.001l-0.102,0.099l-0.1,0.097l-0.001,0.002l-0.027,0.027l-0.027,0.026l-0.027,0.028l-0.026,0.027
	l-0.026,0.027l-0.053,0.054l-0.011,0.011l-0.016,0.016l-0.176,0.19l-0.004,0.004l-0.176,0.198l-0.008,0.01l-0.164,0.192
	l-0.019,0.023L59.66,13.51l-0.142,0.177l-0.024,0.03l-0.005,0.007l-0.156,0.203l-0.016,0.021l-0.007,0.009l-0.156,0.214
	l-0.002,0.005l-0.149,0.214l-0.013,0.019l-0.008,0.013l-0.085,0.126v0.002c-1.211,1.85-1.917,4.063-1.917,6.439
	c0,9.826,10.913,14.82,18.383,9.735v2.044h5.237v-0.642l0.004,0.001L80.603,15.498L80.603,15.498z M11.769,27.604h10.806v5.152
	H11.769v0.004C5.27,32.76,0,27.49,0,20.991c0-6.5,5.27-11.769,11.769-11.769c4.241,0,7.957,2.243,10.028,5.607l-4.393,2.699
	c-1.164-1.891-3.252-3.151-5.635-3.151c-3.653,0-6.613,2.961-6.613,6.614C5.156,24.643,8.116,27.604,11.769,27.604z"/>
<path fill="#FFFFFF" d="M150,47.709c0,1.505-0.957,2.258-2.87,2.258c-0.769,0-1.45-0.1-2.045-0.296v-0.893
	c0.606,0.198,1.292,0.298,2.057,0.298c1.173,0,1.759-0.456,1.759-1.367V47.41c-0.466,0.199-0.97,0.299-1.509,0.299
	c-1.975,0-2.96-1.054-2.96-3.157c0-2.055,1.041-3.084,3.12-3.084c0.844,0,1.659,0.086,2.448,0.256V47.709z M148.9,42.525
	c-0.375-0.096-0.842-0.143-1.396-0.143c-1.329,0-1.992,0.719-1.992,2.157c0,1.479,0.629,2.217,1.885,2.217
	c0.57,0,1.071-0.107,1.503-0.32V42.525z M137.568,47.709v-6.241h0.742l0.194,0.796c0.64-0.529,1.342-0.796,2.106-0.796
	c1.556,0,2.335,0.775,2.335,2.323v3.918h-1.1v-3.937c0-0.927-0.463-1.39-1.386-1.39c-0.629,0-1.228,0.264-1.796,0.792v4.534H137.568
	z M135.665,39.208v1.041h-1.1v-1.041H135.665z M135.665,41.468v6.241h-1.1v-6.241H135.665z M130.435,40.458h0.688l0.239,1.01h1.688
	v0.892h-1.518v3.584c0,0.582,0.254,0.873,0.757,0.873h0.761v0.893h-1.047c-1.047,0-1.568-0.561-1.568-1.682V40.458z M123.272,47.709
	v-6.241h0.743l0.194,0.796c0.639-0.529,1.342-0.796,2.106-0.796c1.556,0,2.335,0.775,2.335,2.323v3.918h-1.1v-3.937
	c0-0.927-0.463-1.39-1.386-1.39c-0.629,0-1.228,0.264-1.796,0.792v4.534H123.272z M121.369,39.208v1.041h-1.1v-1.041H121.369z
	 M121.369,41.468v6.241h-1.1v-6.241H121.369z M116.14,47.709v-6.241h0.742l0.195,0.796c0.547-0.529,1.205-0.796,1.974-0.796v0.915
	c-0.744,0-1.35,0.264-1.813,0.792v4.534H116.14z M109.083,41.724c0.828-0.17,1.685-0.256,2.566-0.256
	c2.001,0,3.003,0.988,3.003,2.967c0,2.183-1.006,3.274-3.021,3.274c-0.5,0-0.982-0.1-1.451-0.299v2.557h-1.098V41.724z
	 M110.181,46.437c0.433,0.213,0.915,0.32,1.444,0.32c1.297,0,1.944-0.778,1.944-2.335c0-1.359-0.644-2.039-1.932-2.039
	c-0.554,0-1.039,0.047-1.457,0.143V46.437z M100.862,43.846c-1.019,0-1.527,0.497-1.527,1.491c0,0.986,0.597,1.479,1.789,1.479
	c1.355,0,2.033-0.676,2.033-2.031v-0.939H100.862z M98.235,41.497c0-1.526,1.01-2.289,3.031-2.289c0.732,0,1.446,0.1,2.14,0.299
	v0.891c-0.693-0.197-1.381-0.297-2.063-0.297c-1.34,0-2.009,0.457-2.009,1.367c0,0.99,0.505,1.485,1.516,1.485h2.307v-0.844h0.373
	l0.606,0.844h1.082v0.893h-0.962v0.949c0,1.954-1.026,2.932-3.08,2.932c-1.962,0-2.941-0.787-2.941-2.359
	c0-0.979,0.382-1.639,1.146-1.979C98.617,43.051,98.235,42.422,98.235,41.497z M88.399,47.709v-6.241h0.743l0.194,0.796
	c0.639-0.529,1.341-0.796,2.105-0.796c1.557,0,2.336,0.775,2.336,2.323v3.918h-1.1v-3.937c0-0.927-0.463-1.39-1.386-1.39
	c-0.629,0-1.228,0.264-1.796,0.792v4.534H88.399z M86.496,39.208v1.041h-1.1v-1.041H86.496z M86.496,41.468v6.241h-1.1v-6.241
	H86.496z M80.767,44.795c-0.955,0-1.432,0.337-1.432,1.011s0.377,1.011,1.13,1.011c0.761,0,1.404-0.201,1.932-0.604v-1.297
	C81.853,44.836,81.311,44.795,80.767,44.795z M78.235,45.824c0-1.28,0.844-1.92,2.531-1.92c0.544,0,1.086,0.041,1.63,0.12v-0.588
	c0-0.719-0.563-1.077-1.683-1.077c-0.643,0-1.3,0.099-1.974,0.298v-0.893c0.674-0.197,1.331-0.297,1.974-0.297
	c1.854,0,2.782,0.646,2.782,1.938v4.304h-0.619l-0.38-0.619c-0.622,0.412-1.3,0.619-2.032,0.619
	C78.978,47.709,78.235,47.08,78.235,45.824z M72.232,47.41v-0.949c0.732,0.237,1.475,0.355,2.224,0.355
	c0.994,0,1.491-0.297,1.491-0.891c0-0.554-0.347-0.832-1.039-0.832h-0.893c-1.348,0-2.021-0.615-2.021-1.842
	c0-1.189,0.866-1.784,2.597-1.784c0.745,0,1.485,0.1,2.217,0.297v0.951c-0.732-0.237-1.473-0.356-2.217-0.356
	c-1.037,0-1.556,0.298-1.556,0.893c0,0.554,0.326,0.831,0.98,0.831h0.893c1.426,0,2.138,0.615,2.138,1.843
	c0,1.188-0.864,1.783-2.59,1.783C73.707,47.709,72.964,47.609,72.232,47.41z M66.377,43.988h3.376
	c-0.024-1.094-0.558-1.642-1.605-1.642C67.038,42.347,66.448,42.895,66.377,43.988z M68.148,41.468c1.775,0,2.664,0.877,2.664,2.634
	c0,0.25-0.019,0.518-0.055,0.802h-4.38c0,1.275,0.745,1.913,2.236,1.913c0.708,0,1.339-0.079,1.889-0.238v0.894
	c-0.55,0.158-1.219,0.237-2.008,0.237c-2.145,0-3.216-1.063-3.216-3.191C65.277,42.484,66.235,41.468,68.148,41.468z M63.792,47.333
	c-0.757,0.25-1.69,0.376-2.8,0.376c-1.858,0-2.788-1.082-2.788-3.246c0-1.997,0.986-2.995,2.96-2.995c0.54,0,1.049,0.1,1.528,0.297
	v-2.557h1.1V47.333z M62.693,42.74c-0.444-0.215-0.952-0.32-1.522-0.32c-1.255,0-1.885,0.667-1.885,2.002
	c0,1.581,0.629,2.372,1.885,2.372c0.57,0,1.078-0.077,1.522-0.231V42.74z"/>
</svg>
