<?xml version="1.0" encoding="utf-8"?>
<!-- Generator: Adobe Illustrator 16.0.3, SVG Export Plug-In . SVG Version: 6.00 Build 0)  -->
<!DOCTYPE svg PUBLIC "-//W3C//DTD SVG 1.1//EN" "http://www.w3.org/Graphics/SVG/1.1/DTD/svg11.dtd">
<svg version="1.1" id="Layer_1" xmlns="http://www.w3.org/2000/svg" xmlns:xlink="http://www.w3.org/1999/xlink" x="0px" y="0px"
	 width="152px" height="32.77px" viewBox="0 0 152 32.77" enable-background="new 0 0 152 32.77" xml:space="preserve">
<polygon fill-rule="evenodd" clip-rule="evenodd" fill="#FF503B" points="56.266,25.322 56.266,32.76 48.829,32.76 "/>
<path fill-rule="evenodd" clip-rule="evenodd" fill="#FF503B" d="M47.696,16.335L47.696,16.335l-8.546,8.545
	c-0.795-1.092-1.265-2.437-1.265-3.89c0-3.653,2.961-6.614,6.613-6.614c1.454,0,2.798,0.47,3.891,1.265L47.696,16.335z
	 M43.758,27.563l0.433-0.434l11.02-11.019l-0.07-0.15l-0.019-0.04l-0.017-0.035l-0.073-0.148l-0.002-0.004l-0.001-0.003l-0.071-0.14
	l-0.022-0.043l-0.016-0.03l-0.078-0.145l-0.005-0.009l-0.004-0.007l-0.097-0.174l-0.001,0l-0.014-0.025l-0.041-0.071l-0.042-0.071
	l-0.008-0.013l-0.035-0.058l-0.071-0.117l-0.002-0.003l-0.012-0.02l-0.087-0.139l-0.011-0.017l-0.034-0.052l-0.07-0.107l-0.01-0.015
	l-0.01-0.015c-0.068-0.103-0.139-0.204-0.21-0.305l-0.015-0.021l-0.008-0.01l-0.048-0.066l-0.048-0.066l-0.018-0.024l-0.031-0.041
	l-0.05-0.065l-0.044-0.059l-0.005-0.006l-0.001-0.001l-0.1-0.127l-0.022-0.028l-0.029-0.036l-0.097-0.118l-0.005-0.006l-0.002-0.002
	l-0.002-0.003l-0.104-0.122l-0.026-0.031l-0.027-0.031l-0.054-0.062l-0.054-0.062l-0.001-0.001l-0.106-0.118l-0.055-0.06
	l-0.002-0.002l-0.056-0.06l-0.056-0.06l-0.005-0.005l-0.009-0.009l-0.1-0.103l-0.035-0.036L52.86,12.71l-0.13-0.129l-0.006-0.005
	l-0.009-0.009l-0.05-0.048l-0.059-0.057l-0.041-0.038l-0.019-0.018l-0.06-0.055l-0.06-0.056l-0.013-0.011l-0.047-0.043l-0.061-0.054
	l-0.045-0.041l-0.016-0.013l-0.116-0.1l-0.007-0.007l-0.017-0.015l-0.045-0.038c-2.045-1.716-4.682-2.75-7.561-2.75
	c-6.5,0-11.769,5.27-11.769,11.77c0,2.878,1.034,5.515,2.751,7.561l0.052,0.062l0.107,0.124l0.054,0.062l0.054,0.061l0.11,0.121
	l0.055,0.06l0.113,0.119l0.057,0.059l0.058,0.058l0.116,0.115l0.058,0.058l0.006,0.006l0.112,0.106l0.06,0.056l0.06,0.056
	l0.061,0.055l0.061,0.055l0.061,0.054l0.009,0.009l0.114,0.099l0.062,0.053l0.063,0.053l0.063,0.052l0.063,0.052l0.064,0.051
	l0.128,0.102l0.065,0.05l0.065,0.05l0.065,0.048l0.066,0.049l0.066,0.048l0.134,0.095l0.067,0.047l0.014,0.01l0.122,0.083
	l0.068,0.045l0.069,0.045l0.138,0.088l0.07,0.044c1.797,1.113,3.916,1.756,6.186,1.756L43.758,27.563z"/>
<path fill-rule="evenodd" clip-rule="evenodd" fill="#FFFFFF" d="M28.438,27.538v-7.94c0-1.368,0.533-2.68,1.454-3.625
	c0.819-0.839,1.978-1.381,3.378-1.381c0.172,0,0.338,0.007,0.499,0.021c0.995-1.669,2.367-3.087,4-4.134
	c-1.288-0.669-2.794-1.04-4.499-1.04c-2.102,0-3.966,0.617-5.503,1.649c-1.144-1.15-2.729-1.866-4.481-1.866
	c0,7.847,0,15.692,0,23.538C26.808,32.76,28.438,30.499,28.438,27.538 M68.747,14.377c2.682,0,4.992,1.596,6.029,3.89v0.001
	c0.044,0.098,0.086,0.196,0.125,0.296v0.001c0.04,0.1,0.077,0.201,0.111,0.304v0.001c0.035,0.102,0.067,0.205,0.096,0.309v0.002
	c0.163,0.575,0.251,1.183,0.251,1.811l-0.002,0.17l0,0.001l-0.005,0.169h-0.001l-0.01,0.168l0,0.001l-0.014,0.167h-0.001
	l-0.018,0.166h0l-0.022,0.165h-0.001l-0.026,0.163h-0.001c-0.02,0.109-0.04,0.216-0.065,0.323h0
	c-0.025,0.106-0.052,0.213-0.082,0.317c-0.029,0.104-0.062,0.208-0.096,0.31v0.001l-0.054,0.152h0l-0.057,0.151l-0.061,0.148v0.001
	l-0.064,0.147l-0.068,0.146l-0.071,0.144l-0.075,0.142l-0.039,0.069l-0.039,0.069h0l-0.04,0.069l-0.041,0.068l-0.042,0.068
	l-0.042,0.067l0,0l-0.043,0.066l-0.044,0.066l-0.045,0.065l-0.046,0.065h0l-0.046,0.064l-0.047,0.063l0,0.001l-0.048,0.063
	l-0.048,0.063h0l-0.05,0.062l-0.049,0.062h-0.001l-0.051,0.061l-0.156,0.18h0c-0.072,0.078-0.145,0.154-0.22,0.229
	c-0.055,0.056-0.111,0.11-0.168,0.163l-0.003,0.003l-0.057,0.053l-0.001,0.001l-0.059,0.053l-0.059,0.052l-0.001,0.001l-0.06,0.052
	l-0.061,0.05l-0.001,0.002l-0.061,0.049l-0.061,0.049l-0.001,0.002c-4.229,3.324-10.696,0.426-10.696-5.204
	C62.133,17.338,65.094,14.377,68.747,14.377z M110.032,27.538v-7.94c0-1.368,0.532-2.68,1.453-3.625
	c0.819-0.839,1.978-1.381,3.378-1.381c1.389,0,2.444,0.457,3.134,1.212c0.808,0.878,1.226,2.213,1.226,3.794
	c0,2.828-0.001,5.657-0.003,8.485c-0.001,3.79,2.925,4.677,5.151,4.677V27.65v-1.265v-7.24c-0.089-2.667-0.979-5.05-2.589-6.806
	c-1.657-1.811-3.997-2.901-6.919-2.901c-2.102,0-3.966,0.617-5.503,1.649c-1.144-1.15-2.729-1.866-4.48-1.866
	c0,7.847,0,15.692,0,23.538C108.401,32.76,110.032,30.499,110.032,27.538z M125.293,27.604h3.203h9.735
	c3.652,0,6.613-2.96,6.613-6.612c0-3.653-2.961-6.614-6.613-6.614s-6.613,2.96-6.613,6.614l0.004,0.238l0.001,0.011l0.004,0.103
	l0.001,0.019l0.004,0.062l0.005,0.071c0.008,0.097,0.017,0.192,0.028,0.288l0.011,0.082l0.006,0.046l0.005,0.037l0.015,0.092
	l0.006,0.037l0.036,0.2l0.005,0.022c0.02,0.102,0.042,0.201,0.067,0.3l0.007,0.03l0.028,0.104l0.017,0.06
	c0.046,0.163,0.097,0.322,0.154,0.48l0.018,0.044l0.065,0.168l0.09,0.209h-0.001c0.62,1.385,1.703,2.516,3.051,3.199h-7.196
	c-0.205-0.353-0.393-0.717-0.561-1.092l-0.109-0.253l-0.011-0.024c-0.082-0.197-0.159-0.396-0.23-0.599l-0.006-0.018
	c-0.261-0.736-0.449-1.508-0.559-2.304l-0.019-0.146c-0.019-0.146-0.034-0.293-0.047-0.44l-0.003-0.035l-0.007-0.092l-0.004-0.044
	l-0.006-0.082l-0.013-0.248l-0.009-0.263l-0.001-0.056v-0.01l-0.002-0.196c0-6.5,5.269-11.77,11.769-11.77S150,14.491,150,20.991
	c0,6.499-5.269,11.769-11.769,11.769l-0.307-0.004h-12.632V27.604z M92.672,32.759L92.672,32.759l0.068,0.001h0.069v-0.001
	l0.213-0.007c2.098-0.054,4.006-0.907,5.429-2.266c1.491,1.411,3.501,2.273,5.717,2.273v-5.156c-0.88,0-1.671-0.353-2.243-0.929
	c-0.574-0.57-0.93-1.364-0.93-2.24v-9.861V9.222h-5.152v5.352l0,0v0.633v1.306v3.307v4.615c0,0.876-0.358,1.67-0.929,2.24
	c-0.561,0.561-1.326,0.909-2.174,0.928c-0.847-0.019-1.612-0.367-2.173-0.928c-0.571-0.57-0.929-1.364-0.929-2.24v-4.615v-3.307
	v-1.306v-0.83h3.143c0.499-1.798,1.104-3.516,1.809-5.154h-4.951c-1.144-1.615-3.023-2.668-5.152-2.668v2.668v4.369v0.785v0.83
	v1.312v2.663v0.639v4.615c0,0.876-0.355,1.67-0.93,2.24c-0.572,0.576-1.364,0.929-2.243,0.929v5.156
	c2.231,0,4.254-0.875,5.748-2.304C88.525,31.855,90.499,32.723,92.672,32.759z M98.419,2c1.645,0,2.977,1.333,2.977,2.977
	s-1.332,2.977-2.977,2.977s-2.977-1.333-2.977-2.977S96.774,2,98.419,2z M80.603,15.499l-0.008-6.277
	c-1.952,0.004-3.702,0.896-4.859,2.299l-0.093-0.067l-0.092-0.066h0l-0.094-0.065l-0.094-0.064l-0.094-0.064l-0.095-0.063
	l-0.096-0.061l-0.047-0.031l-0.05-0.031l-0.098-0.06l-0.03-0.019l-0.067-0.041l-0.099-0.058l-0.014-0.008l-0.085-0.049l-0.097-0.055
	l-0.003-0.001l-0.1-0.056l-0.081-0.043l-0.02-0.011l-0.102-0.054l-0.064-0.033L74.085,10.5l-0.103-0.052l-0.048-0.023l-0.055-0.027
	l-0.104-0.05l-0.03-0.015l-0.074-0.034l-0.104-0.048l-0.013-0.005l-0.069-0.03l-0.024-0.011l-0.046-0.02l-0.06-0.026l-0.009-0.003
	l-0.069-0.029l-0.028-0.012l-0.042-0.018l-0.065-0.026l-0.005-0.002l-0.07-0.028l-0.032-0.013l-0.039-0.015l-0.069-0.026h-0.001
	l-0.071-0.027l-0.037-0.014l-0.035-0.012l-0.071-0.026l-0.003-0.001l-0.068-0.023L72.6,9.867l-0.031-0.01l-0.072-0.025L72.49,9.83
	l-0.065-0.021L72.38,9.793l-0.027-0.009L72.28,9.762l-0.012-0.004l-0.062-0.019l-0.05-0.015l-0.023-0.007l-0.074-0.022L72.045,9.69
	l-0.058-0.016l-0.054-0.016l-0.02-0.005L71.84,9.632l-0.02-0.005l-0.054-0.014l-0.059-0.016l-0.015-0.003l-0.075-0.02l-0.024-0.006
	l-0.05-0.012l-0.063-0.016l-0.011-0.002l-0.076-0.018l-0.028-0.007l-0.047-0.01L71.25,9.488l-0.007,0l-0.076-0.016l-0.033-0.007
	l-0.042-0.008L71.019,9.44h-0.003l-0.076-0.015l-0.037-0.006l-0.039-0.007l-0.077-0.013l-0.001,0L70.71,9.385l-0.042-0.007
	l-0.035-0.005l-0.077-0.012l-0.006-0.001L70.48,9.348l-0.046-0.007l-0.031-0.004l-0.078-0.01l-0.01-0.002l-0.067-0.008L70.196,9.31
	L70.17,9.307l-0.078-0.009l-0.015-0.002L70.014,9.29l-0.056-0.006l-0.022-0.001l-0.079-0.008l-0.019-0.001L69.78,9.266l-0.061-0.005
	L69.701,9.26l-0.079-0.006l-0.023-0.002l-0.056-0.003l-0.065-0.004l-0.014-0.001l-0.079-0.004l-0.028-0.001l-0.051-0.003
	l-0.071-0.003h-0.009l-0.08-0.003l-0.033-0.001l-0.047-0.001l-0.075-0.001h-0.004l-0.08-0.001l-0.038,0l-0.042-0.001h-0.081
	l-0.304,0.004l-0.298,0.012h-0.004h0l-0.005,0l-0.288,0.018l-0.006,0.001h-0.001l-0.148,0.012l-0.149,0.014l-0.295,0.033
	l-0.147,0.02l-0.146,0.021h0L66.939,9.36L66.68,9.403l-0.016,0.003h0l-0.016,0.003l-0.256,0.049l-0.016,0.003h-0.001l-0.143,0.03
	L66.09,9.523h-0.001l-0.141,0.034l-0.141,0.035h-0.001l-0.039,0.01l-0.218,0.059l-0.023,0.007h-0.001l-0.019,0.005l-0.224,0.067
	l-0.034,0.01h-0.001l-0.048,0.016L64.973,9.84l-0.001,0.001l-0.224,0.078l-0.047,0.017H64.7l-0.042,0.016l-0.183,0.07l-0.043,0.017
	h-0.001l-0.056,0.023l-0.209,0.085l0,0l-0.214,0.094l-0.047,0.021h-0.001l-0.128,0.06l-0.129,0.061h-0.001l-0.127,0.063L63.39,10.51
	h-0.001l-0.125,0.065l-0.125,0.067h-0.001l-0.033,0.019l-0.181,0.101l-0.034,0.02h0l-0.034,0.02l-0.176,0.104l-0.034,0.021h0
	L62.524,11l-0.028,0.018l-0.171,0.11l-0.158,0.104l-0.233,0.161l-0.115,0.083l-0.113,0.083v0l-0.113,0.085l-0.112,0.087v0
	l-0.11,0.088l-0.015,0.012l-0.176,0.145l-0.028,0.023l-0.106,0.091l-0.001,0.001l-0.106,0.093l-0.104,0.094l0,0.001l-0.104,0.096
	l-0.102,0.095l0,0.001l-0.102,0.098l-0.1,0.098l-0.001,0.001l-0.027,0.027l-0.027,0.027l-0.027,0.027l-0.026,0.027l-0.026,0.027
	l-0.053,0.054l-0.011,0.011l-0.016,0.017l-0.176,0.19l-0.004,0.003l-0.176,0.199l-0.008,0.009l-0.164,0.192l-0.019,0.023
	l-0.006,0.006l-0.142,0.177l-0.024,0.03l-0.005,0.007l-0.156,0.203l-0.016,0.021l-0.007,0.009l-0.156,0.215l-0.002,0.005
	l-0.149,0.214l-0.013,0.019l-0.008,0.013l-0.085,0.126v0.002c-1.211,1.85-1.917,4.063-1.917,6.439
	c0,9.825,10.913,14.819,18.383,9.734v2.044h5.237v-0.642l0.004,0.002L80.603,15.499L80.603,15.499z M11.769,27.604h10.806v5.152
	H11.769v0.004C5.27,32.76,0,27.49,0,20.991c0-6.5,5.27-11.77,11.769-11.77c4.241,0,7.957,2.243,10.028,5.607l-4.393,2.7
	c-1.164-1.891-3.252-3.151-5.635-3.151c-3.653,0-6.613,2.96-6.613,6.614C5.156,24.644,8.116,27.604,11.769,27.604z"/>
</svg>
