<?xml version="1.0" encoding="utf-8"?>
<!-- Generator: Adobe Illustrator 18.1.1, SVG Export Plug-In . SVG Version: 6.00 Build 0)  -->
<svg version="1.1" id="Layer_1" xmlns="http://www.w3.org/2000/svg" xmlns:xlink="http://www.w3.org/1999/xlink" x="0px" y="0px"
	 viewBox="0 0 115.4 12.7" enable-background="new 0 0 115.4 12.7" xml:space="preserve">
<g>
	<path fill-rule="evenodd" clip-rule="evenodd" fill="#999999" d="M41.7,1.8h1.8h1.8c2.5,0,4.5,2,4.5,4.5c0,2.5-2,4.5-4.5,4.5v0
		h-1.8v0h-1.8c0-1.8,0-3.6,0-5.5V5.4h-1.8v0.1c0,2.4,0,4.8,0,7.3h3.6h0h1.8c3.5,0,6.4-2.8,6.4-6.4c0-3.5-2.8-6.4-6.4-6.4h-1.8h-3.6
		v1.8v1.7h1.8V1.8z"/>
	<path fill-rule="evenodd" clip-rule="evenodd" fill="#999999" d="M29.2,1.8c2.7,0,4.8,2,4.8,4.5s-2.2,4.5-4.8,4.5
		c-2.7,0-4.8-2-4.8-4.5S26.6,1.8,29.2,1.8 M29.2,0c3.7,0,6.7,2.8,6.7,6.4s-3,6.4-6.7,6.4c-3.7,0-6.7-2.8-6.7-6.4S25.6,0,29.2,0z"/>
	<polygon fill-rule="evenodd" clip-rule="evenodd" fill="#999999" points="7.4,0 9.2,0 16.3,9.6 16.3,0 18.1,0 18.1,12.1 18.1,12.7 
		16.3,12.7 9.2,3.1 9.2,12.7 7.4,12.7 7.4,0.6 	"/>
	<rect x="0" y="0" fill-rule="evenodd" clip-rule="evenodd" fill="#999999" width="1.8" height="12.7"/>
	<rect x="55.6" y="0" fill-rule="evenodd" clip-rule="evenodd" fill="#999999" width="1.8" height="12.7"/>
	<rect x="55.6" y="0" fill-rule="evenodd" clip-rule="evenodd" fill="#999999" width="9.1" height="1.8"/>
	<rect x="55.6" y="10.9" fill-rule="evenodd" clip-rule="evenodd" fill="#999999" width="9.1" height="1.8"/>
	<polygon fill-rule="evenodd" clip-rule="evenodd" fill="#999999" points="88.2,0 88.1,0.1 93.6,12.7 91.6,12.7 87.1,2.4 82.6,12.7 
		80.7,12.7 86.1,0.1 86.1,0 	"/>
	<rect x="97.5" y="0" fill-rule="evenodd" clip-rule="evenodd" fill="#999999" width="1.8" height="12.7"/>
	<polygon fill-rule="evenodd" clip-rule="evenodd" fill="#999999" points="104.6,0 106.5,0 106.5,0 113.6,9.6 113.6,0 115.4,0 
		115.4,12.1 115.4,12.7 113.6,12.7 106.5,3.1 106.5,12.7 104.6,12.7 104.6,0.6 	"/>
	<path fill="#999999" d="M76.8,3.5c-0.9-0.9-2-1.4-3-1.6c-1-0.2-1.9,0-2.4,0.5c-0.2,0.2-0.4,0.5-0.5,0.7c-0.1,0.2-0.1,0.5,0,0.7
		c0,0.2,0.2,0.4,0.3,0.6c1.1,1.2,4.4,1.1,5.9,2.8c0.4,0.4,0.7,1,0.8,1.5c0.1,0.5,0.1,1.1-0.1,1.6c-0.2,0.6-0.5,1.1-1,1.5
		c-0.9,0.9-2.4,1.2-4,0.9c-1.3-0.2-2.8-0.9-4-2.1l1.3-1.3c0.9,0.9,2,1.4,3,1.6c1,0.2,1.9,0,2.4-0.5c0.2-0.2,0.4-0.5,0.5-0.7
		c0.1-0.2,0.1-0.5,0-0.7c0-0.2-0.2-0.4-0.3-0.6c-1.1-1.2-4.4-1.1-5.9-2.8c-0.4-0.4-0.7-1-0.8-1.5C69,3.6,69,3,69.2,2.5
		c0.2-0.6,0.5-1.1,1-1.5c0.9-0.9,2.4-1.2,4-0.9c1.3,0.2,2.8,0.9,4,2.1L76.8,3.5z"/>
	<rect x="59.2" y="5.5" fill-rule="evenodd" clip-rule="evenodd" fill="#999999" width="1.8" height="1.8"/>
</g>
</svg>
