<?xml version="1.0" encoding="utf-8"?>
<!-- Generator: Adobe Illustrator 16.0.3, SVG Export Plug-In . SVG Version: 6.00 Build 0)  -->
<!DOCTYPE svg PUBLIC "-//W3C//DTD SVG 1.1//EN" "http://www.w3.org/Graphics/SVG/1.1/DTD/svg11.dtd">
<svg version="1.1" id="Layer_1" xmlns="http://www.w3.org/2000/svg" xmlns:xlink="http://www.w3.org/1999/xlink" x="0px" y="0px"
	 width="200px" height="34.794px" viewBox="0 0 200 34.794" enable-background="new 0 0 200 34.794" xml:space="preserve">
<g>
	<path fill="#FFFFFF" d="M180.904,0.157v22.021h3.712V6.386l11.734,15.793H200V0.157h-3.649v15.824L184.554,0.157H180.904z
		 M168.417,0.157v22.021h3.712V0.157H168.417z M158.541,22.179h3.964l-9.626-22.021h-3.808l-9.721,22.021h3.87l2.107-4.971
		l1.385-3.303l4.152-9.784l4.152,9.784l1.416,3.303L158.541,22.179z M133.25,5.537l1.542-3.272C132.747,0.912,129.946,0,127.084,0
		c-4.782,0-8.022,2.36-8.022,6.135c0,7.833,11.892,5.096,11.892,10.004c0,1.698-1.541,2.674-4.121,2.674
		c-2.359,0-5.19-1.132-7.455-3.209l-1.604,3.209c2.265,2.076,5.537,3.492,8.997,3.492c4.845,0,8.306-2.423,8.306-6.355
		c0.031-7.928-11.86-5.348-11.86-10.161c0-1.479,1.415-2.296,3.586-2.296C128.469,3.492,130.859,4.09,133.25,5.537z M96.226,0.157
		v22.021h16.106v-3.335H99.937V14.3v-1.527V9.469V7.941V3.492h12.018V0.157H96.226z M50.268,3.397c4.31,0,7.833,3.398,7.833,7.771
		s-3.523,7.833-7.833,7.833s-7.928-3.46-7.928-7.833S45.926,3.397,50.268,3.397z M50.236,0.063c-6.575,0-11.672,4.782-11.672,11.105
		c0,6.292,5.097,11.168,11.672,11.168s11.671-4.876,11.671-11.168C61.907,4.876,56.812,0.063,50.236,0.063z M12.487,0.157v22.021
		h3.712V6.386l11.734,15.793h3.649V0.157h-3.649v15.824L16.137,0.157H12.487z M106.543,9.469h-3.303v3.303h3.303V9.469z M0,0.157
		v22.021h3.712V0.157H0z"/>
	<path fill="#FFFFFF" d="M199.359,33.557c-0.475,0.324-1.063,0.518-1.615,0.518c-1.405,0-2.537-1.089-2.537-2.458
		c0-1.36,1.123-2.449,2.527-2.449c0.685,0,1.361,0.264,1.861,0.711l0.403-0.509c-0.588-0.518-1.413-0.843-2.265-0.843
		c-1.808,0-3.238,1.36-3.238,3.09s1.422,3.099,3.203,3.099c0.825,0,1.678-0.316,2.283-0.799v-2.229h-0.623V33.557z M187.267,28.544
		v6.145h0.702v-4.985l3.687,4.985h0.721v-6.145h-0.694v4.995l-3.687-4.995H187.267z M183.873,28.544v6.145h0.702v-6.145H183.873z
		 M177.312,28.544v0.649h2.001v5.495h0.702v-5.495h2.011v-0.649H177.312z M171.583,28.544v0.649h2.002v5.495h0.701v-5.495h2.011
		v-0.649H171.583z M165.873,28.544v6.145h4.283v-0.649h-3.581v-2.143h3.099v-0.64h-3.099v-2.063h3.467v-0.649H165.873z
		 M163.155,29.712l0.299-0.624c-0.509-0.342-1.238-0.57-1.948-0.57c-1.273,0-2.125,0.614-2.125,1.58c0,2.203,3.458,1.334,3.45,2.976
		c0,0.597-0.554,0.957-1.44,0.957c-0.692,0-1.475-0.315-2.045-0.86l-0.316,0.606c0.58,0.553,1.458,0.938,2.353,0.938
		c1.316,0,2.221-0.658,2.221-1.677c0.01-2.229-3.449-1.396-3.449-2.993c0-0.526,0.519-0.842,1.308-0.842
		C161.953,29.203,162.603,29.352,163.155,29.712z M151.95,34.18c-0.711,0-1.273-0.492-1.273-1.186c0-0.614,0.51-0.991,1.115-1.325
		c0.413,0.482,0.966,1.045,1.65,1.729C152.995,33.898,152.477,34.18,151.95,34.18z M151.423,29.834c0-0.482,0.369-0.859,0.94-0.859
		c0.526,0,0.859,0.315,0.859,0.771c0,0.624-0.588,0.957-1.264,1.309C151.607,30.58,151.423,30.194,151.423,29.834z M155.225,34.426
		l-1.063-1.045c0.255-0.352,0.491-0.772,0.693-1.237l-0.465-0.352c-0.185,0.456-0.396,0.86-0.623,1.193
		c-0.633-0.614-1.133-1.123-1.511-1.563c0.773-0.413,1.528-0.843,1.528-1.677c0-0.72-0.571-1.229-1.422-1.229
		c-0.896,0-1.502,0.553-1.502,1.316c0,0.448,0.211,0.913,0.633,1.466c-0.721,0.387-1.396,0.852-1.396,1.738
		c0,0.966,0.808,1.677,1.826,1.677c0.693,0,1.343-0.333,1.904-0.938l1.027,1.018L155.225,34.426z M145.169,29.712l0.298-0.624
		c-0.509-0.342-1.238-0.57-1.948-0.57c-1.272,0-2.125,0.614-2.125,1.58c0,2.203,3.459,1.334,3.45,2.976
		c0,0.597-0.553,0.957-1.439,0.957c-0.693,0-1.475-0.315-2.045-0.86l-0.316,0.606c0.579,0.553,1.457,0.938,2.353,0.938
		c1.316,0,2.221-0.658,2.221-1.677c0.009-2.229-3.449-1.396-3.449-2.993c0-0.526,0.518-0.842,1.308-0.842
		C143.966,29.203,144.615,29.352,145.169,29.712z M138.299,28.544v6.145h0.702v-6.145H138.299z M132.527,28.544v6.145h0.702v-2.651
		h2.87v-0.641h-2.87v-2.203h3.204v-0.649H132.527z M126.22,32.468l1.378-3.16l1.396,3.16H126.22z M129.968,34.688h0.764
		l-2.747-6.145h-0.729l-2.757,6.145h0.746l0.685-1.571h3.345L129.968,34.688z M118.92,32.09v-2.896h1.633
		c1.115,0,1.747,0.491,1.747,1.431c0,0.966-0.632,1.466-1.747,1.466H118.92z M123.037,34.688l-1.448-2.098
		c0.886-0.281,1.387-0.975,1.387-1.983c0-1.309-0.887-2.063-2.423-2.063h-2.335v6.145h0.702v-1.949h1.633
		c0.141,0,0.272-0.008,0.395-0.018l1.291,1.967H123.037z M115.062,33.557c-0.474,0.324-1.063,0.518-1.614,0.518
		c-1.405,0-2.537-1.089-2.537-2.458c0-1.36,1.123-2.449,2.527-2.449c0.685,0,1.36,0.264,1.861,0.711l0.403-0.509
		c-0.588-0.518-1.413-0.843-2.265-0.843c-1.809,0-3.238,1.36-3.238,3.09s1.422,3.099,3.203,3.099c0.825,0,1.677-0.316,2.282-0.799
		v-2.229h-0.623V33.557z M100.336,28.544v6.145h0.702v-4.985l3.687,4.985h0.721v-6.145h-0.693v4.995l-3.688-4.995H100.336z
		 M96.943,28.544v6.145h0.702v-6.145H96.943z M90.636,32.468l1.378-3.16l1.396,3.16H90.636z M94.383,34.688h0.765l-2.748-6.145
		h-0.729l-2.757,6.145h0.746l0.686-1.571h3.345L94.383,34.688z M87.164,29.712l0.298-0.624c-0.509-0.342-1.238-0.57-1.948-0.57
		c-1.273,0-2.125,0.614-2.125,1.58c0,2.203,3.459,1.334,3.45,2.976c0,0.597-0.554,0.957-1.44,0.957c-0.692,0-1.475-0.315-2.045-0.86
		l-0.316,0.606c0.58,0.553,1.458,0.938,2.354,0.938c1.316,0,2.221-0.658,2.221-1.677c0.009-2.229-3.45-1.396-3.45-2.993
		c0-0.526,0.519-0.842,1.309-0.842C85.961,29.203,86.61,29.352,87.164,29.712z M77.144,28.544v6.145h4.283v-0.649h-3.581v-2.143
		h3.099v-0.64h-3.099v-2.063h3.467v-0.649H77.144z M71.881,34.039H70.09v-4.846h1.765c1.378,0,2.467,1.045,2.467,2.432
		C74.321,33.003,73.25,34.039,71.881,34.039z M71.872,28.544h-2.484v6.145h2.458c1.808,0,3.187-1.325,3.187-3.072
		C75.032,29.87,73.662,28.544,71.872,28.544z"/>
	<path fill-rule="evenodd" clip-rule="evenodd" fill="#FFFFFF" d="M78.894,9.663h-3.169v3.168h3.169V9.663z M75.725,0.157h3.169
		c6.124,0,11.089,4.965,11.089,11.09c0,6.124-4.965,11.089-11.089,11.089v-3.169c4.374,0,7.92-3.546,7.92-7.92
		c0-4.375-3.546-7.921-7.92-7.921h-3.169V0.157z M72.557,19.167h3.168v3.169h-3.168h-3.169v-3.169v-3.168v-3.168V9.663h3.169v3.168
		v3.168V19.167z"/>
	<rect x="98.79" y="9.469" fill-rule="evenodd" clip-rule="evenodd" fill="#FFFFFF" width="13.164" height="3.303"/>
</g>
</svg>
