<?xml version="1.0" encoding="utf-8"?>
<!-- Generator: Adobe Illustrator 18.1.1, SVG Export Plug-In . SVG Version: 6.00 Build 0)  -->
<svg version="1.1" id="Layer_1" xmlns="http://www.w3.org/2000/svg" xmlns:xlink="http://www.w3.org/1999/xlink" x="0px" y="0px"
	 viewBox="-205 379.2 200 22.3" enable-background="new -205 379.2 200 22.3" xml:space="preserve">
<path fill="#999999" d="M-78.2,398c-2.4,0-5.2-1.1-7.5-3.2l-1.6,3.2c2.3,2.1,5.5,3.5,9,3.5c4.8,0,8.3-2.4,8.3-6.4
	c0-7.9-11.9-5.3-11.9-10.2c0-1.5,1.4-2.3,3.6-2.3c1.7,0,4.1,0.6,6.4,2l1.5-3.3c-2-1.4-4.8-2.3-7.7-2.3c-4.8,0-8,2.4-8,6.1
	c0,7.8,11.9,5.1,11.9,10C-74,397-75.6,398-78.2,398z"/>
<polygon fill="#999999" points="-92.7,398 -105.1,398 -105.1,393.5 -105.1,392 -105.1,392 -101.8,392 -98.5,392 -93,392 -93,388.7 
	-98.5,388.7 -101.8,388.7 -105.1,388.7 -105.1,387.1 -105.1,382.7 -93,382.7 -93,379.4 -108.8,379.4 -108.8,401.4 -92.7,401.4 "/>
<rect x="-36.6" y="379.4" fill="#999999" width="3.7" height="22"/>
<polygon fill="#999999" points="-177.1,395.2 -188.9,379.4 -192.5,379.4 -192.5,401.4 -188.8,401.4 -188.8,385.6 -177.1,401.4 
	-173.4,401.4 -173.4,379.4 -177.1,379.4 "/>
<rect x="-205" y="379.4" fill="#999999" width="3.7" height="22"/>
<polygon fill="#999999" points="-8.6,379.4 -8.6,395.2 -20.4,379.4 -24.1,379.4 -24.1,401.4 -20.4,401.4 -20.4,385.6 -8.6,401.4 
	-5,401.4 -5,379.4 "/>
<path fill="#999999" d="M-154.8,379.3c-6.6,0-11.7,4.8-11.7,11.1c0,6.3,5.1,11.2,11.7,11.2c6.6,0,11.7-4.9,11.7-11.2
	S-148.2,379.3-154.8,379.3z M-154.7,398.2c-4.3,0-7.9-3.5-7.9-7.8c0-4.4,3.6-7.8,7.9-7.8c4.3,0,7.8,3.4,7.8,7.8
	C-146.9,394.7-150.4,398.2-154.7,398.2z"/>
<polygon fill="#999999" points="-52.1,379.4 -55.9,379.4 -65.6,401.4 -61.8,401.4 -59.7,396.4 -58.3,393.1 -54.1,383.3 -50,393.1 
	-48.6,396.4 -46.5,401.4 -42.5,401.4 "/>
<path fill="#999999" d="M-115,390.5c0-6.1-5-11.1-11.1-11.1h-3.2h0h-3.2h0h-3.2v3.2v3.2h3.2v-3.2h3.2v0h3.2c4.4,0,7.9,3.5,7.9,7.9
	c0,4.4-3.5,7.9-7.9,7.9v0h-3.2v0h-3.2v-3.2V392v-3.2h-3.2v3.2v3.2v3.2v3.2h3.2h3.2h3.2C-120,401.5-115,396.6-115,390.5z"/>
</svg>
