<?xml version="1.0" encoding="utf-8"?>
<!-- Generator: Adobe Illustrator 16.0.3, SVG Export Plug-In . SVG Version: 6.00 Build 0)  -->
<!DOCTYPE svg PUBLIC "-//W3C//DTD SVG 1.1//EN" "http://www.w3.org/Graphics/SVG/1.1/DTD/svg11.dtd">
<svg version="1.1" id="Layer_1" xmlns="http://www.w3.org/2000/svg" xmlns:xlink="http://www.w3.org/1999/xlink" x="0px" y="0px"
	 width="220.939px" height="32px" viewBox="0 0 220.939 32" enable-background="new 0 0 220.939 32" xml:space="preserve">
<path fill-rule="evenodd" clip-rule="evenodd" fill="#333333" d="M4.571,27.428h4.572V32H4.571H0v-4.571v-4.572v-4.57v-4.572V9.142
	V4.571V0h4.571h4.572h4.571c8.836,0,16,7.164,16,16c0,8.837-7.164,16-16,16v-4.571c6.312,0,11.428-5.117,11.428-11.429
	c0-6.312-5.116-11.429-11.428-11.429l0,0H9.143H4.571v4.571v4.572v4.572v4.57V27.428z M13.714,13.714H9.143v4.572h4.571V13.714z"/>
<path fill-rule="evenodd" clip-rule="evenodd" fill="#333333" d="M205.058,5.449V24.55h2.184V9.051l11.461,15.499h2.237V5.449
	h-2.156v15.527l-11.46-15.527H205.058z M193.744,5.449V24.55h2.183V5.449H193.744z M185.021,24.55h2.375l-8.541-19.102h-2.266
	l-8.567,19.102h2.319l2.128-4.885l0.9-2.02l4.284-9.823l4.339,9.823l0.873,2.02L185.021,24.55z M161.811,9.078l0.928-1.937
	c-1.583-1.064-3.848-1.774-6.058-1.774c-3.957,0-6.604,1.91-6.604,4.912c0,6.85,10.751,4.148,10.724,9.25
	c0,1.856-1.719,2.975-4.476,2.975c-2.155,0-4.584-0.981-6.357-2.674l-0.982,1.883c1.801,1.719,4.53,2.92,7.313,2.92
	c4.093,0,6.903-2.046,6.903-5.212c0.027-6.931-10.724-4.339-10.724-9.305c0-1.637,1.609-2.62,4.065-2.62
	C158.072,7.496,160.092,7.959,161.811,9.078z M134.069,15.873h1.992v-1.992h-1.992V15.873z M129.894,5.449V24.55h13.317v-2.02
	h-11.134v-6.658v-1.992V7.469h10.778v-2.02H129.894z M87.701,7.414c4.257,0,7.75,3.356,7.75,7.586s-3.493,7.641-7.75,7.641
	c-4.257,0-7.804-3.411-7.804-7.641S83.443,7.414,87.701,7.414z M87.701,5.395c-5.594,0-10.015,4.229-10.015,9.605
	s4.42,9.633,10.015,9.633c5.567,0,9.987-4.257,9.987-9.633S93.268,5.395,87.701,5.395z M54.447,5.449V24.55h2.184V9.051
	l11.46,15.499h2.238V5.449h-2.156v15.527L56.712,5.449H54.447z M107.201,5.449h1.962h3.577c5.566,0,9.824,4.121,9.824,9.551
	c0,5.431-4.284,9.551-9.905,9.551h-1.092v-2.02h1.2c4.257,0,7.586-3.22,7.586-7.504c0-4.312-3.384-7.558-7.668-7.558h-3.522h-1.962
	v1.814v1.352v11.896h2.183v2.02h-4.366V10.635V9.283V5.449h0.546H107.201z M43.133,5.449V24.55h2.183V5.449H43.133z"/>
</svg>
