<?xml version="1.0" encoding="utf-8"?>
<!-- Generator: Adobe Illustrator 18.1.1, SVG Export Plug-In . SVG Version: 6.00 Build 0)  -->
<svg version="1.1" id="Layer_1" xmlns="http://www.w3.org/2000/svg" xmlns:xlink="http://www.w3.org/1999/xlink" x="0px" y="0px"
	 viewBox="0 0 150.2 35.1" enable-background="new 0 0 150.2 35.1" xml:space="preserve">
<path fill="#FFFFFF" d="M146.5,31.5c-0.7,0-1.2-0.5-1.2-1.3c0-0.7,0.5-1.3,1.2-1.3c0.7,0,1.2,0.5,1.2,1.3
	C147.7,31,147.2,31.5,146.5,31.5 M147.7,28.6v0.7c-0.3-0.5-0.7-0.7-1.3-0.7c-0.9,0-1.6,0.7-1.6,1.7c0,1,0.7,1.7,1.6,1.7
	c0.6,0,1.1-0.3,1.3-0.7v0.5c0,0.7-0.5,1.2-1.3,1.2c-0.5,0-0.8-0.2-1.2-0.4l-0.2,0.4c0.4,0.3,0.9,0.5,1.4,0.5c1.1,0,1.8-0.6,1.8-1.7
	v-3.2H147.7z M142.6,28.6c-0.6,0-1.1,0.3-1.4,0.8v-0.8h-0.5v3.5h0.5v-1.9c0.1-0.7,0.5-1.1,1.2-1.2c0.6,0,1,0.4,1,1v2h0.5V30
	C144,29.1,143.5,28.6,142.6,28.6z M139,28.6v3.5h0.5v-3.5H139z M139.2,27.2c-0.2,0-0.3,0.1-0.3,0.4c0,0.2,0.1,0.4,0.3,0.4
	c0.2,0,0.3-0.2,0.3-0.4C139.6,27.4,139.4,27.2,139.2,27.2z M138,31.5c-0.2,0.1-0.4,0.2-0.6,0.2c-0.3,0-0.5-0.2-0.5-0.6v-1.9h1.1
	v-0.4H137v-0.9h-0.5v0.9H136v0.4h0.5v2c0,0.7,0.4,1,0.9,1c0.3,0,0.5-0.1,0.8-0.3L138,31.5z M135.4,31.5c-0.2,0.1-0.4,0.2-0.6,0.2
	c-0.3,0-0.5-0.2-0.5-0.6v-1.9h1.1v-0.4h-1.1v-0.9h-0.5v0.9h-0.5v0.4h0.5v2c0,0.7,0.4,1,0.9,1c0.3,0,0.5-0.1,0.8-0.3L135.4,31.5z
	 M130,30.1c0.1-0.7,0.6-1.1,1.2-1.1c0.7,0,1.1,0.4,1.2,1.1H130z M131.2,28.6c-1,0-1.7,0.7-1.7,1.8s0.7,1.8,1.8,1.8
	c0.6,0,1.1-0.2,1.4-0.6l-0.3-0.3c-0.3,0.3-0.7,0.4-1.1,0.4c-0.7,0-1.2-0.5-1.3-1.2h2.9C132.9,29.4,132.3,28.6,131.2,28.6z
	 M128.6,29.3l0.2-0.4c-0.3-0.2-0.7-0.3-1.1-0.3c-0.6,0-1.2,0.3-1.2,1c0,1.2,2,0.8,1.9,1.7c0,0.4-0.3,0.5-0.8,0.5
	c-0.4,0-0.9-0.2-1.2-0.4l-0.2,0.4c0.3,0.3,0.9,0.5,1.4,0.5c0.7,0,1.3-0.3,1.3-1c0-1.3-2-0.9-2-1.7c0-0.3,0.3-0.5,0.7-0.5
	C128,29,128.4,29.1,128.6,29.3z M121.6,31.7c-0.5,0-1-0.4-1-0.9c0-0.5,0.4-0.8,0.9-1c0.3,0.4,0.7,0.8,1.3,1.3
	C122.4,31.5,122,31.7,121.6,31.7z M121.2,28.4c0-0.4,0.3-0.7,0.7-0.7c0.4,0,0.7,0.2,0.7,0.6c0,0.5-0.4,0.7-1,1
	C121.3,29,121.2,28.7,121.2,28.4z M124.1,31.9l-0.8-0.8c0.2-0.3,0.4-0.6,0.5-0.9l-0.4-0.3c-0.1,0.3-0.3,0.7-0.5,0.9
	c-0.5-0.5-0.9-0.9-1.2-1.2c0.6-0.3,1.2-0.6,1.2-1.3c0-0.5-0.4-0.9-1.1-0.9c-0.7,0-1.1,0.4-1.1,1c0,0.3,0.2,0.7,0.5,1.1
	c-0.5,0.3-1.1,0.6-1.1,1.3c0,0.7,0.6,1.3,1.4,1.3c0.5,0,1-0.3,1.5-0.7l0.8,0.8L124.1,31.9z M117.2,29.3l0.2-0.4
	c-0.3-0.2-0.7-0.3-1.1-0.3c-0.6,0-1.2,0.3-1.2,1c0,1.2,2,0.8,1.9,1.7c0,0.4-0.3,0.5-0.8,0.5s-0.9-0.2-1.2-0.4l-0.2,0.4
	c0.3,0.3,0.9,0.5,1.4,0.5c0.7,0,1.3-0.3,1.3-1c0-1.3-2-0.9-2-1.7c0-0.3,0.3-0.5,0.7-0.5C116.6,29,117,29.1,117.2,29.3z M113.6,32.1
	h0.5v-3.5h-0.5V32.1z M113.8,27.9c0.2,0,0.3-0.2,0.3-0.4c0-0.2-0.1-0.4-0.3-0.4s-0.3,0.1-0.3,0.4C113.5,27.8,113.6,27.9,113.8,27.9z
	 M111.5,28.3v0.4h-0.5v0.4h0.5v3h0.5v-3h1v-0.4h-1v-0.5c0-0.4,0.3-0.6,0.6-0.6c0.2,0,0.4,0.1,0.6,0.2l0-0.5
	c-0.2-0.1-0.4-0.2-0.6-0.2C112.1,27.1,111.5,27.5,111.5,28.3z M108.6,31.7c-0.5,0-0.8-0.3-0.8-0.6c0-0.4,0.3-0.6,0.9-0.6h1.1v0.4
	C109.6,31.4,109.2,31.7,108.6,31.7z M110.3,32.1l0-2.3c0-0.7-0.5-1.2-1.4-1.2c-0.6,0-1,0.2-1.4,0.5l0.2,0.4c0.4-0.3,0.7-0.4,1.1-0.4
	c0.6,0,0.9,0.3,0.9,0.8v0.2h-1.2c-0.8,0-1.3,0.4-1.3,1c0,0.6,0.5,1.1,1.2,1.1c0.6,0,1-0.2,1.3-0.6v0.5H110.3z M105.8,29.4v-0.8h-0.5
	v3.5h0.5v-1.9c0.1-0.7,0.5-1.2,1.3-1.2v-0.5C106.4,28.6,106,28.9,105.8,29.4z M102.3,31.5c-0.7,0-1.2-0.5-1.2-1.3
	c0-0.7,0.5-1.3,1.2-1.3c0.7,0,1.2,0.5,1.2,1.3C103.5,31,103,31.5,102.3,31.5z M103.5,28.6v0.7c-0.3-0.5-0.7-0.7-1.3-0.7
	c-0.9,0-1.6,0.7-1.6,1.7c0,1,0.7,1.7,1.6,1.7c0.6,0,1.1-0.3,1.3-0.7v0.5c0,0.7-0.5,1.2-1.3,1.2c-0.5,0-0.8-0.2-1.2-0.4l-0.2,0.4
	c0.4,0.3,0.9,0.5,1.4,0.5c1.1,0,1.8-0.6,1.8-1.7v-3.2H103.5z M96.5,28.6c-0.6,0-1.1,0.3-1.4,0.8v-0.8h-0.5v3.5h0.5v-1.9
	c0.1-0.7,0.5-1.1,1.2-1.2c0.6,0,1,0.4,1,1v2h0.5V30C97.8,29.1,97.3,28.6,96.5,28.6z M92.8,28.6v3.5h0.5v-3.5H92.8z M93,27.2
	c-0.2,0-0.3,0.1-0.3,0.4c0,0.2,0.1,0.4,0.3,0.4s0.3-0.2,0.3-0.4C93.4,27.4,93.2,27.2,93,27.2z M89.9,31.7c-0.5,0-0.8-0.3-0.8-0.6
	c0-0.4,0.3-0.6,0.9-0.6h1.1v0.4C91,31.4,90.5,31.7,89.9,31.7z M91.6,32.1l0-2.3c0-0.7-0.5-1.2-1.4-1.2c-0.6,0-1,0.2-1.4,0.5l0.2,0.4
	c0.4-0.3,0.7-0.4,1.1-0.4c0.6,0,0.9,0.3,0.9,0.8v0.2h-1.2c-0.8,0-1.3,0.4-1.3,1c0,0.6,0.5,1.1,1.2,1.1c0.6,0,1-0.2,1.3-0.6v0.5H91.6
	z M87.8,29.3l0.2-0.4c-0.3-0.2-0.7-0.3-1.1-0.3c-0.6,0-1.2,0.3-1.2,1c0,1.2,2,0.8,1.9,1.7c0,0.4-0.3,0.5-0.8,0.5s-0.9-0.2-1.2-0.4
	l-0.2,0.4c0.3,0.3,0.9,0.5,1.4,0.5c0.7,0,1.3-0.3,1.3-1c0-1.3-2-0.9-2-1.7c0-0.3,0.3-0.5,0.7-0.5C87.1,29,87.5,29.1,87.8,29.3z
	 M82.1,30.1c0.1-0.7,0.6-1.1,1.2-1.1c0.7,0,1.1,0.4,1.2,1.1H82.1z M83.4,28.6c-1,0-1.7,0.7-1.7,1.8s0.7,1.8,1.8,1.8
	c0.6,0,1.1-0.2,1.4-0.6l-0.3-0.3c-0.3,0.3-0.7,0.4-1.1,0.4c-0.7,0-1.2-0.5-1.3-1.2H85C85.1,29.4,84.5,28.6,83.4,28.6z M78.9,31.7
	c-0.7,0-1.3-0.6-1.3-1.3s0.5-1.3,1.3-1.3c0.7,0,1.3,0.6,1.3,1.3S79.6,31.7,78.9,31.7z M80.1,27.2v2.2c-0.3-0.5-0.7-0.8-1.4-0.8
	c-1,0-1.7,0.7-1.7,1.8c0,1.1,0.7,1.8,1.7,1.8c0.6,0,1.1-0.3,1.4-0.8v0.8h0.5v-5H80.1z"/>
<path fill="#FFFFFF" d="M68,12.2c2.9,0,5.4,2.3,5.4,5.2c0,2.9-2.4,5.3-5.4,5.3c-2.9,0-5.4-2.4-5.4-5.3C62.6,14.5,65,12.2,68,12.2
	 M68,10.8c-3.9,0-6.9,2.9-6.9,6.6S64.1,24,68,24c3.8,0,6.9-2.9,6.9-6.7S71.8,10.8,68,10.8z M47.3,10.8V24h1.5V13.3L56.7,24h1.5V10.8
	h-1.5v10.7l-7.9-10.7H47.3z M41.8,10.8V24h1.5V10.8H41.8z"/>
<path fill="#FFFFFF" d="M136.3,10.8V24h2.8v-8.5l6.4,8.5h2.7V10.8h-2.8v8.5l-6.4-8.5H136.3z M130.4,10.8V24h3V10.8H130.4z M119.6,19
	l2.1-5.1l2.1,5.1H119.6z M125.8,24h3.2l-5.6-13.2h-3.1L114.6,24h3.1l1-2.6h6.1L125.8,24z M112.8,14.6l1.1-2.5
	c-1.3-0.9-3.2-1.4-5-1.4c-3.1,0-5.1,1.5-5.1,3.9c0,4.7,7,3.2,7,5.7c0,0.8-0.7,1.3-2,1.3c-1.4,0-3.3-0.8-4.7-2l-1.2,2.4
	c1.5,1.3,3.7,2.1,5.8,2.1c2.9,0,5.2-1.4,5.2-4c0-4.7-7-3.4-7-5.8c0-0.7,0.7-1.1,1.7-1.1C109.8,13.2,111.4,13.7,112.8,14.6z
	 M91.6,10.8V24h10.2v-2.5h-7.3v-2.9h6.3v-2.5h-6.3v-2.9h7.1v-2.5H91.6z M82.7,21.5H80v-8.2h2.6c2.3,0,4,1.7,4,4.1
	C86.6,19.8,84.9,21.5,82.7,21.5z M82.7,10.8h-5.6V24h5.5c4.2,0,7-2.7,7-6.6C89.6,13.5,86.7,10.8,82.7,10.8z"/>
<path fill-rule="evenodd" clip-rule="evenodd" fill="#FFFFFF" d="M4.7,6.7h9.5C20.7,6.7,26,12,26,18.5c0,6.5-5.3,11.8-11.8,11.8H4.7
	c0-4.8,0-9.6,0-14.4H0c0,6.4,0,12.7,0,19.1h14.2c9.1,0,16.5-7.4,16.5-16.5C30.7,9.4,23.3,2,14.2,2H0v9.3h4.7V6.7z"/>
</svg>
