<?xml version="1.0" encoding="utf-8"?>
<!-- Generator: Adobe Illustrator 16.0.3, SVG Export Plug-In . SVG Version: 6.00 Build 0)  -->
<!DOCTYPE svg PUBLIC "-//W3C//DTD SVG 1.1//EN" "http://www.w3.org/Graphics/SVG/1.1/DTD/svg11.dtd">
<svg version="1.1" id="Layer_1" xmlns="http://www.w3.org/2000/svg" xmlns:xlink="http://www.w3.org/1999/xlink" x="0px" y="0px"
	 width="132px" height="34.917px" viewBox="0 0 132 34.917" enable-background="new 0 0 132 34.917" xml:space="preserve">
<path fill-rule="evenodd" clip-rule="evenodd" fill="#FFFFFF" d="M24.646,24.133v-6.882c0-1.186,0.462-2.322,1.26-3.142
	c0.709-0.728,1.714-1.197,2.927-1.197c0.149,0,0.293,0.006,0.433,0.018c0.862-1.446,2.051-2.675,3.467-3.583
	c-1.117-0.58-2.422-0.901-3.899-0.901c-1.821,0-3.437,0.535-4.769,1.429c-0.991-0.997-2.365-1.617-3.883-1.617
	c0,6.8,0,13.6,0,20.399C23.233,28.658,24.646,26.699,24.646,24.133 M59.581,12.727c2.324,0,4.326,1.383,5.226,3.372V16.1
	c0.039,0.084,0.075,0.169,0.108,0.256v0.001c0.034,0.086,0.067,0.174,0.097,0.263v0.001c0.03,0.088,0.059,0.177,0.083,0.268v0.001
	c0.141,0.499,0.217,1.025,0.217,1.569l-0.001,0.148h0l-0.005,0.146l0,0.001l-0.009,0.146h0l-0.012,0.145l0,0.001l-0.016,0.144
	h-0.001l-0.02,0.143h0l-0.023,0.142h0c-0.017,0.095-0.035,0.188-0.056,0.28h0c-0.021,0.093-0.044,0.184-0.071,0.274
	c-0.026,0.091-0.054,0.181-0.083,0.27l0,0l-0.046,0.133h-0.001l-0.049,0.131l-0.053,0.129l0,0l-0.056,0.128l-0.06,0.126
	l-0.062,0.125L64.62,21.19l-0.034,0.061l-0.033,0.061h0l-0.035,0.06l-0.035,0.06l-0.037,0.059l-0.037,0.059l0,0l-0.038,0.058
	l-0.038,0.058l-0.039,0.057l-0.04,0.057h0l-0.04,0.056l-0.041,0.056h0l-0.042,0.055l-0.042,0.055h-0.001l-0.043,0.054l-0.042,0.054
	h-0.001l-0.044,0.053l-0.136,0.155h0c-0.063,0.067-0.125,0.134-0.19,0.198c-0.047,0.049-0.096,0.096-0.146,0.142l-0.002,0.003
	l-0.049,0.046h-0.001l-0.051,0.046l-0.051,0.046h-0.001l-0.052,0.045l-0.052,0.044l-0.001,0.001l-0.053,0.043l-0.053,0.042
	l-0.001,0.001c-3.665,2.881-9.269,0.369-9.269-4.511C53.849,15.293,56.415,12.727,59.581,12.727z M95.36,24.133v-6.882
	c0-1.186,0.462-2.322,1.26-3.142c0.71-0.728,1.714-1.197,2.928-1.197c1.203,0,2.118,0.396,2.717,1.05
	c0.698,0.761,1.062,1.919,1.062,3.289c0,2.451-0.001,4.902-0.003,7.354c-0.001,3.284,2.535,4.053,4.465,4.053V24.23v-1.097v-6.274
	c-0.077-2.312-0.848-4.376-2.243-5.899c-1.438-1.569-3.465-2.514-5.997-2.514c-1.821,0-3.437,0.535-4.769,1.429
	c-0.991-0.997-2.366-1.617-3.884-1.617c0,6.8,0,13.6,0,20.399C93.947,28.658,95.36,26.699,95.36,24.133z M108.587,24.19h2.775h8.438
	c3.166,0,5.731-2.566,5.731-5.732c0-3.165-2.565-5.731-5.731-5.731c-3.165,0-5.731,2.566-5.731,5.731l0.004,0.207v0.01l0.004,0.089
	l0.001,0.016l0.004,0.054l0.004,0.062c0.006,0.084,0.015,0.167,0.024,0.25l0.009,0.071l0.006,0.04l0.004,0.031l0.013,0.08
	l0.005,0.032l0.031,0.174l0.004,0.02c0.018,0.087,0.037,0.174,0.059,0.259l0.007,0.026l0.023,0.09l0.015,0.052
	c0.04,0.142,0.084,0.279,0.135,0.416l0.015,0.039l0.057,0.146l0.078,0.181h-0.001c0.538,1.199,1.476,2.18,2.644,2.772h-6.237
	c-0.177-0.306-0.34-0.621-0.484-0.946l-0.096-0.22l-0.009-0.021c-0.071-0.171-0.138-0.344-0.2-0.519l-0.005-0.016
	c-0.226-0.639-0.39-1.307-0.484-1.996l-0.016-0.127c-0.017-0.127-0.029-0.254-0.04-0.382l-0.003-0.03l-0.007-0.08l-0.003-0.038
	l-0.005-0.07l-0.012-0.216l-0.008-0.228v-0.049v-0.008l-0.002-0.171c0-5.632,4.566-10.199,10.199-10.199
	c5.634,0,10.2,4.567,10.2,10.199c0,5.634-4.566,10.2-10.2,10.2l-0.266-0.004h-10.947V24.19z M80.314,28.657L80.314,28.657
	l0.061,0.001h0.06v-0.001l0.185-0.005c1.818-0.048,3.472-0.787,4.705-1.964c1.292,1.222,3.034,1.97,4.954,1.97v-4.469
	c-0.762,0-1.448-0.306-1.943-0.805c-0.498-0.494-0.807-1.182-0.807-1.941v-8.547V8.259h-4.465v4.638l0,0v0.548v1.132v2.867v4
	c0,0.76-0.311,1.447-0.805,1.941c-0.486,0.486-1.149,0.788-1.884,0.804c-0.734-0.016-1.397-0.317-1.884-0.804
	c-0.495-0.494-0.805-1.182-0.805-1.941v-4v-2.867v-1.132v-0.719h2.724c0.432-1.558,0.956-3.047,1.567-4.467h-4.291
	c-0.991-1.4-2.62-2.313-4.465-2.313v2.313v3.787v0.681v0.719v1.138v2.307v0.554v4c0,0.76-0.309,1.447-0.807,1.941
	c-0.496,0.499-1.182,0.805-1.943,0.805v4.469c1.934,0,3.687-0.758,4.981-1.996C76.722,27.875,78.432,28.626,80.314,28.657z
	 M85.296,2c1.425,0,2.58,1.155,2.58,2.58c0,1.425-1.155,2.58-2.58,2.58s-2.58-1.155-2.58-2.58C82.716,3.155,83.871,2,85.296,2z
	 M69.855,13.698l-0.007-5.439c-1.692,0.003-3.209,0.776-4.211,1.993l-0.08-0.058l-0.079-0.057h-0.001l-0.081-0.057l-0.082-0.056
	l-0.082-0.055L65.15,9.913L65.067,9.86l-0.041-0.027l-0.043-0.027l-0.084-0.052l-0.026-0.017l-0.059-0.035l-0.085-0.051
	l-0.012-0.007l-0.074-0.043L64.56,9.555l-0.002,0l-0.086-0.049L64.4,9.468l-0.017-0.009l-0.088-0.047L64.24,9.383l-0.033-0.017
	l-0.089-0.045l-0.042-0.021l-0.048-0.023l-0.09-0.043l-0.026-0.013l-0.064-0.029L63.758,9.15l-0.011-0.004l-0.06-0.026l-0.021-0.01
	l-0.04-0.017L63.575,9.07l-0.008-0.003l-0.06-0.025l-0.024-0.01l-0.037-0.016L63.39,8.994l-0.004-0.001l-0.061-0.024l-0.028-0.012
	l-0.033-0.013l-0.06-0.023h-0.001l-0.062-0.023l-0.032-0.012l-0.03-0.011l-0.062-0.023l-0.002-0.001l-0.06-0.021L62.92,8.818
	l-0.027-0.009l-0.063-0.021l-0.006-0.002l-0.057-0.019l-0.039-0.013l-0.024-0.008l-0.063-0.02l-0.01-0.003l-0.054-0.017
	l-0.043-0.013l-0.021-0.006l-0.063-0.019l-0.013-0.004l-0.05-0.014l-0.046-0.014l-0.017-0.004l-0.064-0.018L62.244,8.61
	l-0.047-0.012l-0.051-0.014l-0.013-0.003l-0.065-0.017l-0.021-0.005l-0.043-0.01l-0.056-0.014l-0.009-0.002l-0.065-0.016
	l-0.024-0.005l-0.041-0.009L61.75,8.49l-0.006-0.001l-0.065-0.014l-0.028-0.006l-0.037-0.007l-0.063-0.013l-0.002,0L61.48,8.435
	L61.449,8.43l-0.034-0.006l-0.066-0.012l-0.001,0L61.282,8.4l-0.036-0.006l-0.03-0.005l-0.067-0.01l-0.005-0.001l-0.062-0.01
	l-0.04-0.005l-0.027-0.004L60.948,8.35l-0.009-0.002l-0.058-0.007l-0.045-0.006l-0.022-0.002l-0.067-0.008l-0.013-0.001
	l-0.055-0.006L60.63,8.312l-0.02-0.001l-0.068-0.007l-0.016-0.001l-0.051-0.005l-0.053-0.004l-0.016-0.001l-0.068-0.005
	l-0.021-0.002l-0.048-0.002l-0.057-0.004l-0.012-0.001l-0.068-0.004l-0.024-0.001L60.065,8.27l-0.062-0.003h-0.008l-0.069-0.002
	l-0.029-0.001l-0.041-0.001l-0.064-0.001h-0.004L59.72,8.26l-0.033,0l-0.037,0h-0.069l-0.263,0.003l-0.258,0.01h-0.003h0l-0.004,0
	l-0.25,0.015l-0.005,0h0l-0.128,0.011l-0.129,0.012L58.281,8.34l-0.127,0.018l-0.127,0.018h0l-0.013,0.002L57.79,8.416l-0.014,0.002
	h0l-0.014,0.003L57.54,8.463l-0.014,0.003h0l-0.124,0.026L57.278,8.52h-0.001l-0.123,0.03l-0.122,0.03h-0.001l-0.034,0.009
	L56.809,8.64l-0.02,0.005h0L56.771,8.65l-0.194,0.058l-0.029,0.009h-0.001l-0.042,0.014L56.31,8.794l-0.001,0l-0.194,0.068
	l-0.041,0.015h-0.001l-0.036,0.014l-0.159,0.06l-0.037,0.015H55.84l-0.048,0.02L55.611,9.06l0,0.001l-0.186,0.081L55.384,9.16
	h-0.001l-0.112,0.052l-0.112,0.053h-0.001l-0.11,0.054l-0.11,0.056h0l-0.109,0.057L54.719,9.49h0L54.69,9.506l-0.157,0.087
	L54.504,9.61h0l-0.029,0.018l-0.153,0.089l-0.029,0.018h-0.001L54.188,9.8l-0.024,0.015l-0.148,0.096l-0.137,0.09l-0.202,0.14
	l-0.1,0.072l-0.099,0.072v0l-0.098,0.074l-0.097,0.075v0l-0.096,0.077l-0.012,0.01l-0.152,0.126l-0.024,0.02l-0.093,0.079
	l-0.001,0.001l-0.091,0.081l-0.091,0.081l0,0.001l-0.09,0.083l-0.088,0.083l0,0.001l-0.088,0.085l-0.086,0.084l-0.001,0.001
	l-0.023,0.023l-0.023,0.023l-0.023,0.023l-0.023,0.023l-0.022,0.023l-0.046,0.047l-0.009,0.01l-0.014,0.014L52.031,11.6
	l-0.003,0.003l-0.153,0.172l-0.007,0.008l-0.142,0.167l-0.016,0.02l-0.005,0.005l-0.123,0.153l-0.021,0.026l-0.005,0.006
	l-0.135,0.176l-0.014,0.019L51.4,12.364l-0.135,0.186l-0.002,0.004l-0.129,0.185l-0.011,0.017l-0.007,0.011l-0.073,0.109v0.002
	c-1.05,1.604-1.662,3.521-1.662,5.58c0,8.517,9.458,12.845,15.932,8.438v1.771h4.538V28.11l0.004,0.002L69.855,13.698L69.855,13.698
	z M10.2,24.19h9.365v4.464H10.2v0.004c-5.633,0-10.2-4.566-10.2-10.2C0,12.826,4.566,8.259,10.2,8.259
	c3.675,0,6.896,1.943,8.691,4.859l-3.807,2.339c-1.009-1.639-2.818-2.731-4.884-2.731c-3.166,0-5.732,2.566-5.732,5.731
	C4.468,21.624,7.034,24.19,10.2,24.19z"/>
<path fill-rule="evenodd" clip-rule="evenodd" fill="#FFCD2E" d="M41.336,14.424L41.336,14.424l-7.407,7.406
	c-0.689-0.946-1.096-2.111-1.096-3.372c0-3.165,2.565-5.731,5.731-5.731c1.26,0,2.426,0.408,3.373,1.097L41.336,14.424z
	 M48.764,22.213v6.445h-6.445L48.764,22.213z M37.923,24.154l0.375-0.375l9.55-9.549l-0.061-0.13l-0.016-0.034l-0.015-0.03
	l-0.063-0.128l-0.002-0.004L47.69,13.9l-0.061-0.121l-0.019-0.038l-0.014-0.025l-0.067-0.126l-0.004-0.008l-0.004-0.006
	l-0.083-0.151h-0.001l-0.012-0.021l-0.036-0.062l-0.036-0.062l-0.006-0.012l-0.03-0.049l-0.061-0.102l-0.002-0.003l-0.011-0.017
	l-0.076-0.121l-0.009-0.015l-0.029-0.045l-0.062-0.092l-0.008-0.013l-0.009-0.013c-0.059-0.089-0.12-0.177-0.182-0.264l-0.014-0.019
	l-0.006-0.009l-0.042-0.057l-0.042-0.058l-0.016-0.021l-0.027-0.036l-0.042-0.056l-0.04-0.051l-0.004-0.006l-0.001-0.001
	l-0.086-0.11l-0.02-0.024l-0.025-0.031l-0.084-0.103l-0.004-0.005l-0.002-0.002l-0.002-0.002l-0.089-0.106L46.3,11.811l-0.023-0.027
	L46.23,11.73l-0.046-0.053l-0.002-0.001l-0.092-0.102l-0.047-0.052l-0.001-0.001l-0.049-0.052l-0.049-0.052l-0.004-0.005
	l-0.008-0.008l-0.086-0.089l-0.031-0.031l-0.002-0.002l-0.113-0.112l-0.005-0.005l-0.007-0.008l-0.044-0.042l-0.051-0.049
	l-0.035-0.033l-0.016-0.016l-0.052-0.047l-0.052-0.048l-0.012-0.01l-0.042-0.038l-0.053-0.047l-0.039-0.036l-0.014-0.012
	l-0.102-0.087l-0.006-0.006l-0.015-0.013l-0.04-0.033c-1.772-1.488-4.058-2.384-6.553-2.384c-5.633,0-10.2,4.567-10.2,10.199
	c0,2.495,0.896,4.78,2.384,6.553l0.046,0.054l0.092,0.107l0.047,0.054l0.047,0.053l0.096,0.104l0.048,0.052l0.098,0.103l0.049,0.052
	l0.05,0.05l0.1,0.1l0.05,0.05l0.005,0.005l0.097,0.093l0.052,0.048l0.052,0.048l0.052,0.048l0.053,0.047l0.053,0.048l0.008,0.007
	l0.099,0.086l0.054,0.046l0.054,0.045l0.055,0.045l0.055,0.046l0.056,0.043l0.111,0.088l0.056,0.043l0.057,0.043l0.056,0.043
	l0.058,0.042l0.057,0.042l0.116,0.081l0.059,0.041l0.012,0.009l0.105,0.071l0.06,0.039l0.06,0.038l0.12,0.077l0.061,0.037
	c1.558,0.966,3.394,1.522,5.361,1.522L37.923,24.154z"/>
</svg>
