<?xml version="1.0" encoding="utf-8"?>
<!-- Generator: Adobe Illustrator 16.0.3, SVG Export Plug-In . SVG Version: 6.00 Build 0)  -->
<!DOCTYPE svg PUBLIC "-//W3C//DTD SVG 1.1//EN" "http://www.w3.org/Graphics/SVG/1.1/DTD/svg11.dtd">
<svg version="1.1" id="Layer_1" xmlns="http://www.w3.org/2000/svg" xmlns:xlink="http://www.w3.org/1999/xlink" x="0px" y="0px"
	 width="64px" height="64px" viewBox="0 0 64 64" enable-background="new 0 0 64 64" xml:space="preserve">
<path d="M42.345,12.218C39.251,10.596,35.735,9.667,32,9.667C19.666,9.667,9.667,19.666,9.667,32c0,3.446,0.803,6.696,2.197,9.61
	c1.346-1.337,3.199-2.166,5.247-2.166c4.111,0,7.444,3.333,7.444,7.444c0,2.049-0.828,3.901-2.166,5.247
	c2.914,1.395,6.165,2.197,9.61,2.197c12.335,0,22.333-9.998,22.333-22.333V9.667C50.058,9.667,46.01,10.589,42.345,12.218z
	 M32,39.444c-4.111,0-7.444-3.333-7.444-7.444s3.333-7.444,7.444-7.444s7.444,3.333,7.444,7.444S36.111,39.444,32,39.444z"/>
</svg>
