<?xml version="1.0" encoding="utf-8"?>
<!-- Generator: Adobe Illustrator 16.0.3, SVG Export Plug-In . SVG Version: 6.00 Build 0)  -->
<!DOCTYPE svg PUBLIC "-//W3C//DTD SVG 1.1//EN" "http://www.w3.org/Graphics/SVG/1.1/DTD/svg11.dtd">
<svg version="1.1" id="Layer_1" xmlns="http://www.w3.org/2000/svg" xmlns:xlink="http://www.w3.org/1999/xlink" x="0px" y="0px"
	 width="34px" height="34px" viewBox="0 0 34 34" enable-background="new 0 0 34 34" xml:space="preserve">
<path fill-rule="evenodd" clip-rule="evenodd" fill="#333333" d="M6.269,31.319c-2.529,0-4.026-2.091-3.338-4.453l3.572-12.264
	h9.132l-0.659,2.261l-0.027,0.091l0,0l-1.674,5.748h2.999l2.36-8.1v-0.022c0.193-0.66,2.061-7.149,2.06-7.149
	c0.791-2.613,1.241-4.749,4.653-4.749h5.884l0.006,0.003l-0.643,2.208l-0.325,1.117l-0.556,1.907l-0.733,2.517l-0.001,0.006
	l-4.767,16.36c-0.725,2.51-1.271,4.521-4.588,4.521 M13.741,31.319 M19.624,31.319 M12.383,5.646h5.883l-1.757,5.989H7.367
	l0.349-1.198C8.483,7.802,8.948,5.646,12.383,5.646z"/>
</svg>
