<?xml version="1.0" encoding="utf-8"?>
<!-- Generator: Adobe Illustrator 16.0.3, SVG Export Plug-In . SVG Version: 6.00 Build 0)  -->
<!DOCTYPE svg PUBLIC "-//W3C//DTD SVG 1.1//EN" "http://www.w3.org/Graphics/SVG/1.1/DTD/svg11.dtd">
<svg version="1.1" id="Layer_1" xmlns="http://www.w3.org/2000/svg" xmlns:xlink="http://www.w3.org/1999/xlink" x="0px" y="0px"
	 width="200px" height="31.453px" viewBox="0 0 200 31.453" enable-background="new 0 0 200 31.453" xml:space="preserve">
<path fill-rule="evenodd" clip-rule="evenodd" fill="#333333" d="M13.479,13.48H8.986v4.494h4.493V13.48z M4.493,26.96h4.493v4.493
	H0C0,20.969,0,10.485,0,0h15.726c8.686,0,15.727,7.041,15.727,15.727c0,8.685-7.041,15.726-15.727,15.726h-2.246V26.96h2.246
	c6.204,0,11.233-5.029,11.233-11.233c0-6.205-5.029-11.233-11.233-11.233l-11.232,0C4.493,11.982,4.493,19.471,4.493,26.96z"/>
<path fill="#333333" d="M182.406,7.706v19.929h3.729V14.026l10.249,13.609H200V7.706h-3.701v13.637L186.021,7.706H182.406z
	 M173.979,7.706v19.929h3.815V7.706H173.979z M146.952,13.229l1.538-3.303c-1.908-1.252-4.556-2.107-7.203-2.107
	c-4.47,0-7.459,2.221-7.459,5.694c0,7.089,10.704,4.726,10.704,8.882c0,1.396-1.281,2.192-3.416,2.192
	c-2.136,0-4.84-1.11-6.89-2.933l-1.595,3.218c2.136,1.907,5.239,3.188,8.428,3.188c4.384,0,7.63-2.164,7.63-5.894
	c0.028-7.146-10.677-4.953-10.677-8.996c0-1.224,1.168-1.879,2.961-1.879C142.511,11.293,144.816,11.948,146.952,13.229z
	 M114.754,7.706v19.929H129.7v-3.331h-11.132c0-4.423,0-8.845,0-13.267h10.79V7.706H114.754z M101.116,24.275h-4.555v-13.21h4.413
	c3.729,0,6.548,2.733,6.548,6.633C107.521,21.57,104.789,24.275,101.116,24.275z M101.031,7.706h-8.285v19.929h8.142
	c6.149,0,10.533-4.157,10.533-9.965C111.422,11.833,107.066,7.706,101.031,7.706z M78.683,8.873c4.982,0,9.082,3.929,9.082,8.797
	s-4.1,8.826-9.082,8.826c-4.982,0-9.082-3.958-9.082-8.826S73.7,8.873,78.683,8.873z M78.683,7.706
	c-5.694,0-10.306,4.441-10.306,9.964c0,5.523,4.612,9.993,10.306,9.993s10.306-4.47,10.306-9.993
	C88.988,12.147,84.376,7.706,78.683,7.706z M47.793,7.734v19.9h1.196V9.556l13.267,18.079h1.395v-19.9h-1.167v18.078L49.188,7.734
	H47.793z M153.965,27.635h-4.1l8.626-19.929h2.079h2.078l8.626,19.929h-4.1l-1.766-4.214l-1.366-3.273l-3.473-8.371l-3.474,8.371
	l-1.366,3.273L153.965,27.635z M39.765,7.734v19.9h1.196v-19.9H39.765z"/>
<rect x="121.899" y="15.962" fill-rule="evenodd" clip-rule="evenodd" fill="#333333" width="3.331" height="3.331"/>
</svg>
