<?xml version="1.0" encoding="utf-8"?>
<!-- Generator: Adobe Illustrator 18.1.1, SVG Export Plug-In . SVG Version: 6.00 Build 0)  -->
<svg version="1.1" id="Layer_1" xmlns="http://www.w3.org/2000/svg" xmlns:xlink="http://www.w3.org/1999/xlink" x="0px" y="0px"
	 viewBox="0 0 145.5 24.3" enable-background="new 0 0 145.5 24.3" xml:space="preserve">
<g>
	<path fill="#999999" d="M132.8,5.1v14h3v-9l6.8,9h2.9v-14h-3v9l-6.8-9H132.8z M126.5,5.1v14h3.2v-14H126.5z M115.1,13.9l2.2-5.5
		l2.2,5.5H115.1z M121.6,19.2h3.4l-6-14h-3.3l-6.1,14h3.3l1.1-2.7h6.5L121.6,19.2z M107.8,9.1l1.2-2.6c-1.4-0.9-3.4-1.5-5.3-1.5
		c-3.3,0-5.4,1.6-5.4,4.2c0,5,7.5,3.4,7.5,6.1c0,0.9-0.8,1.3-2.1,1.3c-1.5,0-3.5-0.8-5-2.1L97.4,17c1.6,1.3,3.9,2.2,6.2,2.2
		c3.1,0,5.5-1.5,5.5-4.2c0-5.1-7.5-3.6-7.5-6.2c0-0.8,0.7-1.1,1.8-1.1C104.5,7.7,106.3,8.3,107.8,9.1z M85.1,5.1v14h10.9v-2.6h-7.7
		v-3.1h6.8v-2.6h-6.8V7.8h7.5V5.1H85.1z M75.7,16.5h-2.9V7.8h2.7c2.4,0,4.2,1.8,4.2,4.4C79.8,14.7,78.1,16.5,75.7,16.5z M75.7,5.1
		h-6v14h5.8c4.4,0,7.5-2.9,7.5-7C83.1,8,80,5.1,75.7,5.1z M60,6.6c3.1,0,5.7,2.5,5.7,5.6c0,3.1-2.6,5.6-5.7,5.6s-5.7-2.5-5.7-5.6
		C54.3,9,56.9,6.6,60,6.6z M60,5.1c-4.1,0-7.4,3.1-7.4,7.1c0,4,3.3,7.1,7.4,7.1c4.1,0,7.3-3.1,7.3-7.1C67.4,8.2,64.1,5.1,60,5.1z
		 M38,5.1v14h1.6V7.8l8.4,11.4h1.6v-14h-1.6v11.4L39.7,5.1H38z M32.2,5.1v14h1.6v-14H32.2z"/>
	<path fill-rule="evenodd" clip-rule="evenodd" fill="#999999" d="M3.5,3.5h6.9c4.8,0,8.7,3.9,8.7,8.7c0,4.8-3.9,8.7-8.7,8.7H3.5
		c0-3.5,0-7,0-10.5H0c0,4.7,0,9.3,0,14h10.4c6.7,0,12.1-5.4,12.1-12.1C22.5,5.4,17.1,0,10.4,0H0v6.8h3.5V3.5z"/>
</g>
</svg>
