<?xml version="1.0" encoding="utf-8"?>
<!-- Generator: Adobe Illustrator 22.0.0, SVG Export Plug-In . SVG Version: 6.00 Build 0)  -->
<svg version="1.1" id="Layer_1" xmlns="http://www.w3.org/2000/svg" xmlns:xlink="http://www.w3.org/1999/xlink" x="0px" y="0px"
	 viewBox="0 0 89.6 15.9" style="enable-background:new 0 0 89.6 15.9;" xml:space="preserve">
<style type="text/css">
	.st0{fill:#999999;}
</style>
<g id="Layer_2_1_">
	<g id="Layer_1-2">
		<path class="st0" d="M5.3,0H0v5.3h2.7V2.6h2.7c2.9,0,5.3,2.4,5.3,5.3s-2.4,5.3-5.3,5.3l0,0H2.7V8H0v8h5.3c4.4,0,8-3.6,8-8
			S9.7,0,5.3,0z"/>
		<path class="st0" d="M21.3,3.3v9.4h-1.2V3.3H21.3z"/>
		<path class="st0" d="M23.7,12.6V3.3H25L28,8c0.6,1,1.2,2,1.7,3l0,0c-0.1-1.3-0.1-2.4-0.1-3.8V3.3h1.2v9.4h-1.2l-3-4.8
			c-0.6-1-1.2-2-1.8-3.1l0,0c0.1,1.2,0.1,2.3,0.1,3.9v4L23.7,12.6z"/>
		<path class="st0" d="M41.1,7.9c0,3.2-2,4.9-4.3,4.9s-4.2-1.9-4.2-4.7c0-3,1.8-4.9,4.3-4.9S41.1,5.1,41.1,7.9z M33.8,8
			c0,2,1.1,3.8,3,3.8s3-1.8,3-3.9c0-1.9-1-3.8-3-3.8S33.8,6,33.8,8z"/>
		<path class="st0" d="M42.8,3.4c0.9-0.2,1.9-0.2,2.8-0.2c1.4-0.1,2.7,0.3,3.8,1c1.1,0.8,1.7,2.2,1.6,3.5c0.1,1.4-0.5,2.8-1.5,3.8
			c-1.3,0.9-2.8,1.3-4.3,1.2c-0.8,0-1.6,0-2.4-0.1L42.8,3.4z M44.9,11c0.2,0,0.5,0.1,0.7,0.1c1.9,0,3.2-1.1,3.2-3.3
			c0.2-1.5-0.9-2.8-2.4-3c-0.2,0-0.4,0-0.6,0c-0.3,0-0.7,0-1,0.1L44.9,11z"/>
		<path class="st0" d="M58.3,8.7h-3.4v2.2h3.8v1.7h-6V3.3h5.8V5h-3.6v2h3.4V8.7z"/>
		<path class="st0" d="M60.5,10.5c0.7,0.4,1.5,0.6,2.3,0.6c1,0,1.5-0.4,1.5-1s-0.4-0.9-1.6-1.3c-1.6-0.6-2.6-1.4-2.6-2.7
			c0-1.6,1.3-2.8,3.5-2.8c0.8,0,1.6,0.1,2.4,0.5l-0.5,1.7c-0.6-0.3-1.3-0.5-2-0.4c-0.9,0-1.4,0.4-1.4,0.9s0.5,0.9,1.7,1.3
			c1.7,0.6,2.4,1.5,2.4,2.8c0,1.6-1.2,2.9-3.8,2.9c-0.9,0-1.8-0.2-2.7-0.6L60.5,10.5z"/>
		<path class="st0" d="M70.4,10.2l-0.7,2.4h-2.2l2.9-9.4h2.8l2.9,9.4h-2.3l-0.7-2.4H70.4z M72.8,8.7l-0.6-2
			c-0.2-0.6-0.3-1.3-0.5-1.8l0,0c-0.1,0.6-0.3,1.3-0.4,1.8l-0.6,2H72.8z"/>
		<path class="st0" d="M79.7,3.3v9.4h-2.1V3.3H79.7z"/>
		<path class="st0" d="M81.8,12.6V3.3h2.5l1.9,3.4c0.6,1,1.1,2.1,1.5,3.2l0,0c-0.1-1.3-0.2-2.6-0.1-3.9V3.3h1.9v9.4h-2.2l-2-3.6
			c-0.6-1.1-1.1-2.2-1.6-3.3h-0.1c0.1,1.3,0.1,2.6,0.1,4.1v2.8L81.8,12.6z"/>
	</g>
</g>
</svg>
