<?xml version="1.0" encoding="utf-8"?>
<!-- Generator: Adobe Illustrator 16.0.3, SVG Export Plug-In . SVG Version: 6.00 Build 0)  -->
<!DOCTYPE svg PUBLIC "-//W3C//DTD SVG 1.1//EN" "http://www.w3.org/Graphics/SVG/1.1/DTD/svg11.dtd">
<svg version="1.1" id="Layer_1" xmlns="http://www.w3.org/2000/svg" xmlns:xlink="http://www.w3.org/1999/xlink" x="0px" y="0px"
	 width="34px" height="34px" viewBox="0 0 34 34" enable-background="new 0 0 34 34" xml:space="preserve">
<rect y="2" fill-rule="evenodd" clip-rule="evenodd" fill="#FFFFFF" width="32" height="32"/>
<path fill-rule="evenodd" clip-rule="evenodd" fill="#333333" d="M12.408,7.922h5.334l-1.593,5.431H5.163l0.316-1.086
	C6.175,9.877,9.292,7.922,12.408,7.922 M15.356,16.043l-0.598,2.05l-0.024,0.083h0l-1.519,5.212h2.72l2.14-7.345v-0.021l2.338-8.1
	l0,0l0.333-1.125h-0.005c0.718-2.369,3.822-4.306,6.917-4.306h5.335L33,2.494L31.323,8.25l-1.169,4.012l-0.001,0.005l-4.34,14.896
	c-0.695,2.387-3.817,4.345-6.929,4.345H5.537c-3.111,0-5.093-1.955-4.397-4.345l3.239-11.121H15.356z"/>
</svg>
