<?xml version="1.0" encoding="utf-8"?>
<!-- Generator: Adobe Illustrator 18.1.1, SVG Export Plug-In . SVG Version: 6.00 Build 0)  -->
<svg version="1.1" id="Layer_1" xmlns="http://www.w3.org/2000/svg" xmlns:xlink="http://www.w3.org/1999/xlink" x="0px" y="0px"
	 viewBox="0 0 115.4 12.7" enable-background="new 0 0 115.4 12.7" xml:space="preserve">
<g>
	<path fill="#999999" d="M29.2,0c-3.7,0-6.7,2.8-6.7,6.4c0,3.5,3,6.4,6.7,6.4c3.7,0,6.7-2.8,6.7-6.4C35.9,2.8,32.9,0,29.2,0z
		 M29.2,10.9c-2.7,0-4.8-2-4.8-4.5c0-2.5,2.2-4.5,4.8-4.5c2.7,0,4.8,2,4.8,4.5C34,8.9,31.9,10.9,29.2,10.9z"/>
	<polygon fill="#999999" points="16.3,9.6 9.2,0 7.4,0 7.4,0.6 7.4,12.7 9.2,12.7 9.2,3.1 16.3,12.7 18.1,12.7 18.1,12.1 18.1,0 
		16.3,0 	"/>
	<rect x="0" fill="#999999" width="1.8" height="12.7"/>
	<polygon fill="#999999" points="55.5,0 55.5,0 55.5,1.8 55.5,1.8 55.5,10.9 55.5,10.9 55.5,12.7 55.5,12.7 57.4,12.7 64.6,12.7 
		64.6,10.9 57.4,10.9 57.4,1.8 64.6,1.8 64.6,0 57.4,0 	"/>
	<polygon fill="#999999" points="88.1,0 86,0 86,0.1 80.6,12.7 82.6,12.7 87,2.4 91.5,12.7 93.5,12.7 88,0.1 	"/>
	<rect x="97.4" fill="#999999" width="1.8" height="12.7"/>
	<polygon fill="#999999" points="113.4,0 113.4,9.6 106.4,0 106.4,0 104.5,0 104.5,0.6 104.5,12.7 106.4,12.7 106.4,3.1 113.4,12.7 
		115.3,12.7 115.3,12.1 115.3,0 	"/>
	<rect x="59.2" y="5.4" fill="#999999" width="1.8" height="1.8"/>
	<path fill="#999999" d="M45.3,0h-5.4v3.6h1.8V1.8h3.6c2.5,0,4.5,2,4.5,4.5c0,2.5-2,4.5-4.5,4.5h-3.6c0-1.8,0-3.7,0-5.5h-1.8
		c0,2.4,0,4.9,0,7.3h5.4c3.5,0,6.4-2.8,6.4-6.4C51.6,2.8,48.8,0,45.3,0z"/>
	<path fill="#999999" d="M71.8,2.4c0.4-0.3,1-0.5,1.6-0.5c2-0.1,3.9,1.1,3.9,1.1l0.9-1.6c0,0-2.4-1.4-4.9-1.3c-1,0-1.9,0.4-2.6,0.9
		c-0.7,0.5-1.2,1.3-1.3,2.2c-0.1,0.9,0.2,1.7,0.9,2.4c1.6,1.7,4.3,1.6,5.5,2.9c0.3,0.3,0.4,0.6,0.4,1c0,0.3-0.3,0.7-0.7,0.9
		c-0.4,0.3-1,0.5-1.7,0.4c-1,0-1.8-0.2-2.4-0.6c-0.7-0.3-1.3-0.7-1.8-1.2l-1.1,1.4c0.6,0.5,1.3,1,2.2,1.4c0.9,0.4,1.9,0.7,3.1,0.7
		c1.1,0,2-0.3,2.8-0.8c0.8-0.6,1.4-1.4,1.5-2.3c0.1-0.9-0.2-1.7-0.8-2.4c-1.6-1.8-4.2-1.6-5.5-2.9c-0.3-0.3-0.4-0.7-0.4-1
		C71.3,2.9,71.5,2.6,71.8,2.4z"/>
</g>
</svg>
