<?xml version="1.0" encoding="utf-8"?>
<!-- Generator: Adobe Illustrator 16.0.3, SVG Export Plug-In . SVG Version: 6.00 Build 0)  -->
<!DOCTYPE svg PUBLIC "-//W3C//DTD SVG 1.1//EN" "http://www.w3.org/Graphics/SVG/1.1/DTD/svg11.dtd">
<svg version="1.1" id="Layer_1" xmlns="http://www.w3.org/2000/svg" xmlns:xlink="http://www.w3.org/1999/xlink" x="0px" y="0px"
	 width="29.714px" height="32px" viewBox="0 0 29.714 32" enable-background="new 0 0 29.714 32" xml:space="preserve">
<path fill-rule="evenodd" clip-rule="evenodd" fill="#FFCD2E" d="M4.571,27.428h4.572V32H4.571H0v-4.571v-4.572v-4.57v-4.572V9.142
	V4.571V0h4.571h4.572h4.571c8.836,0,16,7.164,16,16c0,8.837-7.164,16-16,16v-4.571c6.312,0,11.428-5.117,11.428-11.429
	c0-6.312-5.116-11.429-11.428-11.429l0,0H9.143H4.571v4.571v4.572v4.572v4.57V27.428z M13.714,13.714H9.143v4.572h4.571V13.714z"/>
</svg>
