<?xml version="1.0" encoding="utf-8"?>
<!-- Generator: Adobe Illustrator 16.0.3, SVG Export Plug-In . SVG Version: 6.00 Build 0)  -->
<!DOCTYPE svg PUBLIC "-//W3C//DTD SVG 1.1//EN" "http://www.w3.org/Graphics/SVG/1.1/DTD/svg11.dtd">
<svg version="1.1" id="Layer_1" xmlns="http://www.w3.org/2000/svg" xmlns:xlink="http://www.w3.org/1999/xlink" x="0px" y="0px"
	 width="200px" height="26.135px" viewBox="0 0 200 26.135" enable-background="new 0 0 200 26.135" xml:space="preserve">
<path fill-rule="evenodd" clip-rule="evenodd" fill="#333333" d="M11.2,11.201H7.467v3.734H11.2V11.201z M3.733,22.401h3.733v3.733
	H0C0,17.423,0,8.711,0,0h13.067c7.217,0,13.067,5.851,13.067,13.067s-5.851,13.067-13.067,13.067H11.2v-3.733h1.866
	c5.155,0,9.333-4.179,9.333-9.334c0-5.155-4.179-9.333-9.333-9.333l-9.333,0C3.733,9.956,3.733,16.179,3.733,22.401z"/>
<path fill-rule="evenodd" clip-rule="evenodd" fill="#333333" d="M184.962,4.308v17.417h2.527V8.384l9.912,13.34H200V4.308h-2.477
	v13.364l-9.963-13.364H184.962z M174.443,4.308v17.417h2.528V4.308H174.443z M144.766,8.088l1.047-2.222
	c-1.736-1.093-3.916-1.686-5.954-1.686c-2.972,0-6.278,1.286-6.278,4.743c0,6.178,9.671,3.853,9.671,8.136
	c0,1.92-2.032,2.42-3.598,2.42c-2.148,0-4.366-1.063-5.986-2.458l-1.078,2.155c1.902,1.679,4.479,2.651,7.014,2.651
	c3.079,0,6.498-1.381,6.508-4.923c0.017-6.264-9.645-4.055-9.645-8.263c0-1.668,1.81-2.114,3.162-2.114
	C141.354,6.528,143.264,7.222,144.766,8.088z M114.645,4.308v17.417h12.607v-2.22h-10.08v-0.246c0-4.162,0-8.324,0-12.485V6.528
	h9.773v-2.22H114.645z M122.545,11.88h-2.194v2.195h2.194V11.88z M99.199,19.505h-4.646V6.528h4.519c3.728,0,6.514,2.78,6.514,6.514
	C105.585,16.726,102.897,19.505,99.199,19.505z M164.039,17.321l1.863,4.403h2.744l-2.28-5.389l-5.092-12.028h-3.235l-5.091,12.028
	l-2.28,5.389h2.744l1.863-4.403l4.382-10.352L164.039,17.321z M92.025,4.308v17.417h7.021c5.103,0,9.092-3.503,9.092-8.708
	c0-5.185-3.913-8.708-9.016-8.708H92.025z"/>
<path fill="#333333" d="M76.445,5.115c4.496,0,8.196,3.545,8.196,7.939c0,4.394-3.7,7.965-8.196,7.965s-8.196-3.571-8.196-7.965
	C68.249,8.661,71.949,5.115,76.445,5.115 M76.445,4.062c-5.139,0-9.301,4.008-9.301,8.993c0,4.985,4.162,9.019,9.301,9.019
	s9.301-4.034,9.301-9.019C85.746,8.07,81.584,4.062,76.445,4.062z M47.092,4.087v17.959h1.079V5.732l11.973,16.315h1.259V4.087
	H60.35v16.316L48.351,4.087H47.092z M37.879,4.087v17.959h1.079V4.087H37.879z"/>
</svg>
