<?xml version="1.0" encoding="utf-8"?>
<!-- Generator: Adobe Illustrator 18.1.1, SVG Export Plug-In . SVG Version: 6.00 Build 0)  -->
<svg version="1.1" id="Layer_1" xmlns="http://www.w3.org/2000/svg" xmlns:xlink="http://www.w3.org/1999/xlink" x="0px" y="0px"
	 viewBox="-205 379.2 200 34.8" enable-background="new -205 379.2 200 34.8" xml:space="preserve">
<g>
	<path fill="#FFFFFF" d="M-78.2,398c-2.4,0-5.2-1.1-7.5-3.2l-1.6,3.2c2.3,2.1,5.5,3.5,9,3.5c4.8,0,8.3-2.4,8.3-6.4
		c0-7.9-11.9-5.3-11.9-10.2c0-1.5,1.4-2.3,3.6-2.3c1.7,0,4.1,0.6,6.4,2l1.5-3.3c-2-1.4-4.8-2.3-7.7-2.3c-4.8,0-8,2.4-8,6.1
		c0,7.8,11.9,5.1,11.9,10C-74,397-75.6,398-78.2,398z"/>
	<polygon fill="#FFFFFF" points="-92.7,398 -105.1,398 -105.1,393.5 -105.1,392 -105.1,392 -101.8,392 -98.5,392 -93,392 -93,388.7 
		-98.5,388.7 -101.8,388.7 -105.1,388.7 -105.1,387.1 -105.1,382.7 -93,382.7 -93,379.4 -108.8,379.4 -108.8,401.4 -92.7,401.4 	"/>
	<rect x="-36.6" y="379.4" fill="#FFFFFF" width="3.7" height="22"/>
	<polygon fill="#FFFFFF" points="-177.1,395.2 -188.9,379.4 -192.5,379.4 -192.5,401.4 -188.8,401.4 -188.8,385.6 -177.1,401.4 
		-173.4,401.4 -173.4,379.4 -177.1,379.4 	"/>
	<rect x="-205" y="379.4" fill="#FFFFFF" width="3.7" height="22"/>
	<polygon fill="#FFFFFF" points="-8.6,379.4 -8.6,395.2 -20.4,379.4 -24.1,379.4 -24.1,401.4 -20.4,401.4 -20.4,385.6 -8.6,401.4 
		-5,401.4 -5,379.4 	"/>
	<path fill="#FFFFFF" d="M-154.8,379.3c-6.6,0-11.7,4.8-11.7,11.1c0,6.3,5.1,11.2,11.7,11.2c6.6,0,11.7-4.9,11.7-11.2
		S-148.2,379.3-154.8,379.3z M-154.7,398.2c-4.3,0-7.9-3.5-7.9-7.8c0-4.4,3.6-7.8,7.9-7.8c4.3,0,7.8,3.4,7.8,7.8
		C-146.9,394.7-150.4,398.2-154.7,398.2z"/>
	<polygon fill="#FFFFFF" points="-52.1,379.4 -55.9,379.4 -65.6,401.4 -61.8,401.4 -59.7,396.4 -58.3,393.1 -54.1,383.3 -50,393.1 
		-48.6,396.4 -46.5,401.4 -42.5,401.4 	"/>
	<rect x="-108.1" y="407.8" fill="#FFFFFF" width="0.7" height="6.1"/>
	<path fill="#FFFFFF" d="M-133.1,407.8h-2.5v6.1h2.5c1.8,0,3.2-1.3,3.2-3.1C-130,409.1-131.3,407.8-133.1,407.8z M-133.1,413.2h-1.8
		v-4.8h1.8c1.4,0,2.5,1,2.5,2.4C-130.7,412.2-131.8,413.2-133.1,413.2z"/>
	<path fill="#FFFFFF" d="M-113.3,407.7l-2.8,6.1h0.7l0.7-1.6h3.3l0.7,1.6h0.8l-2.7-6.1H-113.3z M-114.4,411.7l1.4-3.2l1.4,3.2
		H-114.4z"/>
	<polygon fill="#FFFFFF" points="-127.2,411.1 -124.1,411.1 -124.1,410.5 -127.2,410.5 -127.2,408.4 -123.7,408.4 -123.7,407.8 
		-127.9,407.8 -127.9,413.9 -123.6,413.9 -123.6,413.2 -127.2,413.2 	"/>
	<polygon fill="#FFFFFF" points="-100.2,412.7 -103.9,407.8 -104.7,407.8 -104.7,413.9 -104,413.9 -104,408.9 -100.3,413.9 
		-99.6,413.9 -99.6,407.8 -100.2,407.8 	"/>
	<path fill="#FFFFFF" d="M-120.8,409.3c0-0.5,0.5-0.8,1.3-0.8c0.5,0,1.1,0.1,1.7,0.5l0.3-0.6c-0.5-0.3-1.2-0.6-1.9-0.6
		c-1.3,0-2.1,0.6-2.1,1.6c0,2.2,3.5,1.3,3.5,3c0,0.6-0.6,1-1.4,1c-0.7,0-1.5-0.3-2-0.9l-0.3,0.6c0.6,0.6,1.5,0.9,2.4,0.9
		c1.3,0,2.2-0.7,2.2-1.7C-117.4,410-120.8,410.8-120.8,409.3z"/>
	<rect x="-21.1" y="407.8" fill="#FFFFFF" width="0.7" height="6.1"/>
	<polygon fill="#FFFFFF" points="-38.4,411.1 -35.3,411.1 -35.3,410.5 -38.4,410.5 -38.4,408.4 -35,408.4 -35,407.8 -39.1,407.8 
		-39.1,413.9 -34.8,413.9 -34.8,413.2 -38.4,413.2 	"/>
	<path fill="#FFFFFF" d="M-44.8,409.3c0-0.5,0.5-0.8,1.3-0.8c0.5,0,1.1,0.1,1.7,0.5l0.3-0.6c-0.5-0.3-1.2-0.6-1.9-0.6
		c-1.3,0-2.1,0.6-2.1,1.6c0,2.2,3.5,1.3,3.5,3c0,0.6-0.6,1-1.4,1c-0.7,0-1.5-0.3-2-0.9L-46,413c0.6,0.6,1.5,0.9,2.4,0.9
		c1.3,0,2.2-0.7,2.2-1.7C-41.4,410-44.8,410.8-44.8,409.3z"/>
	<polygon fill="#FFFFFF" points="-33.4,408.4 -31.4,408.4 -31.4,413.9 -30.7,413.9 -30.7,408.4 -28.7,408.4 -28.7,407.8 
		-33.4,407.8 	"/>
	<polygon fill="#FFFFFF" points="-13.3,412.7 -17,407.8 -17.7,407.8 -17.7,413.9 -17,413.9 -17,408.9 -13.3,413.9 -12.6,413.9 
		-12.6,407.8 -13.3,407.8 	"/>
	<path fill="#FFFFFF" d="M-7.3,408.4c0.7,0,1.4,0.3,1.9,0.7l0.4-0.5c-0.6-0.5-1.4-0.8-2.3-0.8c-1.8,0-3.2,1.4-3.2,3.1
		s1.4,3.1,3.2,3.1c0.8,0,1.7-0.3,2.3-0.8v-2.2h-0.6v1.9h0c-0.5,0.3-1.1,0.5-1.6,0.5c-1.4,0-2.5-1.1-2.5-2.5
		C-9.8,409.5-8.7,408.4-7.3,408.4z"/>
	<polygon fill="#FFFFFF" points="-27.7,408.4 -25.7,408.4 -25.7,413.9 -25,413.9 -25,408.4 -23,408.4 -23,407.8 -27.7,407.8 	"/>
	<path fill="#FFFFFF" d="M-50.1,411.3l-0.5-0.4c-0.2,0.5-0.4,0.9-0.6,1.2c-0.6-0.6-1.1-1.1-1.5-1.6c0.8-0.4,1.5-0.8,1.5-1.7
		c0-0.7-0.6-1.2-1.4-1.2c-0.9,0-1.5,0.6-1.5,1.3c0,0.4,0.2,0.9,0.6,1.5c-0.7,0.4-1.4,0.9-1.4,1.7c0,1,0.8,1.7,1.8,1.7
		c0.7,0,1.3-0.3,1.9-0.9l1,1l0.4-0.4l-1.1-1C-50.6,412.2-50.3,411.8-50.1,411.3z M-53.6,409c0-0.5,0.4-0.9,0.9-0.9
		c0.5,0,0.9,0.3,0.9,0.8c0,0.6-0.6,1-1.3,1.3C-53.4,409.8-53.6,409.4-53.6,409z M-53,413.4c-0.7,0-1.3-0.5-1.3-1.2
		c0-0.6,0.5-1,1.1-1.3c0.4,0.5,1,1,1.7,1.7C-52,413.1-52.5,413.4-53,413.4z"/>
	<path fill="#FFFFFF" d="M-82,409.8c0-1.3-0.9-2.1-2.4-2.1h-2.3v6.1h0.7v-1.9h1.6c0.1,0,0.3,0,0.4,0l1.3,2h0.8v0l-1.4-2.1
		C-82.5,411.5-82,410.8-82,409.8z M-84.4,411.3h-1.6v0v-2.9h1.6c1.1,0,1.7,0.5,1.7,1.4C-82.7,410.8-83.3,411.3-84.4,411.3z"/>
	<polygon fill="#FFFFFF" points="-72.5,413.9 -71.8,413.9 -71.8,411.2 -68.9,411.2 -68.9,410.6 -71.8,410.6 -71.8,408.4 
		-68.6,408.4 -68.6,407.8 -72.5,407.8 	"/>
	<path fill="#FFFFFF" d="M-77.7,407.7l-2.8,6.1h0.7l0.7-1.6h3.3l0.7,1.6h0.8l-2.7-6.1H-77.7z M-78.8,411.7l1.4-3.2l1.4,3.2H-78.8z"
		/>
	<path fill="#FFFFFF" d="M-62.8,409.3c0-0.5,0.5-0.8,1.3-0.8c0.5,0,1.1,0.1,1.7,0.5l0.3-0.6c-0.5-0.3-1.2-0.6-1.9-0.6
		c-1.3,0-2.1,0.6-2.1,1.6c0,2.2,3.5,1.3,3.4,3c0,0.6-0.6,1-1.4,1c-0.7,0-1.5-0.3-2-0.9L-64,413c0.6,0.6,1.5,0.9,2.4,0.9
		c1.3,0,2.2-0.7,2.2-1.7C-59.4,410-62.8,410.8-62.8,409.3z"/>
	<rect x="-66.7" y="407.8" fill="#FFFFFF" width="0.7" height="6.1"/>
	<path fill="#FFFFFF" d="M-91.6,408.4c0.7,0,1.4,0.3,1.9,0.7l0.4-0.5c-0.6-0.5-1.4-0.8-2.3-0.8c-1.8,0-3.2,1.4-3.2,3.1
		s1.4,3.1,3.2,3.1c0.8,0,1.7-0.3,2.3-0.8v-2.2h-0.6v1.9h0c-0.5,0.3-1.1,0.5-1.6,0.5c-1.4,0-2.5-1.1-2.5-2.5
		C-94.1,409.5-93,408.4-91.6,408.4z"/>
	<path fill="#FFFFFF" d="M-115,390.5c0-6.1-5-11.1-11.1-11.1h-3.2h0h-3.2h0h-3.2v3.2v3.2h3.2v-3.2h3.2v0h3.2c4.4,0,7.9,3.5,7.9,7.9
		c0,4.4-3.5,7.9-7.9,7.9v0h-3.2v0h-3.2v-3.2V392v-3.2h-3.2v3.2v3.2v3.2v3.2h3.2h3.2h3.2C-120,401.5-115,396.6-115,390.5z"/>
</g>
</svg>
