<?xml version="1.0" encoding="utf-8"?>
<!-- Generator: Adobe Illustrator 16.0.3, SVG Export Plug-In . SVG Version: 6.00 Build 0)  -->
<!DOCTYPE svg PUBLIC "-//W3C//DTD SVG 1.1//EN" "http://www.w3.org/Graphics/SVG/1.1/DTD/svg11.dtd">
<svg version="1.1" id="Layer_1" xmlns="http://www.w3.org/2000/svg" xmlns:xlink="http://www.w3.org/1999/xlink" x="0px" y="0px"
	 width="150px" height="47.967px" viewBox="0 0 150 47.967" enable-background="new 0 0 150 47.967" xml:space="preserve">
<path fill-rule="evenodd" clip-rule="evenodd" fill="#FFFFFF" d="M47.696,14.335L47.696,14.335l-8.546,8.545
	c-0.795-1.092-1.265-2.436-1.265-3.89c0-3.652,2.961-6.613,6.613-6.613c1.454,0,2.799,0.47,3.891,1.265L47.696,14.335z
	 M56.267,23.322v7.438h-7.438L56.267,23.322z M43.758,25.563l0.433-0.434l11.02-11.019l-0.07-0.15l-0.019-0.04l-0.017-0.035
	l-0.073-0.148l-0.002-0.004l-0.002-0.003l-0.071-0.139l-0.022-0.043l-0.016-0.03l-0.078-0.145l-0.005-0.009l-0.004-0.007
	l-0.097-0.174l-0.001,0l-0.014-0.025l-0.042-0.071l-0.042-0.071l-0.007-0.013l-0.035-0.058l-0.071-0.117l-0.002-0.003l-0.012-0.02
	l-0.087-0.139l-0.011-0.017l-0.033-0.052l-0.071-0.107L54.3,12.475l-0.01-0.015c-0.069-0.103-0.139-0.204-0.211-0.305l-0.015-0.021
	l-0.008-0.01l-0.048-0.066l-0.048-0.066l-0.018-0.024l-0.031-0.041l-0.049-0.065l-0.045-0.059l-0.005-0.006l0-0.001l-0.1-0.128
	l-0.022-0.028l-0.029-0.036l-0.097-0.118l-0.005-0.006l-0.002-0.002l-0.002-0.003l-0.103-0.122l-0.026-0.031l-0.027-0.031
	l-0.054-0.062l-0.054-0.061l-0.001-0.001l-0.107-0.118l-0.055-0.06l-0.001-0.002l-0.056-0.06l-0.057-0.06l-0.005-0.005l-0.009-0.009
	l-0.1-0.103l-0.036-0.037l-0.002-0.002l-0.13-0.129l-0.006-0.005l-0.008-0.009l-0.05-0.048l-0.059-0.056l-0.04-0.039l-0.019-0.018
	l-0.06-0.055l-0.06-0.055l-0.013-0.012l-0.048-0.043l-0.061-0.055l-0.045-0.041l-0.016-0.014l-0.117-0.1l-0.007-0.007l-0.017-0.015
	l-0.046-0.038c-2.044-1.716-4.681-2.75-7.561-2.75c-6.5,0-11.769,5.27-11.769,11.769c0,2.879,1.035,5.515,2.751,7.561l0.053,0.062
	l0.106,0.124l0.054,0.062l0.055,0.061l0.11,0.121l0.055,0.06l0.113,0.119l0.057,0.059l0.058,0.058l0.116,0.115l0.059,0.058
	l0.006,0.006l0.112,0.106l0.06,0.056l0.06,0.056l0.061,0.055l0.061,0.055l0.061,0.054l0.01,0.009l0.114,0.099l0.063,0.053
	l0.063,0.053l0.063,0.052l0.063,0.052l0.064,0.051l0.129,0.102l0.064,0.05l0.065,0.05l0.065,0.049l0.066,0.048l0.066,0.048
	l0.134,0.095l0.067,0.047l0.014,0.01l0.122,0.083l0.068,0.045l0.068,0.045l0.138,0.088l0.07,0.044
	c1.797,1.113,3.916,1.756,6.186,1.756L43.758,25.563z"/>
<path fill-rule="evenodd" clip-rule="evenodd" fill="#FFFFFF" d="M28.439,25.538v-7.94c0-1.368,0.533-2.68,1.454-3.625
	c0.819-0.839,1.978-1.381,3.377-1.381c0.172,0,0.338,0.007,0.5,0.021c0.995-1.669,2.367-3.087,4-4.134
	c-1.288-0.669-2.794-1.04-4.499-1.04c-2.102,0-3.965,0.617-5.503,1.649c-1.143-1.15-2.729-1.866-4.48-1.866
	c0,7.847,0,15.692,0,23.538C26.808,30.76,28.439,28.499,28.439,25.538 M68.747,12.377c2.682,0,4.992,1.596,6.029,3.89v0.001
	c0.045,0.097,0.087,0.195,0.126,0.295v0.001c0.039,0.1,0.077,0.201,0.111,0.303v0.001c0.034,0.101,0.067,0.205,0.097,0.309v0.001
	c0.162,0.576,0.25,1.183,0.25,1.811l-0.002,0.17v0l-0.006,0.169l-0.001,0l-0.01,0.168l-0.001,0l-0.014,0.167l-0.001,0l-0.018,0.166
	h-0.001l-0.022,0.165h-0.001l-0.026,0.164h-0.001c-0.02,0.108-0.04,0.216-0.064,0.323h-0.001c-0.024,0.107-0.052,0.212-0.081,0.317
	c-0.03,0.105-0.063,0.208-0.097,0.311v0l-0.054,0.153h-0.001l-0.057,0.151l-0.062,0.149v0l-0.064,0.147l-0.067,0.146l-0.071,0.144
	l-0.075,0.142l-0.039,0.07l-0.038,0.069h-0.001l-0.04,0.069l-0.041,0.068l-0.042,0.068l-0.043,0.067v0l-0.043,0.066l-0.044,0.066
	l-0.045,0.065l-0.046,0.065H74.14l-0.046,0.064l-0.047,0.063l-0.001,0l-0.048,0.063l-0.048,0.063h-0.001L73.9,23.136l-0.049,0.062
	H73.85l-0.051,0.061l-0.156,0.18h-0.001c-0.072,0.079-0.145,0.155-0.22,0.229c-0.055,0.055-0.11,0.11-0.167,0.163l-0.003,0.003
	l-0.057,0.053l-0.001,0.001l-0.059,0.053l-0.058,0.052l-0.001,0.001l-0.06,0.051l-0.06,0.05l-0.001,0.001l-0.062,0.05l-0.061,0.049
	l-0.001,0.001c-4.229,3.324-10.695,0.426-10.695-5.205C62.134,15.338,65.095,12.377,68.747,12.377z M110.032,25.538v-7.94
	c0-1.368,0.533-2.68,1.454-3.625c0.818-0.839,1.978-1.381,3.377-1.381c1.389,0,2.444,0.457,3.135,1.211
	c0.807,0.878,1.225,2.214,1.225,3.794c0,2.829-0.001,5.657-0.002,8.485c-0.002,3.79,2.925,4.677,5.15,4.677V25.65v-1.265v-7.239
	c-0.089-2.667-0.979-5.05-2.588-6.807c-1.658-1.811-3.998-2.9-6.92-2.9c-2.102,0-3.966,0.617-5.502,1.649
	c-1.144-1.15-2.729-1.866-4.481-1.866c0,7.847,0,15.692,0,23.538C108.401,30.76,110.032,28.499,110.032,25.538z M125.293,25.604
	h3.203h9.735c3.652,0,6.613-2.96,6.613-6.613c0-3.652-2.961-6.613-6.613-6.613s-6.613,2.961-6.613,6.613l0.005,0.238v0.011
	l0.005,0.103l0.001,0.018l0.004,0.062l0.005,0.071c0.007,0.097,0.016,0.192,0.027,0.287l0.011,0.083l0.006,0.046l0.005,0.037
	l0.015,0.092l0.006,0.037l0.036,0.201l0.005,0.022c0.02,0.102,0.043,0.201,0.067,0.3l0.008,0.03l0.027,0.104l0.017,0.059
	c0.046,0.163,0.098,0.323,0.155,0.48l0.017,0.044l0.066,0.168l0.089,0.209h-0.001c0.621,1.384,1.703,2.515,3.051,3.199h-7.196
	c-0.205-0.353-0.393-0.717-0.56-1.092l-0.11-0.253l-0.01-0.024c-0.082-0.197-0.159-0.396-0.231-0.599l-0.006-0.018
	c-0.261-0.736-0.449-1.507-0.559-2.304l-0.019-0.146c-0.019-0.146-0.033-0.293-0.046-0.44l-0.004-0.035l-0.007-0.092l-0.003-0.044
	l-0.006-0.082l-0.014-0.249l-0.009-0.263l-0.001-0.056v-0.009l-0.002-0.197c0-6.5,5.27-11.769,11.769-11.769
	c6.5,0,11.77,5.27,11.77,11.769s-5.27,11.769-11.77,11.769l-0.307-0.004h-12.632V25.604z M92.672,30.759L92.672,30.759l0.069,0.001
	h0.068v-0.001l0.213-0.007c2.098-0.054,4.006-0.907,5.429-2.266c1.492,1.411,3.501,2.273,5.717,2.273v-5.156
	c-0.879,0-1.671-0.353-2.243-0.928c-0.573-0.571-0.93-1.364-0.93-2.241v-9.861V7.222h-5.151v5.352h-0.001v0.632v1.307v3.308v4.615
	c0,0.876-0.357,1.67-0.929,2.241c-0.561,0.56-1.326,0.909-2.173,0.927c-0.848-0.019-1.613-0.367-2.174-0.927
	c-0.57-0.571-0.929-1.364-0.929-2.241V17.82v-3.308v-1.307v-0.83h3.144c0.498-1.797,1.103-3.516,1.808-5.154h-4.951
	c-1.143-1.615-3.023-2.668-5.152-2.668v2.668v4.369v0.785v0.83v1.313v2.663v0.639v4.615c0,0.876-0.355,1.67-0.93,2.241
	c-0.572,0.576-1.363,0.928-2.243,0.928v5.156c2.231,0,4.254-0.875,5.749-2.304C88.526,29.855,90.499,30.723,92.672,30.759z
	 M98.419,0c1.645,0,2.977,1.333,2.977,2.977s-1.332,2.977-2.977,2.977c-1.644,0-2.977-1.333-2.977-2.977S96.775,0,98.419,0z
	 M80.603,13.499l-0.008-6.277c-1.952,0.004-3.702,0.896-4.858,2.299l-0.093-0.067l-0.092-0.066h-0.001l-0.094-0.065l-0.094-0.064
	L75.27,9.194L75.174,9.13l-0.096-0.061l-0.047-0.031l-0.05-0.031l-0.097-0.06l-0.031-0.019l-0.066-0.041L74.688,8.83l-0.014-0.008
	L74.59,8.772l-0.098-0.055l-0.003,0l-0.1-0.057l-0.081-0.043l-0.02-0.011l-0.102-0.054L74.123,8.52L74.086,8.5l-0.103-0.052
	l-0.047-0.023L73.88,8.397l-0.104-0.05l-0.03-0.015l-0.074-0.034l-0.105-0.048l-0.013-0.005l-0.069-0.03l-0.023-0.011l-0.046-0.02
	l-0.06-0.026l-0.01-0.003l-0.069-0.029L73.25,8.114l-0.042-0.018L73.143,8.07l-0.005-0.002l-0.07-0.028l-0.032-0.013l-0.039-0.015
	l-0.069-0.027h-0.001l-0.071-0.027l-0.037-0.014l-0.035-0.012l-0.071-0.026L72.71,7.905l-0.069-0.023l-0.041-0.015l-0.031-0.01
	l-0.071-0.025L72.49,7.83l-0.065-0.021L72.38,7.793l-0.027-0.009l-0.072-0.022l-0.012-0.004l-0.062-0.019l-0.05-0.015l-0.023-0.006
	l-0.074-0.022L72.045,7.69l-0.058-0.017l-0.054-0.016l-0.02-0.005L71.84,7.632l-0.02-0.005l-0.054-0.014l-0.059-0.016l-0.015-0.003
	l-0.075-0.019l-0.023-0.006l-0.05-0.012l-0.064-0.016l-0.011-0.003l-0.075-0.018l-0.028-0.007l-0.047-0.01L71.25,7.488l-0.007-0.001
	l-0.075-0.016l-0.033-0.007l-0.042-0.008l-0.073-0.015l-0.003,0L70.94,7.425l-0.037-0.006l-0.039-0.008l-0.077-0.013l-0.001,0
	L70.71,7.385l-0.042-0.007l-0.035-0.005l-0.077-0.012l-0.006-0.001L70.48,7.348l-0.046-0.007l-0.031-0.004l-0.077-0.01l-0.011-0.002
	l-0.067-0.008L70.197,7.31L70.17,7.307l-0.078-0.009l-0.015-0.001L70.015,7.29l-0.056-0.006l-0.022-0.001l-0.079-0.008l-0.019-0.001
	L69.78,7.267l-0.061-0.005L69.701,7.26l-0.079-0.006l-0.024-0.002l-0.055-0.003l-0.066-0.004l-0.013-0.001l-0.079-0.004
	l-0.028-0.001l-0.051-0.003l-0.07-0.003h-0.009l-0.08-0.003l-0.033-0.001l-0.047-0.001l-0.075-0.001h-0.005l-0.08-0.001l-0.038,0
	l-0.042-0.001h-0.081l-0.303,0.004l-0.298,0.012h-0.004l0,0l-0.005,0l-0.288,0.018l-0.006,0.001h-0.001l-0.148,0.012l-0.149,0.014
	l-0.296,0.033l-0.146,0.02l-0.147,0.021l0,0L66.939,7.36l-0.259,0.043l-0.016,0.003h0l-0.016,0.003l-0.256,0.049l-0.017,0.003h0
	l-0.143,0.031l-0.142,0.031h-0.001l-0.141,0.034l-0.141,0.035h-0.002l-0.038,0.01l-0.218,0.059l-0.022,0.007h-0.001l-0.019,0.005
	l-0.224,0.067l-0.034,0.01h-0.001l-0.048,0.016L64.974,7.84l-0.001,0.001l-0.224,0.078l-0.047,0.017h-0.001l-0.042,0.016
	l-0.183,0.07l-0.042,0.017h-0.001l-0.056,0.023l-0.209,0.085l0,0l-0.215,0.094l-0.046,0.021h-0.001l-0.129,0.06l-0.129,0.061h-0.001
	l-0.127,0.063L63.39,8.51h-0.001l-0.125,0.065l-0.126,0.067h0l-0.033,0.019l-0.181,0.101l-0.034,0.02h0l-0.034,0.02l-0.176,0.104
	l-0.034,0.021h0L62.524,9l-0.028,0.018l-0.171,0.11l-0.158,0.104l-0.232,0.161l-0.115,0.083L61.706,9.56v0.001l-0.113,0.084
	l-0.112,0.087v0l-0.11,0.088l-0.015,0.012L61.18,9.978l-0.028,0.023l-0.107,0.091l-0.001,0.001l-0.106,0.093l-0.104,0.093
	l-0.001,0.001l-0.104,0.096l-0.103,0.095v0.001l-0.103,0.099l-0.099,0.097l-0.001,0.001l-0.027,0.027l-0.026,0.027l-0.027,0.027
	l-0.026,0.027l-0.026,0.027l-0.053,0.055l-0.01,0.011l-0.016,0.017l-0.176,0.19l-0.004,0.003l-0.176,0.199l-0.008,0.009
	l-0.164,0.192l-0.019,0.023l-0.005,0.006l-0.142,0.177l-0.024,0.03l-0.005,0.007l-0.156,0.204l-0.016,0.021l-0.007,0.009
	l-0.156,0.214l-0.003,0.005l-0.148,0.214l-0.013,0.019l-0.008,0.013l-0.084,0.126v0.002c-1.211,1.85-1.917,4.063-1.917,6.439
	c0,9.826,10.913,14.82,18.383,9.735v2.044h5.236v-0.642l0.004,0.002L80.603,13.499L80.603,13.499z M11.77,25.604h10.805v5.152H11.77
	v0.004C5.27,30.76,0,25.49,0,18.991S5.27,7.222,11.77,7.222c4.241,0,7.956,2.243,10.028,5.607l-4.393,2.699
	c-1.164-1.89-3.252-3.15-5.635-3.15c-3.653,0-6.614,2.961-6.614,6.613C5.156,22.644,8.117,25.604,11.77,25.604z"/>
<path fill="#FFFFFF" d="M150.001,45.709c0,1.506-0.958,2.258-2.871,2.258c-0.769,0-1.45-0.1-2.045-0.296v-0.893
	c0.606,0.198,1.292,0.298,2.058,0.298c1.172,0,1.759-0.456,1.759-1.367v-0.298c-0.467,0.198-0.97,0.298-1.51,0.298
	c-1.974,0-2.96-1.053-2.96-3.157c0-2.055,1.041-3.083,3.12-3.083c0.845,0,1.66,0.085,2.449,0.255V45.709z M148.901,40.525
	c-0.376-0.096-0.842-0.143-1.396-0.143c-1.328,0-1.992,0.719-1.992,2.157c0,1.479,0.63,2.218,1.885,2.218
	c0.57,0,1.071-0.107,1.504-0.321V40.525z M137.568,45.709v-6.24h0.742l0.195,0.795c0.639-0.529,1.341-0.795,2.105-0.795
	c1.556,0,2.335,0.774,2.335,2.322v3.918h-1.1v-3.936c0-0.928-0.462-1.391-1.386-1.391c-0.629,0-1.228,0.265-1.795,0.792v4.534
	H137.568z M135.665,37.208v1.041h-1.1v-1.041H135.665z M135.665,39.469v6.24h-1.1v-6.24H135.665z M130.435,38.458h0.688l0.24,1.011
	h1.688v0.891h-1.518v3.585c0,0.582,0.254,0.872,0.757,0.872h0.761v0.893h-1.047c-1.047,0-1.568-0.56-1.568-1.682V38.458z
	 M123.273,45.709v-6.24h0.742l0.195,0.795c0.639-0.529,1.341-0.795,2.105-0.795c1.556,0,2.335,0.774,2.335,2.322v3.918h-1.1v-3.936
	c0-0.928-0.462-1.391-1.386-1.391c-0.629,0-1.228,0.265-1.796,0.792v4.534H123.273z M121.37,37.208v1.041h-1.1v-1.041H121.37z
	 M121.37,39.469v6.24h-1.1v-6.24H121.37z M116.14,45.709v-6.24h0.743l0.194,0.795c0.548-0.529,1.205-0.795,1.974-0.795v0.914
	c-0.744,0-1.349,0.265-1.813,0.792v4.534H116.14z M109.083,39.724c0.828-0.17,1.685-0.255,2.567-0.255c2,0,3.002,0.987,3.002,2.966
	c0,2.183-1.006,3.274-3.021,3.274c-0.499,0-0.982-0.1-1.451-0.298v2.556h-1.098V39.724z M110.181,44.437
	c0.433,0.214,0.915,0.321,1.445,0.321c1.296,0,1.943-0.779,1.943-2.336c0-1.358-0.644-2.039-1.932-2.039
	c-0.554,0-1.039,0.047-1.457,0.143V44.437z M100.863,41.847c-1.019,0-1.528,0.496-1.528,1.49c0,0.986,0.597,1.479,1.79,1.479
	c1.354,0,2.032-0.676,2.032-2.031v-0.938H100.863z M98.235,39.497c0-1.525,1.011-2.289,3.031-2.289c0.732,0,1.446,0.1,2.141,0.299
	v0.891c-0.694-0.197-1.382-0.296-2.063-0.296c-1.339,0-2.009,0.456-2.009,1.367c0,0.989,0.505,1.484,1.516,1.484h2.307v-0.844h0.373
	l0.606,0.844h1.082v0.894h-0.962v0.949c0,1.953-1.026,2.932-3.079,2.932c-1.962,0-2.942-0.787-2.942-2.359
	c0-0.98,0.382-1.64,1.146-1.98C98.617,41.051,98.235,40.422,98.235,39.497z M88.399,45.709v-6.24h0.743l0.194,0.795
	c0.64-0.529,1.342-0.795,2.106-0.795c1.556,0,2.335,0.774,2.335,2.322v3.918h-1.1v-3.936c0-0.928-0.463-1.391-1.386-1.391
	c-0.629,0-1.228,0.265-1.796,0.792v4.534H88.399z M86.497,37.208v1.041h-1.1v-1.041H86.497z M86.497,39.469v6.24h-1.1v-6.24H86.497z
	 M80.768,42.796c-0.956,0-1.433,0.336-1.433,1.01s0.377,1.011,1.13,1.011c0.761,0,1.404-0.201,1.932-0.604v-1.297
	C81.853,42.836,81.311,42.796,80.768,42.796z M78.235,43.824c0-1.28,0.844-1.919,2.532-1.919c0.543,0,1.085,0.04,1.629,0.119v-0.588
	c0-0.719-0.562-1.077-1.682-1.077c-0.644,0-1.301,0.099-1.975,0.298v-0.893c0.674-0.197,1.331-0.296,1.975-0.296
	c1.854,0,2.781,0.645,2.781,1.938v4.303h-0.619l-0.379-0.619c-0.623,0.412-1.301,0.619-2.033,0.619
	C78.978,45.709,78.235,45.08,78.235,43.824z M72.232,45.411v-0.95c0.732,0.237,1.475,0.355,2.224,0.355
	c0.994,0,1.491-0.296,1.491-0.891c0-0.554-0.348-0.832-1.039-0.832h-0.893c-1.347,0-2.021-0.614-2.021-1.842
	c0-1.188,0.866-1.783,2.597-1.783c0.744,0,1.485,0.099,2.218,0.296v0.951c-0.732-0.237-1.474-0.356-2.218-0.356
	c-1.037,0-1.556,0.298-1.556,0.893c0,0.554,0.327,0.832,0.98,0.832h0.893c1.427,0,2.139,0.614,2.139,1.842
	c0,1.188-0.864,1.783-2.591,1.783C73.708,45.709,72.965,45.609,72.232,45.411z M66.377,41.988h3.376
	c-0.024-1.094-0.558-1.642-1.605-1.642C67.039,40.347,66.448,40.895,66.377,41.988z M68.148,39.469c1.775,0,2.664,0.876,2.664,2.633
	c0,0.25-0.019,0.518-0.055,0.802h-4.381c0,1.275,0.745,1.913,2.236,1.913c0.708,0,1.339-0.079,1.889-0.237v0.893
	c-0.55,0.158-1.22,0.237-2.009,0.237c-2.144,0-3.215-1.063-3.215-3.191C65.278,40.484,66.235,39.469,68.148,39.469z M63.792,45.334
	c-0.757,0.249-1.69,0.375-2.8,0.375c-1.858,0-2.788-1.081-2.788-3.246c0-1.996,0.986-2.994,2.96-2.994
	c0.54,0,1.049,0.099,1.528,0.296v-2.557h1.1V45.334z M62.693,40.74c-0.444-0.215-0.952-0.32-1.521-0.32
	c-1.256,0-1.885,0.667-1.885,2.002c0,1.581,0.629,2.372,1.885,2.372c0.57,0,1.077-0.077,1.521-0.231V40.74z"/>
</svg>
