<?xml version="1.0" encoding="utf-8"?>
<!-- Generator: Adobe Illustrator 18.1.1, SVG Export Plug-In . SVG Version: 6.00 Build 0)  -->
<svg version="1.1" id="Layer_1" xmlns="http://www.w3.org/2000/svg" xmlns:xlink="http://www.w3.org/1999/xlink" x="0px" y="0px"
	 viewBox="0 0 128 128" enable-background="new 0 0 128 128" xml:space="preserve">
<g>
	<path d="M99.8,52l-1-1.7c-1-1.7-1.7-3.5-2.1-5.4c-0.2-0.8-0.2-1.9-0.4-2.7c4.5-2.9,7.2-7.8,7.2-13.2c0-7.6-5.2-13.8-12.4-15.5V0H9
		v55.9h47.5v13.4H119V52H99.8z M100,28.9c0,5.2-3.1,9.5-7.4,11.4c0.2,1.4,0.4,3.1,0.8,5.2c0.4,2.5,1.2,4.7,2.3,6.6H79.4
		c1-1.9,1.9-3.9,2.3-6.6c0.4-2.1,0.6-3.7,0.8-5.2c-4.3-1.9-7.4-6.4-7.4-11.4c0.2-6.8,5.8-12.4,12.6-12.4
		C94.5,16.5,100,22.1,100,28.9z M47.4,52.4H12.3V3.3h35.3h40.1v9.9c-3.9,0-7.6,1.4-10.3,3.7h-31v3.3h27.9c-1.7,2.5-2.5,5.4-2.5,8.7
		c0,5.4,2.7,10.3,7.2,13.2c-0.2,0.8-0.2,1.9-0.4,2.7c-0.6,2.9-1.7,5.4-3.5,7.6H62H47.4z M115.5,66.1H59.8V55.5h55.7V66.1z"/>
	<path d="M20.3,36.7h18.8V16.9H20.3V36.7z M23.8,20.4h12v13h-12V20.4z"/>
	<rect x="46.3" y="26" width="21.1" height="3.3"/>
</g>
</svg>
