<?xml version="1.0" encoding="utf-8"?>
<!-- Generator: Adobe Illustrator 16.0.3, SVG Export Plug-In . SVG Version: 6.00 Build 0)  -->
<!DOCTYPE svg PUBLIC "-//W3C//DTD SVG 1.1//EN" "http://www.w3.org/Graphics/SVG/1.1/DTD/svg11.dtd">
<svg version="1.1" id="Layer_1" xmlns="http://www.w3.org/2000/svg" xmlns:xlink="http://www.w3.org/1999/xlink" x="0px" y="0px"
	 width="64px" height="64px" viewBox="0 0 64 64" enable-background="new 0 0 64 64" xml:space="preserve">
<path fill="#1E1E1E" d="M53.404,7l-14.247,7.468v0.95v8.057l-3.565-8.983c-6.603-1.119-13.63,0.871-18.728,5.967
	c-6.584,6.584-7.981,16.39-4.193,24.343c2.804-2.695,7.261-2.663,10.023,0.1s2.794,7.219,0.099,10.022
	c7.954,3.788,17.759,2.392,24.344-4.192c4.179-4.181,6.27-9.658,6.268-15.137l0,0V7z M37.064,40.66
	c-2.798,2.797-7.331,2.797-10.128,0s-2.796-7.332,0-10.128c2.797-2.796,7.33-2.796,10.128,0C39.86,33.328,39.86,37.863,37.064,40.66
	z"/>
</svg>
