<?xml version="1.0" encoding="utf-8"?>
<!-- Generator: Adobe Illustrator 16.0.3, SVG Export Plug-In . SVG Version: 6.00 Build 0)  -->
<!DOCTYPE svg PUBLIC "-//W3C//DTD SVG 1.1//EN" "http://www.w3.org/Graphics/SVG/1.1/DTD/svg11.dtd">
<svg version="1.1" id="Layer_1" xmlns="http://www.w3.org/2000/svg" xmlns:xlink="http://www.w3.org/1999/xlink" x="0px" y="0px"
	 width="64px" height="64px" viewBox="0 0 64 64" enable-background="new 0 0 64 64" xml:space="preserve">
<path fill="#333333" d="M45.733,5.736C41.627,3.583,36.96,2.35,32,2.35C15.625,2.35,2.35,15.625,2.35,32
	c0,4.576,1.066,8.891,2.917,12.76c1.787-1.775,4.247-2.876,6.966-2.876c5.458,0,9.884,4.425,9.884,9.883
	c0,2.72-1.1,5.181-2.875,6.967C23.11,60.584,27.426,61.65,32,61.65c16.376,0,29.65-13.274,29.65-29.65V2.35
	C55.974,2.35,50.601,3.574,45.733,5.736z M32,41.884c-5.458,0-9.883-4.426-9.883-9.884c0-5.458,4.425-9.883,9.883-9.883
	c5.458,0,9.884,4.425,9.884,9.883C41.884,37.458,37.458,41.884,32,41.884z"/>
</svg>
