<?xml version="1.0" encoding="utf-8"?>
<!-- Generator: Adobe Illustrator 16.0.3, SVG Export Plug-In . SVG Version: 6.00 Build 0)  -->
<!DOCTYPE svg PUBLIC "-//W3C//DTD SVG 1.1//EN" "http://www.w3.org/Graphics/SVG/1.1/DTD/svg11.dtd">
<svg version="1.1" xmlns="http://www.w3.org/2000/svg" xmlns:xlink="http://www.w3.org/1999/xlink" x="0px" y="0px"
	 width="230.129px" height="230.129px" viewBox="0 0 230.129 230.129" enable-background="new 0 0 230.129 230.129"
	 xml:space="preserve">
<g id="Layer_1">
	<circle fill="#1D2127" cx="115.064" cy="115.064" r="115.064"/>
</g>
<g id="Layer_2_1_">
	<g>
		<path fill="none" stroke="#000000" stroke-width="7.2336" stroke-miterlimit="10" d="M184.404,76.927"/>
		<path fill="none" stroke="#FFCD2E" stroke-width="7.2336" stroke-miterlimit="10" d="M153.359,111.965"/>
		<polyline fill="none" stroke="#FFCD2E" stroke-width="7.2336" stroke-miterlimit="10" points="45.725,92.015 45.725,78.453 
			151.518,78.453 151.518,88.211 		"/>
		<polyline fill="none" stroke="#FFCD2E" stroke-width="7.2336" stroke-miterlimit="10" points="115.802,144.008 45.725,144.008 
			45.725,100.381 		"/>
		<polygon fill="none" stroke="#FFCD2E" stroke-width="7.2336" stroke-miterlimit="10" points="62.985,103.801 74.81,96.973 
			86.635,103.801 86.635,117.455 74.81,124.281 62.985,117.455 		"/>
		
			<line fill="none" stroke="#FFCD2E" stroke-width="7.2336" stroke-miterlimit="10" x1="98.621" y1="103.77" x2="135.154" y2="103.77"/>
		
			<line fill="none" stroke="#FFCD2E" stroke-width="7.2336" stroke-miterlimit="10" x1="98.621" y1="115.072" x2="126.651" y2="115.072"/>
		<path fill="none" stroke="#FFCD2E" stroke-width="7.2336" stroke-miterlimit="10" d="M174.766,139.305
			c0,0-15.204-4.137-13.806-15.146c0.248-1.953,0.715-4,1.265-5.947"/>
		<path fill="none" stroke="#FFCD2E" stroke-width="7.2336" stroke-miterlimit="10" d="M143.787,118.395
			c0.527,1.891,0.974,3.871,1.214,5.764c1.396,11.01-13.805,15.146-13.805,15.146"/>
		<path fill="none" stroke="#FFCD2E" stroke-width="7.2336" stroke-miterlimit="10" d="M152.979,88.144
			c9.376,0,16.976,7.599,16.976,16.974c0,5.859-2.969,11.024-7.484,14.075c-2.709,1.83-5.976,2.898-9.491,2.898
			c-3.257,0-6.3-0.916-8.884-2.506c-4.854-2.988-8.091-8.35-8.091-14.468C136.005,95.743,143.605,88.144,152.979,88.144z"/>
		<polyline fill="none" stroke="#FFCD2E" stroke-width="7.2336" stroke-miterlimit="10" points="162.594,153.201 126.651,153.201 
			126.651,139.305 179.31,139.305 179.31,153.201 170.054,153.201 		"/>
	</g>
</g>
</svg>
