<?xml version="1.0" encoding="utf-8"?>
<!-- Generator: Adobe Illustrator 16.0.3, SVG Export Plug-In . SVG Version: 6.00 Build 0)  -->
<!DOCTYPE svg PUBLIC "-//W3C//DTD SVG 1.1//EN" "http://www.w3.org/Graphics/SVG/1.1/DTD/svg11.dtd">
<svg version="1.1" id="Layer_1" xmlns="http://www.w3.org/2000/svg" xmlns:xlink="http://www.w3.org/1999/xlink" x="0px" y="0px"
	 width="140.043px" height="140.043px" viewBox="0 0 140.043 140.043" enable-background="new 0 0 140.043 140.043"
	 xml:space="preserve">
<path fill-rule="evenodd" clip-rule="evenodd" fill="#1D2127" d="M140.043,70.021C140.043,31.35,108.693,0,70.021,0
	S0,31.35,0,70.021c0,38.672,31.349,70.021,70.021,70.021S140.043,108.693,140.043,70.021"/>
<rect x="66.403" y="88.483" fill-rule="evenodd" clip-rule="evenodd" fill="#FFCD2E" width="49.27" height="9.292"/>
<path fill-rule="evenodd" clip-rule="evenodd" fill="#FFCD2E" d="M24.37,42.268h31.233h35.436v8.73
	c-7.75,0-14.034,6.284-14.034,14.034c0,4.8,2.443,9.196,6.365,11.755c-0.13,0.797-0.27,1.591-0.416,2.384
	c-0.467,2.529-1.504,4.806-3.048,6.768H68.482h-12.88H24.37V42.268z"/>
<rect x="54.568" y="54.368" fill-rule="evenodd" clip-rule="evenodd" fill="#1D2127" width="28.572" height="3"/>
<rect x="54.568" y="62.372" fill-rule="evenodd" clip-rule="evenodd" fill="#1D2127" width="18.699" height="3"/>
<path fill-rule="evenodd" clip-rule="evenodd" fill="#FFCD2E" d="M91.038,53.998c6.094,0,11.034,4.94,11.034,11.034
	c0,4.535-2.736,8.429-6.646,10.126c0.179,1.282,0.421,2.788,0.747,4.558c0.412,2.232,1.171,4.145,2.095,5.768H83.809
	c0.924-1.623,1.683-3.535,2.095-5.768c0.326-1.77,0.568-3.275,0.747-4.558c-3.91-1.697-6.646-5.592-6.646-10.126
	C80.004,58.938,84.944,53.998,91.038,53.998"/>
<rect x="31.55" y="54.368" fill-rule="evenodd" clip-rule="evenodd" fill="#1D2127" width="16.668" height="17.548"/>
</svg>
