<?xml version="1.0" encoding="utf-8"?>
<!-- Generator: Adobe Illustrator 18.1.1, SVG Export Plug-In . SVG Version: 6.00 Build 0)  -->
<svg version="1.1" id="Layer_1" xmlns="http://www.w3.org/2000/svg" xmlns:xlink="http://www.w3.org/1999/xlink" x="0px" y="0px"
	 viewBox="0 0 121.1 66.7" enable-background="new 0 0 121.1 66.7" xml:space="preserve">
<g>
	<path d="M112,63.1c-0.7,0-1.2-0.5-1.2-1.3c0-0.7,0.5-1.3,1.2-1.3c0.7,0,1.2,0.5,1.2,1.3C113.2,62.6,112.7,63.1,112,63.1
		 M113.2,60.2v0.7c-0.3-0.5-0.7-0.7-1.3-0.7c-0.9,0-1.6,0.7-1.6,1.7c0,1,0.7,1.7,1.6,1.7c0.6,0,1.1-0.3,1.3-0.7v0.5
		c0,0.7-0.5,1.2-1.3,1.2c-0.5,0-0.8-0.2-1.2-0.4l-0.2,0.4c0.4,0.3,0.9,0.5,1.4,0.5c1.1,0,1.8-0.6,1.8-1.7v-3.2H113.2z M108.2,60.2
		c-0.6,0-1.1,0.3-1.4,0.8v-0.8h-0.5v3.5h0.5v-1.9c0.1-0.7,0.5-1.1,1.2-1.2c0.6,0,1,0.4,1,1v2h0.5v-2.2
		C109.5,60.7,109,60.2,108.2,60.2z M104.5,60.2v3.5h0.5v-3.5H104.5z M104.8,58.8c-0.2,0-0.3,0.1-0.3,0.4c0,0.2,0.1,0.4,0.3,0.4
		c0.2,0,0.3-0.2,0.3-0.4C105.1,59,105,58.8,104.8,58.8z M103.6,63.1c-0.2,0.1-0.4,0.2-0.6,0.2c-0.3,0-0.5-0.2-0.5-0.6v-1.9h1.1v-0.4
		h-1.1v-0.9H102v0.9h-0.5v0.4h0.5v2c0,0.7,0.4,1,0.9,1c0.3,0,0.5-0.1,0.8-0.3L103.6,63.1z M101,63.1c-0.2,0.1-0.4,0.2-0.6,0.2
		c-0.3,0-0.5-0.2-0.5-0.6v-1.9h1.1v-0.4h-1.1v-0.9h-0.5v0.9h-0.5v0.4h0.5v2c0,0.7,0.4,1,0.9,1c0.3,0,0.5-0.1,0.8-0.3L101,63.1z
		 M95.5,61.7c0.1-0.7,0.6-1.1,1.2-1.1c0.7,0,1.1,0.4,1.2,1.1H95.5z M96.7,60.2c-1,0-1.7,0.7-1.7,1.8s0.7,1.8,1.8,1.8
		c0.6,0,1.1-0.2,1.4-0.6l-0.3-0.3c-0.3,0.3-0.7,0.4-1.1,0.4c-0.7,0-1.2-0.5-1.3-1.2h2.9C98.4,60.9,97.9,60.2,96.7,60.2z M94.2,60.9
		l0.2-0.4c-0.3-0.2-0.7-0.3-1.1-0.3c-0.6,0-1.2,0.3-1.2,1c0,1.2,2,0.8,1.9,1.7c0,0.4-0.3,0.5-0.8,0.5c-0.4,0-0.9-0.2-1.2-0.4
		l-0.2,0.4c0.3,0.3,0.9,0.5,1.4,0.5c0.7,0,1.3-0.3,1.3-1c0-1.3-2-0.9-2-1.7c0-0.3,0.3-0.5,0.7-0.5C93.6,60.6,93.9,60.7,94.2,60.9z
		 M87.1,63.3c-0.5,0-1-0.4-1-0.9c0-0.5,0.4-0.8,0.9-1c0.3,0.4,0.7,0.8,1.3,1.3C87.9,63.1,87.5,63.3,87.1,63.3z M86.7,60
		c0-0.4,0.3-0.7,0.7-0.7c0.4,0,0.7,0.2,0.7,0.6c0,0.5-0.4,0.7-1,1C86.9,60.6,86.7,60.3,86.7,60z M89.6,63.5l-0.8-0.8
		c0.2-0.3,0.4-0.6,0.5-0.9L89,61.5c-0.1,0.3-0.3,0.7-0.5,0.9c-0.5-0.5-0.9-0.9-1.2-1.2c0.6-0.3,1.2-0.6,1.2-1.3
		c0-0.5-0.4-0.9-1.1-0.9c-0.7,0-1.1,0.4-1.1,1c0,0.3,0.2,0.7,0.5,1.1c-0.5,0.3-1.1,0.6-1.1,1.3c0,0.7,0.6,1.3,1.4,1.3
		c0.5,0,1-0.3,1.5-0.7l0.8,0.8L89.6,63.5z M82.8,60.9l0.2-0.4c-0.3-0.2-0.7-0.3-1.1-0.3c-0.6,0-1.2,0.3-1.2,1c0,1.2,2,0.8,1.9,1.7
		c0,0.4-0.3,0.5-0.8,0.5s-0.9-0.2-1.2-0.4l-0.2,0.4c0.3,0.3,0.9,0.5,1.4,0.5c0.7,0,1.3-0.3,1.3-1c0-1.3-2-0.9-2-1.7
		c0-0.3,0.3-0.5,0.7-0.5C82.2,60.6,82.5,60.7,82.8,60.9z M79.1,63.7h0.5v-3.5h-0.5V63.7z M79.4,59.5c0.2,0,0.3-0.2,0.3-0.4
		c0-0.2-0.1-0.4-0.3-0.4s-0.3,0.1-0.3,0.4C79.1,59.4,79.2,59.5,79.4,59.5z M77.1,59.9v0.4h-0.5v0.4h0.5v3h0.5v-3h1v-0.4h-1v-0.5
		c0-0.4,0.3-0.6,0.6-0.6c0.2,0,0.4,0.1,0.6,0.2l0-0.5c-0.2-0.1-0.4-0.2-0.6-0.2C77.6,58.7,77.1,59.1,77.1,59.9z M74.1,63.3
		c-0.5,0-0.8-0.3-0.8-0.6c0-0.4,0.3-0.6,0.9-0.6h1.1v0.4C75.2,63,74.7,63.3,74.1,63.3z M75.8,63.7l0-2.3c0-0.7-0.5-1.2-1.4-1.2
		c-0.6,0-1,0.2-1.4,0.5l0.2,0.4c0.4-0.3,0.7-0.4,1.1-0.4c0.6,0,0.9,0.3,0.9,0.8v0.2h-1.2c-0.8,0-1.3,0.4-1.3,1
		c0,0.6,0.5,1.1,1.2,1.1c0.6,0,1-0.2,1.3-0.6v0.5H75.8z M71.3,61v-0.8h-0.5v3.5h0.5v-1.9c0.1-0.7,0.5-1.2,1.3-1.2v-0.5
		C72,60.2,71.5,60.5,71.3,61z M67.9,63.1c-0.7,0-1.2-0.5-1.2-1.3c0-0.7,0.5-1.3,1.2-1.3c0.7,0,1.2,0.5,1.2,1.3
		C69.1,62.6,68.6,63.1,67.9,63.1z M69.1,60.2v0.7c-0.3-0.5-0.7-0.7-1.3-0.7c-0.9,0-1.6,0.7-1.6,1.7c0,1,0.7,1.7,1.6,1.7
		c0.6,0,1.1-0.3,1.3-0.7v0.5c0,0.7-0.5,1.2-1.3,1.2c-0.5,0-0.8-0.2-1.2-0.4l-0.2,0.4c0.4,0.3,0.9,0.5,1.4,0.5c1.1,0,1.8-0.6,1.8-1.7
		v-3.2H69.1z M62,60.2c-0.6,0-1.1,0.3-1.4,0.8v-0.8h-0.5v3.5h0.5v-1.9c0.1-0.7,0.5-1.1,1.2-1.2c0.6,0,1,0.4,1,1v2h0.5v-2.2
		C63.4,60.7,62.9,60.2,62,60.2z M58.3,60.2v3.5h0.5v-3.5H58.3z M58.6,58.8c-0.2,0-0.3,0.1-0.3,0.4c0,0.2,0.1,0.4,0.3,0.4
		s0.3-0.2,0.3-0.4C58.9,59,58.8,58.8,58.6,58.8z M55.5,63.3c-0.5,0-0.8-0.3-0.8-0.6c0-0.4,0.3-0.6,0.9-0.6h1.1v0.4
		C56.5,63,56.1,63.3,55.5,63.3z M57.2,63.7l0-2.3c0-0.7-0.5-1.2-1.4-1.2c-0.6,0-1,0.2-1.4,0.5l0.2,0.4c0.4-0.3,0.7-0.4,1.1-0.4
		c0.6,0,0.9,0.3,0.9,0.8v0.2h-1.2c-0.8,0-1.3,0.4-1.3,1c0,0.6,0.5,1.1,1.2,1.1c0.6,0,1-0.2,1.3-0.6v0.5H57.2z M53.3,60.9l0.2-0.4
		c-0.3-0.2-0.7-0.3-1.1-0.3c-0.6,0-1.2,0.3-1.2,1c0,1.2,2,0.8,1.9,1.7c0,0.4-0.3,0.5-0.8,0.5s-0.9-0.2-1.2-0.4L51,63.2
		c0.3,0.3,0.9,0.5,1.4,0.5c0.7,0,1.3-0.3,1.3-1c0-1.3-2-0.9-2-1.7c0-0.3,0.3-0.5,0.7-0.5C52.7,60.6,53,60.7,53.3,60.9z M47.7,61.7
		c0.1-0.7,0.6-1.1,1.2-1.1c0.7,0,1.1,0.4,1.2,1.1H47.7z M48.9,60.2c-1,0-1.7,0.7-1.7,1.8s0.7,1.8,1.8,1.8c0.6,0,1.1-0.2,1.4-0.6
		L50,62.8c-0.3,0.3-0.7,0.4-1.1,0.4c-0.7,0-1.2-0.5-1.3-1.2h2.9C50.6,60.9,50,60.2,48.9,60.2z M44.4,63.3c-0.7,0-1.3-0.6-1.3-1.3
		c0-0.8,0.5-1.3,1.3-1.3c0.7,0,1.3,0.6,1.3,1.3C45.7,62.7,45.2,63.3,44.4,63.3z M45.7,58.7v2.2c-0.3-0.5-0.7-0.8-1.4-0.8
		c-1,0-1.7,0.7-1.7,1.8c0,1.1,0.7,1.8,1.7,1.8c0.6,0,1.1-0.3,1.4-0.8v0.8h0.5v-5H45.7z"/>
	<path d="M33.5,43.7c2.9,0,5.4,2.3,5.4,5.2c0,2.9-2.4,5.3-5.4,5.3c-2.9,0-5.4-2.4-5.4-5.3C28.1,46.1,30.6,43.7,33.5,43.7 M33.5,42.3
		c-3.9,0-6.9,2.9-6.9,6.6c0,3.7,3.1,6.7,6.9,6.7c3.8,0,6.9-2.9,6.9-6.7C40.4,45.3,37.4,42.3,33.5,42.3z M12.9,42.4v13.2h1.5V44.9
		l7.9,10.7h1.5V42.4h-1.5v10.7l-7.9-10.7H12.9z M7.4,42.4v13.2h1.5V42.4H7.4z"/>
	<path d="M101.8,42.4v13.2h2.8v-8.5l6.4,8.5h2.7V42.4h-2.8v8.5l-6.4-8.5H101.8z M95.9,42.4v13.2h3V42.4H95.9z M85.2,50.6l2.1-5.1
		l2.1,5.1H85.2z M91.4,55.6h3.2l-5.6-13.2h-3.1l-5.7,13.2h3.1l1-2.6h6.1L91.4,55.6z M78.4,46.1l1.1-2.5c-1.3-0.9-3.2-1.4-5-1.4
		c-3.1,0-5.1,1.5-5.1,3.9c0,4.7,7,3.2,7,5.7c0,0.8-0.7,1.3-2,1.3c-1.4,0-3.3-0.8-4.7-2l-1.2,2.4c1.5,1.3,3.7,2.1,5.8,2.1
		c2.9,0,5.2-1.4,5.2-4c0-4.7-7-3.4-7-5.8c0-0.7,0.7-1.1,1.7-1.1C75.3,44.8,77,45.3,78.4,46.1z M57.1,42.4v13.2h10.2v-2.5h-7.3v-2.9
		h6.3v-2.5h-6.3v-2.9h7.1v-2.5H57.1z M48.3,53.1h-2.7v-8.2h2.6c2.3,0,4,1.7,4,4.1C52.1,51.4,50.5,53.1,48.3,53.1z M48.2,42.4h-5.6
		v13.2h5.5c4.2,0,7-2.7,7-6.6C55.1,45.1,52.3,42.4,48.2,42.4z"/>
</g>
<path fill-rule="evenodd" clip-rule="evenodd" d="M49.9,8h9.5c6.5,0,11.8,5.3,11.8,11.8c0,6.5-5.3,11.8-11.8,11.8h-9.5
	c0-4.8,0-9.6,0-14.4h-4.7c0,6.4,0,12.7,0,19.1h14.2c9.1,0,16.5-7.4,16.5-16.5c0-9.1-7.4-16.5-16.5-16.5H45.2v9.3h4.7V8z"/>
</svg>
