<?xml version="1.0" encoding="utf-8"?>
<!-- Generator: Adobe Illustrator 16.0.3, SVG Export Plug-In . SVG Version: 6.00 Build 0)  -->
<!DOCTYPE svg PUBLIC "-//W3C//DTD SVG 1.1//EN" "http://www.w3.org/Graphics/SVG/1.1/DTD/svg11.dtd">
<svg version="1.1" id="Layer_1" xmlns="http://www.w3.org/2000/svg" xmlns:xlink="http://www.w3.org/1999/xlink" x="0px" y="0px"
	 width="230.129px" height="230.129px" viewBox="0 0 230.129 230.129" enable-background="new 0 0 230.129 230.129"
	 xml:space="preserve">
<path fill="#FFCD2E" d="M114.065,12.63c-27.536,0-53.671,10.828-73.139,30.295C21.458,62.394,10.63,88.529,10.63,116.065
	s10.828,53.671,30.296,73.139c19.468,19.469,45.603,30.297,73.139,30.297s53.671-10.828,73.139-30.297
	c19.469-19.468,30.297-45.603,30.297-73.139s-10.828-53.672-30.297-73.14C167.736,23.458,141.601,12.63,114.065,12.63 M114.065,2
	c31.498,0,60.014,12.768,80.656,33.409c20.642,20.641,33.408,49.159,33.408,80.656s-12.768,60.014-33.408,80.654
	c-20.641,20.642-49.158,33.41-80.656,33.41s-60.014-12.769-80.656-33.41C12.767,176.079,0,147.563,0,116.065
	S12.768,56.05,33.409,35.409C54.05,14.768,82.567,2,114.065,2z"/>
<path fill="#333333" d="M151.131,139.575h-6.09l-3.537-17.877h-0.131l-4.256,17.877h-5.83l5.961-23.771l-5.566-23.248h6.154
	l3.537,17.354h0.131l3.93-17.354h5.829l-5.634,23.248L151.131,139.575z M121.465,116.654v-15.651c0-1.834-0.916-2.75-2.75-2.75
	h-1.703c-1.833,0-2.75,0.917-2.75,2.75v15.651H121.465z M114.262,139.575h-6.287V100.61c0-5.37,2.51-8.055,7.531-8.055h4.715
	c5.021,0,7.531,2.685,7.531,8.055v38.965h-6.287v-17.224h-7.203V139.575L114.262,139.575z M89.638,120.19l5.829-27.636h6.941v47.021
	h-6.287l0.655-30.779l-4.715,22.266h-4.846L82.5,108.796l0.655,30.779h-6.287v-47.02h6.942L89.638,120.19z"/>
</svg>
