<?xml version="1.0" encoding="utf-8"?>
<!-- Generator: Adobe Illustrator 16.0.3, SVG Export Plug-In . SVG Version: 6.00 Build 0)  -->
<!DOCTYPE svg PUBLIC "-//W3C//DTD SVG 1.1//EN" "http://www.w3.org/Graphics/SVG/1.1/DTD/svg11.dtd">
<svg version="1.1" id="Layer_1" xmlns="http://www.w3.org/2000/svg" xmlns:xlink="http://www.w3.org/1999/xlink" x="0px" y="0px"
	 width="230.13px" height="230.13px" viewBox="0 0 230.13 230.13" enable-background="new 0 0 230.13 230.13" xml:space="preserve">
<path fill="#333333" d="M114.065,12.63c-27.536,0-53.671,10.828-73.139,30.295C21.458,62.394,10.63,88.529,10.63,116.065
	s10.828,53.671,30.296,73.139c19.468,19.468,45.603,30.296,73.139,30.296c27.536,0,53.671-10.828,73.139-30.296
	s30.296-45.603,30.296-73.139s-10.828-53.672-30.296-73.14C167.736,23.458,141.601,12.63,114.065,12.63 M114.065,2
	c31.498,0,60.014,12.768,80.656,33.409s33.409,49.159,33.409,80.656c0,31.497-12.768,60.014-33.409,80.655
	s-49.158,33.409-80.656,33.409s-60.014-12.768-80.656-33.409S0,147.563,0,116.065c0-31.498,12.768-60.015,33.409-80.656
	S82.567,2,114.065,2z"/>
<path fill="#333333" d="M151.132,139.575h-6.091l-3.536-17.878h-0.131l-4.257,17.878h-5.829l5.96-23.772l-5.566-23.248h6.155
	l3.537,17.354h0.131l3.929-17.354h5.829l-5.633,23.248L151.132,139.575z M121.466,116.654v-15.651c0-1.834-0.917-2.75-2.751-2.75
	h-1.703c-1.833,0-2.75,0.917-2.75,2.75v15.651H121.466z M114.262,139.575h-6.287V100.61c0-5.37,2.51-8.055,7.531-8.055h4.715
	c5.021,0,7.531,2.685,7.531,8.055v38.965h-6.286v-17.224h-7.204V139.575z M89.638,120.19l5.829-27.636h6.941v47.021h-6.287
	l0.655-30.779l-4.715,22.266h-4.846L82.5,108.796l0.655,30.779h-6.287V92.555h6.942L89.638,120.19z"/>
</svg>
