<?xml version="1.0" encoding="utf-8"?>
<!-- Generator: Adobe Illustrator 16.0.3, SVG Export Plug-In . SVG Version: 6.00 Build 0)  -->
<!DOCTYPE svg PUBLIC "-//W3C//DTD SVG 1.1//EN" "http://www.w3.org/Graphics/SVG/1.1/DTD/svg11.dtd">
<svg version="1.1" id="Layer_1" xmlns="http://www.w3.org/2000/svg" xmlns:xlink="http://www.w3.org/1999/xlink" x="0px" y="0px"
	 width="230.13px" height="230.13px" viewBox="0 0 230.13 230.13" enable-background="new 0 0 230.13 230.13" xml:space="preserve">
<path fill="#333333" d="M114.065,12.63c-27.536,0-53.671,10.828-73.139,30.295C21.458,62.394,10.63,88.529,10.63,116.065
	s10.828,53.671,30.296,73.139c19.468,19.468,45.603,30.296,73.139,30.296c27.536,0,53.671-10.828,73.139-30.296
	s30.296-45.603,30.296-73.139s-10.828-53.672-30.296-73.14C167.736,23.458,141.601,12.63,114.065,12.63 M114.065,2
	c31.498,0,60.014,12.768,80.656,33.409s33.409,49.159,33.409,80.656c0,31.497-12.768,60.014-33.409,80.655
	s-49.158,33.409-80.656,33.409s-60.014-12.768-80.656-33.409S0,147.563,0,116.065c0-31.498,12.768-60.015,33.409-80.656
	S82.567,2,114.065,2z"/>
<path fill="#333333" d="M156.436,139.575V92.555h15.586v5.698h-9.299v14.276h8.251v5.697h-8.251v15.652h9.299v5.697H156.436z
	 M152.834,139.575h-14.932V92.555h6.287v41.323h8.645V139.575z M118.846,133.878h4.715c1.659,0,2.488-0.699,2.488-2.096v-30.125
	c0-2.271-0.938-3.405-2.815-3.405h-4.388V133.878z M112.559,139.575V92.555h10.937c5.894,0,8.841,3.013,8.841,9.037v31.173
	c0,4.54-2.511,6.811-7.531,6.811H112.559z M93.502,133.878h4.715c1.659,0,2.488-0.699,2.488-2.096v-30.125
	c0-2.271-0.939-3.405-2.816-3.405h-4.388V133.878z M87.215,139.575V92.555h10.937c5.894,0,8.841,3.013,8.841,9.037v31.173
	c0,4.54-2.51,6.811-7.531,6.811H87.215z M75.034,139.575V92.555h6.287v47.021H75.034z M56.37,120.19l5.829-27.636h6.942v47.021
	h-6.287l0.655-30.779l-4.715,22.266h-4.846l-4.715-22.266l0.655,30.779H43.6V92.555h6.941L56.37,120.19z"/>
</svg>
