<?xml version="1.0" encoding="utf-8"?>
<!-- Generator: Adobe Illustrator 16.0.3, SVG Export Plug-In . SVG Version: 6.00 Build 0)  -->
<!DOCTYPE svg PUBLIC "-//W3C//DTD SVG 1.1//EN" "http://www.w3.org/Graphics/SVG/1.1/DTD/svg11.dtd">
<svg version="1.1" id="Layer_1" xmlns="http://www.w3.org/2000/svg" xmlns:xlink="http://www.w3.org/1999/xlink" x="0px" y="0px"
	 width="230.129px" height="230.129px" viewBox="0 0 230.129 230.129" enable-background="new 0 0 230.129 230.129"
	 xml:space="preserve">
<path fill="#FFCD2E" d="M114.065,12.63c-27.536,0-53.671,10.828-73.139,30.295C21.458,62.394,10.63,88.529,10.63,116.065
	s10.828,53.671,30.296,73.139c19.468,19.469,45.603,30.297,73.139,30.297s53.671-10.828,73.139-30.297
	c19.469-19.468,30.297-45.603,30.297-73.139s-10.828-53.672-30.297-73.14C167.736,23.458,141.601,12.63,114.065,12.63 M114.065,2
	c31.498,0,60.014,12.768,80.656,33.409c20.642,20.641,33.408,49.159,33.408,80.656s-12.768,60.014-33.408,80.654
	c-20.641,20.642-49.158,33.41-80.656,33.41s-60.014-12.769-80.656-33.41C12.767,176.079,0,147.563,0,116.065
	S12.768,56.05,33.409,35.409C54.05,14.768,82.567,2,114.065,2z"/>
<path fill="#333333" d="M156.436,139.575v-47.02h15.586v5.698h-9.299v14.276h8.251v5.697h-8.251v15.651h9.299v5.697H156.436z
	 M152.834,139.575h-14.933v-47.02h6.287v41.322h8.646V139.575z M118.846,133.877h4.715c1.659,0,2.488-0.698,2.488-2.096v-30.125
	c0-2.271-0.938-3.405-2.815-3.405h-4.388V133.877z M112.559,139.575v-47.02h10.938c5.894,0,8.84,3.013,8.84,9.037v31.173
	c0,4.54-2.51,6.812-7.53,6.812h-12.247V139.575z M93.502,133.877h4.715c1.659,0,2.488-0.698,2.488-2.096v-30.125
	c0-2.271-0.939-3.405-2.816-3.405h-4.388L93.502,133.877L93.502,133.877z M87.215,139.575v-47.02h10.937
	c5.894,0,8.841,3.013,8.841,9.037v31.173c0,4.54-2.51,6.812-7.531,6.812H87.215V139.575z M75.034,139.575v-47.02h6.287v47.021
	h-6.287V139.575z M56.37,120.19l5.829-27.636h6.942v47.021h-6.287l0.655-30.779l-4.715,22.266h-4.846l-4.715-22.266l0.655,30.779
	H43.6v-47.02h6.941L56.37,120.19z"/>
</svg>
