<?xml version="1.0" encoding="utf-8"?>
<!-- Generator: Adobe Illustrator 16.0.3, SVG Export Plug-In . SVG Version: 6.00 Build 0)  -->
<!DOCTYPE svg PUBLIC "-//W3C//DTD SVG 1.1//EN" "http://www.w3.org/Graphics/SVG/1.1/DTD/svg11.dtd">
<svg version="1.1" id="Layer_1" xmlns="http://www.w3.org/2000/svg" xmlns:xlink="http://www.w3.org/1999/xlink" x="0px" y="0px"
	 width="153.998px" height="153.998px" viewBox="0 0 153.998 153.998" enable-background="new 0 0 153.998 153.998"
	 xml:space="preserve">
<path fill="#333333" d="M124.888,29.11C112.633,16.854,95.701,9.274,76.999,9.274S41.365,16.854,29.11,29.11
	C16.854,41.366,9.273,58.297,9.273,77c0,18.702,7.581,35.633,19.836,47.889c12.255,12.255,29.187,19.836,47.889,19.836
	s35.634-7.581,47.889-19.836c12.256-12.256,19.837-29.188,19.837-47.889C144.725,58.297,137.144,41.366,124.888,29.11 M76.999,0
	c21.263,0,40.513,8.619,54.446,22.553S153.998,55.737,153.998,77c0,21.262-8.619,40.512-22.553,54.446
	c-13.934,13.935-33.184,22.553-54.446,22.553s-40.513-8.618-54.447-22.553C8.619,117.512,0,98.262,0,77
	c0-21.263,8.619-40.513,22.553-54.447C36.486,8.619,55.736,0,76.999,0z"/>
<path fill="#333333" d="M126.844,92.87h-10.079V61.128h4.243v27.895h5.836V92.87z M108.762,77.397V66.831
	c0-1.238-0.618-1.857-1.856-1.857h-1.149c-1.237,0-1.856,0.619-1.856,1.857v10.566H108.762z M103.899,92.87h-4.244V66.566
	c0-3.625,1.695-5.438,5.084-5.438h3.183c3.39,0,5.084,1.813,5.084,5.438V92.87h-4.244V81.243h-4.862V92.87z M87.277,79.784
	l3.935-18.656h4.686V92.87h-4.244l0.442-20.778l-3.183,15.031h-3.271l-3.184-15.031L82.9,92.87h-4.244V61.128h4.687L87.277,79.784z
	 M66.19,76.424h2.785c1.267,0,1.901-0.766,1.901-2.299v-6.853c0-1.532-0.634-2.299-1.901-2.299H66.19V76.424z M61.946,61.128h8.311
	c3.242,0,4.863,1.813,4.863,5.438v7.825c0,2.771-0.84,4.524-2.52,5.261l2.962,13.219h-4.023l-2.785-12.821H66.19V92.87h-4.244
	V61.128z M50.098,89.023h2.167c1.12,0,1.68-0.619,1.68-1.856V66.831c0-1.238-0.634-1.857-1.901-1.857h-1.989
	c-1.238,0-1.857,0.619-1.857,1.857v20.336C48.197,88.404,48.831,89.023,50.098,89.023z M49.081,92.87
	c-3.418,0-5.128-1.798-5.128-5.394V66.566c0-3.625,1.694-5.438,5.083-5.438h4.067c3.389,0,5.084,1.813,5.084,5.438v20.911
	c0,3.596-1.709,5.394-5.128,5.394H49.081z M35.952,76.469v-15.34h4.244V92.87h-4.244v-6.322l-4.554-14.456V92.87h-4.244V61.128
	h4.244L35.952,76.469z"/>
</svg>
