<?xml version="1.0" encoding="utf-8"?>
<!-- Generator: Adobe Illustrator 16.0.3, SVG Export Plug-In . SVG Version: 6.00 Build 0)  -->
<!DOCTYPE svg PUBLIC "-//W3C//DTD SVG 1.1//EN" "http://www.w3.org/Graphics/SVG/1.1/DTD/svg11.dtd">
<svg version="1.1" id="Layer_1" xmlns="http://www.w3.org/2000/svg" xmlns:xlink="http://www.w3.org/1999/xlink" x="0px" y="0px"
	 width="427.197px" height="427.197px" viewBox="0 0 427.197 427.197" enable-background="new 0 0 427.197 427.197"
	 xml:space="preserve">
<polygon fill="#333333" points="281.275,151.158 53.622,151.158 100.432,263.772 233.146,263.772 262.057,294.568 319.596,107.197 
	392.787,107.197 392.787,121.371 330.026,121.371 268.416,322 227.059,277.945 91.002,277.945 32.41,136.985 281.275,136.985 "/>
<path fill-rule="evenodd" clip-rule="evenodd" fill="#333333" d="M171.713,199.087c5.325,0,9.642,4.317,9.642,9.642
	c0,5.325-4.317,9.642-9.642,9.642s-9.642-4.317-9.642-9.642C162.071,203.404,166.388,199.087,171.713,199.087"/>
<path fill-rule="evenodd" clip-rule="evenodd" fill="#333333" d="M133.308,199.087c5.325,0,9.642,4.317,9.642,9.642
	c0,5.325-4.317,9.642-9.642,9.642c-5.325,0-9.642-4.317-9.642-9.642C123.666,203.404,127.983,199.087,133.308,199.087"/>
<path fill-rule="evenodd" clip-rule="evenodd" fill="#333333" d="M210.118,199.087c5.325,0,9.642,4.317,9.642,9.642
	c0,5.325-4.317,9.642-9.642,9.642c-5.325,0-9.642-4.317-9.642-9.642C200.476,203.404,204.792,199.087,210.118,199.087"/>
</svg>
