<?xml version="1.0" encoding="utf-8"?>
<!-- Generator: Adobe Illustrator 16.0.3, SVG Export Plug-In . SVG Version: 6.00 Build 0)  -->
<!DOCTYPE svg PUBLIC "-//W3C//DTD SVG 1.1//EN" "http://www.w3.org/Graphics/SVG/1.1/DTD/svg11.dtd">
<svg version="1.1" id="Layer_1" xmlns="http://www.w3.org/2000/svg" xmlns:xlink="http://www.w3.org/1999/xlink" x="0px" y="0px"
	 width="152px" height="152px" viewBox="0 0 152 152" enable-background="new 0 0 152 152" xml:space="preserve">
<g>
	<path fill="#FFFFFF" d="M101.307,76.846v-25.81h8.555v3.127h-5.104V62h4.529v3.127h-4.529v8.592h5.104v3.127H101.307z
		 M94.62,63.509V51.036h3.451v25.81H94.62v-5.14l-3.702-11.755v16.895h-3.451v-25.81h3.451L94.62,63.509z M80.781,76.846v-25.81
		h3.45v25.81H80.781z M78.804,76.846h-8.196v-25.81h3.451v22.683h4.745V76.846z M63.922,63.509V51.036h3.45v25.81h-3.45v-5.14
		l-3.703-11.755v16.895h-3.451v-25.81h3.451L63.922,63.509z M47.134,73.719h1.762c0.911,0,1.366-0.503,1.366-1.51V55.673
		c0-1.007-0.516-1.51-1.546-1.51h-1.617c-1.007,0-1.51,0.503-1.51,1.51v16.536C45.589,73.215,46.104,73.719,47.134,73.719z
		 M46.308,76.846c-2.78,0-4.17-1.461-4.17-4.385V55.458c0-2.948,1.378-4.421,4.134-4.421h3.307c2.757,0,4.135,1.474,4.135,4.421
		V72.46c0,2.924-1.391,4.385-4.171,4.385H46.308z"/>
	<path fill="#FFCD2E" d="M48.064,133.617c3.17-1.19,6.354-2.34,9.539-3.489c31.104-11.224,69.284-24.516,69.284-64.076
		c0-13.547-5.327-26.406-14.904-35.983c-9.578-9.577-22.437-14.905-35.984-14.905c-13.546,0-26.405,5.328-35.982,14.905
		c-9.578,9.578-14.905,22.437-14.905,35.983c0,9.423,2.571,18.587,7.509,26.614c4.598,7.477,11.079,13.667,18.758,17.922
		l3.353,1.857L48.064,133.617z M75.999,10.472c15.349,0,29.244,6.222,39.302,16.279c10.058,10.058,16.279,23.953,16.279,39.301
		c0,42.369-39.653,56.679-72.384,68.489c-4.715,1.701-9.279,3.349-13.801,5.125l-4.739,1.862l8.447-26.837
		c-8.4-4.654-15.468-11.416-20.48-19.567c-5.203-8.459-8.203-18.417-8.203-29.072c0-15.348,6.222-29.243,16.279-39.301
		C46.757,16.693,60.652,10.472,75.999,10.472z"/>
</g>
</svg>
