<?xml version="1.0" encoding="utf-8"?>
<!-- Generator: Adobe Illustrator 16.0.3, SVG Export Plug-In . SVG Version: 6.00 Build 0)  -->
<!DOCTYPE svg PUBLIC "-//W3C//DTD SVG 1.1//EN" "http://www.w3.org/Graphics/SVG/1.1/DTD/svg11.dtd">
<svg version="1.1" id="Layer_1" xmlns="http://www.w3.org/2000/svg" xmlns:xlink="http://www.w3.org/1999/xlink" x="0px" y="0px"
	 width="170.71px" height="170.709px" viewBox="0 0 170.71 170.709" enable-background="new 0 0 170.71 170.709"
	 xml:space="preserve">
<path fill="#333333" d="M53.936,150.158c3.564-1.339,7.147-2.632,10.729-3.925c34.982-12.623,77.926-27.573,77.926-72.067
	c0-15.236-5.991-29.699-16.764-40.471C115.054,22.923,100.591,16.93,85.354,16.93c-15.237,0-29.699,5.992-40.471,16.764
	S28.119,58.93,28.119,74.166c0,10.599,2.892,20.905,8.445,29.935c5.172,8.408,12.461,15.371,21.098,20.156l3.771,2.09
	L53.936,150.158z M85.354,11.653c17.263,0,32.892,6.998,44.203,18.31c11.313,11.313,18.31,26.941,18.31,44.203
	c0,47.653-44.6,63.748-81.412,77.032c-5.302,1.912-10.437,3.766-15.521,5.764l-5.331,2.096l9.502-30.185
	c-9.45-5.235-17.397-12.841-23.035-22.009c-5.852-9.514-9.227-20.715-9.227-32.698c0-17.262,6.998-32.891,18.31-44.203
	C52.464,18.651,68.093,11.653,85.354,11.653z"/>
<path fill="#333333" d="M112.891,98.38h2.256c1.026,0,1.54-0.621,1.54-1.861v-5.552c0-1.241-0.514-1.862-1.54-1.862h-2.256V98.38z
	 M109.453,85.99h6.732c2.626,0,3.939,1.468,3.939,4.403v6.34c0,2.244-0.682,3.664-2.043,4.262l2.399,10.707h-3.259l-2.256-10.385
	h-2.077v10.385h-3.438V85.99H109.453z M96.905,111.702V85.99h8.522v3.114h-5.086v7.808h4.513v3.116h-4.513v8.559h5.086v3.115H96.905
	L96.905,111.702z M84.93,108.586h2.577c0.908,0,1.361-0.382,1.361-1.146V90.967c0-1.241-0.514-1.862-1.539-1.862H84.93V108.586z
	 M81.492,111.702V85.99h5.981c3.223,0,4.834,1.647,4.834,4.94v17.047c0,2.482-1.373,3.725-4.118,3.725H81.492z M69.839,98.38h2.256
	c1.026,0,1.54-0.621,1.54-1.861v-5.552c0-1.241-0.514-1.862-1.54-1.862h-2.256V98.38z M66.401,85.99h6.732
	c2.626,0,3.939,1.468,3.939,4.403v6.34c0,2.244-0.68,3.664-2.041,4.262l2.399,10.707h-3.259l-2.256-10.385h-2.077v10.385H66.4
	L66.401,85.99L66.401,85.99z M55.25,108.586h1.754c0.907,0,1.361-0.502,1.361-1.504V90.608c0-1.002-0.514-1.504-1.541-1.504h-1.611
	c-1.002,0-1.504,0.502-1.504,1.504v16.475C53.709,108.084,54.223,108.586,55.25,108.586z M54.426,111.702
	c-2.77,0-4.154-1.456-4.154-4.369V90.394c0-2.937,1.373-4.403,4.119-4.403h3.294c2.746,0,4.118,1.468,4.118,4.403v16.938
	c0,2.913-1.385,4.369-4.154,4.369L54.426,111.702L54.426,111.702z"/>
<path fill="#333333" d="M80.226,48.682h-0.284L74.76,64.51h5.067L80.226,48.682z M88.14,69.122h-3.132v9.565h-5.351v-9.565h-9.565
	l-1.139-4.612l10.59-26.703h5.465V64.51h3.132V69.122z M64.853,73.79v4.897H50.164V66.104c0-0.683,0.057-1.252,0.171-1.708
	c0.114-0.456,0.313-0.882,0.598-1.281c0.285-0.398,0.788-0.958,1.509-1.679l5.522-5.295c0.417-0.417,0.75-0.778,0.997-1.082
	c0.247-0.304,0.417-0.56,0.512-0.769c0.095-0.208,0.152-0.427,0.171-0.655c0.019-0.228,0.028-0.531,0.028-0.911v-7.572
	c0-1.594-0.778-2.392-2.334-2.392h-0.342c-1.556,0-2.334,0.797-2.334,2.392v4.213h-5.465V44.81c0-4.669,2.182-7.003,6.547-7.003
	h2.847c4.365,0,6.547,2.334,6.547,7.003v9.793c0,0.759-0.104,1.423-0.313,1.993c-0.208,0.569-0.75,1.271-1.623,2.107l-6.035,5.807
	c-0.759,0.721-1.196,1.215-1.31,1.48c-0.114,0.265-0.18,0.531-0.199,0.797c-0.019,0.266-0.029,0.626-0.029,1.082v5.921H64.853z"/>
<path fill="#333333" d="M115.123,73v5.423h1.26v-3.436l1.261,2.894h0.929l1.26-2.894l0.008,3.436h1.256V73h-1.549l-1.438,3.164
	L116.667,73H115.123z M104.433,76.38l0.759-1.934l0.742,1.934H104.433z M106.723,78.423h1.509L105.957,73h-1.453l-2.33,5.423h1.455
	l0.379-0.959h2.345L106.723,78.423z M95.531,76.659V73H92.25v1.168h1.857v2.46c0,0.41-0.217,0.627-0.564,0.627
	c-0.316,0-0.742-0.202-1.138-0.612l-0.649,0.967c0.479,0.557,1.105,0.874,1.888,0.874C94.804,78.484,95.531,77.819,95.531,76.659z"
	/>
<path fill="#333333" d="M103.989,68.014h-4.653c0.201-0.618,0.312-1.278,0.312-1.964c0-1.741-0.706-3.318-1.847-4.459
	c-1.141-1.141-2.719-1.847-4.459-1.847v-4.521c2.988,0,5.695,1.212,7.654,3.171s3.172,4.666,3.172,7.655
	C104.167,66.721,104.106,67.377,103.989,68.014 M112.957,68.014h-4.549c0.082-0.643,0.127-1.299,0.127-1.964
	c0-4.196-1.701-7.994-4.451-10.744c-2.748-2.749-6.547-4.449-10.742-4.449v-4.52c5.443,0,10.371,2.207,13.938,5.773
	c3.566,3.568,5.773,8.496,5.773,13.939C113.054,66.713,113.021,67.368,112.957,68.014z M93.341,63.454
	c1.435,0,2.597,1.162,2.597,2.596c0,1.434-1.162,2.596-2.597,2.596c-1.434,0-2.598-1.162-2.598-2.596
	C90.744,64.616,91.908,63.454,93.341,63.454z M93.341,37.878c7.779,0,14.822,3.153,19.921,8.251
	c5.098,5.098,8.252,12.142,8.252,19.921c0,0.66-0.022,1.315-0.068,1.964h-4.532c0.053-0.647,0.08-1.303,0.08-1.964
	c0-6.532-2.646-12.445-6.928-16.725c-4.279-4.28-10.193-6.927-16.725-6.927V37.878z"/>
</svg>
