<?xml version="1.0" encoding="utf-8"?>
<!-- Generator: Adobe Illustrator 16.0.3, SVG Export Plug-In . SVG Version: 6.00 Build 0)  -->
<!DOCTYPE svg PUBLIC "-//W3C//DTD SVG 1.1//EN" "http://www.w3.org/Graphics/SVG/1.1/DTD/svg11.dtd">
<svg version="1.1" id="Layer_1" xmlns="http://www.w3.org/2000/svg" xmlns:xlink="http://www.w3.org/1999/xlink" x="0px" y="0px"
	 width="140.043px" height="140.043px" viewBox="0 0 140.043 140.043" enable-background="new 0 0 140.043 140.043"
	 xml:space="preserve">
<path fill-rule="evenodd" clip-rule="evenodd" fill="#1D2127" d="M140.043,70.021C140.043,31.35,108.693,0,70.021,0
	S0,31.35,0,70.021c0,38.672,31.349,70.021,70.021,70.021S140.043,108.693,140.043,70.021"/>
<path fill="#FFCD2E" d="M70.403,41.585l1.929-9.173c0.078-0.448,0.595-2.765,3.066-3.717c2.549-0.982,4.277,0.161,5.321,0.852
	l-0.002,0.003l11.922,7.834l-1.641,2.496l-11.926-7.837h-0.006c-0.561-0.371-1.487-0.984-2.591-0.56
	c-1.074,0.414-1.203,1.459-1.204,1.462l-0.012,0.076l-1.8,8.563H70.403z M69.392,46.397l0.381-1.812h3.057l-0.509,2.421
	L69.392,46.397z"/>
<path fill-rule="evenodd" clip-rule="evenodd" fill="#FFCD2E" d="M62.833,99.244c0.509,3.814,1.674,7.652,3.602,10.972H46.75V99.244
	H62.833z M46.75,44.407h33.258v19.089H65.331V77.29h2.329c-3.552,4.97-5.129,11.672-5.129,17.422c0,0.507,0.012,1.019,0.035,1.532
	H46.75V44.407z"/>
<path fill-rule="evenodd" clip-rule="evenodd" fill="#FFCD2E" d="M68.33,66.496h23.357v7.794h-7.241
	c5.825,2.776,10.04,10.869,10.04,20.422c0,7.745-2.771,14.53-6.923,18.301H72.454c-4.153-3.771-6.923-10.556-6.923-18.301
	c0-9.553,4.215-17.646,10.04-20.422h-7.24V66.496z"/>
</svg>
