<?xml version="1.0" encoding="utf-8"?>
<!-- Generator: Adobe Illustrator 18.1.1, SVG Export Plug-In . SVG Version: 6.00 Build 0)  -->
<svg version="1.1" id="Layer_1" xmlns="http://www.w3.org/2000/svg" xmlns:xlink="http://www.w3.org/1999/xlink" x="0px" y="0px"
	 viewBox="0 0 128 128" enable-background="new 0 0 128 128" xml:space="preserve">
<g>
	<path d="M88.5,55.3h2.7V39.6H77.9v-25H67.2l2.1-9.5c0,0,0.2-1.2,1.4-1.7s2.3,0.2,2.9,0.6L87,13.2l1.9-2.9L75.5,1.4
		c-1-0.8-3.1-2.3-6-0.8c-2.9,1-3.5,3.7-3.5,4.1l-2.1,10.1H33.8v65.2V96h27.9c0.8,0.8,1.4,1.7,2.3,2.3l1,0.8h19.6l0.8-1
		c6.2-5.6,8.9-14.9,8.9-23.1C94.2,68.5,92.4,60.9,88.5,55.3z M87.8,43.1V52h-8.3H69.5H62h-0.6v-8.9H87.8z M37.1,18.2h37.6v21.7H58.1
		v15.7h2.7C56.9,61.1,55,68.7,55,75.1c0,0.6,0,1.2,0,1.7h-18V18.2z M37.1,92.5V80.1h18.2c0.6,4.3,1.9,8.7,4.1,12.4H37.1z M83.3,95.6
		H66.2c-4.7-4.3-7.8-12-7.8-20.6c0-8.1,2.7-15.3,6.8-19.6h19.2c4.1,4.3,6.8,11.6,6.8,19.6C91.1,83.6,88.1,91.5,83.3,95.6z"/>
</g>
</svg>
