<?xml version="1.0" encoding="utf-8"?>
<!-- Generator: Adobe Illustrator 16.0.3, SVG Export Plug-In . SVG Version: 6.00 Build 0)  -->
<!DOCTYPE svg PUBLIC "-//W3C//DTD SVG 1.1//EN" "http://www.w3.org/Graphics/SVG/1.1/DTD/svg11.dtd">
<svg version="1.1" id="Layer_1" xmlns="http://www.w3.org/2000/svg" xmlns:xlink="http://www.w3.org/1999/xlink" x="0px" y="0px"
	 width="230.129px" height="230.129px" viewBox="0 0 230.129 230.129" enable-background="new 0 0 230.129 230.129"
	 xml:space="preserve">
<path fill="none" stroke="#333333" stroke-width="7.9999" stroke-miterlimit="22.9256" d="M110.785,90.873l9.139-43.471
	c0,0,0.426-3.439,3.891-4.775c3.467-1.337,5.947,0.467,7.381,1.409l21.482,14.116"/>
<rect x="74.771" y="94.984" fill="#FFCD2E" width="53.399" height="89.263"/>
<rect x="74.771" y="72.647" fill="#FFFFFF" width="53.399" height="85.141"/>
<g>
	<polygon fill="#333333" points="124.17,180.247 118.75,180.247 118.75,188.247 132.17,188.247 132.17,94.984 124.17,94.984 	"/>
	<polygon fill="#333333" points="70.771,68.647 70.771,188.247 101.47,188.247 101.47,180.247 78.771,180.247 78.771,76.647 
		124.17,76.647 124.17,88.311 132.17,88.311 132.17,68.647 	"/>
</g>
<path fill="#FFFFFF" d="M143.647,128.17c3.284,3.059,5.764,7.068,7.512,11.105c2.916,6.738,4.2,14.34,4.2,21.657
	c0,8.558-1.78,17.728-5.974,25.259l-1.143,2.055h-34.058l-1.145-2.055c-4.191-7.531-5.972-16.701-5.972-25.259
	c0-7.317,1.285-14.919,4.201-21.657c1.747-4.037,4.227-8.048,7.511-11.105c-1.101-1.574-1.906-3.342-2.381-5.213h-6.411v-14.165
	h42.449v14.165h-6.411C145.553,124.829,144.747,126.596,143.647,128.17"/>
<path fill="#FFCD2E" d="M151.549,140.209c2.641,6.504,3.811,13.742,3.811,20.725c0,8.559-1.779,17.729-5.973,25.26l-1.145,2.055
	h-34.057l-1.145-2.055c-4.191-7.531-5.972-16.701-5.972-25.26c0-6.98,1.169-14.221,3.81-20.725H151.549z"/>
<path fill="none" stroke="#333333" stroke-width="7.9999" stroke-miterlimit="22.9256" d="M152.667,178.61
	c-0.865,2.645-1.951,5.195-3.279,7.582l-1.145,2.055h-34.057l-1.145-2.055c-4.191-7.531-5.972-16.701-5.972-25.259
	c0-7.317,1.285-14.919,4.201-21.657c1.747-4.037,4.227-8.048,7.512-11.105c-1.102-1.574-1.906-3.342-2.382-5.213h-6.411v-14.165
	h42.449v14.165h-6.411c-0.476,1.871-1.28,3.639-2.381,5.213c3.284,3.059,5.765,7.068,7.511,11.105
	c2.916,6.738,4.201,14.34,4.201,21.657c0,2.853-0.197,5.772-0.615,8.677"/>
</svg>
