<?xml version="1.0" encoding="utf-8"?>
<!-- Generator: Adobe Illustrator 18.1.1, SVG Export Plug-In . SVG Version: 6.00 Build 0)  -->
<svg version="1.1" id="Layer_1" xmlns="http://www.w3.org/2000/svg" xmlns:xlink="http://www.w3.org/1999/xlink" x="0px" y="0px"
	 viewBox="0 0 62 62" enable-background="new 0 0 62 62" xml:space="preserve">
<path fill-rule="evenodd" clip-rule="evenodd" fill="#FFFFFF" d="M25.7,46.8c0.3,2.1,0.9,4.2,2,6H16.9v-6H25.7z M39.8,34.8
	c2,2.1,3.3,5.6,3.3,9.5c0,4.2-1.5,8-3.8,10H31c-2.3-2.1-3.8-5.8-3.8-10c0-3.9,1.3-7.4,3.3-9.5H39.8z M28.7,28.9h12.8v4.3h-4h-4.9H29
	h-0.3V28.9z M16.9,16.8h18.2v10.5h-8v7.6h1.3c-1.9,2.7-2.8,6.4-2.8,9.5c0,0.3,0,0.6,0,0.8h-8.7V16.8z M15.3,46.8V15.2h14.6l1-4.9
	c0-0.2,0.3-1.5,1.7-2C34,7.6,35,8.3,35.5,8.7l0,0l6.5,4.3l-0.9,1.4L34.6,10h0c-0.3-0.2-0.8-0.5-1.4-0.3c-0.6,0.2-0.7,0.8-0.7,0.8
	l0,0l-1,4.6h5.2v12.1h6.4v7.6h-1.3c1.9,2.7,2.8,6.4,2.8,9.5c0,4-1.3,8.5-4.3,11.2L39.9,56h-9.5l-0.5-0.4c-0.4-0.3-0.7-0.7-1.1-1.1
	H15.3V46.8z"/>
</svg>
