<?xml version="1.0" encoding="utf-8"?>
<!-- Generator: Adobe Illustrator 16.0.3, SVG Export Plug-In . SVG Version: 6.00 Build 0)  -->
<!DOCTYPE svg PUBLIC "-//W3C//DTD SVG 1.1//EN" "http://www.w3.org/Graphics/SVG/1.1/DTD/svg11.dtd">
<svg version="1.1" id="Layer_1" xmlns="http://www.w3.org/2000/svg" xmlns:xlink="http://www.w3.org/1999/xlink" x="0px" y="0px"
	 width="230.13px" height="230.13px" viewBox="0 0 230.13 230.13" enable-background="new 0 0 230.13 230.13" xml:space="preserve">
<path fill="none" stroke="#333333" stroke-width="7.9999" stroke-miterlimit="22.9256" d="M110.785,90.873l9.139-43.471
	c0,0,0.426-3.439,3.891-4.775c3.466-1.337,5.947,0.467,7.381,1.409l21.482,14.116"/>
<rect x="74.771" y="94.984" fill-rule="evenodd" clip-rule="evenodd" fill="#FFFFFF" width="53.399" height="89.263"/>
<rect x="74.771" y="72.647" fill-rule="evenodd" clip-rule="evenodd" fill="#FFCD2E" width="53.399" height="85.141"/>
<g>
	<polygon fill="#333333" points="124.17,180.247 118.75,180.247 118.75,188.247 132.17,188.247 132.17,94.984 124.17,94.984 	"/>
	<polygon fill="#333333" points="70.771,68.647 70.771,188.247 101.47,188.247 101.47,180.247 78.771,180.247 78.771,76.647 
		124.17,76.647 124.17,88.311 132.17,88.311 132.17,68.647 	"/>
</g>
<path fill-rule="evenodd" clip-rule="evenodd" fill="#FFFFFF" d="M143.647,128.171c3.284,3.058,5.764,7.067,7.511,11.105
	c2.916,6.739,4.201,14.34,4.201,21.657c0,8.558-1.78,17.728-5.973,25.259l-1.144,2.055h-34.057l-1.145-2.055
	c-4.191-7.531-5.972-16.701-5.972-25.259c0-7.317,1.285-14.918,4.201-21.657c1.747-4.038,4.227-8.048,7.511-11.105
	c-1.101-1.575-1.906-3.343-2.381-5.214h-6.411v-14.164h42.449v14.164h-6.411C145.553,124.828,144.747,126.596,143.647,128.171"/>
<path fill-rule="evenodd" clip-rule="evenodd" fill="#FFCD2E" d="M151.55,140.21c2.64,6.503,3.81,13.742,3.81,20.724
	c0,8.558-1.78,17.728-5.973,25.259l-1.144,2.055h-34.057l-1.145-2.055c-4.191-7.531-5.972-16.701-5.972-25.259
	c0-6.981,1.169-14.221,3.81-20.724H151.55z"/>
<path fill="none" stroke="#333333" stroke-width="7.9999" stroke-miterlimit="22.9256" d="M152.666,178.61
	c-0.864,2.644-1.951,5.195-3.279,7.582l-1.144,2.055h-34.057l-1.145-2.055c-4.191-7.531-5.972-16.701-5.972-25.259
	c0-7.317,1.285-14.918,4.201-21.657c1.747-4.038,4.227-8.048,7.511-11.105c-1.101-1.575-1.906-3.343-2.381-5.214h-6.411v-14.164
	h42.449v14.164h-6.411c-0.476,1.871-1.281,3.639-2.381,5.214c3.284,3.058,5.764,7.067,7.511,11.105
	c2.916,6.739,4.201,14.34,4.201,21.657c0,2.852-0.198,5.772-0.616,8.677"/>
</svg>
