<?xml version="1.0" encoding="utf-8"?>
<!-- Generator: Adobe Illustrator 18.1.1, SVG Export Plug-In . SVG Version: 6.00 Build 0)  -->
<svg version="1.1" id="Layer_1" xmlns="http://www.w3.org/2000/svg" xmlns:xlink="http://www.w3.org/1999/xlink" x="0px" y="0px"
	 viewBox="-404 206 150 150" enable-background="new -404 206 150 150" xml:space="preserve">
<path fill="#808080" d="M-368.8,321.1v-85.7h39.6l2.8-13.3c0.1-0.7,0.9-4.1,4.5-5.5c3.8-1.5,6.3,0.2,7.9,1.3l0,0l17.7,11.6l-2.4,3.7
	l-17.7-11.6h0c-0.8-0.6-2.2-1.5-3.8-0.8c-1.6,0.6-1.8,2.2-1.8,2.2l0,0.1l-2.6,12.4h14.1v32.7h17.3v20.4h-3.5
	c5.3,7.4,7.6,17.3,7.6,25.8c0,10.8-3.5,23-11.7,30.4l-1.3,1.2H-328l-1.3-1.2c-1-0.9-2-1.9-2.9-3h-36.7
	C-368.8,341.9-368.8,321.1-368.8,321.1z"/>
<path fill="#FFCD2E" d="M-340.5,321.1c0.8,5.7,2.5,11.3,5.3,16.3h-29.2v-16.3H-340.5L-340.5,321.1z"/>
<path fill="#FFFFFF" d="M-302.6,288.6c5.4,5.8,8.9,15.2,8.9,25.8c0,11.5-4.1,21.5-10.3,27.1h-22.4c-6.2-5.6-10.3-15.6-10.3-27.1
	c0-10.6,3.5-20.1,8.9-25.8L-302.6,288.6L-302.6,288.6z"/>
<polygon fill="#FFCD2E" points="-332.4,272.6 -297.8,272.6 -297.8,284.2 -308.5,284.2 -321.7,284.2 -331.6,284.2 -332.4,284.2 
	-332.4,272.6 "/>
<path fill="#FFFFFF" d="M-364.4,239.9h49.3v28.3h-21.8v20.4h3.5c-5.3,7.4-7.6,17.3-7.6,25.8c0,0.8,0,1.5,0.1,2.3h-23.4V239.9z"/>
</svg>
