<?xml version="1.0" encoding="utf-8"?>
<!-- Generator: Adobe Illustrator 16.0.3, SVG Export Plug-In . SVG Version: 6.00 Build 0)  -->
<!DOCTYPE svg PUBLIC "-//W3C//DTD SVG 1.1//EN" "http://www.w3.org/Graphics/SVG/1.1/DTD/svg11.dtd">
<svg version="1.1" id="Layer_1" xmlns="http://www.w3.org/2000/svg" xmlns:xlink="http://www.w3.org/1999/xlink" x="0px" y="0px"
	 width="230.129px" height="230.129px" viewBox="0 0 230.129 230.129" enable-background="new 0 0 230.129 230.129"
	 xml:space="preserve">
<path fill="none" stroke="#313131" stroke-width="7.9999" stroke-miterlimit="22.9256" d="M110.785,90.873l9.139-43.471
	c0,0,0.426-3.439,3.891-4.775c3.469-1.337,5.947,0.467,7.381,1.409l21.482,14.116"/>
<rect x="74.771" y="94.984" fill="#FFCD2E" width="53.399" height="89.263"/>
<rect x="74.775" y="72.645" fill="#FFFFFF" width="53.4" height="85.14"/>
<path fill="#FFCD2E" stroke="#313131" stroke-width="8" stroke-miterlimit="22.9256" d="M101.475,73.895
	c0,15.15-11.79,27.55-26.7,28.51v-29.76h26.67C101.465,73.055,101.475,73.475,101.475,73.895z"/>
<g>
	<polygon fill="#313131" points="124.17,180.247 118.75,180.247 118.75,188.247 132.17,188.247 132.17,108.792 124.17,108.792 	"/>
	<polygon fill="#313131" points="70.771,68.647 70.771,188.247 101.47,188.247 101.47,180.247 78.771,180.247 78.771,76.647 
		124.17,76.647 124.17,97.984 132.17,97.984 132.17,68.647 	"/>
</g>
<path fill="#FFFFFF" d="M143.646,128.17c3.285,3.059,5.765,7.068,7.513,11.105c2.916,6.736,4.2,14.34,4.2,21.655
	c0,8.56-1.78,17.729-5.976,25.261l-1.143,2.055h-34.058l-1.145-2.055c-4.191-7.531-5.972-16.701-5.972-25.261
	c0-7.315,1.285-14.919,4.201-21.655c1.747-4.037,4.227-8.049,7.51-11.105c-1.102-1.574-1.905-3.342-2.381-5.213h-6.412v-14.165
	h42.449v14.165h-6.41C145.553,124.829,144.747,126.596,143.646,128.17"/>
<path fill="#FFCD2E" d="M151.549,140.209c2.641,6.504,3.811,13.742,3.811,20.725c0,8.561-1.777,17.729-5.973,25.262l-1.145,2.055
	h-34.057l-1.145-2.055c-4.191-7.531-5.972-16.701-5.972-25.262c0-6.979,1.169-14.221,3.81-20.725H151.549z"/>
<path fill="none" stroke="#313131" stroke-width="7.9999" stroke-miterlimit="22.9256" d="M152.667,178.61
	c-0.865,2.645-1.951,5.193-3.278,7.581l-1.146,2.056h-34.057l-1.145-2.056c-4.191-7.53-5.972-16.7-5.972-25.258
	c0-7.317,1.285-14.921,4.201-21.658c1.747-4.036,4.227-8.047,7.512-11.104c-1.103-1.574-1.906-3.342-2.382-5.213h-6.411v-14.165
	h42.448v14.165h-6.41c-0.478,1.871-1.28,3.639-2.381,5.213c3.283,3.06,5.765,7.068,7.511,11.104c2.916,6.737,4.2,14.341,4.2,21.658
	c0,2.853-0.196,5.771-0.614,8.677"/>
</svg>
