<?xml version="1.0" encoding="utf-8"?>
<!-- Generator: Adobe Illustrator 16.0.3, SVG Export Plug-In . SVG Version: 6.00 Build 0)  -->
<!DOCTYPE svg PUBLIC "-//W3C//DTD SVG 1.1//EN" "http://www.w3.org/Graphics/SVG/1.1/DTD/svg11.dtd">
<svg version="1.1" id="Layer_1" xmlns="http://www.w3.org/2000/svg" xmlns:xlink="http://www.w3.org/1999/xlink" x="0px" y="0px"
	 width="150px" height="150px" viewBox="0 0 150 150" enable-background="new 0 0 150 150" xml:space="preserve">
<path fill="#666666" d="M35.172,115.145V29.408h39.564l2.804-13.333c0.116-0.665,0.882-4.099,4.546-5.511
	c3.777-1.455,6.34,0.238,7.887,1.263l-0.002,0.004l17.674,11.614l-2.433,3.7L87.533,15.527h-0.01c-0.83-0.55-2.205-1.459-3.84-0.828
	c-1.595,0.613-1.783,2.162-1.785,2.166l-0.019,0.113l-2.612,12.43h14.1v32.744h17.313V82.6h-3.455
	c5.268,7.367,7.604,17.303,7.604,25.826c0,10.791-3.515,22.971-11.722,30.422l-1.271,1.154H76.003l-1.271-1.154
	c-1.021-0.928-1.971-1.93-2.85-2.992h-36.71V115.145z"/>
<path fill="#FFCD2E" d="M63.46,115.145c0.754,5.654,2.482,11.346,5.339,16.266H39.618v-16.266H63.46L63.46,115.145z"/>
<path fill="#FFFFFF" d="M101.439,82.6c5.414,5.772,8.939,15.188,8.939,25.826c0,11.481-4.105,21.54-10.263,27.129H77.721
	c-6.155-5.589-10.263-15.646-10.263-27.129c0-10.638,3.526-20.054,8.94-25.826H101.439L101.439,82.6z"/>
<polygon fill="#FFCD2E" points="71.608,66.599 106.23,66.599 106.23,78.152 95.498,78.152 82.341,78.152 72.424,78.152 
	71.609,78.152 71.609,66.599 "/>
<path fill="#FFFFFF" d="M39.618,33.855H88.92v28.297H67.161V82.6h3.453c-5.265,7.367-7.604,17.303-7.604,25.826
	c0,0.752,0.018,1.51,0.052,2.271H39.618V33.855z"/>
</svg>
