<?xml version="1.0" encoding="utf-8"?>
<!-- Generator: Adobe Illustrator 16.0.3, SVG Export Plug-In . SVG Version: 6.00 Build 0)  -->
<!DOCTYPE svg PUBLIC "-//W3C//DTD SVG 1.1//EN" "http://www.w3.org/Graphics/SVG/1.1/DTD/svg11.dtd">
<svg version="1.1" id="Layer_1" xmlns="http://www.w3.org/2000/svg" xmlns:xlink="http://www.w3.org/1999/xlink" x="0px" y="0px"
	 width="230.129px" height="230.129px" viewBox="0 0 230.129 230.129" enable-background="new 0 0 230.129 230.129"
	 xml:space="preserve">
<path fill="#FFCD2E" d="M114.065,12.63c-27.536,0-53.671,10.828-73.139,30.295C21.458,62.394,10.63,88.529,10.63,116.064
	c0,27.537,10.828,53.672,30.296,73.14c19.468,19.469,45.603,30.297,73.139,30.297c27.537,0,53.671-10.828,73.139-30.297
	c19.469-19.468,30.297-45.603,30.297-73.14c0-27.536-10.828-53.671-30.297-73.14C167.736,23.458,141.602,12.63,114.065,12.63
	 M114.065,2c31.498,0,60.014,12.768,80.656,33.409c20.643,20.641,33.408,49.159,33.408,80.655c0,31.498-12.768,60.015-33.408,80.654
	c-20.641,20.643-49.158,33.41-80.656,33.41c-31.498,0-60.014-12.77-80.656-33.41C12.767,176.079,0,147.563,0,116.064
	C0,84.567,12.768,56.05,33.409,35.409C54.05,14.768,82.567,2,114.065,2z"/>
<g>
	<path fill="#333333" d="M40.652,95.102h5.574v39.924h-5.574V95.102z M43.947,129.837h10.819c2.837,0,4.905-0.54,6.205-1.62
		s1.949-2.6,1.949-4.559v-0.082c0-1.354-0.233-2.517-0.7-3.487c-0.467-0.97-1.203-1.716-2.21-2.237s-2.298-0.783-3.872-0.783H43.947
		v-5.052h12.191c2.068,0,3.629-0.485,4.682-1.456c1.053-0.97,1.579-2.407,1.579-4.311c0-1.995-0.586-3.487-1.757-4.476
		c-1.172-0.988-2.93-1.483-5.272-1.483H43.947v-5.189h12.439c2.581,0,4.74,0.439,6.479,1.318c1.739,0.879,3.039,2.124,3.899,3.734
		c0.86,1.611,1.29,3.533,1.29,5.766c0,1.373-0.266,2.659-0.796,3.858c-0.531,1.199-1.341,2.224-2.43,3.076
		c-1.09,0.851-2.439,1.423-4.051,1.716c1.611,0.238,3.002,0.81,4.174,1.716c1.171,0.906,2.068,2.036,2.691,3.391
		c0.622,1.355,0.934,2.819,0.934,4.394v0.083c0,2.16-0.477,4.063-1.429,5.711c-0.951,1.647-2.315,2.92-4.091,3.816
		c-1.775,0.897-3.844,1.346-6.205,1.346H43.947V129.837z"/>
	<path fill="#333333" d="M87.826,95.102h4.777l14.718,39.924h-6.041l-11.065-32.208l-11.065,32.208h-6.041L87.826,95.102z
		 M79.891,120.94h21.006v5.327H79.891V120.94z"/>
	<path fill="#333333" d="M121.655,135.438c0,0-0.861-0.184-2.582-0.55c-1.721-0.365-3.327-0.915-4.818-1.647
		c-1.492-0.731-2.888-1.647-4.188-2.745l3.487-4.284c1.52,1.318,3.194,2.307,5.024,2.966c1.831,0.659,3.817,0.988,5.959,0.988
		c2.892,0,5.135-0.535,6.728-1.606c1.592-1.07,2.389-2.585,2.389-4.544v-0.027c0-1.391-0.362-2.494-1.085-3.309
		c-0.724-0.814-1.657-1.419-2.801-1.813c-1.145-0.394-2.622-0.755-4.435-1.084c-0.055-0.019-0.114-0.027-0.179-0.027
		c-0.063,0-0.123-0.01-0.178-0.028l-0.412-0.082c-2.673-0.458-4.847-0.976-6.521-1.552c-1.675-0.577-3.107-1.629-4.297-3.158
		c-1.19-1.528-1.785-3.702-1.785-6.521v-0.028c0-2.471,0.554-4.581,1.661-6.329c1.107-1.748,2.723-3.08,4.847-3.995
		c2.123-0.915,4.677-1.373,7.661-1.373c1.428,0,2.832,0.156,4.215,0.467c1.382,0.312,2.745,0.773,4.091,1.386
		c1.346,0.614,2.668,1.387,3.968,2.32l-3.186,4.448c-1.52-1.116-3.034-1.954-4.544-2.512c-1.51-0.558-3.025-0.837-4.544-0.837
		c-2.729,0-4.847,0.545-6.357,1.634c-1.51,1.089-2.265,2.631-2.265,4.626v0.027c0,1.373,0.389,2.454,1.167,3.24
		c0.777,0.787,1.748,1.369,2.91,1.744c1.162,0.375,2.777,0.765,4.847,1.167c0.073,0.019,0.142,0.032,0.206,0.041
		c0.063,0.01,0.133,0.023,0.206,0.042c0.091,0.018,0.191,0.037,0.302,0.055c0.109,0.019,0.21,0.037,0.302,0.055
		c2.417,0.495,4.435,1.081,6.055,1.757c1.62,0.678,2.975,1.771,4.063,3.281c1.089,1.511,1.634,3.575,1.634,6.192v0.055
		c0,2.436-0.576,4.518-1.729,6.247s-2.824,3.048-5.011,3.954c-2.188,0.906-4.829,1.359-7.922,1.359
		C122.616,135.438,121.655,135.438,121.655,135.438z"/>
	<path fill="#333333" d="M152.765,135.026h-5.602V95.102h5.602V135.026z"/>
	<path fill="#333333" d="M171.573,135.438c0,0-1.048-0.613-3.144-1.84c-2.097-1.227-3.721-2.966-4.874-5.217
		c-1.153-2.252-1.729-4.86-1.729-7.826V109.6c0-2.965,0.576-5.574,1.729-7.826s2.777-3.995,4.874-5.231
		c2.096-1.235,4.525-1.853,7.29-1.853c2.288,0,4.394,0.49,6.315,1.469c1.922,0.979,3.528,2.366,4.818,4.16
		c1.291,1.794,2.165,3.872,2.623,6.233h-5.739c-0.348-1.245-0.929-2.357-1.743-3.336c-0.815-0.979-1.771-1.734-2.87-2.265
		c-1.098-0.531-2.233-0.796-3.404-0.796c-1.63,0-3.058,0.394-4.283,1.181c-1.227,0.788-2.179,1.891-2.856,3.309
		c-0.677,1.418-1.016,3.071-1.016,4.956v10.956c0,1.867,0.339,3.515,1.016,4.942c0.678,1.428,1.63,2.531,2.856,3.309
		c1.226,0.778,2.653,1.167,4.283,1.167c1.189,0,2.329-0.247,3.418-0.741c1.09-0.494,2.041-1.226,2.856-2.196
		c0.814-0.97,1.396-2.123,1.743-3.46h5.739c-0.458,2.361-1.337,4.439-2.637,6.233s-2.91,3.181-4.832,4.159
		c-1.922,0.979-4.019,1.47-6.288,1.47C172.955,135.438,171.573,135.438,171.573,135.438z"/>
</g>
</svg>
