<?xml version="1.0" encoding="utf-8"?>
<!-- Generator: Adobe Illustrator 16.0.3, SVG Export Plug-In . SVG Version: 6.00 Build 0)  -->
<!DOCTYPE svg PUBLIC "-//W3C//DTD SVG 1.1//EN" "http://www.w3.org/Graphics/SVG/1.1/DTD/svg11.dtd">
<svg version="1.1" id="Layer_1" xmlns="http://www.w3.org/2000/svg" xmlns:xlink="http://www.w3.org/1999/xlink" x="0px" y="0px"
	 width="230.129px" height="230.129px" viewBox="0 0 230.129 230.129" enable-background="new 0 0 230.129 230.129"
	 xml:space="preserve">
<path fill="#FFCD2E" d="M114.065,12.63c-27.536,0-53.671,10.828-73.139,30.295C21.458,62.394,10.63,88.529,10.63,116.064
	c0,27.537,10.828,53.672,30.296,73.14c19.468,19.469,45.603,30.297,73.139,30.297c27.537,0,53.671-10.828,73.139-30.297
	c19.469-19.468,30.297-45.603,30.297-73.14c0-27.536-10.828-53.671-30.297-73.14C167.736,23.458,141.602,12.63,114.065,12.63
	 M114.065,2c31.498,0,60.014,12.768,80.656,33.409c20.643,20.641,33.408,49.159,33.408,80.655c0,31.498-12.768,60.015-33.408,80.654
	c-20.641,20.643-49.158,33.41-80.656,33.41c-31.498,0-60.014-12.77-80.656-33.41C12.767,176.079,0,147.563,0,116.064
	C0,84.567,12.768,56.05,33.409,35.409C54.05,14.768,82.567,2,114.065,2z"/>
<g>
	<path fill="#333333" d="M99.015,118.888c-0.251-5.453-0.564-12.034-0.502-17.738h-0.188c-1.379,5.14-3.135,10.844-5.015,16.172
		l-6.144,18.303h-5.954l-5.642-18.053c-1.63-5.39-3.135-11.157-4.263-16.422h-0.125c-0.188,5.516-0.439,12.223-0.753,17.989
		l-0.94,16.987h-7.208l2.82-42.248h10.155l5.516,16.987c1.505,4.951,2.821,9.966,3.887,14.667h0.188
		c1.129-4.575,2.57-9.778,4.2-14.73l5.829-16.924h10.029l2.445,42.248h-7.522L99.015,118.888z"/>
	<path fill="#333333" d="M122.902,93.878v42.248h-7.71V93.878H122.902z"/>
	<path fill="#333333" d="M131.741,94.442c3.385-0.564,7.71-0.878,12.286-0.878c7.898,0,13.352,1.63,17.238,4.89
		c4.074,3.321,6.581,8.336,6.581,15.545c0,7.521-2.569,13.163-6.581,16.799c-4.2,3.824-10.907,5.767-19.119,5.767
		c-4.513,0-7.897-0.25-10.405-0.563V94.442z M139.451,130.233c1.066,0.188,2.695,0.188,4.263,0.188
		c10.029,0.063,15.984-5.453,15.984-16.172c0.063-9.34-5.328-14.668-14.981-14.668c-2.444,0-4.199,0.188-5.266,0.438V130.233z"/>
</g>
</svg>
