<?xml version="1.0" encoding="utf-8"?>
<!-- Generator: Adobe Illustrator 18.1.1, SVG Export Plug-In . SVG Version: 6.00 Build 0)  -->
<svg version="1.1" id="Layer_1" xmlns="http://www.w3.org/2000/svg" xmlns:xlink="http://www.w3.org/1999/xlink" x="0px" y="0px"
	 viewBox="-369.5 155.5 250 95.6" enable-background="new -369.5 155.5 250 95.6" xml:space="preserve">
<path fill="#FFCD2E" d="M-119.5,155.5v58.3c-31.7,23-76,37.3-125,37.3s-93.3-14.3-125-37.3v-58.3H-119.5z"/>
<path fill="#FFCD2E" d="M-119.5,155.5v58.3c-31.7,23-76,37.3-125,37.3s-93.3-14.3-125-37.3v-58.3H-119.5z"/>
<g>
	<path fill="#FFFFFF" d="M-282,190.8c0,3.3-2,5.7-5.1,6.5c3.9,0.7,6.3,3.5,6.3,7.4c0,5-4,8-10.6,8h-13v-29.2h12.7
		C-285.7,183.5-282,186.2-282,190.8z M-287,191.7c0-2.4-1.9-3.8-5-3.8h-7.5v7.7h7.5C-288.9,195.6-287,194.2-287,191.7z M-285.9,204
		c0-2.6-2.3-4.2-6.1-4.1h-7.5v8.3h7.5C-288.2,208.3-285.9,206.8-285.9,204z"/>
	<path fill="#FFFFFF" d="M-256.2,206.1h-14.7l-2.8,6.6h-5.1l12.9-29.2h5l12.8,29.2h-5.3L-256.2,206.1z M-258,201.7l-5.5-13l-5.5,13
		H-258z"/>
	<path fill="#FFFFFF" d="M-235.3,187.9c-2.9,0-4.8,1.1-4.8,3c0,6.4,15.8,3,15.7,13.5c0,5.2-4.6,8.4-11,8.4c-4.6,0-8.9-1.9-11.9-4.6
		l2.1-4.3c3,2.8,6.8,4.3,9.9,4.3c3.4,0,5.5-1.3,5.5-3.5c0-6.5-15.8-2.9-15.8-13.3c0-5,4.3-8.1,10.6-8.1c3.8,0,7.5,1.2,10.2,3l-2,4.3
		C-229.9,188.7-233.1,187.9-235.3,187.9z"/>
	<path fill="#FFFFFF" d="M-213.6,183.5v29.2h-4.9v-29.2H-213.6z"/>
	<path fill="#FFFFFF" d="M-193,187.7c-5.8,0-10.4,4.5-10.4,10.3s4.6,10.3,10.4,10.3c2.9,0,5.9-1.3,8.1-3.5l2.9,3.3
		c-3,2.9-7.2,4.8-11.3,4.8c-8.5,0-15.2-6.5-15.2-14.8c0-8.3,6.7-14.7,15.3-14.7c4.1,0,8.3,1.7,11.1,4.5l-2.9,3.6
		C-187,189.2-190,187.7-193,187.7z"/>
</g>
</svg>
