<?xml version="1.0" encoding="utf-8"?>
<!-- Generator: Adobe Illustrator 18.1.1, SVG Export Plug-In . SVG Version: 6.00 Build 0)  -->
<svg version="1.1" id="Layer_1" xmlns="http://www.w3.org/2000/svg" xmlns:xlink="http://www.w3.org/1999/xlink" x="0px" y="0px"
	 viewBox="-369.5 155.5 250 95.6" enable-background="new -369.5 155.5 250 95.6" xml:space="preserve">
<path fill="#FFCD2E" d="M-119.5,155.5v58.3c-31.7,23-76,37.3-125,37.3s-93.3-14.3-125-37.3v-58.3H-119.5z"/>
<path fill="#FFCD2E" d="M-119.5,155.5v58.3c-31.7,23-76,37.3-125,37.3s-93.3-14.3-125-37.3v-58.3H-119.5z"/>
<g>
	<path fill="#FFFFFF" d="M-276.6,183.5l9.6,19.4l9.6-19.4h5.8v29.2h-4.5l0-21.8l-9.2,18.8h-3.2l-9.2-18.8v21.8h-4.6v-29.2H-276.6z"
		/>
	<path fill="#FFFFFF" d="M-238.9,183.5v29.2h-4.9v-29.2H-238.9z"/>
	<path fill="#FFFFFF" d="M-204.2,198.1c0,8.4-6.4,14.6-15.2,14.6h-11.8v-29.2h12C-210.5,183.5-204.2,189.6-204.2,198.1z
		 M-209.1,198.1c0-6-4.5-10.2-10.2-10.2h-7v20.3h7.2C-213.5,208.3-209.1,204-209.1,198.1z"/>
</g>
</svg>
