<?xml version="1.0" encoding="utf-8"?>
<!-- Generator: Adobe Illustrator 16.0.3, SVG Export Plug-In . SVG Version: 6.00 Build 0)  -->
<!DOCTYPE svg PUBLIC "-//W3C//DTD SVG 1.1//EN" "http://www.w3.org/Graphics/SVG/1.1/DTD/svg11.dtd">
<svg version="1.1" id="Layer_1" xmlns="http://www.w3.org/2000/svg" xmlns:xlink="http://www.w3.org/1999/xlink" x="0px" y="0px"
	 width="230.129px" height="230.129px" viewBox="0 0 230.129 230.129" enable-background="new 0 0 230.129 230.129"
	 xml:space="preserve">
<g>
	<path fill="#FFCD2E" d="M115.065,11.631c-27.536,0-53.671,10.828-73.139,30.295C22.458,61.396,11.63,87.531,11.63,115.066
		c0,27.538,10.828,53.672,30.296,73.139c19.468,19.469,45.603,30.297,73.139,30.297c27.537,0,53.671-10.828,73.139-30.297
		c19.469-19.467,30.297-45.602,30.297-73.139c0-27.537-10.828-53.671-30.297-73.143C168.736,22.459,142.602,11.631,115.065,11.631"
		/>
	<path fill="#FFCD2E" d="M115.065,1.001c31.498,0,60.014,12.768,80.656,33.409c20.646,20.641,33.408,49.159,33.408,80.655
		c0,31.499-12.768,60.014-33.408,80.651c-20.641,20.646-49.158,33.41-80.656,33.41c-31.498,0-60.014-12.77-80.656-33.41
		C13.767,175.08,1,146.564,1,115.066c0-31.498,12.768-60.015,33.409-80.655C55.05,13.77,83.567,1.001,115.065,1.001z"/>
	<g enable-background="new    ">
		<path fill="#FFFFFF" d="M68.886,105.221c0,3.894-2.325,6.873-6.166,7.834c4.7,0.858,7.53,4.244,7.53,8.945
			c0,6.064-5.003,9.754-13.089,9.754H40.989V96.377h15.717C64.236,96.377,68.886,99.763,68.886,105.221z M61.962,106.435
			c0-2.678-2.123-4.245-5.609-4.194h-8.592v8.591h8.592C59.839,110.831,61.962,109.213,61.962,106.435z M63.226,121.141
			c0-2.881-2.578-4.648-6.873-4.6h-8.592v9.35h8.592C60.647,125.941,63.226,124.172,63.226,121.141z"/>
		<path fill="#FFFFFF" d="M99.866,124.273H82.583l-3.134,7.479h-7.024L87.94,96.376h7.024l15.313,35.375H103L99.866,124.273z
			 M97.44,118.463l-6.165-14.858l-6.267,14.858H97.44z"/>
		<path fill="#FFFFFF" d="M125.945,102.24c-3.186,0-5.256,1.162-5.256,3.335c0,7.177,19.002,3.285,18.951,15.97
			c0,6.621-5.763,10.461-13.546,10.461c-5.659,0-11.169-2.273-14.958-5.66l2.83-5.711c3.639,3.234,8.44,5.205,12.23,5.205
			c3.789,0,6.063-1.414,6.063-3.891c0-7.378-19.002-3.186-19.002-15.769c0-6.166,5.307-10.105,13.24-10.105
			c4.7,0,9.398,1.516,12.786,3.739l-2.729,5.862C132.768,103.401,128.674,102.24,125.945,102.24z"/>
		<path fill="#FFFFFF" d="M152.832,96.377v35.376h-6.771V96.377H152.832z"/>
		<path fill="#FFFFFF" d="M177.545,102.189c-6.671,0-11.876,5.155-11.876,11.725c0,6.621,5.205,11.775,11.876,11.775
			c3.387,0,6.975-1.566,9.604-4.145l3.992,4.447c-3.64,3.688-8.845,6.063-13.949,6.063c-10.408,0-18.444-7.834-18.444-18.042
			c0-10.105,8.137-17.84,18.699-17.84c5.054,0,10.206,2.173,13.645,5.66l-3.94,4.952
			C184.62,103.958,181.032,102.189,177.545,102.189z"/>
	</g>
</g>
</svg>
