<?xml version="1.0" encoding="utf-8"?>
<!-- Generator: Adobe Illustrator 16.0.3, SVG Export Plug-In . SVG Version: 6.00 Build 0)  -->
<!DOCTYPE svg PUBLIC "-//W3C//DTD SVG 1.1//EN" "http://www.w3.org/Graphics/SVG/1.1/DTD/svg11.dtd">
<svg version="1.1" id="Layer_1" xmlns="http://www.w3.org/2000/svg" xmlns:xlink="http://www.w3.org/1999/xlink" x="0px" y="0px"
	 width="230.129px" height="230.129px" viewBox="0 0 230.129 230.129" enable-background="new 0 0 230.129 230.129"
	 xml:space="preserve">
<path fill="#FFCD2E" d="M114.065,12.63c-27.536,0-53.671,10.828-73.139,30.295C21.458,62.394,10.63,88.529,10.63,116.064
	c0,27.537,10.828,53.672,30.296,73.14c19.468,19.469,45.603,30.297,73.139,30.297c27.537,0,53.671-10.828,73.139-30.297
	c19.469-19.468,30.297-45.603,30.297-73.14c0-27.537-10.828-53.671-30.297-73.141C167.736,23.458,141.602,12.63,114.065,12.63
	 M114.065,2c31.498,0,60.014,12.768,80.656,33.409c20.644,20.641,33.408,49.159,33.408,80.655c0,31.498-12.768,60.015-33.408,80.653
	c-20.641,20.644-49.158,33.41-80.656,33.41c-31.498,0-60.014-12.771-80.656-33.41C12.767,176.079,0,147.563,0,116.064
	C0,84.567,12.768,56.05,33.409,35.409C54.05,14.768,82.567,2,114.065,2z"/>
<g enable-background="new    ">
	<path fill="#333333" d="M68.543,106.22c0,4.145-2.477,7.126-6.569,7.985c5.104,0.758,8.086,4.093,8.086,8.945
		c0,6.014-4.751,9.602-12.786,9.602h-15.11V97.376h14.908C64.197,97.376,68.543,100.662,68.543,106.22z M64.399,106.827
		c0-3.639-2.78-5.71-7.53-5.71H46.206v11.573h10.663C61.619,112.689,64.399,110.567,64.399,106.827z M65.966,122.645
		c0-3.941-3.336-6.266-9.097-6.215H46.206v12.584h10.663C62.63,129.063,65.966,126.738,65.966,122.645z"/>
	<path fill="#333333" d="M100.686,123.707H81.431l-3.941,9.045h-4.296l15.869-35.375h4.194l15.818,35.375h-4.397L100.686,123.707z
		 M99.068,119.967l-8.035-18.194l-7.935,18.194H99.068z"/>
	<path fill="#333333" d="M124.49,101.167c-4.549,0-7.53,1.819-7.53,4.852c0,9.198,19.912,4.397,19.861,17.234
		c0,5.861-5.205,9.652-12.786,9.652c-5.155,0-10.208-2.225-13.544-5.408l1.819-3.486c3.285,3.133,7.782,4.953,11.775,4.953
		c5.104,0,8.288-2.072,8.288-5.51c0.051-9.45-19.861-4.447-19.861-17.131c0-5.56,4.902-9.097,12.23-9.097
		c4.093,0,8.287,1.313,11.219,3.285l-1.719,3.588C131.06,102.026,127.32,101.167,124.49,101.167z"/>
	<path fill="#333333" d="M149.153,97.376v35.375h-4.043V97.376H149.153z"/>
	<path fill="#333333" d="M175.028,100.964c-7.985,0-14.403,6.217-14.403,14.05c0,7.783,6.418,14.099,14.403,14.099
		c3.891,0,7.682-1.617,10.461-4.244l2.477,2.678c-3.487,3.285-8.238,5.357-13.141,5.357c-10.208,0-18.294-7.885-18.294-17.89
		c0-9.905,8.187-17.739,18.446-17.739c4.852,0,9.551,1.971,12.938,5.155l-2.426,2.931
		C182.76,102.632,178.919,100.964,175.028,100.964z"/>
</g>
</svg>
