<?xml version="1.0" encoding="utf-8"?>
<!-- Generator: Adobe Illustrator 16.0.3, SVG Export Plug-In . SVG Version: 6.00 Build 0)  -->
<!DOCTYPE svg PUBLIC "-//W3C//DTD SVG 1.1//EN" "http://www.w3.org/Graphics/SVG/1.1/DTD/svg11.dtd">
<svg version="1.1" id="Layer_1" xmlns="http://www.w3.org/2000/svg" xmlns:xlink="http://www.w3.org/1999/xlink" x="0px" y="0px"
	 width="230.129px" height="230.129px" viewBox="0 0 230.129 230.129" enable-background="new 0 0 230.129 230.129"
	 xml:space="preserve">
<g>
	<path fill="#FFCD2E" d="M56.353,116.541h-8.592v9.35h8.592c4.294,0.051,6.873-1.719,6.873-4.75
		C63.226,118.26,60.648,116.494,56.353,116.541z"/>
	<polygon fill="#FFCD2E" points="85.008,118.463 97.44,118.463 91.275,103.605 	"/>
	<path fill="#FFCD2E" d="M61.962,106.435c0-2.678-2.123-4.245-5.609-4.194h-8.592v8.591h8.592
		C59.839,110.831,61.962,109.213,61.962,106.435z"/>
	<path fill="#FFCD2E" d="M195.721,34.41c-20.642-20.641-49.158-33.409-80.656-33.409c-31.498,0-60.015,12.769-80.656,33.41
		C13.768,55.051,1,83.568,1,115.066c0,31.499,12.767,60.014,33.409,80.65c20.642,20.64,49.158,33.41,80.656,33.41
		c31.498,0,60.015-12.765,80.656-33.41c20.641-20.637,33.408-49.151,33.408-80.651C229.129,83.569,216.367,55.051,195.721,34.41z
		 M57.161,131.754H40.989V96.377h15.717c7.53,0,12.18,3.386,12.18,8.844c0,3.894-2.325,6.873-6.166,7.834
		c4.7,0.858,7.53,4.244,7.53,8.945C70.25,128.064,65.247,131.754,57.161,131.754z M103,131.751l-3.134-7.478H82.583l-3.134,7.479
		h-7.024L87.94,96.376h7.024l15.313,35.375H103z M126.093,132.006c-5.657,0-11.169-2.273-14.958-5.66l2.83-5.711
		c3.641,3.234,8.439,5.205,12.229,5.205s6.063-1.414,6.063-3.891c0-7.378-19.002-3.186-19.002-15.769
		c0-6.166,5.308-10.105,13.24-10.105c4.7,0,9.397,1.516,12.786,3.739l-2.729,5.862c-3.784-2.275-7.878-3.436-10.606-3.436
		c-3.188,0-5.256,1.162-5.256,3.335c0,7.177,19.002,3.285,18.951,15.97C139.641,128.166,133.876,132.006,126.093,132.006z
		 M152.832,131.753h-6.771V96.377h6.771V131.753z M177.191,132.053c-10.406,0-18.442-7.834-18.442-18.042
		c0-10.104,8.137-17.84,18.699-17.84c5.054,0,10.204,2.173,13.645,5.66l-3.938,4.952c-2.534-2.825-6.122-4.594-9.609-4.594
		c-6.671,0-11.876,5.155-11.876,11.725c0,6.621,5.205,11.775,11.876,11.775c3.387,0,6.975-1.566,9.604-4.146l3.992,4.447
		C187.501,129.678,182.296,132.053,177.191,132.053z"/>
</g>
</svg>
