<?xml version="1.0" encoding="utf-8"?>
<!-- Generator: Adobe Illustrator 18.1.1, SVG Export Plug-In . SVG Version: 6.00 Build 0)  -->
<svg version="1.1" id="Layer_1" xmlns="http://www.w3.org/2000/svg" xmlns:xlink="http://www.w3.org/1999/xlink" x="0px" y="0px"
	 viewBox="-369.5 155.5 250 95.6" enable-background="new -369.5 155.5 250 95.6" xml:space="preserve">
<path fill="#FFCD2E" d="M-119.5,155.5v58.3c-31.7,23-76,37.3-125,37.3s-93.3-14.3-125-37.3v-58.3H-119.5z"/>
<path fill="#FFCD2E" d="M-119.5,155.5v58.3c-31.7,23-76,37.3-125,37.3s-93.3-14.3-125-37.3v-58.3H-119.5z"/>
<g>
	<path fill="#FFFFFF" d="M-275.4,192.6c0,2.7-1.6,4.7-4.2,5.4c3.2,0.5,5.2,2.9,5.2,6.1c0,4.1-3.3,6.6-8.8,6.6h-10.7v-24.1h10.4
		C-278.5,186.5-275.4,188.8-275.4,192.6z M-279.5,193.3c0-2-1.5-3.1-4.1-3.1h-6.2v6.3h6.2C-281.1,196.5-279.5,195.3-279.5,193.3z
		 M-278.6,203.5c0-2.1-1.9-3.4-5.1-3.4h-6.2v6.9h6.2C-280.5,207-278.6,205.7-278.6,203.5z"/>
	<path fill="#FFFFFF" d="M-254.1,205.2h-12.1l-2.3,5.4h-4.2l10.6-24.1h4.2l10.5,24.1h-4.3L-254.1,205.2z M-255.6,201.6l-4.5-10.7
		l-4.5,10.7H-255.6z"/>
	<path fill="#FFFFFF" d="M-236.9,190.2c-2.4,0-3.9,0.9-3.9,2.5c0,5.3,13,2.4,13,11.1c0,4.3-3.8,6.9-9.1,6.9c-3.8,0-7.4-1.5-9.8-3.8
		l1.8-3.5c2.5,2.3,5.6,3.5,8.1,3.5c2.8,0,4.5-1.1,4.5-2.9c0-5.4-13-2.4-13-10.9c0-4.1,3.5-6.7,8.8-6.7c3.1,0,6.2,1,8.4,2.5l-1.7,3.6
		C-232.5,190.8-235.1,190.2-236.9,190.2z"/>
	<path fill="#FFFFFF" d="M-219.1,186.5v24.1h-4.1v-24.1H-219.1z"/>
	<path fill="#FFFFFF" d="M-202,190c-4.8,0-8.6,3.7-8.6,8.5s3.8,8.5,8.6,8.5c2.4,0,4.9-1.1,6.7-2.9l2.4,2.7c-2.4,2.4-5.9,4-9.3,4
		c-7,0-12.5-5.3-12.5-12.2c0-6.8,5.5-12.1,12.6-12.1c3.4,0,6.8,1.4,9.1,3.7l-2.4,3C-197.1,191.2-199.6,190-202,190z"/>
</g>
</svg>
