<?xml version="1.0" encoding="utf-8"?>
<!-- Generator: Adobe Illustrator 16.0.3, SVG Export Plug-In . SVG Version: 6.00 Build 0)  -->
<!DOCTYPE svg PUBLIC "-//W3C//DTD SVG 1.1//EN" "http://www.w3.org/Graphics/SVG/1.1/DTD/svg11.dtd">
<svg version="1.1" id="Layer_1" xmlns="http://www.w3.org/2000/svg" xmlns:xlink="http://www.w3.org/1999/xlink" x="0px" y="0px"
	 width="235px" height="234.999px" viewBox="-2.436 -2.435 235 234.999" enable-background="new -2.436 -2.435 235 234.999"
	 xml:space="preserve">
<g>
	<g>
		<path fill="#FFCD2E" d="M135.766,127.292v-26.45h9.334c7.604,0,13.123,5.583,13.123,13.275c0,7.633-5.413,13.174-12.871,13.175
			H135.766z"/>
		<path fill="#FFFFFF" d="M145.1,102.342c6.621,0,11.623,4.851,11.623,11.775c0,6.873-4.851,11.674-11.371,11.675h-8.086v-23.45
			H145.1 M145.1,99.342h-7.834h-3v3v23.45v3h3h8.086c8.327-0.001,14.371-6.173,14.371-14.675
			C159.723,105.694,153.437,99.342,145.1,99.342L145.1,99.342z"/>
	</g>
	<g>
		<path fill="#FFCD2E" d="M115.065,230.626c-30.865,0-59.886-12.021-81.716-33.85C11.521,174.956-0.5,145.937-0.5,115.066
			c0-30.869,12.021-59.89,33.849-81.715c21.828-21.828,50.848-33.85,81.716-33.85c30.868,0,59.888,12.021,81.716,33.849
			c21.827,21.82,33.848,50.841,33.848,81.715c0,30.87-12.021,59.889-33.848,81.711C174.958,218.604,145.938,230.626,115.065,230.626
			z M144.947,130.253c10.127,0,17.199-6.656,17.199-16.188c0-9.531-6.969-16.188-16.946-16.188h-13.206v32.376H144.947z
			 M120.301,130.252V97.877h-3.771v32.375H120.301z M104.783,130.252V97.877h-5.345l-12.001,24.609L75.38,97.877h-5.399v32.375
			h3.267V99.938l12.903,26.675h2.514l12.889-26.648l0.062,30.287H104.783z"/>
		<path fill="#FFFFFF" d="M115.065,1.001c31.498,0,60.014,12.768,80.656,33.409c20.646,20.641,33.408,49.159,33.408,80.655
			c0,31.5-12.768,60.014-33.408,80.651c-20.641,20.646-49.158,33.41-80.656,33.41c-31.498,0-60.014-12.771-80.656-33.41
			C13.767,175.08,1,146.564,1,115.066c0-31.498,12.768-60.015,33.409-80.655C55.05,13.77,83.567,1.001,115.065,1.001
			 M130.494,131.753h14.453c10.916,0,18.699-7.376,18.699-17.688c0-10.358-7.732-17.688-18.446-17.688h-14.706V131.753
			 M115.03,131.752h6.771V96.377h-6.771V131.752 M87.434,119.07L76.316,96.377h-7.835v35.375h6.267v-25.268l10.462,21.629h4.396
			l10.461-21.629l0.051,25.268h6.165V96.377h-7.782L87.434,119.07 M115.065-1.999c-31.269,0-60.666,12.177-82.777,34.289
			C10.177,54.399-2,83.796-2,115.066c0,31.272,12.177,60.667,34.288,82.772c22.113,22.11,51.511,34.288,82.777,34.288
			c31.273,0,60.671-12.178,82.777-34.289c22.11-22.105,34.287-51.502,34.287-82.772c0-31.275-12.177-60.672-34.287-82.776
			C175.73,10.178,146.333-1.999,115.065-1.999L115.065-1.999z M133.494,99.377H145.2c9.095,0,15.446,6.04,15.446,14.688
			s-6.456,14.688-15.699,14.688h-11.453V99.377L133.494,99.377z M118.029,99.377h0.771v29.375h-0.771V99.377L118.029,99.377z
			 M103.052,99.377h0.231v29.375h-0.171l-0.045-22.274L103.052,99.377L103.052,99.377z M71.481,99.377h0.267v7.107v22.268h-0.267
			V99.377L71.481,99.377z"/>
	</g>
</g>
</svg>
