<?xml version="1.0" encoding="utf-8"?>
<!-- Generator: Adobe Illustrator 16.0.3, SVG Export Plug-In . SVG Version: 6.00 Build 0)  -->
<!DOCTYPE svg PUBLIC "-//W3C//DTD SVG 1.1//EN" "http://www.w3.org/Graphics/SVG/1.1/DTD/svg11.dtd">
<svg version="1.1" id="Layer_1" xmlns="http://www.w3.org/2000/svg" xmlns:xlink="http://www.w3.org/1999/xlink" x="0px" y="0px"
	 width="230.129px" height="230.129px" viewBox="0 0 230.129 230.129" enable-background="new 0 0 230.129 230.129"
	 xml:space="preserve">
<path fill="#FFCD2E" d="M114.065,12.63c-27.536,0-53.671,10.828-73.139,30.295C21.458,62.394,10.63,88.529,10.63,116.064
	c0,27.537,10.828,53.672,30.296,73.14c19.468,19.469,45.603,30.297,73.139,30.297c27.537,0,53.671-10.828,73.139-30.297
	c19.469-19.468,30.297-45.603,30.297-73.14c0-27.537-10.828-53.671-30.297-73.141C167.736,23.458,141.602,12.63,114.065,12.63
	 M114.065,2c31.498,0,60.014,12.768,80.656,33.409c20.644,20.641,33.408,49.159,33.408,80.655c0,31.498-12.768,60.015-33.408,80.653
	c-20.641,20.644-49.158,33.41-80.656,33.41c-31.498,0-60.014-12.771-80.656-33.41C12.767,176.079,0,147.563,0,116.064
	C0,84.567,12.768,56.05,33.409,35.409C54.05,14.768,82.567,2,114.065,2z"/>
<g enable-background="new    ">
	<path fill="#333333" d="M67.886,106.22c0,3.892-2.325,6.873-6.166,7.834c4.7,0.858,7.53,4.244,7.53,8.944
		c0,6.064-5.003,9.754-13.089,9.754H39.989V97.376h15.717C63.236,97.376,67.886,100.762,67.886,106.22z M60.962,107.433
		c0-2.678-2.123-4.245-5.609-4.194h-8.592v8.591h8.592C58.839,111.829,60.962,110.212,60.962,107.433z M62.226,122.14
		c0-2.881-2.578-4.65-6.873-4.6h-8.592v9.35h8.592C59.647,126.94,62.226,125.171,62.226,122.14z"/>
	<path fill="#333333" d="M98.866,125.272H81.583l-3.134,7.479h-7.024l15.515-35.376h7.024l15.313,35.376H102L98.866,125.272z
		 M96.44,119.461l-6.165-14.858l-6.267,14.858H96.44z"/>
	<path fill="#333333" d="M124.945,103.238c-3.184,0-5.256,1.162-5.256,3.335c0,7.177,19.002,3.285,18.951,15.971
		c0,6.62-5.761,10.461-13.544,10.461c-5.66,0-11.169-2.274-14.959-5.66l2.83-5.711c3.639,3.234,8.44,5.205,12.23,5.205
		s6.064-1.415,6.064-3.891c0-7.379-19.002-3.185-19.002-15.768c0-6.166,5.306-10.107,13.24-10.107c4.7,0,9.4,1.516,12.786,3.739
		l-2.729,5.862C131.768,104.4,127.674,103.238,124.945,103.238z"/>
	<path fill="#333333" d="M151.832,97.376v35.376h-6.771V97.376H151.832z"/>
	<path fill="#333333" d="M176.545,103.188c-6.671,0-11.876,5.155-11.876,11.725c0,6.62,5.205,11.775,11.876,11.775
		c3.387,0,6.975-1.566,9.603-4.144l3.992,4.447c-3.639,3.688-8.844,6.064-13.948,6.064c-10.41,0-18.446-7.834-18.446-18.042
		c0-10.107,8.137-17.84,18.699-17.84c5.054,0,10.208,2.173,13.645,5.66l-3.941,4.952
		C183.62,104.956,180.032,103.188,176.545,103.188z"/>
</g>
</svg>
