<?xml version="1.0" encoding="utf-8"?>
<!-- Generator: Adobe Illustrator 18.1.1, SVG Export Plug-In . SVG Version: 6.00 Build 0)  -->
<svg version="1.1" id="Layer_1" xmlns="http://www.w3.org/2000/svg" xmlns:xlink="http://www.w3.org/1999/xlink" x="0px" y="0px"
	 viewBox="325.6 114.8 230 85.6" enable-background="new 325.6 114.8 230 85.6" xml:space="preserve">
<path fill="#FFCD2E" d="M555.6,120.8v49c-30.7,19-71,30.6-115,30.6s-84.3-11.5-115-30.6v-49c0-3.3,2.7-6,6-6h218
	C552.9,114.8,555.6,117.5,555.6,120.8z"/>
<g>
	<path fill="#FFFFFF" d="M420,144.9l6,12l5.9-12h3.6V163h-2.8l0-13.5l-5.7,11.6h-2l-5.7-11.6V163h-2.9v-18.1H420z"/>
	<path fill="#FFFFFF" d="M443.3,144.9V163h-3v-18.1H443.3z"/>
	<path fill="#FFFFFF" d="M464.9,153.9c0,5.2-4,9-9.4,9h-7.3v-18.1h7.4C460.9,144.9,464.9,148.7,464.9,153.9z M461.8,154
		c0-3.7-2.8-6.3-6.3-6.3h-4.3v12.6h4.4C459.1,160.2,461.8,157.6,461.8,154z"/>
</g>
</svg>
