<?xml version="1.0" encoding="utf-8"?>
<!-- Generator: Adobe Illustrator 16.0.3, SVG Export Plug-In . SVG Version: 6.00 Build 0)  -->
<!DOCTYPE svg PUBLIC "-//W3C//DTD SVG 1.1//EN" "http://www.w3.org/Graphics/SVG/1.1/DTD/svg11.dtd">
<svg version="1.1" id="Layer_1" xmlns="http://www.w3.org/2000/svg" xmlns:xlink="http://www.w3.org/1999/xlink" x="0px" y="0px"
	 width="230.129px" height="230.129px" viewBox="0 0 230.129 230.129" enable-background="new 0 0 230.129 230.129"
	 xml:space="preserve">
<path fill="#FFCD2E" d="M114.065,12.63c-27.536,0-53.671,10.828-73.139,30.295C21.458,62.394,10.63,88.529,10.63,116.064
	c0,27.537,10.828,53.672,30.296,73.14c19.468,19.469,45.603,30.297,73.139,30.297c27.537,0,53.671-10.828,73.139-30.297
	c19.469-19.468,30.297-45.603,30.297-73.14c0-27.536-10.828-53.671-30.297-73.14C167.736,23.458,141.602,12.63,114.065,12.63
	 M114.065,2c31.498,0,60.014,12.768,80.656,33.409c20.643,20.641,33.408,49.159,33.408,80.655c0,31.498-12.768,60.015-33.408,80.654
	c-20.641,20.643-49.158,33.41-80.656,33.41c-31.498,0-60.014-12.77-80.656-33.41C12.767,176.079,0,147.563,0,116.064
	C0,84.567,12.768,56.05,33.409,35.409C54.05,14.768,82.567,2,114.065,2z"/>
<g>
	<path fill="#333333" d="M90.435,95.103h5.244v39.924h-5.464v-29.901l0.274,1.757l-9.83,22.598H76.76l-9.829-22.049l0.274-2.306
		v29.901H61.74V95.103h5.245l11.725,26.359L90.435,95.103z"/>
	<path fill="#333333" d="M116.438,95.103h4.777l14.718,39.924h-6.041l-11.065-32.208l-11.065,32.208h-6.041L116.438,95.103z
		 M108.502,120.94h21.006v5.327h-21.006V120.94z"/>
	<path fill="#333333" d="M151.475,112.209l10.021-17.106h6.288l-13.207,21.609l-10.709,18.314h-6.288L151.475,112.209z
		 M151.722,117.48l-0.852-1.373l-12.96-21.005h6.288l9.638,16.255l0.906,1.483l13.646,22.186h-6.288L151.722,117.48z"/>
</g>
</svg>
