<?xml version="1.0" encoding="utf-8"?>
<!-- Generator: Adobe Illustrator 16.0.3, SVG Export Plug-In . SVG Version: 6.00 Build 0)  -->
<!DOCTYPE svg PUBLIC "-//W3C//DTD SVG 1.1//EN" "http://www.w3.org/Graphics/SVG/1.1/DTD/svg11.dtd">
<svg version="1.1" id="Layer_1" xmlns="http://www.w3.org/2000/svg" xmlns:xlink="http://www.w3.org/1999/xlink" x="0px" y="0px"
	 width="230.129px" height="230.129px" viewBox="0 0 230.129 230.129" enable-background="new 0 0 230.129 230.129"
	 xml:space="preserve">
<path fill="#FFCD2E" d="M114.065,12.63c-27.536,0-53.671,10.828-73.139,30.295C21.458,62.394,10.63,88.529,10.63,116.064
	c0,27.537,10.828,53.672,30.296,73.14c19.468,19.469,45.603,30.297,73.139,30.297c27.537,0,53.671-10.828,73.139-30.297
	c19.469-19.468,30.297-45.603,30.297-73.14c0-27.537-10.828-53.671-30.297-73.141C167.736,23.458,141.602,12.63,114.065,12.63
	 M114.065,2c31.498,0,60.014,12.768,80.656,33.409c20.644,20.641,33.408,49.159,33.408,80.655c0,31.498-12.768,60.015-33.408,80.653
	c-20.641,20.644-49.158,33.41-80.656,33.41c-31.498,0-60.014-12.771-80.656-33.41C12.767,176.079,0,147.563,0,116.064
	C0,84.567,12.768,56.05,33.409,35.409C54.05,14.768,82.567,2,114.065,2z"/>
<g enable-background="new    ">
	<path fill="#333333" d="M92.258,126.165h0.151l5.588-37.531h11.554v52.861h-7.854v-37.909h-0.151l-5.588,37.909h-7.854
		l-6.041-37.381h-0.151v37.381h-7.249V88.634h11.554L92.258,126.165z"/>
	<path fill="#333333" d="M115.594,88.634h8.307v52.861h-8.307V88.634z"/>
	<path fill="#333333" d="M129.941,88.634h13.14c8.307,0,12.385,4.606,12.385,13.064v26.732c0,8.458-4.078,13.064-12.385,13.064
		h-13.14V88.634z M138.248,96.186v37.758h4.682c2.644,0,4.229-1.359,4.229-5.135V101.32c0-3.775-1.585-5.135-4.229-5.135H138.248z"
		/>
</g>
</svg>
