<?xml version="1.0" encoding="utf-8"?>
<!-- Generator: Adobe Illustrator 16.0.3, SVG Export Plug-In . SVG Version: 6.00 Build 0)  -->
<!DOCTYPE svg PUBLIC "-//W3C//DTD SVG 1.1//EN" "http://www.w3.org/Graphics/SVG/1.1/DTD/svg11.dtd">
<svg version="1.1" id="Layer_1" xmlns="http://www.w3.org/2000/svg" xmlns:xlink="http://www.w3.org/1999/xlink" x="0px" y="0px"
	 width="230.129px" height="230.129px" viewBox="0 0 230.129 230.129" enable-background="new 0 0 230.129 230.129"
	 xml:space="preserve">
<path fill="#FFCD2E" d="M114.065,12.63c-27.536,0-53.671,10.828-73.139,30.295C21.458,62.394,10.63,88.529,10.63,116.064
	c0,27.537,10.828,53.672,30.296,73.14c19.468,19.469,45.603,30.297,73.139,30.297c27.537,0,53.671-10.828,73.139-30.297
	c19.469-19.468,30.297-45.603,30.297-73.14c0-27.537-10.828-53.671-30.297-73.141C167.736,23.458,141.602,12.63,114.065,12.63
	 M114.065,2c31.498,0,60.014,12.768,80.656,33.409c20.644,20.641,33.408,49.159,33.408,80.655c0,31.498-12.768,60.015-33.408,80.653
	c-20.641,20.644-49.158,33.41-80.656,33.41c-31.498,0-60.014-12.771-80.656-33.41C12.767,176.079,0,147.563,0,116.064
	C0,84.567,12.768,56.05,33.409,35.409C54.05,14.768,82.567,2,114.065,2z"/>
<g enable-background="new    ">
	<path fill="#333333" d="M75.87,100.792v1.888c0,5.438-1.661,8.835-5.361,10.572v0.151c4.455,1.736,6.191,5.664,6.191,11.252v4.305
		c0,8.155-4.304,12.535-12.61,12.535H51.025V88.634h12.535C72.17,88.634,75.87,92.636,75.87,100.792z M59.332,96.186v13.971h3.247
		c3.097,0,4.984-1.359,4.984-5.589v-2.944c0-3.776-1.284-5.438-4.229-5.438H59.332z M59.332,117.707v16.236h4.758
		c2.794,0,4.304-1.283,4.304-5.21v-4.606c0-4.909-1.586-6.42-5.361-6.42H59.332z"/>
	<path fill="#333333" d="M108.569,141.495h-8.382l-1.435-9.591H88.558l-1.435,9.591h-7.627l8.458-52.861h12.157L108.569,141.495z
		 M89.615,124.73h8.005l-3.927-26.732h-0.151L89.615,124.73z"/>
	<path fill="#333333" d="M123.599,88.029c8.08,0,12.233,4.833,12.233,13.291v1.661h-7.854v-2.189c0-3.776-1.511-5.211-4.153-5.211
		c-2.644,0-4.153,1.435-4.153,5.211c0,3.852,1.661,6.721,7.098,11.479c6.948,6.117,9.138,10.497,9.138,16.538
		c0,8.458-4.229,13.291-12.385,13.291c-8.155,0-12.384-4.833-12.384-13.291v-3.247h7.854v3.775c0,3.776,1.661,5.135,4.304,5.135
		c2.644,0,4.305-1.358,4.305-5.135c0-3.852-1.661-6.721-7.099-11.479c-6.947-6.117-9.137-10.497-9.137-16.538
		C111.365,92.862,115.519,88.029,123.599,88.029z"/>
	<path fill="#333333" d="M140.666,88.634h8.307v52.861h-8.307V88.634z"/>
	<path fill="#333333" d="M179.104,121.785v7.023c0,8.458-4.229,13.291-12.385,13.291s-12.385-4.833-12.385-13.291V101.32
		c0-8.458,4.229-13.291,12.385-13.291s12.385,4.833,12.385,13.291v5.136h-7.854v-5.664c0-3.776-1.662-5.211-4.305-5.211
		c-2.644,0-4.305,1.435-4.305,5.211v28.545c0,3.776,1.661,5.135,4.305,5.135c2.643,0,4.305-1.358,4.305-5.135v-7.552H179.104z"/>
</g>
</svg>
