<?xml version="1.0" encoding="utf-8"?>
<!-- Generator: Adobe Illustrator 16.0.3, SVG Export Plug-In . SVG Version: 6.00 Build 0)  -->
<!DOCTYPE svg PUBLIC "-//W3C//DTD SVG 1.1//EN" "http://www.w3.org/Graphics/SVG/1.1/DTD/svg11.dtd">
<svg version="1.1" id="Layer_1" xmlns="http://www.w3.org/2000/svg" xmlns:xlink="http://www.w3.org/1999/xlink" x="0px" y="0px"
	 width="230.129px" height="230.129px" viewBox="0 0 230.129 230.129" enable-background="new 0 0 230.129 230.129"
	 xml:space="preserve">
<path fill="#FFCD2E" d="M115.065,1.001c31.498,0,60.014,12.768,80.656,33.409c20.646,20.641,33.408,49.159,33.408,80.655
	c0,31.5-12.768,60.014-33.408,80.651c-20.641,20.646-49.158,33.41-80.656,33.41c-31.498,0-60.014-12.771-80.656-33.41
	C13.767,175.08,1,146.564,1,115.066c0-31.498,12.768-60.015,33.409-80.655C55.05,13.77,83.567,1.001,115.065,1.001z"/>
<path fill="#FFCD2E" d="M115.065,5.631c-29.133,0-56.784,11.457-77.382,32.052C17.086,58.282,5.63,85.934,5.63,115.066
	c0,29.135,11.456,56.786,32.053,77.381c20.598,20.599,48.249,32.055,77.382,32.055c29.134,0,56.785-11.456,77.38-32.055
	c20.6-20.596,32.056-48.246,32.056-77.381c0-29.134-11.456-56.785-32.056-77.385C171.85,17.088,144.199,5.631,115.065,5.631"/>
<g enable-background="new    ">
	<path fill="#333333" d="M66.563,96.377l11.118,22.693l11.067-22.693h7.782v35.375h-6.165l-0.051-25.268l-10.461,21.629h-4.396
		l-10.462-21.629v25.268h-6.267V96.377H66.563z"/>
	<path fill="#333333" d="M128.32,124.275h-17.284l-3.133,7.479h-7.024l15.516-35.375h7.023l15.313,35.375h-7.274L128.32,124.275z
		 M125.895,118.463l-6.166-14.858l-6.267,14.858H125.895z"/>
	<path fill="#333333" d="M148.082,96.377l8.136,11.624l8.138-11.623h8.035l-11.877,16.93l12.887,18.446h-8.137l-9.046-12.633
		l-8.944,12.633h-7.935l12.735-18.141L140.146,96.38h7.936V96.377L148.082,96.377z"/>
</g>
</svg>
