<?xml version="1.0" encoding="utf-8"?>
<!-- Generator: Adobe Illustrator 16.0.3, SVG Export Plug-In . SVG Version: 6.00 Build 0)  -->
<!DOCTYPE svg PUBLIC "-//W3C//DTD SVG 1.1//EN" "http://www.w3.org/Graphics/SVG/1.1/DTD/svg11.dtd">
<svg version="1.1" id="Layer_1" xmlns="http://www.w3.org/2000/svg" xmlns:xlink="http://www.w3.org/1999/xlink" x="0px" y="0px"
	 width="230.129px" height="230.129px" viewBox="0 0 230.129 230.129" enable-background="new 0 0 230.129 230.129"
	 xml:space="preserve">
<path fill="#FFCD2E" d="M115.065,11.631c-27.536,0-53.671,10.828-73.139,30.295c-19.468,19.47-30.296,45.605-30.296,73.14
	c0,27.538,10.828,53.672,30.296,73.139c19.468,19.469,45.603,30.297,73.139,30.297c27.537,0,53.671-10.828,73.139-30.297
	c19.469-19.467,30.297-45.602,30.297-73.139c0-27.537-10.828-53.671-30.297-73.143C168.736,22.459,142.602,11.631,115.065,11.631"/>
<path fill="#FFCD2E" d="M115.065,1.001c31.498,0,60.014,12.768,80.656,33.409c20.646,20.641,33.408,49.159,33.408,80.655
	c0,31.5-12.768,60.014-33.408,80.651c-20.641,20.646-49.158,33.41-80.656,33.41c-31.498,0-60.014-12.771-80.656-33.41
	C13.767,175.08,1,146.564,1,115.066c0-31.498,12.768-60.015,33.409-80.655C55.05,13.77,83.567,1.001,115.065,1.001z"/>
<g enable-background="new    ">
	<path fill="#333333" d="M76.316,96.377l11.118,22.693l11.067-22.693h7.782v35.375h-6.165l-0.051-25.268l-10.461,21.629H85.21
		l-10.462-21.629v25.268h-6.267V96.377H76.316z"/>
	<path fill="#333333" d="M121.801,96.377v35.375h-6.771V96.377H121.801z"/>
	<path fill="#333333" d="M163.646,114.065c0,10.312-7.783,17.688-18.699,17.688h-14.453V96.377H145.2
		C155.914,96.377,163.646,103.707,163.646,114.065z M156.723,114.117c0-6.924-5.002-11.775-11.623-11.775h-7.834v23.45h8.086
		C151.871,125.791,156.723,120.99,156.723,114.117z"/>
</g>
</svg>
