<?xml version="1.0" encoding="utf-8"?>
<!-- Generator: Adobe Illustrator 16.0.3, SVG Export Plug-In . SVG Version: 6.00 Build 0)  -->
<!DOCTYPE svg PUBLIC "-//W3C//DTD SVG 1.1//EN" "http://www.w3.org/Graphics/SVG/1.1/DTD/svg11.dtd">
<svg version="1.1" id="Layer_1" xmlns="http://www.w3.org/2000/svg" xmlns:xlink="http://www.w3.org/1999/xlink" x="0px" y="0px"
	 width="230.129px" height="230.129px" viewBox="0 0 230.129 230.129" enable-background="new 0 0 230.129 230.129"
	 xml:space="preserve">
<path fill="#FFCD2E" d="M114.065,12.63c-27.536,0-53.671,10.828-73.139,30.295C21.458,62.394,10.63,88.529,10.63,116.064
	c0,27.537,10.828,53.672,30.296,73.14c19.468,19.469,45.603,30.297,73.139,30.297c27.537,0,53.671-10.828,73.139-30.297
	c19.469-19.468,30.297-45.603,30.297-73.14c0-27.537-10.828-53.671-30.297-73.141C167.736,23.458,141.602,12.63,114.065,12.63
	 M114.065,2c31.498,0,60.014,12.768,80.656,33.409c20.644,20.641,33.408,49.159,33.408,80.655c0,31.498-12.768,60.015-33.408,80.653
	c-20.641,20.644-49.158,33.41-80.656,33.41c-31.498,0-60.014-12.771-80.656-33.41C12.767,176.079,0,147.563,0,116.064
	C0,84.567,12.768,56.05,33.409,35.409C54.05,14.768,82.567,2,114.065,2z"/>
<g enable-background="new    ">
	<path fill="#333333" d="M65.259,97.376l12.938,25.672l12.887-25.672h4.953v35.375h-3.74l-0.051-29.412l-12.887,25.674h-2.426
		L64.097,103.34v29.412h-3.841V97.376H65.259z"/>
	<path fill="#333333" d="M129.139,123.707h-19.254l-3.942,9.045h-4.295l15.868-35.375h4.194l15.818,35.375h-4.396L129.139,123.707z
		 M127.521,119.967l-8.035-18.194l-7.934,18.194H127.521z"/>
	<path fill="#333333" d="M144.504,97.376l9.753,13.797l9.854-13.797h4.751l-12.028,16.98l13.039,18.395h-4.852l-10.765-14.908
		l-10.663,14.908h-4.75l12.987-18.193l-12.078-17.183H144.504z"/>
</g>
</svg>
