<?xml version="1.0" encoding="utf-8"?>
<!-- Generator: Adobe Illustrator 18.1.1, SVG Export Plug-In . SVG Version: 6.00 Build 0)  -->
<svg version="1.1" id="Layer_1" xmlns="http://www.w3.org/2000/svg" xmlns:xlink="http://www.w3.org/1999/xlink" x="0px" y="0px"
	 viewBox="325.6 114.8 230 85.6" enable-background="new 325.6 114.8 230 85.6" xml:space="preserve">
<path fill="#FFCD2E" d="M555.6,120.8v49c-30.7,19-71,30.6-115,30.6s-84.3-11.5-115-30.6v-49c0-3.3,2.7-6,6-6h218
	C552.9,114.8,555.6,117.5,555.6,120.8z"/>
<g>
	<path fill="#FFFFFF" d="M416.2,144.9l6,12l5.9-12h3.6V163h-2.8l0-13.5l-5.7,11.6h-2l-5.7-11.6V163h-2.9v-18.1H416.2z"/>
	<path fill="#FFFFFF" d="M448.2,158.9H439l-1.7,4.1h-3.2l8-18.1h3.1l7.9,18.1h-3.3L448.2,158.9z M447,156.2l-3.4-8l-3.4,8H447z"/>
	<path fill="#FFFFFF" d="M457.6,144.9l4.4,6.3l4.4-6.3h3.6l-6.1,8.7l6.6,9.4h-3.6l-4.9-6.8l-4.9,6.8h-3.6l6.6-9.3l-6.1-8.8H457.6z"
		/>
</g>
</svg>
