<?xml version="1.0" encoding="utf-8"?>
<!-- Generator: Adobe Illustrator 16.0.3, SVG Export Plug-In . SVG Version: 6.00 Build 0)  -->
<!DOCTYPE svg PUBLIC "-//W3C//DTD SVG 1.1//EN" "http://www.w3.org/Graphics/SVG/1.1/DTD/svg11.dtd">
<svg version="1.1" id="Layer_1" xmlns="http://www.w3.org/2000/svg" xmlns:xlink="http://www.w3.org/1999/xlink" x="0px" y="0px"
	 width="230.129px" height="230.129px" viewBox="0 0 230.129 230.129" enable-background="new 0 0 230.129 230.129"
	 xml:space="preserve">
<path fill="#FFCD2E" d="M114.065,12.63c-27.536,0-53.671,10.828-73.139,30.295C21.458,62.394,10.63,88.529,10.63,116.064
	c0,27.537,10.828,53.672,30.296,73.14c19.468,19.469,45.603,30.297,73.139,30.297c27.537,0,53.671-10.828,73.139-30.297
	c19.469-19.468,30.297-45.603,30.297-73.14c0-27.536-10.828-53.671-30.297-73.14C167.736,23.458,141.602,12.63,114.065,12.63
	 M114.065,2c31.498,0,60.014,12.768,80.656,33.409c20.643,20.641,33.408,49.159,33.408,80.655c0,31.498-12.768,60.015-33.408,80.654
	c-20.641,20.643-49.158,33.41-80.656,33.41c-31.498,0-60.014-12.77-80.656-33.41C12.767,176.079,0,147.563,0,116.064
	C0,84.567,12.768,56.05,33.409,35.409C54.05,14.768,82.567,2,114.065,2z"/>
<g>
	<path fill="#333333" d="M90.456,118.95c-0.251-5.453-0.563-12.034-0.501-17.738h-0.188c-1.379,5.14-3.134,10.844-5.015,16.172
		l-6.143,18.303h-5.955l-5.642-18.053c-1.63-5.39-3.134-11.157-4.263-16.422h-0.125c-0.188,5.516-0.438,12.223-0.752,17.989
		l-0.94,16.987h-7.209l2.821-42.248h10.154l5.517,16.987c1.504,4.951,2.82,9.966,3.886,14.667h0.188
		c1.128-4.575,2.57-9.778,4.199-14.73l5.83-16.924h10.029l2.444,42.248h-7.521L90.456,118.95z"/>
	<path fill="#333333" d="M114.721,124.216l-3.637,11.973h-7.96l13.54-42.248h9.841l13.728,42.248h-8.273l-3.824-11.973H114.721z
		 M126.818,118.387l-3.322-10.405c-0.814-2.57-1.504-5.453-2.131-7.898h-0.126c-0.626,2.445-1.253,5.391-2.006,7.898l-3.259,10.405
		H126.818z"/>
	<path fill="#333333" d="M167.504,136.188l-4.576-8.399c-1.817-3.26-3.009-5.517-4.199-7.961h-0.188
		c-1.003,2.444-2.131,4.701-3.823,7.961l-4.2,8.399h-8.838l12.536-21.375L142.18,93.94h8.839l4.575,8.713
		c1.38,2.633,2.382,4.701,3.511,7.083h0.125c1.129-2.633,2.006-4.513,3.322-7.083l4.514-8.713h8.838l-12.349,20.623l12.851,21.625
		H167.504z"/>
</g>
</svg>
