<?xml version="1.0" encoding="utf-8"?>
<!-- Generator: Adobe Illustrator 16.0.3, SVG Export Plug-In . SVG Version: 6.00 Build 0)  -->
<!DOCTYPE svg PUBLIC "-//W3C//DTD SVG 1.1//EN" "http://www.w3.org/Graphics/SVG/1.1/DTD/svg11.dtd">
<svg version="1.1" id="Layer_1" xmlns="http://www.w3.org/2000/svg" xmlns:xlink="http://www.w3.org/1999/xlink" x="0px" y="0px"
	 width="230.129px" height="230.129px" viewBox="0 0 230.129 230.129" enable-background="new 0 0 230.129 230.129"
	 xml:space="preserve">
<path fill="#FFCD2E" d="M114.065,12.63c-27.536,0-53.671,10.828-73.139,30.295C21.458,62.394,10.63,88.529,10.63,116.064
	c0,27.537,10.828,53.672,30.296,73.14c19.468,19.469,45.603,30.297,73.139,30.297c27.537,0,53.671-10.828,73.139-30.297
	c19.469-19.468,30.297-45.603,30.297-73.14c0-27.536-10.828-53.671-30.297-73.14C167.736,23.458,141.602,12.63,114.065,12.63
	 M114.065,2c31.498,0,60.014,12.768,80.656,33.409c20.643,20.641,33.408,49.159,33.408,80.655c0,31.498-12.768,60.015-33.408,80.654
	c-20.641,20.643-49.158,33.41-80.656,33.41c-31.498,0-60.014-12.77-80.656-33.41C12.767,176.079,0,147.563,0,116.064
	C0,84.567,12.768,56.05,33.409,35.409C54.05,14.768,82.567,2,114.065,2z"/>
<g>
	<path fill="#333333" d="M37.3,94.536c2.444-0.502,6.895-0.878,11.22-0.878c5.704,0,9.214,0.689,12.098,2.695
		c2.633,1.567,4.388,4.325,4.388,7.898c0,3.886-2.444,7.459-7.021,9.151v0.125c4.451,1.129,8.525,4.639,8.525,10.468
		c0,3.762-1.629,6.708-4.074,8.714c-3.009,2.632-7.961,3.948-15.671,3.948c-4.262,0-7.522-0.313-9.465-0.563V94.536z
		 M44.947,111.209h3.949c5.328,0,8.337-2.507,8.337-6.08c0-3.949-3.009-5.767-7.898-5.767c-2.257,0-3.573,0.125-4.388,0.313V111.209
		z M44.947,130.641c1.003,0.126,2.319,0.188,4.075,0.188c4.952,0,9.34-1.881,9.34-7.083c0-4.89-4.263-6.896-9.591-6.896h-3.824
		V130.641z"/>
	<path fill="#333333" d="M81.683,124.247l-3.635,11.973h-7.961l13.54-42.248h9.841l13.728,42.248h-8.274l-3.823-11.973H81.683z
		 M93.781,118.418l-3.322-10.405c-0.815-2.57-1.504-5.453-2.131-7.898h-0.125c-0.627,2.445-1.253,5.391-2.006,7.898l-3.259,10.405
		H93.781z"/>
	<path fill="#333333" d="M112.903,127.82c2.507,1.441,6.269,2.695,10.218,2.695c4.951,0,7.709-2.319,7.709-5.767
		c0-3.197-2.131-5.078-7.521-7.021c-6.957-2.508-11.408-6.206-11.408-12.286c0-6.895,5.768-12.16,14.918-12.16
		c4.576,0,7.961,1.003,10.156,2.131l-1.881,6.206c-1.504-0.815-4.451-2.006-8.4-2.006c-4.889,0-7.02,2.633-7.02,5.077
		c0,3.26,2.443,4.764,8.086,6.958c7.334,2.758,10.906,6.456,10.906,12.536c0,6.77-5.141,12.662-16.047,12.662
		c-4.449,0-9.089-1.254-11.409-2.633L112.903,127.82z"/>
	<path fill="#333333" d="M153.338,93.972v42.248h-7.711V93.972H153.338z"/>
	<path fill="#333333" d="M192.453,134.966c-1.818,0.94-5.83,1.881-10.908,1.881c-13.414,0-21.563-8.399-21.563-21.249
		c0-13.916,9.654-22.315,22.566-22.315c5.076,0,8.713,1.065,10.279,1.88l-1.691,6.144c-2.006-0.878-4.764-1.63-8.275-1.63
		c-8.586,0-14.793,5.391-14.793,15.545c0,9.277,5.453,15.232,14.73,15.232c3.135,0,6.395-0.627,8.4-1.567L192.453,134.966z"/>
</g>
</svg>
