<?xml version="1.0" encoding="utf-8"?>
<!-- Generator: Adobe Illustrator 16.0.3, SVG Export Plug-In . SVG Version: 6.00 Build 0)  -->
<!DOCTYPE svg PUBLIC "-//W3C//DTD SVG 1.1//EN" "http://www.w3.org/Graphics/SVG/1.1/DTD/svg11.dtd">
<svg version="1.1" id="Layer_1" xmlns="http://www.w3.org/2000/svg" xmlns:xlink="http://www.w3.org/1999/xlink" x="0px" y="0px"
	 width="230.129px" height="230.129px" viewBox="0 0 230.129 230.129" enable-background="new 0 0 230.129 230.129"
	 xml:space="preserve">
<path fill="#FFCD2E" d="M114.065,12.63c-27.536,0-53.671,10.828-73.139,30.295C21.458,62.394,10.63,88.529,10.63,116.064
	c0,27.537,10.828,53.672,30.296,73.14c19.468,19.469,45.603,30.297,73.139,30.297c27.537,0,53.671-10.828,73.139-30.297
	c19.469-19.468,30.297-45.603,30.297-73.14s-10.828-53.671-30.297-73.143C167.736,23.458,141.602,12.63,114.065,12.63 M114.065,2
	c31.498,0,60.014,12.768,80.656,33.409c20.646,20.641,33.408,49.159,33.408,80.655c0,31.498-12.768,60.015-33.408,80.651
	c-20.641,20.646-49.158,33.41-80.656,33.41c-31.498,0-60.014-12.771-80.656-33.41C12.767,176.079,0,147.563,0,116.064
	C0,84.567,12.768,56.05,33.409,35.409C54.05,14.768,82.567,2,114.065,2z"/>
<g enable-background="new    ">
	<path fill="#414141" d="M65.563,97.376l11.118,22.692l11.067-22.692h7.782v35.375h-6.165l-0.051-25.268l-10.461,21.629h-4.396
		l-10.462-21.629v25.268h-6.267V97.376H65.563z"/>
	<path fill="#414141" d="M127.32,125.273h-17.284l-3.133,7.479h-7.024l15.515-35.375h7.024l15.313,35.375h-7.275L127.32,125.273z
		 M124.895,119.461l-6.166-14.858l-6.267,14.858H124.895z"/>
	<path fill="#414141" d="M147.082,97.376L155.218,109l8.138-11.623h8.035l-11.877,16.93l12.887,18.446h-8.137l-9.046-12.633
		l-8.944,12.633h-7.935l12.735-18.142l-11.928-17.233h7.936V97.376z"/>
</g>
</svg>
