<?xml version="1.0" encoding="utf-8"?>
<!-- Generator: Adobe Illustrator 16.0.3, SVG Export Plug-In . SVG Version: 6.00 Build 0)  -->
<!DOCTYPE svg PUBLIC "-//W3C//DTD SVG 1.1//EN" "http://www.w3.org/Graphics/SVG/1.1/DTD/svg11.dtd">
<svg version="1.1" id="Layer_1" xmlns="http://www.w3.org/2000/svg" xmlns:xlink="http://www.w3.org/1999/xlink" x="0px" y="0px"
	 width="235px" height="234.999px" viewBox="-2.436 -2.435 235 234.999" enable-background="new -2.436 -2.435 235 234.999"
	 xml:space="preserve">
<g>
	<g>
		<path fill="#FFCD2E" d="M115.065,230.626c-30.865,0-59.886-12.021-81.716-33.85C11.521,174.956-0.5,145.937-0.5,115.066
			c0-30.869,12.021-59.89,33.849-81.715c21.828-21.828,50.848-33.85,81.716-33.85c30.868,0,59.888,12.021,81.716,33.849
			c21.827,21.82,33.848,50.841,33.848,81.715c0,30.87-12.021,59.889-33.848,81.711C174.958,218.604,145.938,230.626,115.065,230.626
			z M170.522,130.254l-11.84-16.948l10.823-15.428h-4.369l-8.919,12.739l-8.915-12.737h-4.294l10.894,15.739l-11.678,16.635h4.273
			l9.713-13.719l9.823,13.719H170.522z M136.446,130.254l-14.014-32.375h-5.058l-14.2,32.375h3.73l3.133-7.479h19.279l3.137,7.479
			H136.446z M95.03,130.252V97.877h-5.344l-12.001,24.609L65.627,97.877h-5.399v32.375h3.267V99.938l12.903,26.675h2.514
			l12.889-26.648l0.062,30.287H95.03z"/>
		<path fill="#FFFFFF" d="M115.065,1.001c31.498,0,60.014,12.768,80.656,33.409c20.646,20.641,33.408,49.159,33.408,80.655
			c0,31.5-12.768,60.014-33.408,80.651c-20.641,20.646-49.158,33.41-80.656,33.41c-31.498,0-60.014-12.771-80.656-33.41
			C13.767,175.08,1,146.564,1,115.066c0-31.498,12.768-60.015,33.409-80.655C55.05,13.77,83.567,1.001,115.065,1.001
			 M139.339,131.754h7.935l8.944-12.633l9.046,12.633h8.137l-12.887-18.446l11.877-16.93h-8.035l-8.138,11.623l-8.136-11.624v0.003
			h-7.936l11.928,17.233L139.339,131.754 M77.681,119.07L66.563,96.377h-7.835v35.375h6.267v-25.268l10.462,21.629h4.396
			l10.461-21.629l0.051,25.268h6.165V96.377h-7.782L77.681,119.07 M100.879,131.754h7.024l3.133-7.479h17.284l3.137,7.479h7.273
			l-15.313-35.375h-7.023L100.879,131.754 M115.065-1.999c-31.269,0-60.666,12.177-82.777,34.289C10.177,54.399-2,83.796-2,115.066
			c0,31.272,12.177,60.667,34.288,82.772c22.113,22.11,51.511,34.288,82.777,34.288c31.273,0,60.671-12.178,82.777-34.289
			c22.11-22.105,34.287-51.502,34.287-82.772c0-31.275-12.177-60.672-34.287-82.776C175.73,10.178,146.333-1.999,115.065-1.999
			L115.065-1.999z M93.299,99.377h0.23v29.375h-0.17l-0.045-22.274L93.299,99.377L93.299,99.377z M61.728,99.377h0.267v7.107v22.268
			h-0.267V99.377L61.728,99.377z M165.917,99.378h0.704l-8.563,12.208l-1.206,1.719l1.203,1.722l9.59,13.728h-0.839l-8.148-11.379
			l-2.453-3.426l-2.435,3.439l-8.048,11.366h-0.611l9.419-13.417l1.202-1.711l-1.19-1.72l-8.67-12.525h0.651l7.237,10.341
			l2.458,3.511l2.458-3.511L165.917,99.378L165.917,99.378z M118.354,99.379h3.093l12.716,29.375h-0.711l-2.365-5.639l-0.771-1.84
			h-1.995h-17.284h-1.996l-0.771,1.841l-2.362,5.638h-0.437L118.354,99.379L118.354,99.379z"/>
	</g>
	<g>
		<polygon fill="#FFCD2E" points="111.201,119.963 119.739,99.719 128.141,119.963 		"/>
		<path fill="#FFFFFF" d="M119.729,103.605l6.166,14.858h-12.433L119.729,103.605 M119.751,95.832l-2.787,6.607l-6.266,14.858
			l-1.757,4.166h4.521h12.433h4.493l-1.723-4.15l-6.166-14.857L119.751,95.832L119.751,95.832z"/>
	</g>
</g>
</svg>
