<?xml version="1.0" encoding="utf-8"?>
<!-- Generator: Adobe Illustrator 16.0.3, SVG Export Plug-In . SVG Version: 6.00 Build 0)  -->
<!DOCTYPE svg PUBLIC "-//W3C//DTD SVG 1.1//EN" "http://www.w3.org/Graphics/SVG/1.1/DTD/svg11.dtd">
<svg version="1.1" id="Layer_1" xmlns="http://www.w3.org/2000/svg" xmlns:xlink="http://www.w3.org/1999/xlink" x="0px" y="0px"
	 width="230.129px" height="230.129px" viewBox="0 0 230.129 230.129" enable-background="new 0 0 230.129 230.129"
	 xml:space="preserve">
<g>
	<path fill="#99CC33" d="M145.1,102.342h-7.834v23.45h8.086c6.52-0.001,11.371-4.802,11.371-11.675
		C156.723,107.193,151.721,102.342,145.1,102.342z"/>
	<path fill="#99CC33" d="M195.721,34.41c-20.642-20.641-49.158-33.409-80.656-33.409c-31.498,0-60.015,12.769-80.656,33.41
		C13.768,55.051,1,83.568,1,115.066c0,31.499,12.767,60.014,33.409,80.65c20.642,20.64,49.158,33.41,80.656,33.41
		c31.498,0,60.015-12.765,80.656-33.41c20.641-20.637,33.408-49.151,33.408-80.651C229.129,83.569,216.367,55.051,195.721,34.41z
		 M106.283,131.752h-6.165l-0.051-25.268l-10.461,21.629H85.21l-10.462-21.629v25.268h-6.267V96.377h7.835l11.118,22.693
		l11.067-22.693h7.782V131.752z M121.801,131.752h-6.771V96.377h6.771V131.752z M144.947,131.753h-14.453V96.377H145.2
		c10.714,0,18.446,7.33,18.446,17.688C163.646,124.377,155.863,131.753,144.947,131.753z"/>
</g>
</svg>
