<?xml version="1.0" encoding="utf-8"?>
<!-- Generator: Adobe Illustrator 18.1.1, SVG Export Plug-In . SVG Version: 6.00 Build 0)  -->
<svg version="1.1" id="Layer_1" xmlns="http://www.w3.org/2000/svg" xmlns:xlink="http://www.w3.org/1999/xlink" x="0px" y="0px"
	 viewBox="-369.5 155.5 250 95.6" enable-background="new -369.5 155.5 250 95.6" xml:space="preserve">
<path fill="#FFCD2E" d="M-119.5,155.5v58.3c-31.7,23-76,37.3-125,37.3s-93.3-14.3-125-37.3v-58.3H-119.5z"/>
<path fill="#FFCD2E" d="M-119.5,155.5v58.3c-31.7,23-76,37.3-125,37.3s-93.3-14.3-125-37.3v-58.3H-119.5z"/>
<g>
	<path fill="#FFFFFF" d="M-283.9,183.5l9.6,19.4l9.6-19.4h5.8v29.2h-4.5l0-21.8l-9.2,18.8h-3.2l-9.2-18.8v21.8h-4.6v-29.2H-283.9z"
		/>
	<path fill="#FFFFFF" d="M-232.3,206.1h-14.7l-2.8,6.6h-5.1l12.9-29.2h5l12.8,29.2h-5.3L-232.3,206.1z M-234.2,201.7l-5.5-13
		l-5.5,13H-234.2z"/>
	<path fill="#FFFFFF" d="M-217.2,183.5l7.1,10.1l7.2-10.1h5.8l-9.8,14l10.6,15.2h-5.9l-7.9-11l-7.8,11h-5.8l10.6-15l-9.9-14.2
		H-217.2z"/>
</g>
</svg>
