<?xml version="1.0" encoding="utf-8"?>
<!-- Generator: Adobe Illustrator 18.1.1, SVG Export Plug-In . SVG Version: 6.00 Build 0)  -->
<svg version="1.1" id="Layer_1" xmlns="http://www.w3.org/2000/svg" xmlns:xlink="http://www.w3.org/1999/xlink" x="0px" y="0px"
	 viewBox="-369.5 155.5 250 95.6" enable-background="new -369.5 155.5 250 95.6" xml:space="preserve">
<path fill="#FFCD2E" d="M-119.5,155.5v58.3c-31.7,23-76,37.3-125,37.3s-93.3-14.3-125-37.3v-58.3H-119.5z"/>
<path fill="#FFCD2E" d="M-119.5,155.5v58.3c-31.7,23-76,37.3-125,37.3s-93.3-14.3-125-37.3v-58.3H-119.5z"/>
<g>
	<path fill="#FFFFFF" d="M-270.9,186.5l7.9,16l7.9-16h4.8v24.1h-3.7l0-18l-7.6,15.5h-2.6l-7.6-15.5v18h-3.8v-24.1H-270.9z"/>
	<path fill="#FFFFFF" d="M-239.9,186.5v24.1h-4.1v-24.1H-239.9z"/>
	<path fill="#FFFFFF" d="M-211.3,198.6c0,6.9-5.3,12-12.5,12h-9.8v-24.1h9.9C-216.5,186.5-211.3,191.6-211.3,198.6z M-215.4,198.6
		c0-4.9-3.7-8.4-8.4-8.4h-5.7v16.8h5.9C-218.9,206.9-215.4,203.5-215.4,198.6z"/>
</g>
</svg>
