<?xml version="1.0" encoding="utf-8"?>
<!-- Generator: Adobe Illustrator 16.0.3, SVG Export Plug-In . SVG Version: 6.00 Build 0)  -->
<!DOCTYPE svg PUBLIC "-//W3C//DTD SVG 1.1//EN" "http://www.w3.org/Graphics/SVG/1.1/DTD/svg11.dtd">
<svg version="1.1" id="Layer_1" xmlns="http://www.w3.org/2000/svg" xmlns:xlink="http://www.w3.org/1999/xlink" x="0px" y="0px"
	 width="230.129px" height="230.129px" viewBox="0 0 230.129 230.129" enable-background="new 0 0 230.129 230.129"
	 xml:space="preserve">
<path fill="#FFCD2E" d="M114.065,12.63c-27.536,0-53.671,10.828-73.139,30.295C21.458,62.394,10.63,88.529,10.63,116.064
	c0,27.537,10.828,53.672,30.296,73.14c19.468,19.469,45.603,30.297,73.139,30.297c27.537,0,53.671-10.828,73.139-30.297
	c19.469-19.468,30.297-45.603,30.297-73.14c0-27.536-10.828-53.671-30.297-73.14C167.736,23.458,141.602,12.63,114.065,12.63
	 M114.065,2c31.498,0,60.014,12.768,80.656,33.409c20.643,20.641,33.408,49.159,33.408,80.655c0,31.498-12.768,60.015-33.408,80.654
	c-20.641,20.643-49.158,33.41-80.656,33.41c-31.498,0-60.014-12.77-80.656-33.41C12.767,176.079,0,147.563,0,116.064
	C0,84.567,12.768,56.05,33.409,35.409C54.05,14.768,82.567,2,114.065,2z"/>
<g>
	<path fill="#333333" d="M100.183,95.103h5.244v39.924h-5.464v-29.901l0.274,1.757l-9.83,22.598h-3.899l-9.829-22.049l0.274-2.306
		v29.901h-5.465V95.103h5.245l11.725,26.359L100.183,95.103z"/>
	<path fill="#333333" d="M120.913,135.026h-5.602V95.103h5.602V135.026z"/>
	<path fill="#333333" d="M130.798,95.103h5.602v39.924h-5.602V95.103z M134.588,129.699h9.033c2.947,0,5.231-0.764,6.852-2.293
		c1.62-1.527,2.43-3.684,2.43-6.466v-11.752c0-2.782-0.81-4.938-2.43-6.467c-1.62-1.528-3.904-2.292-6.852-2.292h-9.033v-5.327
		h8.868c3.204,0,5.94,0.559,8.211,1.675c2.27,1.117,3.999,2.746,5.189,4.888c1.189,2.142,1.784,4.723,1.784,7.743v11.313
		c0,3.021-0.595,5.602-1.784,7.743c-1.19,2.142-2.925,3.771-5.203,4.888c-2.279,1.116-5.021,1.675-8.225,1.675h-8.841V129.699z"/>
</g>
</svg>
