<?xml version="1.0" encoding="utf-8"?>
<!-- Generator: Adobe Illustrator 16.0.3, SVG Export Plug-In . SVG Version: 6.00 Build 0)  -->
<!DOCTYPE svg PUBLIC "-//W3C//DTD SVG 1.1//EN" "http://www.w3.org/Graphics/SVG/1.1/DTD/svg11.dtd">
<svg version="1.1" id="Layer_1" xmlns="http://www.w3.org/2000/svg" xmlns:xlink="http://www.w3.org/1999/xlink" x="0px" y="0px"
	 width="235px" height="235px" viewBox="-2.436 -2.436 235 235" enable-background="new -2.436 -2.436 235 235"
	 xml:space="preserve">
<g>
	<g>
		<path fill="#FFCD2E" d="M46.261,127.392v-12.35l10.258-0.001c6.051,0,8.207,3.151,8.207,6.101c0,1.972-0.833,3.604-2.411,4.721
			c-1.434,1.016-3.38,1.53-5.783,1.53L46.261,127.392z"/>
		<path fill="#FFFFFF" d="M56.519,116.541c4.195,0,6.707,1.757,6.707,4.601c0,2.989-2.507,4.751-6.694,4.751
			c-0.06,0-0.119,0-0.179-0.001h-8.592v-9.35h8.592C56.409,116.541,56.464,116.541,56.519,116.541 M56.519,113.541l-0.199,0.001
			h-8.559h-3v3v9.35v3h3h8.592l0.179,0.001c7.155,0,9.694-4.176,9.694-7.751C66.226,117.636,63.684,113.541,56.519,113.541
			L56.519,113.541z"/>
	</g>
	<g>
		<polygon fill="#FFCD2E" points="82.747,119.964 91.286,99.719 99.687,119.964 		"/>
		<path fill="#FFFFFF" d="M91.275,103.606l6.165,14.858H85.008L91.275,103.606 M91.298,95.833l-2.787,6.607l-6.267,14.858
			l-1.757,4.166h4.521H97.44h4.493l-1.722-4.149l-6.165-14.858L91.298,95.833L91.298,95.833z"/>
	</g>
	<g>
		<path fill="#FFCD2E" d="M46.261,112.333v-11.591l10.257-0.001c4.218,0,6.944,2.235,6.944,5.695c0,3.581-2.79,5.896-7.108,5.897
			H46.261z"/>
		<path fill="#FFFFFF" d="M56.518,102.241c3.387,0,5.444,1.559,5.444,4.195c0,2.778-2.123,4.396-5.609,4.397h-8.592v-8.591h8.592
			C56.409,102.241,56.463,102.241,56.518,102.241 M56.518,99.241l-0.209,0.001l-8.547,0h-3v3v8.591v3h3h8.592
			c5.149-0.001,8.609-2.974,8.609-7.397C64.962,102.854,62.351,99.241,56.518,99.241L56.518,99.241z"/>
	</g>
	<g>
		<path fill="#FFCD2E" d="M115.065,230.627c-30.865,0-59.886-12.021-81.716-33.85C11.521,174.957-0.5,145.938-0.5,115.067
			c0-30.869,12.021-59.89,33.849-81.715c21.828-21.828,50.848-33.85,81.716-33.85c30.868,0,59.888,12.021,81.716,33.849
			c21.827,21.82,33.848,50.841,33.848,81.715c0,30.87-12.021,59.889-33.848,81.711C174.958,218.605,145.938,230.627,115.065,230.627
			z M177.448,97.672c-9.805,0-17.199,7.024-17.199,16.34c0,9.431,7.283,16.542,16.942,16.542c4.156,0,8.495-1.719,11.856-4.65
			l-2.017-2.247c-2.766,2.233-6.213,3.534-9.485,3.534c-7.501,0-13.376-5.831-13.376-13.275c0-7.416,5.875-13.225,13.376-13.225
			c3.324,0,6.762,1.415,9.479,3.847l2.031-2.553C185.918,99.3,181.588,97.672,177.448,97.672z M113.002,125.957
			c3.621,2.864,8.431,4.55,13.091,4.55c7.318,0,12.048-3.518,12.048-8.961c0.022-5.686-4.291-7.409-10.389-9.223
			c-4.209-1.253-8.563-2.548-8.563-6.747c0-2.337,1.774-4.835,6.756-4.835c2.859,0,6.547,1.066,9.93,2.836l1.479-3.178
			c-3.181-1.782-7.146-2.824-10.859-2.824c-7.132,0-11.74,3.377-11.74,8.605c0,5.579,4.076,7.163,10.294,8.944
			c4.281,1.226,8.708,2.495,8.708,6.825c0,2.606-1.987,5.391-7.563,5.391c-3.684,0-8.111-1.673-11.717-4.358L113.002,125.957z
			 M57.161,130.255c7.257,0,11.589-3.086,11.589-8.254c0-4.016-2.296-6.738-6.299-7.469l-6.825-1.246l6.73-1.685
			c3.15-0.789,5.03-3.173,5.03-6.379c0-4.599-3.993-7.344-10.68-7.344H42.489v32.377H57.161z M151.332,130.254V97.878h-3.771v32.376
			H151.332z M78.452,130.253l3.133-7.479h19.279l3.134,7.478h3.996L93.979,97.877H88.92l-14.199,32.376H78.452z"/>
		<path fill="#FFFFFF" d="M115.065,1.002c31.498,0,60.014,12.768,80.656,33.409c20.646,20.641,33.408,49.159,33.408,80.655
			c0,31.5-12.768,60.014-33.408,80.651c-20.641,20.646-49.158,33.41-80.656,33.41c-31.498,0-60.014-12.771-80.656-33.41
			C13.767,175.081,1,146.565,1,115.067c0-31.498,12.768-60.015,33.409-80.655C55.05,13.771,83.567,1.002,115.065,1.002
			 M126.193,125.841c-3.789,0-8.588-1.971-12.229-5.205l-2.83,5.711c3.789,3.387,9.301,5.66,14.958,5.66
			c7.783,0,13.548-3.84,13.548-10.461c0.051-12.685-18.951-8.793-18.951-15.97c0-2.173,2.068-3.335,5.256-3.335
			c2.729,0,6.822,1.161,10.606,3.436l2.729-5.862c-3.389-2.223-8.086-3.739-12.786-3.739c-7.933,0-13.24,3.939-13.24,10.105
			c0,12.583,19.002,8.391,19.002,15.769C132.257,124.427,129.984,125.841,126.193,125.841 M177.191,132.054
			c5.104,0,10.31-2.375,13.951-6.063l-3.992-4.447c-2.629,2.58-6.217,4.146-9.604,4.146c-6.671,0-11.876-5.154-11.876-11.775
			c0-6.57,5.205-11.725,11.876-11.725c3.487,0,7.075,1.769,9.608,4.594l3.938-4.952c-3.44-3.487-8.591-5.66-13.645-5.66
			c-10.563,0-18.699,7.736-18.699,17.84C158.749,124.22,166.785,132.054,177.191,132.054 M72.425,131.753h7.024l3.134-7.479h17.283
			l3.134,7.478h7.277L94.964,96.377H87.94L72.425,131.753 M146.061,131.754h6.771V96.378h-6.771V131.754 M40.989,131.755h16.172
			c8.086,0,13.089-3.689,13.089-9.754c0-4.701-2.83-8.087-7.53-8.945c3.841-0.961,6.166-3.94,6.166-7.834
			c0-5.458-4.65-8.844-12.18-8.844H40.989V131.755 M115.065-1.998c-31.269,0-60.666,12.177-82.777,34.289
			C10.177,54.4-2,83.797-2,115.067c0,31.272,12.177,60.667,34.288,82.772c22.113,22.11,51.511,34.288,82.777,34.288
			c31.273,0,60.671-12.178,82.777-34.289c22.11-22.105,34.287-51.502,34.287-82.772c0-31.275-12.177-60.672-34.287-82.776
			C175.73,10.179,146.333-1.998,115.065-1.998L115.065-1.998z M126.193,128.841c6.689,0,9.063-3.712,9.063-6.891
			c0-5.461-5.432-7.017-9.795-8.267c-6.259-1.793-9.207-3.117-9.207-7.502c0-5.238,5.29-7.105,10.24-7.105
			c3,0,6.173,0.727,8.891,1.998l-0.226,0.484c-3.189-1.46-6.528-2.317-9.215-2.317c-6.094,0-8.256,3.413-8.256,6.335
			c0,5.317,5.342,6.907,9.635,8.185c6.347,1.889,9.334,3.271,9.316,7.773c0,5.513-5.448,7.473-10.548,7.473
			c-3.926,0-7.965-1.286-11.189-3.509l0.144-0.29C118.603,127.495,122.639,128.841,126.193,128.841L126.193,128.841z
			 M177.191,129.054c-8.804,0-15.442-6.467-15.442-15.042c0-8.46,6.749-14.84,15.699-14.84c3.313,0,6.759,1.138,9.49,3.063
			l-0.144,0.181c-2.766-2.056-6.05-3.226-9.249-3.226c-8.342,0-14.876,6.468-14.876,14.725c0,8.285,6.534,14.775,14.876,14.775
			c3.166,0,6.472-1.096,9.281-3.016l0.045,0.05C183.986,127.84,180.521,129.054,177.191,129.054L177.191,129.054z M89.9,99.377
			h3.094l12.715,29.375h-0.713l-2.363-5.637l-0.771-1.841h-1.996H82.583h-1.996l-0.771,1.841l-2.362,5.638h-0.437L89.9,99.377
			L89.9,99.377z M149.061,99.378h0.771v29.376h-0.771V99.378L149.061,99.378z M43.989,99.378h12.717c2.154,0,9.18,0.421,9.18,5.844
			c0,2.546-1.383,4.295-3.895,4.924l-13.461,3.37l13.651,2.492c3.269,0.597,5.068,2.725,5.068,5.993
			c0,6.096-7.056,6.754-10.089,6.754H43.989V99.378L43.989,99.378z"/>
	</g>
</g>
</svg>
