<?xml version="1.0" encoding="utf-8"?>
<!-- Generator: Adobe Illustrator 16.0.3, SVG Export Plug-In . SVG Version: 6.00 Build 0)  -->
<!DOCTYPE svg PUBLIC "-//W3C//DTD SVG 1.1//EN" "http://www.w3.org/Graphics/SVG/1.1/DTD/svg11.dtd">
<svg version="1.1" id="Layer_1" xmlns="http://www.w3.org/2000/svg" xmlns:xlink="http://www.w3.org/1999/xlink" x="0px" y="0px"
	 width="230.129px" height="230.129px" viewBox="0 0 230.129 230.129" enable-background="new 0 0 230.129 230.129"
	 xml:space="preserve">
<path fill="#FFCD2E" d="M114.065,12.63c-27.536,0-53.671,10.828-73.139,30.295C21.458,62.394,10.63,88.529,10.63,116.064
	c0,27.537,10.828,53.672,30.296,73.14c19.468,19.469,45.603,30.297,73.139,30.297c27.537,0,53.671-10.828,73.139-30.297
	c19.469-19.468,30.297-45.603,30.297-73.14s-10.828-53.671-30.297-73.142C167.736,23.458,141.602,12.63,114.065,12.63 M114.065,2
	c31.498,0,60.014,12.768,80.656,33.409c20.645,20.641,33.408,49.159,33.408,80.655c0,31.498-12.768,60.015-33.408,80.652
	c-20.641,20.645-49.158,33.41-80.656,33.41c-31.498,0-60.014-12.771-80.656-33.41C12.767,176.079,0,147.563,0,116.064
	C0,84.567,12.768,56.05,33.409,35.409C54.05,14.768,82.567,2,114.065,2z"/>
<g enable-background="new    ">
	<path fill="#FFFFFF" d="M75.316,97.376l11.118,22.692l11.067-22.692h7.782v35.375h-6.165l-0.051-25.268l-10.461,21.629H84.21
		l-10.462-21.629v25.268h-6.267V97.376H75.316z"/>
	<path fill="#FFFFFF" d="M120.801,97.376v35.375h-6.771V97.376H120.801z"/>
	<path fill="#FFFFFF" d="M162.646,115.064c0,10.311-7.783,17.688-18.699,17.688h-14.453V97.376H144.2
		C154.914,97.376,162.646,104.705,162.646,115.064z M155.723,115.115c0-6.924-5.003-11.775-11.623-11.775h-7.834v23.449h8.086
		C150.871,126.789,155.723,121.988,155.723,115.115z"/>
</g>
</svg>
