<?xml version="1.0" encoding="utf-8"?>
<!-- Generator: Adobe Illustrator 18.1.1, SVG Export Plug-In . SVG Version: 6.00 Build 0)  -->
<svg version="1.1" id="Layer_1" xmlns="http://www.w3.org/2000/svg" xmlns:xlink="http://www.w3.org/1999/xlink" x="0px" y="0px"
	 viewBox="-369.5 155.5 250 95.6" enable-background="new -369.5 155.5 250 95.6" xml:space="preserve">
<path fill="#FFCD2E" d="M-119.5,155.5v58.3c-31.7,23-76,37.3-125,37.3s-93.3-14.3-125-37.3v-58.3H-119.5z"/>
<path fill="#FFCD2E" d="M-119.5,155.5v58.3c-31.7,23-76,37.3-125,37.3s-93.3-14.3-125-37.3v-58.3H-119.5z"/>
<g>
	<path fill="#FFFFFF" d="M-277,186.5l7.9,16l7.9-16h4.8v24.1h-3.7l0-18l-7.6,15.5h-2.6l-7.6-15.5v18h-3.8v-24.1H-277z"/>
	<path fill="#FFFFFF" d="M-234.5,205.2h-12.1l-2.3,5.4h-4.2l10.6-24.1h4.2l10.5,24.1h-4.3L-234.5,205.2z M-236,201.6l-4.5-10.7
		l-4.5,10.7H-236z"/>
	<path fill="#FFFFFF" d="M-222,186.5l5.9,8.4l5.9-8.4h4.7l-8.1,11.5l8.8,12.5h-4.8l-6.5-9.1l-6.5,9.1h-4.7l8.8-12.3l-8.1-11.7H-222z
		"/>
</g>
</svg>
