<?xml version="1.0" encoding="utf-8"?>
<!-- Generator: Adobe Illustrator 16.0.3, SVG Export Plug-In . SVG Version: 6.00 Build 0)  -->
<!DOCTYPE svg PUBLIC "-//W3C//DTD SVG 1.1//EN" "http://www.w3.org/Graphics/SVG/1.1/DTD/svg11.dtd">
<svg version="1.1" id="Layer_1" xmlns="http://www.w3.org/2000/svg" xmlns:xlink="http://www.w3.org/1999/xlink" x="0px" y="0px"
	 width="230.129px" height="230.129px" viewBox="0 0 230.129 230.129" enable-background="new 0 0 230.129 230.129"
	 xml:space="preserve">
<g>
	<path fill="#99CC33" d="M195.721,34.41c-20.642-20.641-49.158-33.409-80.656-33.409c-31.498,0-60.015,12.769-80.656,33.41
		C13.768,55.051,1,83.568,1,115.066c0,31.499,12.767,60.014,33.409,80.65c20.642,20.64,49.158,33.41,80.656,33.41
		c31.498,0,60.015-12.765,80.656-33.41c20.641-20.637,33.408-49.151,33.408-80.651C229.129,83.569,216.367,55.051,195.721,34.41z
		 M96.53,131.752h-6.165l-0.051-25.268l-10.461,21.629h-4.396l-10.462-21.629v25.268h-6.267V96.377h7.835l11.118,22.693
		l11.067-22.693h7.782V131.752z M131.457,131.754l-3.137-7.479h-17.284l-3.133,7.479h-7.024l15.516-35.375h7.023l15.313,35.375
		H131.457z M165.264,131.754l-9.046-12.633l-8.944,12.633h-7.935l12.735-18.141L140.146,96.38h7.936v-0.003l8.136,11.624
		l8.138-11.623h8.035l-11.877,16.93l12.887,18.446H165.264z"/>
	<polygon fill="#99CC33" points="113.462,118.463 125.895,118.463 119.729,103.605 	"/>
</g>
</svg>
