<?xml version="1.0" encoding="utf-8"?>
<!-- Generator: Adobe Illustrator 18.1.1, SVG Export Plug-In . SVG Version: 6.00 Build 0)  -->
<svg version="1.1" id="Layer_1" xmlns="http://www.w3.org/2000/svg" xmlns:xlink="http://www.w3.org/1999/xlink" x="0px" y="0px"
	 viewBox="325.6 114.8 230 85.6" enable-background="new 325.6 114.8 230 85.6" xml:space="preserve">
<path fill="#FFCD2E" d="M555.6,120.8v49c-30.7,19-71,30.6-115,30.6s-84.3-11.5-115-30.6v-49c0-3.3,2.7-6,6-6h218
	C552.9,114.8,555.6,117.5,555.6,120.8z"/>
<g>
	<path fill="#FFFFFF" d="M417.4,149.4c0,2-1.2,3.5-3.2,4c2.4,0.4,3.9,2.1,3.9,4.6c0,3.1-2.5,5-6.6,5h-8v-18.1h7.9
		C415.1,144.9,417.4,146.6,417.4,149.4z M414.3,150c0-1.5-1.2-2.4-3.1-2.3h-4.6v4.8h4.6C413.1,152.4,414.3,151.5,414.3,150z
		 M415,157.6c0-1.6-1.4-2.6-3.8-2.6h-4.6v5.2h4.6C413.6,160.3,415,159.3,415,157.6z"/>
	<path fill="#FFFFFF" d="M433.4,158.9h-9.1l-1.7,4.1h-3.2l8-18.1h3.1l7.9,18.1h-3.3L433.4,158.9z M432.2,156.2l-3.4-8l-3.4,8H432.2z
		"/>
	<path fill="#FFFFFF" d="M446.4,147.6c-1.8,0-2.9,0.7-2.9,1.9c0,4,9.8,1.8,9.7,8.3c0,3.2-2.8,5.2-6.8,5.2c-2.8,0-5.5-1.2-7.4-2.9
		l1.3-2.6c1.9,1.7,4.2,2.6,6.1,2.6c2.1,0,3.4-0.8,3.4-2.2c0-4-9.8-1.8-9.8-8.2c0-3.1,2.7-5,6.6-5c2.4,0,4.6,0.7,6.3,1.9l-1.3,2.7
		C449.7,148.1,447.7,147.6,446.4,147.6z"/>
	<path fill="#FFFFFF" d="M459.8,144.9V163h-3v-18.1H459.8z"/>
	<path fill="#FFFFFF" d="M472.6,147.5c-3.6,0-6.5,2.8-6.5,6.4s2.8,6.4,6.5,6.4c1.8,0,3.7-0.8,5-2.1l1.8,2c-1.8,1.8-4.4,3-7,3
		c-5.3,0-9.4-4-9.4-9.2c0-5.1,4.2-9.1,9.5-9.1c2.6,0,5.1,1.1,6.9,2.8l-1.8,2.2C476.3,148.4,474.4,147.5,472.6,147.5z"/>
</g>
</svg>
