<?xml version="1.0" encoding="utf-8"?>
<!-- Generator: Adobe Illustrator 18.1.1, SVG Export Plug-In . SVG Version: 6.00 Build 0)  -->
<svg version="1.1" id="Layer_1" xmlns="http://www.w3.org/2000/svg" xmlns:xlink="http://www.w3.org/1999/xlink" x="0px" y="0px"
	 viewBox="-369.5 155.5 250 95.6" enable-background="new -369.5 155.5 250 95.6" xml:space="preserve">
<path fill="#FFCD2E" d="M-119.5,155.5v58.3c-31.7,23-76,37.3-125,37.3s-93.3-14.3-125-37.3v-58.3H-119.5z"/>
<path fill="#FFCD2E" d="M-119.5,155.5v58.3c-31.7,23-76,37.3-125,37.3s-93.3-14.3-125-37.3v-58.3H-119.5z"/>
<g>
	<path fill="#FFFFFF" d="M-276.9,183.5l9.6,19.4l9.6-19.4h5.8v29.2h-4.5l0-21.8l-9.2,18.8h-3.2l-9.2-18.8v21.8h-4.6v-29.2H-276.9z"
		/>
	<path fill="#FFFFFF" d="M-239.3,183.5v29.2h-4.9v-29.2H-239.3z"/>
	<path fill="#FFFFFF" d="M-226.8,183.5l15.6,21v-21h4.8v29.2h-4.8l-15.5-20.9v20.9h-4.9v-29.2H-226.8z"/>
</g>
</svg>
