<?xml version="1.0" encoding="utf-8"?>
<!-- Generator: Adobe Illustrator 16.0.3, SVG Export Plug-In . SVG Version: 6.00 Build 0)  -->
<!DOCTYPE svg PUBLIC "-//W3C//DTD SVG 1.1//EN" "http://www.w3.org/Graphics/SVG/1.1/DTD/svg11.dtd">
<svg version="1.1" id="Layer_1" xmlns="http://www.w3.org/2000/svg" xmlns:xlink="http://www.w3.org/1999/xlink" x="0px" y="0px"
	 width="230.129px" height="230.129px" viewBox="0 0 230.129 230.129" enable-background="new 0 0 230.129 230.129"
	 xml:space="preserve">
<path fill="#FFCD2E" d="M114.065,12.63c-27.536,0-53.671,10.828-73.139,30.295C21.458,62.394,10.63,88.529,10.63,116.064
	c0,27.537,10.828,53.672,30.296,73.14c19.468,19.469,45.603,30.297,73.139,30.297c27.537,0,53.671-10.828,73.139-30.297
	c19.469-19.468,30.297-45.603,30.297-73.14c0-27.537-10.828-53.671-30.297-73.141C167.736,23.458,141.602,12.63,114.065,12.63
	 M114.065,2c31.498,0,60.014,12.768,80.656,33.409c20.644,20.641,33.408,49.159,33.408,80.655c0,31.498-12.768,60.015-33.408,80.653
	c-20.641,20.644-49.158,33.41-80.656,33.41c-31.498,0-60.014-12.771-80.656-33.41C12.767,176.079,0,147.563,0,116.064
	C0,84.567,12.768,56.05,33.409,35.409C54.05,14.768,82.567,2,114.065,2z"/>
<g enable-background="new    ">
	<path fill="#333333" d="M73.169,97.376l12.938,25.672l12.887-25.672h4.952v35.375h-3.739l-0.051-29.412l-12.887,25.674h-2.426
		L72.006,103.34v29.412h-3.841V97.376H73.169z"/>
	<path fill="#333333" d="M118.755,97.376v35.375h-4.043V97.376H118.755z"/>
	<path fill="#333333" d="M161.964,115.064c0,10.057-7.935,17.688-18.345,17.688h-14.15V97.376h14.302
		C154.08,97.376,161.964,105.007,161.964,115.064z M157.871,115.115c0-7.984-6.268-13.999-14.201-13.999h-10.158v27.897h10.31
		C151.705,129.014,157.871,123.049,157.871,115.115z"/>
</g>
</svg>
