<?xml version="1.0" encoding="utf-8"?>
<!-- Generator: Adobe Illustrator 16.0.3, SVG Export Plug-In . SVG Version: 6.00 Build 0)  -->
<!DOCTYPE svg PUBLIC "-//W3C//DTD SVG 1.1//EN" "http://www.w3.org/Graphics/SVG/1.1/DTD/svg11.dtd">
<svg version="1.1" id="Layer_1" xmlns="http://www.w3.org/2000/svg" xmlns:xlink="http://www.w3.org/1999/xlink" x="0px" y="0px"
	 width="427.197px" height="427.197px" viewBox="0 0 427.197 427.197" enable-background="new 0 0 427.197 427.197"
	 xml:space="preserve">
<rect x="105.536" y="256.271" fill="#333333" width="42.52" height="14.173"/>
<polygon fill="#333333" points="165.598,146.148 364.686,146.148 364.686,310.322 333.35,310.322 333.35,296.149 350.512,296.149 
	350.512,160.322 172.685,160.322 172.685,296.149 267.35,296.149 267.35,310.322 158.512,310.322 158.512,146.148 "/>
<polygon fill-rule="evenodd" clip-rule="evenodd" fill="#333333" points="280.649,210.977 275.274,295.239 301.354,288.25 
	327.435,281.262 "/>
<rect x="297.18" y="276.367" transform="matrix(-0.9659 0.2589 -0.2589 -0.9659 675.5916 509.2778)" fill-rule="evenodd" clip-rule="evenodd" fill="#333333" width="14.174" height="45.501"/>
<polygon fill-rule="evenodd" clip-rule="evenodd" fill="#333333" points="60.512,270.444 74.685,270.444 91.007,270.444 
	91.007,256.271 74.685,256.271 74.685,239.949 60.512,239.949 60.512,256.271 "/>
<polygon fill-rule="evenodd" clip-rule="evenodd" fill="#333333" points="60.512,106.271 74.685,106.271 91.007,106.271 
	91.007,120.444 74.685,120.444 74.685,136.767 60.512,136.767 60.512,120.444 "/>
<polygon fill-rule="evenodd" clip-rule="evenodd" fill="#333333" points="266.686,106.271 252.512,106.271 236.189,106.271 
	236.189,120.444 252.512,120.444 252.512,136.767 266.686,136.767 266.686,120.444 "/>
<rect x="60.512" y="194.98" fill="#333333" width="14.173" height="31.88"/>
<rect x="60.512" y="149.855" fill="#333333" width="14.173" height="31.88"/>
<rect x="148" y="106.271" fill="#333333" width="31.88" height="14.173"/>
<rect x="102.875" y="106.271" fill="#333333" width="31.88" height="14.173"/>
<rect x="192.441" y="106.271" fill="#333333" width="31.88" height="14.173"/>
</svg>
