<?xml version="1.0" encoding="utf-8"?>
<!-- Generator: Adobe Illustrator 16.0.3, SVG Export Plug-In . SVG Version: 6.00 Build 0)  -->
<!DOCTYPE svg PUBLIC "-//W3C//DTD SVG 1.1//EN" "http://www.w3.org/Graphics/SVG/1.1/DTD/svg11.dtd">
<svg version="1.1" id="Layer_1" xmlns="http://www.w3.org/2000/svg" xmlns:xlink="http://www.w3.org/1999/xlink" x="0px" y="0px"
	 width="152px" height="152px" viewBox="0 0 152 152" enable-background="new 0 0 152 152" xml:space="preserve">
<g>
	<path fill="#FFCD2E" d="M115,124.313h17.055V26.798H115v4.692h12.362v88.131H115V124.313z M37,124.313H19.945V26.798H37v4.692
		H24.637v88.131H37V124.313z"/>
	<path fill="#FFFFFF" d="M106.752,23.219v-2.265c0-1.031-0.503-1.546-1.51-1.546h-0.539c-0.982,0-1.474,0.515-1.474,1.546v4.278
		c0,0.479,0.096,0.802,0.287,0.97c0.192,0.168,0.503,0.383,0.935,0.647l3.271,1.762c0.719,0.407,1.229,0.725,1.527,0.952
		c0.3,0.228,0.533,0.503,0.701,0.827c0.168,0.323,0.252,0.94,0.252,1.851v5.5c0,2.9-1.391,4.35-4.17,4.35h-2.121
		c-2.756,0-4.134-1.582-4.134-4.745v-1.294h3.451v1.402c0,1.006,0.515,1.51,1.546,1.51h0.61c0.911,0,1.366-0.503,1.366-1.51v-4.385
		c0-0.479-0.096-0.803-0.287-0.971c-0.192-0.168-0.504-0.383-0.935-0.647l-3.271-1.833c-0.719-0.383-1.24-0.707-1.563-0.97
		c-0.323-0.264-0.558-0.605-0.701-1.025c-0.144-0.419-0.216-0.964-0.216-1.635v-5.284c0-2.947,1.378-4.421,4.134-4.421h2.156
		c2.757,0,4.135,1.474,4.135,4.421v2.517H106.752z M93.452,42.091v-25.81h3.45v25.81H93.452z M88.168,19.409v22.682h-3.451V19.409
		H81.41v-3.127h10.064v3.127H88.168z M76.161,29.51v-8.591c0-1.006-0.503-1.51-1.509-1.51h-0.935c-1.006,0-1.51,0.503-1.51,1.51
		v8.591H76.161z M72.208,42.091h-3.451V20.703c0-2.947,1.378-4.421,4.134-4.421h2.588c2.756,0,4.134,1.474,4.134,4.421v21.388
		h-3.451v-9.454h-3.954V42.091z M58.8,28.719h2.265c1.03,0,1.545-0.623,1.545-1.869v-5.572c0-1.246-0.515-1.869-1.545-1.869H58.8
		V28.719z M55.349,16.281h6.758c2.636,0,3.954,1.474,3.954,4.421v6.363c0,2.252-0.683,3.678-2.049,4.277l2.408,10.748h-3.271
		l-2.265-10.424H58.8v10.424h-3.451V16.281z M47.297,32.637V29.51h5.248v12.581h-6.758c-2.66,0-3.99-1.45-3.99-4.35V20.703
		c0-2.947,1.33-4.421,3.99-4.421h2.373c2.924,0,4.385,1.498,4.385,4.494v2.804h-3.451v-2.301c0-1.246-0.491-1.869-1.474-1.869
		h-0.863c-1.007,0-1.509,0.623-1.509,1.869v15.816c0,1.246,0.502,1.869,1.509,1.869h2.336v-6.326H47.297z"/>
	<path fill="#FFFFFF" d="M102.979,135.719v-25.81h3.45v25.81H102.979z M96.651,116.847v-2.265c0-1.03-0.503-1.546-1.51-1.546h-0.539
		c-0.982,0-1.474,0.516-1.474,1.546v4.278c0,0.479,0.096,0.803,0.287,0.97c0.191,0.168,0.503,0.384,0.935,0.647l3.271,1.762
		c0.719,0.407,1.229,0.725,1.527,0.952c0.3,0.228,0.533,0.503,0.701,0.827c0.168,0.323,0.252,0.94,0.252,1.852v5.499
		c0,2.9-1.391,4.35-4.17,4.35h-2.121c-2.756,0-4.134-1.581-4.134-4.745v-1.294h3.451v1.402c0,1.007,0.515,1.51,1.545,1.51h0.611
		c0.911,0,1.366-0.503,1.366-1.51v-4.386c0-0.479-0.096-0.803-0.287-0.971c-0.192-0.168-0.504-0.383-0.936-0.647l-3.271-1.833
		c-0.719-0.383-1.24-0.707-1.563-0.971c-0.324-0.263-0.558-0.604-0.701-1.024c-0.144-0.419-0.216-0.964-0.216-1.635v-5.285
		c0-2.947,1.378-4.421,4.134-4.421h2.157c2.756,0,4.134,1.474,4.134,4.421v2.517H96.651z M83.351,135.719v-25.81h3.451v25.81H83.351
		z M81.374,109.909l-4.17,25.81h-4.098l-4.169-25.81h3.415l2.804,19.699l2.804-19.699H81.374z M59.159,135.719v-25.81h8.555v3.127
		h-5.104v7.837h4.529V124h-4.529v8.592h5.104v3.127H59.159z M49.021,122.347h2.265c1.031,0,1.546-0.623,1.546-1.869v-5.572
		c0-1.246-0.515-1.869-1.546-1.869h-2.265V122.347z M45.571,109.909h6.758c2.636,0,3.955,1.474,3.955,4.421v6.363
		c0,2.252-0.683,3.679-2.049,4.277l2.409,10.748h-3.271l-2.265-10.425h-2.085v10.425h-3.451V109.909z"/>
	<path fill="#FFCD2E" d="M92.062,97.277H86.55l-3.2-16.181H83.23l-3.853,16.181h-5.275l5.394-21.514l-5.038-21.04h5.571l3.2,15.706
		h0.119l3.556-15.706h5.274l-5.097,21.04L92.062,97.277z M61.124,64.146l-1.304-3.912c1.462-0.553,2.707-1.323,3.734-2.311
		c1.027-0.988,1.837-2.055,2.43-3.201h0.592l3.734,2.015v40.539h-5.63V63.08L61.124,64.146z"/>
</g>
</svg>
