<?xml version="1.0" encoding="utf-8"?>
<!-- Generator: Adobe Illustrator 16.0.3, SVG Export Plug-In . SVG Version: 6.00 Build 0)  -->
<!DOCTYPE svg PUBLIC "-//W3C//DTD SVG 1.1//EN" "http://www.w3.org/Graphics/SVG/1.1/DTD/svg11.dtd">
<svg version="1.1" id="Layer_1" xmlns="http://www.w3.org/2000/svg" xmlns:xlink="http://www.w3.org/1999/xlink" x="0px" y="0px"
	 width="170.71px" height="170.709px" viewBox="0 0 170.71 170.709" enable-background="new 0 0 170.71 170.709"
	 xml:space="preserve">
<polygon fill="#333333" points="44.811,139.694 22.308,139.694 22.308,30.016 44.811,30.016 44.811,35.293 27.585,35.293 
	27.585,134.417 44.811,134.417 "/>
<path fill="#333333" d="M114.239,26.784v-2.127c0-0.968-0.473-1.452-1.419-1.452h-0.506c-0.923,0-1.385,0.484-1.385,1.452v4.018
	c0,0.45,0.091,0.754,0.271,0.912c0.18,0.158,0.473,0.36,0.877,0.608l3.072,1.654c0.676,0.382,1.153,0.681,1.436,0.895
	c0.281,0.214,0.5,0.473,0.658,0.777c0.157,0.304,0.236,0.883,0.236,1.739v5.166c0,2.723-1.307,4.085-3.917,4.085h-1.992
	c-2.588,0-3.882-1.485-3.882-4.457v-1.215h3.24v1.316c0,0.945,0.484,1.418,1.451,1.418h0.574c0.855,0,1.283-0.473,1.283-1.418
	v-4.119c0-0.45-0.091-0.754-0.271-0.912c-0.18-0.158-0.473-0.36-0.877-0.608l-3.072-1.722c-0.676-0.36-1.165-0.664-1.469-0.912
	c-0.305-0.248-0.523-0.568-0.658-0.962s-0.202-0.906-0.202-1.536V24.42c0-2.768,1.294-4.153,3.882-4.153h2.026
	c2.588,0,3.883,1.385,3.883,4.153v2.364H114.239z M101.748,44.509V20.268h3.24V44.51L101.748,44.509L101.748,44.509z M96.783,23.205
	v21.304h-3.24V23.205h-3.105v-2.938h9.453v2.938H96.783z M85.507,32.692v-8.069c0-0.945-0.473-1.418-1.418-1.418h-0.878
	c-0.945,0-1.418,0.473-1.418,1.418v8.069H85.507z M81.793,44.509h-3.241V24.42c0-2.768,1.294-4.153,3.883-4.153h2.431
	c2.588,0,3.883,1.385,3.883,4.153v20.089h-3.242V35.63h-3.714L81.793,44.509L81.793,44.509z M69.2,31.95h2.127
	c0.968,0,1.452-0.585,1.452-1.755v-5.233c0-1.17-0.484-1.756-1.452-1.756H69.2V31.95z M65.958,20.268h6.347
	c2.476,0,3.714,1.385,3.714,4.153v5.976c0,2.116-0.641,3.455-1.924,4.018l2.262,10.095h-3.073l-2.127-9.791H69.2v9.791h-3.241
	L65.958,20.268L65.958,20.268z M58.396,35.63v-2.938h4.929v11.817h-6.347c-2.499,0-3.748-1.362-3.748-4.085V24.42
	c0-2.768,1.249-4.153,3.748-4.153h2.228c2.747,0,4.119,1.407,4.119,4.221v2.633h-3.241V24.96c0-1.17-0.461-1.756-1.384-1.756h-0.811
	c-0.945,0-1.418,0.585-1.418,1.756v14.855c0,1.17,0.473,1.756,1.418,1.756h2.194V35.63H58.396z"/>
<path fill="#333333" d="M110.694,145.91v-24.241h3.241v24.241H110.694z M104.751,128.185v-2.127c0-0.969-0.473-1.451-1.418-1.451
	h-0.506c-0.924,0-1.386,0.482-1.386,1.451v4.018c0,0.449,0.091,0.755,0.271,0.912c0.181,0.156,0.474,0.359,0.879,0.606l3.072,1.654
	c0.676,0.383,1.152,0.683,1.435,0.896c0.282,0.215,0.501,0.474,0.659,0.776c0.156,0.304,0.236,0.883,0.236,1.738v5.166
	c0,2.724-1.307,4.085-3.918,4.085h-1.992c-2.588,0-3.881-1.485-3.881-4.456v-1.216h3.239v1.316c0,0.944,0.483,1.418,1.452,1.418
	h0.574c0.855,0,1.283-0.474,1.283-1.418v-4.119c0-0.451-0.092-0.754-0.271-0.912c-0.18-0.157-0.473-0.359-0.878-0.607l-3.072-1.723
	c-0.675-0.359-1.165-0.663-1.469-0.91c-0.304-0.248-0.522-0.568-0.658-0.963c-0.135-0.395-0.202-0.905-0.202-1.536v-4.963
	c0-2.77,1.295-4.152,3.883-4.152h2.025c2.588,0,3.883,1.384,3.883,4.152v2.362h-3.24V128.185z M92.259,145.91v-24.241h3.242v24.241
	H92.259z M90.402,121.668l-3.916,24.241h-3.85l-3.916-24.241h3.208l2.633,18.502l2.634-18.502H90.402z M69.537,145.91v-24.241h8.036
	v2.938h-4.794v7.36h4.254v2.937h-4.254v8.07h4.794v2.938L69.537,145.91L69.537,145.91z M60.016,133.351h2.127
	c0.968,0,1.452-0.586,1.452-1.757v-5.233c0-1.17-0.483-1.754-1.452-1.754h-2.127V133.351z M56.775,121.668h6.348
	c2.476,0,3.714,1.384,3.714,4.151v5.978c0,2.115-0.642,3.455-1.924,4.019l2.262,10.095h-3.072l-2.127-9.791h-1.958v9.791h-3.241
	v-24.242H56.775z"/>
<path fill="#333333" d="M100.785,104.128h-5.296l-3.073-15.543H92.3l-3.7,15.543h-5.067l5.181-20.667l-4.839-20.212h5.352
	L92.3,78.337h0.115l3.416-15.088h5.066l-4.896,20.212L100.785,104.128z M71.064,72.302l-1.252-3.758
	c1.404-0.531,2.6-1.271,3.587-2.22c0.986-0.949,1.765-1.974,2.334-3.075h0.569l3.587,1.936v38.944H74.48V71.277L71.064,72.302z"/>
<polygon fill="#333333" points="125.899,139.694 148.401,139.694 148.401,30.016 125.899,30.016 125.899,35.293 143.125,35.293 
	143.125,134.417 125.899,134.417 "/>
</svg>
