<?xml version="1.0" encoding="utf-8"?>
<!-- Generator: Adobe Illustrator 18.1.1, SVG Export Plug-In . SVG Version: 6.00 Build 0)  -->
<svg version="1.1" id="Layer_1" xmlns="http://www.w3.org/2000/svg" xmlns:xlink="http://www.w3.org/1999/xlink" x="0px" y="0px"
	 viewBox="0 0 52 52" enable-background="new 0 0 52 52" xml:space="preserve">
<path fill-rule="evenodd" clip-rule="evenodd" fill="#999999" d="M21,25.5c0.2-0.2,0.4-0.4,0.6-0.6c0.3-0.4,0.8-0.7,0.8-1.2
	c0-0.5-0.2-1-0.3-1.4c-0.1-0.3-0.2-0.6-0.3-0.9c-0.2-0.5-0.5-1.3-0.8-1.6c-0.4-0.4-1.1-0.5-1.6-0.3c0,0-3.1,1.5-2.2,4.5
	c0,0,1.9,8.5,11.3,10.3c0,0,3.4,0.5,4.3-1.6c0.2-0.4,0.3-1.1,0.3-1.5c0-0.5-0.4-0.8-0.7-1c-0.5-0.3-0.9-0.6-1.5-0.8
	c-0.5-0.2-1.1-0.6-1.6-0.4c-0.4,0.1-0.7,0.5-1,0.8c-0.4,0.4-0.7,0.8-1.1,1.2C27,30.8,22.2,29,21,25.5 M13.3,15c3-3,7.1-4.9,11.7-4.9
	c4.6,0,8.7,1.9,11.7,4.9c3,3,4.9,7.1,4.9,11.7s-1.9,8.7-4.9,11.7c-3,3-7.2,4.9-11.7,4.9c-1.4,0-2.8-0.2-4.2-0.5
	c-1.3-0.3-2.5-0.8-3.7-1.4l-8.8,2.5l2.2-8.9c-0.7-1.2-1.2-2.5-1.6-3.9c-0.4-1.4-0.6-2.9-0.6-4.4C8.4,22.1,10.3,18,13.3,15z"/>
</svg>
