<?xml version="1.0" encoding="utf-8"?>
<!-- Generator: Adobe Illustrator 18.1.1, SVG Export Plug-In . SVG Version: 6.00 Build 0)  -->
<svg version="1.1" id="Layer_1" xmlns="http://www.w3.org/2000/svg" xmlns:xlink="http://www.w3.org/1999/xlink" x="0px" y="0px"
	 viewBox="0 0 52 52" enable-background="new 0 0 52 52" xml:space="preserve">
<path fill-rule="evenodd" clip-rule="evenodd" fill="#999999" d="M34.2,28.8H38v3.7h3.8v-3.7h3.7v-3.8h-3.7v-3.7H38v3.7l-3.7,0V28.8
	z M30,25.2H17.5v4.5H25c-1.1,3.2-4.1,5.5-7.6,5.5c-4.4,0-8-3.7-8-8.2c0-4.5,3.6-8.2,8-8.2c1.9,0,3.7,0.7,5.1,1.9h0.2l3.3-3.4
	c-2.3-2.1-5.3-3.4-8.6-3.4c-7.1,0-12.9,5.8-12.9,13.1c0,7.2,5.8,13.1,12.8,13.1c0.9,0,1.9-0.1,2.8-0.3c1.8-0.4,3.6-1.2,5.1-2.4
	c1.5-1.2,2.7-2.6,3.6-4.3c0.4-0.9,0.8-1.7,1-2.7c0.3-1.1,0.2-2.3,0.2-3.5C30,26.3,30,25.8,30,25.2z"/>
</svg>
