<?xml version="1.0" encoding="utf-8"?>
<!-- Generator: Adobe Illustrator 18.1.1, SVG Export Plug-In . SVG Version: 6.00 Build 0)  -->
<svg version="1.1" id="Layer_1" xmlns="http://www.w3.org/2000/svg" xmlns:xlink="http://www.w3.org/1999/xlink" x="0px" y="0px"
	 viewBox="0 0 52 52" enable-background="new 0 0 52 52" xml:space="preserve">
<path fill-rule="evenodd" clip-rule="evenodd" fill="#999999" d="M19,40.1c12.2,0,18.8-10.1,18.8-18.8c0-0.3,0-0.6,0-0.9
	c1.3-0.9,2.4-2.1,3.3-3.4c-1.2,0.5-2.5,0.9-3.8,1c1.4-0.8,2.4-2.1,2.9-3.7C39,15.1,37.6,15.7,36,16c-1.2-1.3-2.9-2.1-4.8-2.1
	c-3.7,0-6.6,3-6.6,6.6c0,0.5,0.1,1,0.2,1.5c-5.5-0.3-10.4-2.9-13.7-6.9c-0.6,1-0.9,2.1-0.9,3.3c0,2.3,1.2,4.3,2.9,5.5
	c-1.1,0-2.1-0.3-3-0.8c0,0,0,0.1,0,0.1c0,3.2,2.3,5.9,5.3,6.5c-0.6,0.2-1.1,0.2-1.8,0.2c-0.4,0-0.8,0-1.2-0.1
	c0.8,2.6,3.3,4.5,6.2,4.6c-2.3,1.8-5.1,2.8-8.2,2.8c-0.5,0-1.1,0-1.6-0.1C11.8,39,15.3,40.1,19,40.1"/>
</svg>
