<?xml version="1.0" encoding="utf-8"?>
<!-- Generator: Adobe Illustrator 16.0.3, SVG Export Plug-In . SVG Version: 6.00 Build 0)  -->
<!DOCTYPE svg PUBLIC "-//W3C//DTD SVG 1.1//EN" "http://www.w3.org/Graphics/SVG/1.1/DTD/svg11.dtd">
<svg version="1.1" id="Layer_1" xmlns="http://www.w3.org/2000/svg" xmlns:xlink="http://www.w3.org/1999/xlink" x="0px" y="0px"
	 width="152px" height="152px" viewBox="0 0 152 152" enable-background="new 0 0 152 152" xml:space="preserve">
<g>
	<path fill="#FFFFFF" d="M102.798,42.651v22.683h-3.45V42.651H96.04v-3.127h10.065v3.127H102.798z M87.161,51.962h2.265
		c1.03,0,1.546-0.623,1.546-1.869v-5.572c0-1.246-0.516-1.87-1.546-1.87h-2.265V51.962z M83.71,39.524h6.759
		c2.636,0,3.954,1.474,3.954,4.421v6.362c0,2.252-0.684,3.679-2.049,4.278l2.408,10.748h-3.271L89.246,54.91h-2.085v10.424H83.71
		V39.524z M77.204,52.753v-8.591c0-1.007-0.503-1.51-1.51-1.51h-0.935c-1.006,0-1.509,0.503-1.509,1.51v8.591H77.204z M73.25,65.334
		h-3.451V43.946c0-2.948,1.378-4.421,4.134-4.421h2.588c2.756,0,4.134,1.474,4.134,4.421v21.388h-3.451V55.88H73.25V65.334z
		 M64.694,42.651v22.683h-3.451V42.651h-3.307v-3.127h10.065v3.127H64.694z M52.868,46.462v-2.265c0-1.03-0.503-1.546-1.51-1.546
		h-0.54c-0.982,0-1.474,0.516-1.474,1.546v4.278c0,0.479,0.096,0.803,0.288,0.971c0.191,0.167,0.503,0.383,0.935,0.647l3.271,1.761
		c0.719,0.407,1.228,0.725,1.528,0.953c0.299,0.228,0.533,0.503,0.701,0.827c0.168,0.324,0.252,0.94,0.252,1.851v5.5
		c0,2.9-1.39,4.35-4.17,4.35h-2.121c-2.756,0-4.133-1.582-4.133-4.745v-1.294h3.45v1.402c0,1.006,0.516,1.51,1.546,1.51h0.611
		c0.911,0,1.366-0.503,1.366-1.51v-4.386c0-0.479-0.096-0.803-0.288-0.97c-0.192-0.168-0.503-0.383-0.934-0.647l-3.271-1.833
		c-0.719-0.384-1.24-0.708-1.564-0.971c-0.323-0.264-0.557-0.605-0.701-1.025s-0.215-0.964-0.215-1.636v-5.284
		c0-2.948,1.377-4.421,4.133-4.421h2.157c2.756,0,4.134,1.474,4.134,4.421v2.516H52.868z"/>
	<path fill-rule="evenodd" clip-rule="evenodd" fill="#FFCD2E" d="M94.269,115.373h-5.819V71.849h5.819V115.373z M66.08,105.189
		h5.819v2.364c0,1.697,0.768,2.546,2.304,2.546h0.667c1.738,0,2.606-0.849,2.606-2.546v-9.942c0-1.899-0.808-2.849-2.425-2.849
		h-8.79V71.849h16.427v5.396H71.718v12.244h4.607c4.647,0,6.971,2.566,6.971,7.699v10.487c0,5.132-2.323,7.698-6.971,7.698h-3.273
		c-4.647,0-6.972-2.465-6.972-7.396V105.189z M49.229,115.373l7.517-38.129H45.895v-5.396h15.215l1.637,3.152l-7.76,40.372H49.229z
		 M109.635,135.683L94.571,94.096v-0.364l6.062-21.883h5.335l-6.123,21.641l15.453,42.193H109.635z"/>
	<path fill-rule="evenodd" clip-rule="evenodd" fill="#FFCD2E" d="M73.919,16.317c32.961-1.149,60.614,24.641,61.763,57.602
		c0.61,17.506-6.379,33.516-18.006,44.852l-0.538-1.325l-1.286-3.51c9.839-10.336,15.678-24.465,15.141-39.854
		c-1.059-30.373-26.538-54.135-56.91-53.076c-30.373,1.059-54.135,26.538-53.077,56.91s26.538,54.136,56.911,53.076
		c7.066-0.246,13.774-1.815,19.895-4.461l1.602,4.421c-6.573,2.803-13.764,4.466-21.333,4.729
		c-32.961,1.149-60.614-24.641-61.763-57.602C15.168,45.119,40.958,17.467,73.919,16.317"/>
</g>
</svg>
