<?xml version="1.0" encoding="utf-8"?>
<!-- Generator: Adobe Illustrator 16.0.3, SVG Export Plug-In . SVG Version: 6.00 Build 0)  -->
<!DOCTYPE svg PUBLIC "-//W3C//DTD SVG 1.1//EN" "http://www.w3.org/Graphics/SVG/1.1/DTD/svg11.dtd">
<svg version="1.1" id="Layer_1" xmlns="http://www.w3.org/2000/svg" xmlns:xlink="http://www.w3.org/1999/xlink" x="0px" y="0px"
	 width="153.998px" height="153.998px" viewBox="0 0 153.998 153.998" enable-background="new 0 0 153.998 153.998"
	 xml:space="preserve">
<path fill="#333333" d="M131.445,22.553C117.512,8.619,98.262,0,76.999,0S36.486,8.619,22.552,22.553C8.619,36.487,0,55.737,0,77
	c0,21.262,8.619,40.512,22.553,54.446c13.934,13.935,33.184,22.553,54.447,22.553s40.513-8.618,54.446-22.553
	c13.934-13.934,22.553-33.184,22.553-54.446C153.998,55.737,145.379,36.487,131.445,22.553z M128.423,128.424
	c-13.159,13.16-31.341,21.301-51.424,21.301s-38.265-8.141-51.425-21.301C12.414,115.264,4.273,97.082,4.273,77
	c0-20.083,8.14-38.265,21.301-51.425c13.16-13.16,31.342-21.3,51.425-21.3s38.265,8.14,51.424,21.3
	C141.584,38.735,149.725,56.917,149.725,77C149.725,97.082,141.584,115.264,128.423,128.424z"/>
<path fill="#333333" d="M110.354,92.87h-10.079V61.128h4.244v27.895h5.835V92.87z M92.272,77.397V66.831
	c0-1.238-0.619-1.857-1.856-1.857h-1.149c-1.238,0-1.856,0.619-1.856,1.857v10.566H92.272z M87.41,92.87h-4.244V66.566
	c0-3.625,1.694-5.438,5.084-5.438h3.183c3.39,0,5.084,1.813,5.084,5.438V92.87h-4.244V81.243H87.41V92.87z M75.164,92.87V61.128
	h4.244V92.87H75.164z M62.697,76.424h2.785c1.267,0,1.901-0.766,1.901-2.299v-6.853c0-1.532-0.634-2.299-1.901-2.299h-2.785V76.424z
	 M58.453,61.128h8.311c3.242,0,4.863,1.813,4.863,5.438v7.825c0,2.771-0.84,4.524-2.52,5.261l2.962,13.219h-4.023l-2.785-12.821
	h-2.564V92.87h-4.244V61.128z M51.955,64.974V92.87h-4.244V64.974h-4.067v-3.846h12.378v3.846H51.955z"/>
</svg>
