<?xml version="1.0" encoding="utf-8"?>
<!-- Generator: Adobe Illustrator 16.0.3, SVG Export Plug-In . SVG Version: 6.00 Build 0)  -->
<!DOCTYPE svg PUBLIC "-//W3C//DTD SVG 1.1//EN" "http://www.w3.org/Graphics/SVG/1.1/DTD/svg11.dtd">
<svg version="1.1" id="Layer_1" xmlns="http://www.w3.org/2000/svg" xmlns:xlink="http://www.w3.org/1999/xlink" x="0px" y="0px"
	 width="16px" height="16px" viewBox="0 0 16 16" enable-background="new 0 0 16 16" xml:space="preserve">
<path fill-rule="evenodd" clip-rule="evenodd" fill="#999999" d="M5.546,12.186c2.959,0,4.576-2.451,4.576-4.577
	c0-0.07-0.001-0.139-0.005-0.208c0.314-0.227,0.587-0.511,0.803-0.833c-0.288,0.128-0.599,0.214-0.924,0.253
	c0.332-0.199,0.587-0.514,0.707-0.89c-0.31,0.184-0.654,0.318-1.021,0.391C9.388,6.01,8.972,5.814,8.508,5.814
	C7.62,5.814,6.9,6.535,6.9,7.422c0,0.126,0.014,0.249,0.042,0.368C5.604,7.722,4.418,7.082,3.626,6.109
	C3.488,6.347,3.408,6.623,3.408,6.917c0,0.558,0.283,1.05,0.716,1.339C3.86,8.248,3.612,8.175,3.396,8.055c0,0.007,0,0.013,0,0.02
	c0,0.78,0.555,1.431,1.29,1.577C4.551,9.689,4.408,9.709,4.261,9.709c-0.104,0-0.204-0.012-0.302-0.03
	c0.205,0.64,0.799,1.104,1.502,1.118c-0.55,0.432-1.244,0.688-1.998,0.688c-0.13,0-0.257-0.008-0.384-0.022
	C3.792,11.919,4.637,12.186,5.546,12.186 M7,2c3.866,0,7,3.134,7,7c0,3.865-3.134,7-7,7s-7-3.135-7-7C0,5.134,3.134,2,7,2z"/>
</svg>
