<?xml version="1.0" encoding="utf-8"?>
<!-- Generator: Adobe Illustrator 16.0.3, SVG Export Plug-In . SVG Version: 6.00 Build 0)  -->
<!DOCTYPE svg PUBLIC "-//W3C//DTD SVG 1.1//EN" "http://www.w3.org/Graphics/SVG/1.1/DTD/svg11.dtd">
<svg version="1.1" id="Layer_1" xmlns="http://www.w3.org/2000/svg" xmlns:xlink="http://www.w3.org/1999/xlink" x="0px" y="0px"
	 width="16px" height="16px" viewBox="0 0 16 16" enable-background="new 0 0 16 16" xml:space="preserve">
<path fill="#999999" d="M5.546,12.186c2.959,0,4.576-2.449,4.576-4.577c0-0.07-0.001-0.139-0.005-0.208
	c0.314-0.227,0.587-0.511,0.803-0.833c-0.288,0.128-0.6,0.214-0.924,0.253c0.332-0.199,0.587-0.516,0.707-0.892
	c-0.311,0.186-0.654,0.318-1.021,0.393C9.389,6.01,8.973,5.814,8.508,5.814C7.62,5.814,6.9,6.535,6.9,7.422
	c0,0.126,0.014,0.249,0.042,0.368C5.604,7.722,4.418,7.082,3.626,6.109C3.488,6.347,3.408,6.623,3.408,6.917
	c0,0.558,0.283,1.05,0.716,1.339C3.86,8.248,3.612,8.175,3.396,8.055c0,0.007,0,0.015,0,0.021c0,0.779,0.555,1.431,1.29,1.577
	C4.551,9.689,4.408,9.709,4.261,9.709c-0.104,0-0.204-0.012-0.302-0.03c0.205,0.642,0.799,1.104,1.502,1.118
	c-0.55,0.432-1.244,0.688-1.998,0.688c-0.13,0-0.257-0.009-0.384-0.022C3.792,11.919,4.637,12.186,5.546,12.186 M7,2
	c3.866,0,7,3.134,7,7c0,3.865-3.134,7-7,7s-7-3.135-7-7C0,5.134,3.134,2,7,2z"/>
</svg>
