<?xml version="1.0" encoding="utf-8"?>
<!-- Generator: Adobe Illustrator 16.0.3, SVG Export Plug-In . SVG Version: 6.00 Build 0)  -->
<!DOCTYPE svg PUBLIC "-//W3C//DTD SVG 1.1//EN" "http://www.w3.org/Graphics/SVG/1.1/DTD/svg11.dtd">
<svg version="1.1" id="Layer_1" xmlns="http://www.w3.org/2000/svg" xmlns:xlink="http://www.w3.org/1999/xlink" x="0px" y="0px"
	 width="36.3px" height="36.625px" viewBox="0 0 36.3 36.625" enable-background="new 0 0 36.3 36.625" xml:space="preserve">
<path fill="#FFCD2E" d="M18.15,1C8.681,1,1,8.677,1,18.149c0,3.201,0.877,6.193,2.404,8.758l-2.162,8.718l8.595-2.477
	c2.463,1.367,5.295,2.152,8.313,2.152c9.471,0,17.148-7.68,17.148-17.153C35.3,8.677,27.621,1,18.15,1z M26.369,24.49
	c-0.973,2.203-4.596,1.682-4.596,1.682C11.678,24.298,9.672,15.173,9.672,15.173C8.634,11.934,12,10.318,12,10.318
	c0.582-0.277,1.311-0.183,1.737,0.271c0.316,0.334,0.594,1.132,0.811,1.703c0.119,0.313,0.245,0.625,0.367,0.938
	c0.192,0.485,0.38,1.019,0.355,1.555c-0.027,0.556-0.526,0.931-0.86,1.318c-0.199,0.23-0.395,0.46-0.597,0.687
	c1.361,3.817,6.472,5.692,6.472,5.692c0.396-0.412,0.799-0.821,1.191-1.236c0.298-0.325,0.618-0.73,1.063-0.854
	c0.606-0.164,1.211,0.219,1.736,0.479c0.604,0.301,1.078,0.586,1.611,0.89c0.412,0.238,0.765,0.57,0.801,1.07
	C26.72,23.35,26.578,24.016,26.369,24.49z"/>
</svg>
