<?xml version="1.0" encoding="utf-8"?>
<!-- Generator: Adobe Illustrator 16.0.3, SVG Export Plug-In . SVG Version: 6.00 Build 0)  -->
<!DOCTYPE svg PUBLIC "-//W3C//DTD SVG 1.1//EN" "http://www.w3.org/Graphics/SVG/1.1/DTD/svg11.dtd">
<svg version="1.1" id="Layer_1" xmlns="http://www.w3.org/2000/svg" xmlns:xlink="http://www.w3.org/1999/xlink" x="0px" y="0px"
	 width="43.695px" height="44.434px" viewBox="0 0 43.695 44.434" enable-background="new 0 0 43.695 44.434" xml:space="preserve">
<path fill="#FFFFFF" d="M18.01,19.99c0.201-0.229,0.398-0.457,0.6-0.688c0.334-0.388,0.833-0.763,0.856-1.316
	c0.025-0.536-0.163-1.07-0.354-1.558c-0.123-0.313-0.248-0.625-0.367-0.938c-0.217-0.572-0.496-1.37-0.812-1.703
	c-0.429-0.454-1.155-0.548-1.737-0.271c0,0-3.366,1.615-2.328,4.854c0,0,2.006,9.125,12.101,10.999c0,0,3.623,0.521,4.598-1.684
	c0.209-0.476,0.352-1.142,0.316-1.656c-0.033-0.5-0.388-0.831-0.801-1.07c-0.533-0.304-1.008-0.589-1.608-0.89
	c-0.525-0.263-1.133-0.646-1.735-0.479c-0.446,0.122-0.769,0.527-1.063,0.854c-0.393,0.413-0.796,0.822-1.188,1.233
	C24.48,25.683,19.37,23.806,18.01,19.99"/>
</svg>
