<?xml version="1.0" encoding="utf-8"?>
<!-- Generator: Adobe Illustrator 16.0.3, SVG Export Plug-In . SVG Version: 6.00 Build 0)  -->
<!DOCTYPE svg PUBLIC "-//W3C//DTD SVG 1.1//EN" "http://www.w3.org/Graphics/SVG/1.1/DTD/svg11.dtd">
<svg version="1.1" id="Layer_1" xmlns="http://www.w3.org/2000/svg" xmlns:xlink="http://www.w3.org/1999/xlink" x="0px" y="0px"
	 width="43.695px" height="44.433px" viewBox="0 0 43.695 44.433" enable-background="new 0 0 43.695 44.433" xml:space="preserve">
<path fill-rule="evenodd" clip-rule="evenodd" fill="#FFFFFF" d="M18.01,19.99c0.201-0.227,0.398-0.457,0.597-0.686
	c0.334-0.388,0.833-0.763,0.859-1.319c0.025-0.536-0.163-1.07-0.354-1.555c-0.123-0.313-0.248-0.625-0.367-0.938
	c-0.217-0.572-0.496-1.37-0.812-1.703c-0.426-0.454-1.155-0.548-1.737-0.271c0,0-3.366,1.616-2.328,4.855
	c0,0,2.006,9.125,12.101,10.999c0,0,3.623,0.521,4.595-1.682c0.209-0.475,0.352-1.141,0.319-1.658
	c-0.036-0.5-0.388-0.831-0.801-1.07c-0.533-0.304-1.008-0.589-1.611-0.89c-0.525-0.261-1.13-0.643-1.735-0.478
	c-0.446,0.122-0.766,0.527-1.063,0.852c-0.393,0.415-0.796,0.824-1.191,1.236C24.48,25.683,19.37,23.807,18.01,19.99"/>
</svg>
