<?xml version="1.0" encoding="utf-8"?>
<!-- Generator: Adobe Illustrator 16.0.3, SVG Export Plug-In . SVG Version: 6.00 Build 0)  -->
<!DOCTYPE svg PUBLIC "-//W3C//DTD SVG 1.1//EN" "http://www.w3.org/Graphics/SVG/1.1/DTD/svg11.dtd">
<svg version="1.1" id="Layer_1" xmlns="http://www.w3.org/2000/svg" xmlns:xlink="http://www.w3.org/1999/xlink" x="0px" y="0px"
	 width="16px" height="16px" viewBox="0 0 16 16" enable-background="new 0 0 16 16" xml:space="preserve">
<path fill-rule="evenodd" clip-rule="evenodd" fill="#999999" d="M7,5.079c-2.146,0-3.885,1.739-3.885,3.884
	c0,0.726,0.199,1.403,0.544,1.983L3.17,12.921l1.947-0.56c0.558,0.309,1.2,0.486,1.883,0.486c2.146,0,3.885-1.739,3.885-3.885
	S9.146,5.079,7,5.079 M6.018,8.656C6.063,8.604,6.108,8.552,6.153,8.5c0.076-0.088,0.189-0.173,0.195-0.299
	C6.354,8.081,6.31,7.959,6.267,7.85C6.24,7.779,6.211,7.708,6.184,7.637C6.135,7.508,6.071,7.327,6,7.251
	C5.904,7.148,5.738,7.127,5.607,7.19c0,0-0.762,0.366-0.528,1.1c0,0,0.455,2.066,2.742,2.491c0,0,0.82,0.117,1.04-0.381
	c0.048-0.107,0.08-0.259,0.072-0.376C8.926,9.911,8.846,9.835,8.752,9.782C8.632,9.712,8.524,9.648,8.387,9.58
	C8.268,9.521,8.131,9.435,7.994,9.472C7.894,9.5,7.821,9.592,7.753,9.666c-0.089,0.094-0.18,0.187-0.27,0.28
	C7.483,9.946,6.326,9.52,6.018,8.656z M7.044,12.204c-0.679,0-1.308-0.211-1.827-0.568l-1.108,0.319l0.283-1.143
	C4.031,10.292,3.819,9.66,3.819,8.978c0-1.781,1.443-3.225,3.225-3.225s3.225,1.443,3.225,3.225S8.825,12.204,7.044,12.204z M7,2
	c3.866,0,7,3.134,7,7c0,3.865-3.134,7-7,7s-7-3.135-7-7C0,5.134,3.134,2,7,2z"/>
</svg>
