<?xml version="1.0" encoding="utf-8"?>
<!-- Generator: Adobe Illustrator 16.0.3, SVG Export Plug-In . SVG Version: 6.00 Build 0)  -->
<!DOCTYPE svg PUBLIC "-//W3C//DTD SVG 1.1//EN" "http://www.w3.org/Graphics/SVG/1.1/DTD/svg11.dtd">
<svg version="1.1" id="Layer_1" xmlns="http://www.w3.org/2000/svg" xmlns:xlink="http://www.w3.org/1999/xlink" x="0px" y="0px"
	 width="16px" height="16px" viewBox="0 0 16 16" enable-background="new 0 0 16 16" xml:space="preserve">
<path fill="#808286" d="M7,5.079c-2.146,0-3.885,1.739-3.885,3.884c0,0.727,0.199,1.403,0.544,1.983L3.17,12.921l1.947-0.56
	c0.558,0.309,1.2,0.485,1.883,0.485c2.146,0,3.885-1.739,3.885-3.885C10.885,6.816,9.146,5.079,7,5.079 M6.018,8.656
	C6.063,8.604,6.108,8.552,6.153,8.5c0.076-0.088,0.189-0.173,0.195-0.299C6.354,8.081,6.31,7.959,6.267,7.85
	C6.24,7.779,6.211,7.708,6.184,7.637C6.135,7.508,6.071,7.327,6,7.251C5.904,7.148,5.738,7.127,5.607,7.19
	c0,0-0.762,0.366-0.528,1.1c0,0,0.455,2.065,2.742,2.491c0,0,0.82,0.117,1.041-0.381c0.048-0.107,0.08-0.26,0.072-0.377
	C8.926,9.911,8.846,9.835,8.752,9.782c-0.12-0.07-0.229-0.134-0.365-0.202C8.268,9.521,8.131,9.436,7.994,9.472
	c-0.1,0.028-0.173,0.12-0.241,0.194c-0.089,0.094-0.18,0.188-0.27,0.28C7.483,9.946,6.326,9.52,6.018,8.656z M7.044,12.204
	c-0.679,0-1.308-0.211-1.827-0.568l-1.108,0.319l0.283-1.143C4.031,10.292,3.819,9.66,3.819,8.979c0-1.781,1.443-3.226,3.225-3.226
	c1.782,0,3.226,1.443,3.226,3.226C10.27,10.76,8.825,12.204,7.044,12.204z M7,2c3.866,0,7,3.134,7,7c0,3.865-3.134,7-7,7
	s-7-3.135-7-7C0,5.134,3.134,2,7,2z"/>
</svg>
